<svg width="69" height="60" viewBox="0 0 69 60" fill="none" xmlns="http://www.w3.org/2000/svg">
<path d="M17.1482 12.0941C16.6788 13.6662 22.3976 25.8336 26.3934 27.0417L15.9577 45.3569C15.2143 40.246 12.8059 29.1787 12.6124 28.2585C12.3833 27.1692 9.26877 17.1433 8.40113 15.0534C7.46776 12.8051 6.2547 8.9424 9.66193 7.1623C11.6581 6.11942 13.0571 7.11603 13.8345 8.15291C14.2312 8.68202 14.9344 8.95621 15.5433 8.69829C16.6527 8.22841 18.0762 7.80506 18.5277 8.67829C19.3203 10.2112 17.735 10.129 17.1482 12.0941Z" fill="#87786A"/>
<path d="M7.99397 14.2179C6.20979 9.75744 8.05592 7.58917 9.202 7.06259L11.6181 6.41211L12.8261 7.06259L14.5917 8.54941L17.3795 7.806L18.2158 8.1777L18.5875 9.47867L17.0078 11.616V12.4523C14.7466 14.8993 9.77815 18.6783 7.99397 14.2179Z" fill="white"/>
<path fill-rule="evenodd" clip-rule="evenodd" d="M53.987 45.2464C53.875 45.7489 53.4186 46.0905 52.9038 46.0905H16.5916C16.0743 46.0905 15.6164 45.7457 15.5069 45.2401C15.3029 44.2974 15.1833 43.3268 15.1556 42.3347C14.886 32.6689 23.4431 24.6179 34.2685 24.3524C45.094 24.087 54.0883 31.7075 54.358 41.3733C54.395 42.7001 54.2657 43.9964 53.987 45.2464Z" fill="#87786A"/>
<path d="M23.5809 1.32309C26.867 1.33869 30.271 6.70754 31.5623 9.39001C30.0293 10.8031 24.0834 12.8119 21.302 13.6397C20.6924 9.52769 20.2948 1.30749 23.5809 1.32309Z" fill="white"/>
<path d="M25.5584 4.51721C26.9599 4.52386 28.4116 6.81352 28.9622 7.95752C28.3085 8.56015 25.7727 9.41687 24.5865 9.76991C24.3266 8.01623 24.157 4.51055 25.5584 4.51721Z" fill="#64584D"/>
<path d="M62.3637 11.2246C59.9558 9.34526 54.1628 11.1501 51.5673 12.2875C51.8151 14.1597 54.9163 18.9881 56.4359 21.1682C59.4151 18.6368 64.7715 13.104 62.3637 11.2246Z" fill="white"/>
<path d="M58.1805 12.3576C57.1473 11.5512 54.6615 12.3257 53.5478 12.8137C53.6541 13.6171 54.9849 15.6889 55.6369 16.6244C56.9153 15.5382 59.2137 13.1641 58.1805 12.3576Z" fill="#64584D"/>
<ellipse cx="38.85" cy="18.9534" rx="18.6781" ry="13.0096" transform="rotate(12.2916 38.85 18.9534)" fill="#F9AE63"/>
<path d="M21.7373 3.24043C19.3547 9.12437 21.121 11.7477 21.3753 12.2917" stroke="#64584D" stroke-width="1.24434" stroke-linecap="round"/>
<path d="M62.8649 13.0567C60.5092 18.6302 57.9298 19.6885 57.2348 19.8225" stroke="#64584D" stroke-width="1.24434" stroke-linecap="round"/>
<ellipse rx="1.64571" ry="1.02857" transform="matrix(0.949739 0.313043 0.313043 -0.949739 36.4153 9.9426)" fill="white"/>
<path d="M45.4052 11.7366C45.5035 11.1772 44.8576 10.596 43.9624 10.4386C43.0673 10.2812 42.2618 10.6072 42.1635 11.1667C42.0651 11.7261 42.711 12.3073 43.6062 12.4647C44.5014 12.6221 45.3068 12.2961 45.4052 11.7366Z" fill="white"/>
<path d="M23.759 1.3518C25.3427 1.35778 28.7023 3.80221 29.7412 6.08243" stroke="#64584D" stroke-width="1.24434" stroke-linecap="round"/>
<path d="M29.3133 6.41337C33.8731 4.89511 39.9164 5.97176 40.3951 6.18612" stroke="#64584D" stroke-width="1.24434" stroke-linecap="round"/>
<path d="M46.1313 7.79492C47.9408 8.52733 51.465 10.7831 53.3067 12.4017" stroke="#64584D" stroke-width="1.24434" stroke-linecap="round"/>
<path d="M52.5883 11.7694C55.1437 10.8345 60.6514 9.24647 62.6466 11.4382" stroke="#64584D" stroke-width="1.24434" stroke-linecap="round"/>
<path d="M22.4187 10.9979C20.1767 13.9134 18.9033 21.4547 25.0922 26.2269" stroke="#64584D" stroke-width="1.24434" stroke-linecap="round"/>
<path d="M56.872 18.5039C57.7286 21.3535 56.8737 30.079 47.2437 31.4997" stroke="#64584D" stroke-width="1.24434" stroke-linecap="round"/>
<path d="M41.5974 6.77986L43.5557 5.52223" stroke="#64584D" stroke-width="1.24434" stroke-linecap="round"/>
<path d="M44.0094 7.30542L46.1249 6.29258" stroke="#64584D" stroke-width="1.24434" stroke-linecap="round"/>
<path d="M30.9125 25.6551C29.433 20.7053 35.956 18.7028 38.9649 19.0207C40.6753 19.2555 42.9427 21.497 44.3474 24.6956C45.7522 27.8942 40.7875 29.2661 38.2334 29.7984C36.5491 30.1495 32.3916 30.6039 30.9125 25.6551Z" fill="white" stroke="white" stroke-width="1.24362" stroke-linecap="round"/>
<ellipse cx="38.5541" cy="20.8226" rx="1.87501" ry="1.3329" transform="rotate(12.2916 38.5541 20.8226)" fill="#64584D"/>
<path d="M35.6978 14.6523L35.2032 16.9222" stroke="#64584D" stroke-width="2.29873" stroke-linecap="round"/>
<path d="M43.1431 16.2734L42.6485 18.5433" stroke="#64584D" stroke-width="2.29873" stroke-linecap="round"/>
<path d="M47.3018 38.4707L47.3018 44.9755" stroke="#64584D" stroke-width="1.24362" stroke-linecap="round"/>
<path d="M50.5 30.5508C51.5989 31.3788 53.4281 35.0016 53.7966 37.3818C54.2911 40.5755 54.2087 43.5918 53.7966 45.0999" stroke="#64584D" stroke-width="1.24362" stroke-linecap="round"/>
<path d="M21.5126 23.3213C21.6905 23.6151 22.0728 23.7091 22.3666 23.5313C22.6604 23.3535 22.7544 22.9712 22.5766 22.6774L21.5126 23.3213ZM16.9905 11.7133L16.3947 11.5354L16.9905 11.7133ZM18.37 8.29743L17.8177 8.58302L18.37 8.29743ZM9.50421 6.78144L9.21628 6.23032L9.50421 6.78144ZM8.24342 14.6725L8.8177 14.4341L8.24342 14.6725ZM12.4547 27.8777L11.8462 28.0056L12.4547 27.8777ZM15.1847 45.0656C15.2341 45.4054 15.5497 45.6408 15.8895 45.5914C16.2294 45.542 16.4648 45.2264 16.4153 44.8865L15.1847 45.0656ZM15.3856 8.31743L15.1431 7.74486L15.3856 8.31743ZM22.5766 22.6774C21.6428 21.1345 20.272 18.7233 19.1957 16.5089C18.6567 15.4001 18.199 14.3556 17.9059 13.5013C17.7592 13.0735 17.6591 12.7085 17.6085 12.4161C17.5549 12.1068 17.5695 11.9474 17.5863 11.8912L16.3947 11.5354C16.2941 11.8722 16.3199 12.2631 16.3831 12.6282C16.4492 13.0101 16.5714 13.4435 16.7296 13.9047C17.0464 14.8285 17.529 15.9247 18.0772 17.0526C19.1752 19.3114 20.5661 21.7573 21.5126 23.3213L22.5766 22.6774ZM17.5863 11.8912C17.8311 11.0714 18.2542 10.7152 18.6621 10.2565C18.8593 10.0348 19.1015 9.73339 19.1817 9.32006C19.2647 8.89286 19.1558 8.46337 18.9223 8.01184L17.8177 8.58302C17.9805 8.89795 17.9706 9.03303 17.9609 9.08296C17.9485 9.14676 17.9063 9.23501 17.7329 9.43004C17.3996 9.80479 16.7367 10.39 16.3947 11.5354L17.5863 11.8912ZM18.9223 8.01184C18.5158 7.22567 17.6933 7.12161 17.0623 7.18508C16.414 7.25028 15.7095 7.50498 15.1431 7.74486L15.6281 8.88999C16.1711 8.66 16.7331 8.46808 17.1867 8.42245C17.6577 8.37508 17.7726 8.49596 17.8177 8.58302L18.9223 8.01184ZM14.1743 7.39904C13.7418 6.82218 13.1067 6.21444 12.2564 5.91117C11.382 5.5993 10.3534 5.6362 9.21628 6.23032L9.79215 7.33256C10.6511 6.8838 11.3201 6.89757 11.8386 7.08251C12.3812 7.27604 12.8344 7.68504 13.1793 8.14506L14.1743 7.39904ZM9.21628 6.23032C8.26354 6.72807 7.60616 7.38822 7.1918 8.15304C6.78052 8.91221 6.62758 9.73914 6.62429 10.5489C6.61778 12.1499 7.19756 13.775 7.66913 14.911L8.8177 14.4341C8.3559 13.3217 7.86246 11.8914 7.86789 10.5539C7.87057 9.89447 7.99488 9.28143 8.28526 8.74543C8.57258 8.21509 9.04128 7.72486 9.79215 7.33256L9.21628 6.23032ZM7.66913 14.911C8.08996 15.9246 9.07633 18.9226 9.99549 21.8373C10.917 24.7595 11.7397 27.4992 11.8462 28.0056L13.0632 27.7497C12.9406 27.1668 12.0915 24.3489 11.1815 21.4633C10.2692 18.5703 9.26451 15.5104 8.8177 14.4341L7.66913 14.911ZM11.8462 28.0056C12.0432 28.9424 14.445 39.98 15.1847 45.0656L16.4153 44.8865C15.6683 39.7503 13.2532 28.6533 13.0632 27.7497L11.8462 28.0056ZM15.1431 7.74486C14.857 7.86605 14.4417 7.75565 14.1743 7.39904L13.1793 8.14506C13.7053 8.84667 14.6964 9.28464 15.6281 8.88999L15.1431 7.74486Z" fill="#64584D"/>
<path d="M13.7555 7.89844C14.406 9.0755 14.7034 11.5783 10.689 11.8013" stroke="#64584D" stroke-width="1.24362" stroke-linecap="round"/>
<rect x="0.5" y="36.2012" width="68" height="23" fill="white" stroke="#FF9800"/>
<path d="M11.016 51.8452C10.368 51.8452 9.764 51.7412 9.204 51.5332C8.652 51.3172 8.172 51.0132 7.764 50.6212C7.356 50.2292 7.036 49.7692 6.804 49.2412C6.58 48.7132 6.468 48.1332 6.468 47.5012C6.468 46.8692 6.58 46.2892 6.804 45.7612C7.036 45.2332 7.356 44.7732 7.764 44.3812C8.18 43.9892 8.664 43.6892 9.216 43.4812C9.768 43.2652 10.372 43.1572 11.028 43.1572C11.756 43.1572 12.412 43.2852 12.996 43.5412C13.588 43.7892 14.084 44.1572 14.484 44.6452L13.236 45.7972C12.948 45.4692 12.628 45.2252 12.276 45.0652C11.924 44.8972 11.54 44.8132 11.124 44.8132C10.732 44.8132 10.372 44.8772 10.044 45.0052C9.716 45.1332 9.432 45.3172 9.192 45.5572C8.952 45.7972 8.764 46.0812 8.628 46.4092C8.5 46.7372 8.436 47.1012 8.436 47.5012C8.436 47.9012 8.5 48.2652 8.628 48.5932C8.764 48.9212 8.952 49.2052 9.192 49.4452C9.432 49.6852 9.716 49.8692 10.044 49.9972C10.372 50.1252 10.732 50.1892 11.124 50.1892C11.54 50.1892 11.924 50.1092 12.276 49.9492C12.628 49.7812 12.948 49.5292 13.236 49.1932L14.484 50.3452C14.084 50.8332 13.588 51.2052 12.996 51.4612C12.412 51.7172 11.752 51.8452 11.016 51.8452ZM19.701 51.8452C19.037 51.8452 18.421 51.7372 17.853 51.5212C17.293 51.3052 16.805 51.0012 16.389 50.6092C15.981 50.2172 15.661 49.7572 15.429 49.2292C15.205 48.7012 15.093 48.1252 15.093 47.5012C15.093 46.8772 15.205 46.3012 15.429 45.7732C15.661 45.2452 15.985 44.7852 16.401 44.3932C16.817 44.0012 17.305 43.6972 17.865 43.4812C18.425 43.2652 19.033 43.1572 19.689 43.1572C20.353 43.1572 20.961 43.2652 21.513 43.4812C22.073 43.6972 22.557 44.0012 22.965 44.3932C23.381 44.7852 23.705 45.2452 23.937 45.7732C24.169 46.2932 24.285 46.8692 24.285 47.5012C24.285 48.1252 24.169 48.7052 23.937 49.2412C23.705 49.7692 23.381 50.2292 22.965 50.6212C22.557 51.0052 22.073 51.3052 21.513 51.5212C20.961 51.7372 20.357 51.8452 19.701 51.8452ZM19.689 50.1892C20.065 50.1892 20.409 50.1252 20.721 49.9972C21.041 49.8692 21.321 49.6852 21.561 49.4452C21.801 49.2052 21.985 48.9212 22.113 48.5932C22.249 48.2652 22.317 47.9012 22.317 47.5012C22.317 47.1012 22.249 46.7372 22.113 46.4092C21.985 46.0812 21.801 45.7972 21.561 45.5572C21.329 45.3172 21.053 45.1332 20.733 45.0052C20.413 44.8772 20.065 44.8132 19.689 44.8132C19.313 44.8132 18.965 44.8772 18.645 45.0052C18.333 45.1332 18.057 45.3172 17.817 45.5572C17.577 45.7972 17.389 46.0812 17.253 46.4092C17.125 46.7372 17.061 47.1012 17.061 47.5012C17.061 47.8932 17.125 48.2572 17.253 48.5932C17.389 48.9212 17.573 49.2052 17.805 49.4452C18.045 49.6852 18.325 49.8692 18.645 49.9972C18.965 50.1252 19.313 50.1892 19.689 50.1892ZM29.478 51.8452C28.286 51.8452 27.354 51.5132 26.682 50.8492C26.01 50.1852 25.674 49.2372 25.674 48.0052V43.3012H27.618V47.9332C27.618 48.7332 27.782 49.3092 28.11 49.6612C28.438 50.0132 28.898 50.1892 29.49 50.1892C30.082 50.1892 30.542 50.0132 30.87 49.6612C31.198 49.3092 31.362 48.7332 31.362 47.9332V43.3012H33.282V48.0052C33.282 49.2372 32.946 50.1852 32.274 50.8492C31.602 51.5132 30.67 51.8452 29.478 51.8452ZM35.203 51.7012V43.3012H38.839C39.591 43.3012 40.239 43.4252 40.783 43.6732C41.327 43.9132 41.747 44.2612 42.043 44.7172C42.339 45.1732 42.487 45.7172 42.487 46.3492C42.487 46.9732 42.339 47.5132 42.043 47.9692C41.747 48.4252 41.327 48.7772 40.783 49.0252C40.239 49.2652 39.591 49.3852 38.839 49.3852H36.283L37.147 48.5092V51.7012H35.203ZM37.147 48.7252L36.283 47.8012H38.731C39.331 47.8012 39.779 47.6732 40.075 47.4172C40.371 47.1612 40.519 46.8052 40.519 46.3492C40.519 45.8852 40.371 45.5252 40.075 45.2692C39.779 45.0132 39.331 44.8852 38.731 44.8852H36.283L37.147 43.9612V48.7252ZM48.0721 51.8452C47.4081 51.8452 46.7921 51.7372 46.2241 51.5212C45.6641 51.3052 45.1761 51.0012 44.7601 50.6092C44.3521 50.2172 44.0321 49.7572 43.8001 49.2292C43.5761 48.7012 43.4641 48.1252 43.4641 47.5012C43.4641 46.8772 43.5761 46.3012 43.8001 45.7732C44.0321 45.2452 44.3561 44.7852 44.7721 44.3932C45.1881 44.0012 45.6761 43.6972 46.2361 43.4812C46.7961 43.2652 47.4041 43.1572 48.0601 43.1572C48.7241 43.1572 49.3321 43.2652 49.8841 43.4812C50.4441 43.6972 50.9281 44.0012 51.3361 44.3932C51.7521 44.7852 52.0761 45.2452 52.3081 45.7732C52.5401 46.2932 52.6561 46.8692 52.6561 47.5012C52.6561 48.1252 52.5401 48.7052 52.3081 49.2412C52.0761 49.7692 51.7521 50.2292 51.3361 50.6212C50.9281 51.0052 50.4441 51.3052 49.8841 51.5212C49.3321 51.7372 48.7281 51.8452 48.0721 51.8452ZM48.0601 50.1892C48.4361 50.1892 48.7801 50.1252 49.0921 49.9972C49.4121 49.8692 49.6921 49.6852 49.9321 49.4452C50.1721 49.2052 50.3561 48.9212 50.4841 48.5932C50.6201 48.2652 50.6881 47.9012 50.6881 47.5012C50.6881 47.1012 50.6201 46.7372 50.4841 46.4092C50.3561 46.0812 50.1721 45.7972 49.9321 45.5572C49.7001 45.3172 49.4241 45.1332 49.1041 45.0052C48.7841 44.8772 48.4361 44.8132 48.0601 44.8132C47.6841 44.8132 47.3361 44.8772 47.0161 45.0052C46.7041 45.1332 46.4281 45.3172 46.1881 45.5572C45.9481 45.7972 45.7601 46.0812 45.6241 46.4092C45.4961 46.7372 45.4321 47.1012 45.4321 47.5012C45.4321 47.8932 45.4961 48.2572 45.6241 48.5932C45.7601 48.9212 45.9441 49.2052 46.1761 49.4452C46.4161 49.6852 46.6961 49.8692 47.0161 49.9972C47.3361 50.1252 47.6841 50.1892 48.0601 50.1892ZM54.1171 51.7012V43.3012H55.7251L60.6811 49.3492H59.9011V43.3012H61.8211V51.7012H60.2251L55.2571 45.6532H56.0371V51.7012H54.1171Z" fill="#FC6406"/>
</svg>
