<svg width="272" height="131" viewBox="0 0 272 131" fill="none" xmlns="http://www.w3.org/2000/svg">
<path d="M46.3425 89.4442C43.3247 87.8824 40.8068 85.5035 39.0764 82.5791C37.3661 79.537 36.4678 76.1058 36.4678 72.6158C36.4678 69.1258 37.3661 65.6946 39.0764 62.6525C40.8055 59.7466 43.3071 57.3776 46.3027 55.8091C49.3812 54.1663 52.8968 53.3437 56.8496 53.3413C60.5639 53.3413 63.8158 54.0941 66.6052 55.5995C69.3437 57.0458 71.5536 59.3227 72.9174 62.1033L66.1463 66.0525C65.164 64.4122 63.7654 63.061 62.0923 62.1358C60.4535 61.264 58.6227 60.8157 56.7665 60.8314C53.4713 60.8314 50.7433 61.9021 48.5827 64.0435C46.422 66.1849 45.338 69.0418 45.3308 72.614C45.3308 76.1886 46.4003 79.0442 48.5393 81.1808C50.6783 83.3174 53.4183 84.3881 56.7593 84.393C58.6157 84.4104 60.4468 83.9619 62.0851 83.0886C63.7743 82.1569 65.183 80.7894 66.1644 79.1286L72.9355 83.103C71.5167 85.8687 69.2899 88.1371 66.551 89.6068C63.7544 91.1363 60.5218 91.8999 56.8532 91.8975C53.2007 91.9611 49.5894 91.1182 46.3425 89.4442Z" fill="#FC7521"/>
<path d="M115.567 53.7497V91.4134H107.174V86.8716C105.729 88.6566 103.922 89.6791 101.776 90.5715C99.5255 91.486 97.1154 91.9418 94.6867 91.912C91.2554 91.9711 87.8669 91.1448 84.848 89.5129C81.9898 87.95 79.6398 85.6 78.0769 82.7418C76.4534 79.8272 75.6416 76.4416 75.6416 72.5851C75.6416 68.7287 76.4534 65.3564 78.0769 62.4682C79.6485 59.6258 81.9972 57.2897 84.848 55.7333C87.8669 54.1013 91.2554 53.275 94.6867 53.3341C96.9949 53.3075 99.2855 53.7398 101.425 54.606C103.455 55.4413 105.275 56.7174 106.751 58.342V53.7497H115.567ZM103.716 81.1195C105.833 78.9516 106.892 76.1068 106.892 72.5851C106.892 69.0635 105.833 66.2175 103.716 64.0472C101.601 61.8793 98.9213 60.7953 95.6767 60.7953C92.432 60.7953 89.7631 61.8793 87.6699 64.0472C85.5766 66.2151 84.53 69.0611 84.53 72.5851C84.53 76.1092 85.5766 78.954 87.6699 81.1195C89.7631 83.2874 92.432 84.3713 95.6767 84.3713C98.9213 84.3713 101.601 83.2874 103.716 81.1195Z" fill="#FC7521"/>
<path d="M129.673 51.7768V54.0314H140.039V61.088H129.883V91.4134H121.066V51.6323C121.066 47.6385 122.242 44.4649 124.593 42.1115C126.944 39.7582 130.282 38.5827 134.609 38.5851C137.947 38.5851 140.581 39.2668 142.511 40.6301L140.039 47.2603C138.653 46.2342 136.969 45.6899 135.245 45.7103C131.53 45.7103 129.673 47.7324 129.673 51.7768Z" fill="#FC7521"/>
<path d="M172.297 80.3426L176.955 85.7624C175.269 87.8136 173.081 89.3933 170.603 90.3475C167.815 91.4211 164.846 91.9486 161.859 91.9012C157.718 91.9012 154.074 91.0786 150.926 89.4334C147.884 87.8923 145.349 85.5093 143.623 82.5683C141.882 79.5343 140.993 76.0863 141.051 72.5887C140.999 69.1224 141.863 65.7037 143.555 62.6778C145.175 59.7909 147.569 57.4135 150.467 55.8128C153.524 54.1379 156.964 53.2875 160.45 53.345C163.798 53.3038 167.105 54.0907 170.075 55.6357C172.931 57.1391 175.309 59.412 176.94 62.1972C178.627 65.0444 179.47 68.3722 179.47 72.1805L150.618 77.8206C151.456 79.908 152.984 81.645 154.947 82.7418C156.92 83.8691 159.294 84.4327 162.069 84.4327C166.161 84.4327 169.571 83.0694 172.297 80.3426ZM152.584 63.5558C150.582 65.6731 149.583 68.5179 149.585 72.0901V72.1624L170.903 68.0687C170.334 65.8451 169.022 63.8829 167.185 62.508C165.328 61.0988 163.083 60.3931 160.45 60.3907C157.203 60.3834 154.581 61.4385 152.584 63.5558Z" fill="#FC7521"/>
<path d="M184.449 47.6469C183.936 47.1611 183.528 46.5759 183.249 45.927C182.97 45.2782 182.826 44.5793 182.826 43.873C182.826 43.1667 182.97 42.4678 183.249 41.8189C183.528 41.17 183.936 40.5848 184.449 40.099C185.539 39.0865 186.983 38.5429 188.47 38.5851C189.945 38.5403 191.383 39.0568 192.492 40.0304C193.011 40.4767 193.425 41.0318 193.705 41.6562C193.986 42.2806 194.125 42.9591 194.114 43.6435C194.131 44.3703 193.998 45.0929 193.725 45.7665C193.451 46.4401 193.043 47.0506 192.524 47.5602C191.993 48.0873 191.359 48.4999 190.661 48.7727C189.964 49.0455 189.218 49.1727 188.47 49.1464C186.985 49.1941 185.54 48.6555 184.449 47.6469Z" fill="#FC7521"/>
<path d="M192.846 53.7496H184.03V91.417H192.846V53.7496Z" fill="#FC7521"/>
<path d="M231.243 57.4893C234.112 60.2642 235.547 64.3784 235.547 69.8319V91.4134H226.73V70.9628C226.73 67.67 225.954 65.1889 224.4 63.5197C222.846 61.8504 220.636 61.0157 217.77 61.0157C214.525 61.0157 211.963 61.9913 210.085 63.9424C208.206 65.8935 207.264 68.7034 207.259 72.3719V91.4134H198.443V53.7496H206.84V58.2986C208.285 56.5571 210.128 55.5598 212.339 54.6854C214.723 53.7607 217.262 53.3055 219.818 53.3449C224.557 53.3329 228.365 54.7143 231.243 57.4893Z" fill="#FC7521"/>
</svg>
