<svg width="66" height="20" viewBox="0 0 66 20" fill="none" xmlns="http://www.w3.org/2000/svg">
<path d="M3.27373 18.1282C2.27324 17.6036 1.43851 16.8044 0.864822 15.822C0.29783 14.8 0 13.6473 0 12.4749C0 11.3024 0.29783 10.1498 0.864822 9.12777C1.43808 8.15157 2.26743 7.35573 3.26055 6.82879C4.28113 6.27691 5.44665 6.00057 6.75711 5.99976C7.98852 5.99976 9.0666 6.25263 9.99135 6.75839C10.8993 7.24426 11.6319 8.00916 12.084 8.94327L9.83922 10.27C9.51357 9.71895 9.04989 9.265 8.49522 8.95419C7.95189 8.66133 7.34495 8.51071 6.72956 8.516C5.63711 8.516 4.73273 8.8757 4.0164 9.59509C3.30008 10.3145 2.94072 11.2742 2.93832 12.4743C2.93832 13.6751 3.29289 14.6345 4.00203 15.3522C4.71116 16.07 5.61954 16.4297 6.72717 16.4313C7.34262 16.4372 7.9497 16.2865 8.49282 15.9931C9.05285 15.6801 9.51985 15.2207 9.84521 14.6628L12.09 15.998C11.6197 16.9271 10.8814 17.6891 9.97338 18.1829C9.04623 18.6967 7.97455 18.9532 6.75831 18.9524C5.54741 18.9738 4.35017 18.6906 3.27373 18.1282Z" fill="#8B8B8B"/>
<path d="M26.2237 6.13717V18.79H23.4411V17.2642C22.9619 17.8639 22.363 18.2074 21.6515 18.5072C20.9055 18.8144 20.1064 18.9675 19.3012 18.9575C18.1637 18.9774 17.0403 18.6998 16.0395 18.1515C15.0919 17.6265 14.3128 16.837 13.7947 15.8768C13.2564 14.8977 12.9873 13.7604 12.9873 12.4648C12.9873 11.1693 13.2564 10.0364 13.7947 9.06611C14.3157 8.11121 15.0943 7.32642 16.0395 6.80355C17.0403 6.25531 18.1637 5.97773 19.3012 5.99758C20.0665 5.98862 20.8259 6.13386 21.5353 6.42484C22.2083 6.70547 22.8114 7.13417 23.3009 7.67993V6.13717H26.2237ZM22.2947 15.3318C22.9967 14.6035 23.3476 13.6479 23.3476 12.4648C23.3476 11.2817 22.9967 10.3256 22.2947 9.59655C21.5936 8.86826 20.7051 8.50411 19.6295 8.50411C18.5538 8.50411 17.669 8.86826 16.975 9.59655C16.281 10.3248 15.934 11.2809 15.934 12.4648C15.934 13.6487 16.281 14.6044 16.975 15.3318C17.669 16.0601 18.5538 16.4243 19.6295 16.4243C20.7051 16.4243 21.5936 16.0601 22.2947 15.3318Z" fill="#8B8B8B"/>
<path d="M30.9002 5.47438V6.2318H34.3369V8.60239H30.9697V18.79H28.0469V5.42582C28.0469 4.08415 28.4366 3.01801 29.216 2.22741C29.9954 1.43681 31.1022 1.04192 32.5365 1.04273C33.6433 1.04273 34.5165 1.27173 35.1562 1.72975L34.3369 3.9571C33.8773 3.6124 33.319 3.42952 32.7473 3.43638C31.5159 3.43638 30.9002 4.11571 30.9002 5.47438Z" fill="#8B8B8B"/>
<path d="M45.0314 15.0708L46.5754 16.8915C46.0165 17.5806 45.291 18.1113 44.4696 18.4319C43.5452 18.7925 42.5611 18.9697 41.5707 18.9538C40.198 18.9538 38.9897 18.6775 37.946 18.1248C36.9376 17.6071 36.0973 16.8065 35.5251 15.8185C34.948 14.7993 34.6533 13.6409 34.6722 12.466C34.6552 11.3015 34.9415 10.153 35.5024 9.13646C36.0396 8.16664 36.8332 7.36794 37.7939 6.8302C38.8074 6.26756 39.948 5.98185 41.1036 6.00116C42.2136 5.98734 43.3098 6.2517 44.2947 6.77072C45.2415 7.27576 46.0299 8.03935 46.5706 8.97502C47.1296 9.93151 47.4091 11.0494 47.4091 12.3288L37.8442 14.2236C38.1218 14.9248 38.6283 15.5083 39.2792 15.8768C39.9333 16.2555 40.7203 16.4449 41.6402 16.4449C42.997 16.4449 44.1274 15.9868 45.0314 15.0708ZM38.4958 9.43141C37.8322 10.1427 37.5008 11.0984 37.5016 12.2985V12.3227L44.569 10.9475C44.3806 10.2005 43.9456 9.54131 43.3364 9.07941C42.7207 8.60602 41.9764 8.36892 41.1036 8.36811C40.0271 8.36568 39.1578 8.72012 38.4958 9.43141Z" fill="#8B8B8B"/>
<path d="M49.0595 4.08691C48.8896 3.92369 48.7542 3.7271 48.6617 3.50912C48.5692 3.29115 48.5215 3.05635 48.5215 2.81907C48.5215 2.58179 48.5692 2.347 48.6617 2.12902C48.7542 1.91105 48.8896 1.71445 49.0595 1.55124C49.4209 1.21111 49.8997 1.02846 50.3928 1.04265C50.8818 1.0276 51.3583 1.20112 51.726 1.52818C51.898 1.67812 52.0354 1.8646 52.1284 2.07437C52.2213 2.28414 52.2676 2.51208 52.2638 2.742C52.2693 2.98616 52.2254 3.22888 52.1347 3.45518C52.0441 3.68148 51.9087 3.88656 51.7368 4.05778C51.5605 4.23484 51.3503 4.37347 51.1192 4.46511C50.888 4.55675 50.6408 4.59948 50.3928 4.59064C49.9003 4.60667 49.4214 4.42572 49.0595 4.08691Z" fill="#8B8B8B"/>
<path d="M51.8437 6.13696H48.9209V18.791H51.8437V6.13696Z" fill="#8B8B8B"/>
<path d="M64.5734 7.39329C65.5245 8.3255 66.0001 9.70763 66.0001 11.5397V18.7898H63.0773V11.9196C63.0773 10.8134 62.8198 9.97993 62.3047 9.41915C61.7896 8.85836 61.0569 8.57797 60.1066 8.57797C59.0309 8.57797 58.1816 8.9057 57.5587 9.56117C56.9359 10.2166 56.6236 11.1606 56.622 12.393V18.7898H53.6992V6.13698H56.4831V7.66518C56.9622 7.08012 57.5731 6.74511 58.3062 6.45136C59.0964 6.14072 59.9383 5.9878 60.7858 6.00104C62.3566 5.99699 63.6191 6.46107 64.5734 7.39329Z" fill="#8B8B8B"/>
</svg>
