<svg width="72" height="72" viewBox="0 0 72 72" fill="none" xmlns="http://www.w3.org/2000/svg">
<circle cx="36" cy="36" r="36" fill="#FFF7E0"/>
<mask id="mask0_762_5983" style="mask-type:alpha" maskUnits="userSpaceOnUse" x="0" y="0" width="72" height="72">
<circle cx="36" cy="36" r="36" fill="#EFEFEF"/>
</mask>
<g mask="url(#mask0_762_5983)">
<path d="M12.0221 18.5043C8.73453 20.7964 11.9772 29.6299 13.985 31.7114C15.9927 33.7929 23.4613 22.7502 23.4613 22.7502C23.4613 22.7502 16.0789 15.6737 12.0221 18.5043Z" fill="white"/>
<path d="M59.9316 18.4652C63.2192 20.7573 59.9765 29.5908 57.9687 31.6723C55.961 33.7539 48.4924 22.7111 48.4924 22.7111C48.4924 22.7111 55.8748 15.6346 59.9316 18.4652Z" fill="white"/>
<path d="M14.8468 33.6485C14.8468 33.6485 14.8158 33.6485 14.802 33.6485C14.626 33.6347 14.4674 33.5484 14.3639 33.4069C11.8283 29.9964 10.7796 26.9276 10.345 24.9531C10.2725 24.6286 10.4795 24.3041 10.8038 24.2351C11.1281 24.1626 11.4523 24.3697 11.5248 24.6942C11.9111 26.4443 12.8115 29.1127 14.9262 32.1193L23.5677 23.5378C18.9175 18.5601 13.9051 17.2829 12.2802 18.598C11.6076 19.1435 11.2177 20.3516 11.2074 21.9154C11.2074 22.2468 10.9349 22.516 10.6037 22.516H10.6002C10.2656 22.516 10 22.2433 10 21.9085C10.0138 19.9547 10.552 18.4462 11.5213 17.6626C13.8844 15.7502 19.804 17.5003 24.8544 23.1581C25.0683 23.3962 25.0579 23.7622 24.8302 23.99L15.278 33.4759C15.1642 33.5898 15.0124 33.652 14.8537 33.652L14.8468 33.6485Z" fill="#515151"/>
<path d="M15.012 21.5745C15.9642 20.8289 18.5238 21.6643 20.604 24.2118C19.8968 24.7089 19.1275 25.3026 18.3375 26.0137C17.4889 26.7732 16.7714 27.5222 16.1642 28.2195C14.0875 25.3164 14.0289 22.3478 15.012 21.578V21.5745Z" fill="#515151"/>
<path d="M57.1464 33.652C56.9877 33.652 56.8359 33.5898 56.7221 33.4759L47.1699 23.99C46.9422 23.7622 46.9318 23.3997 47.1457 23.1581C52.1961 17.5003 58.1157 15.7502 60.4788 17.6626C61.4447 18.4462 61.9863 19.9547 62.0001 21.9085C62.0001 22.2433 61.7345 22.5126 61.3999 22.516C61.0687 22.5333 60.7962 22.2502 60.7927 21.9154C60.7824 20.3516 60.3925 19.1435 59.7199 18.598C58.095 17.2829 53.0861 18.5601 48.4359 23.5378L57.0774 32.1193C59.192 29.1092 60.0924 26.4409 60.4788 24.6942C60.5512 24.3697 60.8721 24.1626 61.1963 24.2351C61.5206 24.3076 61.7276 24.6286 61.6551 24.9531C61.2205 26.9276 60.1718 29.9964 57.6362 33.4069C57.5327 33.5484 57.3706 33.6347 57.1981 33.6485C57.1843 33.6485 57.1671 33.6485 57.1533 33.6485L57.1464 33.652Z" fill="#515151"/>
<path d="M56.981 21.5745C56.0289 20.8289 53.4692 21.6643 51.389 24.2118C52.0962 24.7089 52.8655 25.3026 53.6555 26.0137C54.5041 26.7732 55.2216 27.5222 55.8288 28.2195C57.9055 25.3164 57.9642 22.3478 56.981 21.578V21.5745Z" fill="#515151"/>
<path d="M60.2514 37.0933C60.2859 41.9778 57.6917 46.4929 53.3313 49.8344C48.9709 53.1724 42.896 55.2885 36.138 55.3437C29.3801 55.3989 23.2741 53.383 18.8689 50.1175C14.4601 46.8485 11.8039 42.3748 11.7694 37.4937C11.7349 32.6092 14.3291 28.0941 18.6895 24.7526C23.0499 21.4146 29.1248 19.2985 35.8828 19.2433C42.6407 19.1881 48.7467 21.204 53.1519 24.4695C57.5606 27.7385 60.2169 32.2122 60.2514 37.0933Z" fill="#EEB070"/>
<path d="M33.8651 20.1292C33.741 20.1292 33.6168 20.0947 33.503 20.0222C33.1925 19.8221 33.1029 19.4079 33.3029 19.0973C33.9721 18.0584 35.3655 16.7158 36.2485 16.1152C36.5555 15.9081 36.9694 15.9875 37.1798 16.2947C37.3868 16.6019 37.3074 17.016 37.0004 17.2266C36.2451 17.7408 34.9827 18.9592 34.4308 19.8255C34.3032 20.0257 34.0859 20.1327 33.8686 20.1327L33.8651 20.1292Z" fill="#515151"/>
<path d="M36.4899 20.0914C36.3347 20.0914 36.1795 20.0396 36.0553 19.9292C35.7759 19.6876 35.7449 19.2665 35.9829 18.9835C36.79 18.0447 38.3559 16.9126 39.3148 16.4398C39.6459 16.2776 40.046 16.4122 40.2116 16.7435C40.3737 17.0748 40.2392 17.4752 39.908 17.6409C39.0871 18.0447 37.6695 19.0767 37.0004 19.8567C36.8693 20.012 36.6796 20.0914 36.4933 20.0914H36.4899Z" fill="#515151"/>
<path d="M35.8343 55.9996C29.2695 55.9996 23.098 54.101 18.4271 50.6353C13.7045 47.1316 11.0827 42.4542 11.0448 37.4592C11.0103 32.4712 13.5562 27.7558 18.2201 24.1761C21.3456 21.4319 26.7305 19.3296 31.9499 18.8222C32.3329 18.7842 32.6709 19.0638 32.7089 19.447C32.7468 19.8302 32.4674 20.1684 32.0845 20.2064C27.2032 20.6828 21.9941 22.7056 19.1205 25.2359C19.1102 25.2463 19.0964 25.2566 19.0826 25.267C14.7636 28.5739 12.404 32.9027 12.435 37.4489C12.4661 41.9951 14.8877 46.2824 19.2551 49.5203C23.7535 52.8549 29.7421 54.6568 36.1034 54.6085C42.4715 54.5567 48.4291 52.6512 52.8792 49.2407C57.1983 45.9337 59.5579 41.605 59.5268 37.0588C59.4958 32.5126 57.0741 28.2253 52.7068 24.9874C49.2191 22.4018 43.6479 20.379 39.1598 20.0649C38.7769 20.0373 38.4871 19.7059 38.5147 19.3227C38.5423 18.9396 38.8735 18.653 39.2564 18.6772C43.9825 19.0086 49.8539 21.1419 53.5347 23.8689C58.2573 27.3726 60.8791 32.05 60.917 37.045C60.955 42.0399 58.3988 46.7622 53.7244 50.3419C49.0363 53.9319 42.782 55.9409 36.1172 55.9962C36.024 55.9962 35.9309 55.9962 35.8377 55.9962L35.8343 55.9996Z" fill="#515151"/>
<path d="M30.3495 34.9102C29.6493 34.9171 29.0836 35.4901 29.0871 36.1907C29.0871 36.5324 29.225 36.8499 29.4665 37.0881C29.7045 37.3228 30.0218 37.4539 30.3598 37.4539H30.3702C31.0703 37.447 31.636 36.8741 31.6326 36.1734C31.6326 35.8318 31.4946 35.5142 31.2531 35.2761C31.0117 35.0379 30.6909 34.9068 30.3495 34.9102Z" fill="#515151"/>
<path d="M40.5988 34.9102H40.5885C39.8883 34.9171 39.3226 35.49 39.3261 36.1941C39.3261 36.5323 39.464 36.8533 39.7055 37.0915C39.9435 37.3262 40.2608 37.4573 40.5988 37.4573H40.6092C40.9472 37.4573 41.268 37.3193 41.506 37.0777C41.7439 36.8361 41.875 36.5151 41.8716 36.1734C41.8647 35.4762 41.2956 34.9102 40.5988 34.9102Z" fill="#515151"/>
<path d="M44.449 40.4232C43.966 39.2738 41.8203 39.5603 39.3365 39.8882C38.2085 40.0401 37.0425 40.1954 36.3181 40.1402C35.7454 40.0988 35.19 40.0539 34.6588 40.0125C29.9637 39.6431 26.5692 39.3773 25.7516 41.9973C25.5171 42.7533 25.7585 43.2469 26.0035 43.53C26.5658 44.1755 27.7456 44.4137 29.2634 44.4137C30.9124 44.4137 32.9615 44.1341 35.0451 43.7889C35.4073 43.7302 35.6937 43.6819 35.88 43.6577C36.4181 43.5852 37.5358 43.7785 38.6156 43.9649C40.6026 44.3067 42.4792 44.6243 43.3623 44.0374C44.6353 43.1848 45.0423 41.8351 44.449 40.4267V40.4232Z" fill="white"/>
<path d="M35.6018 40.7609C36.5923 40.7533 37.3916 40.2651 37.3871 39.6703C37.3825 39.0756 36.5758 38.5997 35.5853 38.6073C34.5947 38.6149 33.7954 39.1032 33.8 39.6979C33.8046 40.2926 34.6113 40.7686 35.6018 40.7609Z" fill="#515151"/>
</g>
</svg>
