<svg width="72" height="72" viewBox="0 0 72 72" fill="none" xmlns="http://www.w3.org/2000/svg">
<circle cx="36" cy="36" r="36" fill="#FFF7E0"/>
<mask id="mask0_762_5985" style="mask-type:alpha" maskUnits="userSpaceOnUse" x="0" y="0" width="72" height="72">
<circle cx="36" cy="36" r="36" fill="#EFEFEF"/>
</mask>
<g mask="url(#mask0_762_5985)">
<path d="M12.0597 18.4655C8.77216 20.7584 12.0148 29.5952 14.0225 31.6775C16.0302 33.7598 23.4987 22.7129 23.4987 22.7129C23.4987 22.7129 16.1165 15.6338 12.0597 18.4655Z" fill="white"/>
<path d="M59.9683 18.4069C63.2558 20.6998 60.0132 29.5366 58.0055 31.6189C55.9978 33.7012 48.5293 22.6543 48.5293 22.6543C48.5293 22.6543 55.9115 15.5752 59.9683 18.4069Z" fill="white"/>
<path d="M14.8502 33.7133C14.8502 33.7133 14.8192 33.7133 14.8054 33.7133C14.6294 33.6995 14.4707 33.6132 14.3673 33.4716C11.8283 30.0564 10.7796 26.9899 10.345 25.0146C10.2725 24.69 10.4795 24.3654 10.8038 24.2964C11.128 24.2239 11.4523 24.4311 11.5213 24.7557C11.9077 26.5064 12.808 29.1758 14.9226 32.1835L23.564 23.5988C18.9139 18.6193 13.905 17.3416 12.2802 18.6607C11.6075 19.2063 11.2177 20.415 11.2074 21.9793C11.2074 22.3108 10.9349 22.5801 10.6037 22.5801H10.6002C10.2656 22.5732 10 22.3039 10 21.9689C10.0138 20.0144 10.5519 18.5053 11.5213 17.7214C13.8843 15.8084 19.8039 17.5591 24.8542 23.219C25.0681 23.4572 25.0577 23.8233 24.83 24.0512L15.2745 33.5407C15.1607 33.6546 15.0089 33.7168 14.8502 33.7168V33.7133Z" fill="#515151"/>
<path d="M15.0169 21.6332C15.969 20.8873 18.5287 21.723 20.6088 24.2715C19.9016 24.7688 19.1323 25.3627 18.3424 26.0741C17.4938 26.8338 16.7762 27.5831 16.1691 28.2807C14.0924 25.3765 14.0338 22.4068 15.0169 21.6367V21.6332Z" fill="#515151"/>
<path d="M57.1497 33.7149C56.991 33.7149 56.8392 33.6527 56.7253 33.5387L47.1733 24.0493C46.9456 23.8214 46.9352 23.4588 47.1491 23.2171C52.196 17.5607 58.1156 15.8064 60.4786 17.723C61.4445 18.5069 61.9861 20.0159 61.9999 21.9704C61.9999 22.3054 61.7342 22.5748 61.3996 22.5782H61.3962C61.065 22.5782 60.7959 22.3089 60.7925 21.9773C60.7821 20.413 60.3923 19.2044 59.7196 18.6588C58.0949 17.3431 53.086 18.6208 48.4358 23.6004L57.0772 32.1851C59.1884 29.1739 60.0922 26.5045 60.4786 24.7572C60.551 24.4326 60.8718 24.2254 61.1995 24.2979C61.5238 24.3704 61.7308 24.6916 61.6583 25.0162C61.2237 26.9914 60.175 30.0613 57.6395 33.4731C57.536 33.6147 57.3739 33.701 57.2014 33.7149C57.1876 33.7149 57.1704 33.7149 57.1566 33.7149H57.1497Z" fill="#515151"/>
<path d="M56.9845 21.6528C56.0324 20.9069 53.4727 21.7425 51.3926 24.291C52.0998 24.7883 52.869 25.3822 53.659 26.0936C54.5076 26.8533 55.2251 27.6027 55.8323 28.3002C57.909 25.3961 57.9676 22.4263 56.9845 21.6562V21.6528Z" fill="#515151"/>
<path d="M60.1721 37.1584C60.2066 42.0274 57.6228 46.5304 53.2762 49.8594C48.9331 53.1883 42.8755 55.2982 36.1418 55.3534C29.4047 55.4087 23.3229 53.3989 18.9315 50.1425C14.5367 46.8861 11.8908 42.4246 11.8563 37.5555C11.8218 32.6865 14.4056 28.1835 18.7521 24.8546C23.0953 21.5257 29.1528 19.4157 35.8865 19.3605C42.6237 19.3052 48.7054 21.315 53.0968 24.5714C57.4917 27.8312 60.1376 32.2894 60.1721 37.1584Z" fill="#EEB070"/>
<path d="M35.8386 55.9967C29.3015 55.9967 23.1577 54.1044 18.5041 50.6546C13.8022 47.1634 11.1908 42.505 11.1564 37.5323C11.1219 32.5666 13.6573 27.8702 18.2971 24.3065C21.4087 21.5715 26.7695 19.4789 31.9681 18.9713C32.3337 18.9367 32.6649 19.2061 32.6994 19.5721C32.7339 19.9416 32.4648 20.2697 32.0992 20.3042C27.2283 20.7808 22.0331 22.7974 19.1664 25.3252L19.1319 25.3528C14.8199 28.661 12.4638 32.981 12.4948 37.522C12.5259 42.063 14.9441 46.345 19.301 49.5737C23.789 52.9026 29.75 54.7018 36.1077 54.6534C42.4585 54.6016 48.4022 52.6989 52.8419 49.2975C57.154 45.9927 59.5101 41.6728 59.4756 37.1318C59.4445 32.5908 57.0263 28.3088 52.6694 25.08C49.1922 22.5005 43.6348 20.4803 39.1537 20.1695C38.7846 20.1419 38.5052 19.8242 38.5328 19.4547C38.5569 19.0852 38.8743 18.8124 39.2468 18.8331C43.9556 19.1612 49.8028 21.2884 53.4663 24.0061C58.1682 27.4938 60.7795 32.1522 60.814 37.1283C60.8485 42.101 58.3061 46.8042 53.6526 50.368C48.9852 53.9455 42.7551 55.9449 36.118 56.0002C36.0249 56.0002 35.9317 56.0002 35.8386 56.0002V55.9967Z" fill="#515151"/>
<path d="M44.4232 34.8515C43.9402 33.705 41.8014 33.9882 39.328 34.3197C38.2034 34.4682 37.0409 34.6236 36.3165 34.5718C35.7439 34.5304 35.1919 34.4855 34.6607 34.444C29.9795 34.078 26.5988 33.8121 25.7847 36.4227C25.5501 37.1755 25.7916 37.6693 26.0365 37.9491C26.5954 38.5914 27.7717 38.8296 29.2861 38.8296C30.9316 38.8296 32.9703 38.5499 35.0505 38.208C35.4092 38.1493 35.6956 38.101 35.8818 38.0768C36.4165 38.0043 37.5308 38.1977 38.6071 38.3807C40.5872 38.7191 42.4603 39.0403 43.3365 38.4532C44.606 37.6037 45.0131 36.257 44.4197 34.8515H44.4232Z" fill="white"/>
<path d="M35.6044 35.1849C36.5912 35.1773 37.3875 34.6903 37.383 34.0972C37.3784 33.5041 36.5747 33.0295 35.5879 33.037C34.601 33.0446 33.8047 33.5316 33.8093 34.1247C33.8138 34.7178 34.6175 35.1925 35.6044 35.1849Z" fill="#515151"/>
<path d="M30.7779 31.145C29.6395 31.145 28.8633 30.5096 28.6425 30.3058C28.4321 30.1125 28.4218 29.7844 28.6149 29.5738C28.8081 29.3631 29.1358 29.3528 29.3463 29.5461C29.5015 29.6912 30.0776 30.1643 30.9159 30.1021C31.6334 30.0538 32.1025 29.6497 32.2681 29.4771C32.4682 29.2733 32.7959 29.2664 32.9994 29.4667C33.203 29.667 33.2099 29.9951 33.0098 30.1988C32.758 30.4578 32.0611 31.0621 30.9848 31.1346C30.9159 31.1381 30.8469 31.1415 30.7779 31.1415V31.145Z" fill="#515151"/>
<path d="M39.9016 31.145C38.7633 31.145 37.9871 30.5096 37.7663 30.3058C37.5559 30.1125 37.5455 29.7844 37.7387 29.5738C37.9319 29.3631 38.2596 29.3528 38.47 29.5461C38.6253 29.6912 39.1979 30.1643 40.0396 30.1021C40.7572 30.0538 41.2263 29.6497 41.3919 29.4771C41.592 29.2733 41.9197 29.2664 42.1232 29.4667C42.3268 29.667 42.3337 29.9951 42.1336 30.1988C41.8817 30.4578 41.1849 31.0621 40.1086 31.1346C40.0396 31.1381 39.9706 31.1415 39.9016 31.1415V31.145Z" fill="#515151"/>
<path d="M33.9993 20.1314C33.8751 20.1314 33.7509 20.0968 33.637 20.0243C33.3266 19.824 33.2369 19.4096 33.437 19.0989C34.1062 18.0594 35.4999 16.7161 36.383 16.1153C36.69 15.9081 37.1039 15.9875 37.3144 16.2948C37.5213 16.6022 37.442 17.0166 37.135 17.2272C36.3795 17.7417 35.1169 18.9607 34.565 19.8275C34.4374 20.0278 34.22 20.1348 34.0027 20.1348L33.9993 20.1314Z" fill="#515151"/>
<path d="M36.6239 20.0933C36.4687 20.0933 36.3134 20.0415 36.1892 19.931C35.9098 19.6893 35.8788 19.268 36.1168 18.9848C36.924 18.0456 38.4901 16.9129 39.4492 16.4398C39.7803 16.2775 40.1805 16.4122 40.3461 16.7437C40.5082 17.0752 40.3737 17.4758 40.0425 17.6415C39.2215 18.0456 37.8037 19.0781 37.1344 19.8585C37.0034 20.0139 36.8136 20.0933 36.6273 20.0933H36.6239Z" fill="#515151"/>
</g>
</svg>
