<?xml version="1.0" encoding="utf-8"?>
<!-- Generator: Adobe Illustrator 26.2.1, SVG Export Plug-In . SVG Version: 6.00 Build 0)  -->
<svg version="1.1" id="레이어_1" xmlns="http://www.w3.org/2000/svg" xmlns:xlink="http://www.w3.org/1999/xlink" x="0px"
	 y="0px" viewBox="0 0 72 72" style="enable-background:new 0 0 72 72;" xml:space="preserve">
<style type="text/css">
	.st0{fill:#F7F7F7;}
	.st1{fill:#FFFFFF;}
	.st2{fill:#515151;}
	.st3{fill:#BCBCBC;}
	.st4{fill-rule:evenodd;clip-rule:evenodd;fill:#A0A0A0;}
	.st5{fill:#5A5A5A;}
</style>
<circle class="st0" cx="36" cy="36" r="36"/>
<path class="st1" d="M11.9,18.5c-3.3,2.3,0,11.1,2,13.2s9.5-9,9.5-9S16,15.6,11.9,18.5L11.9,18.5z"/>
<path class="st1" d="M59.8,18.4c3.3,2.3,0,11.1-2,13.2c-2,2.1-9.5-9-9.5-9S55.8,15.6,59.8,18.4L59.8,18.4z"/>
<path class="st2" d="M14.8,33.7C14.8,33.7,14.8,33.7,14.8,33.7c-0.2,0-0.4-0.1-0.5-0.2c-2.5-3.4-3.6-6.5-4-8.5
	c-0.1-0.3,0.1-0.6,0.5-0.7c0.3-0.1,0.6,0.1,0.7,0.5c0.4,1.8,1.3,4.4,3.4,7.4l8.6-8.6c-4.7-5-9.7-6.3-11.3-4.9
	c-0.7,0.5-1.1,1.8-1.1,3.3c0,0.3-0.3,0.6-0.6,0.6h0c-0.3,0-0.6-0.3-0.6-0.6c0-2,0.6-3.5,1.5-4.2c2.4-1.9,8.3-0.2,13.3,5.5
	c0.2,0.2,0.2,0.6,0,0.8l-9.6,9.5C15.2,33.6,15,33.7,14.8,33.7L14.8,33.7z"/>
<path class="st2" d="M15,21.6c1-0.7,3.5,0.1,5.6,2.6c-0.7,0.5-1.5,1.1-2.3,1.8c-0.8,0.8-1.6,1.5-2.2,2.2C14.1,25.3,14,22.3,15,21.6
	L15,21.6z"/>
<path class="st2" d="M57.1,33.6c-0.2,0-0.3-0.1-0.4-0.2L47.2,24c-0.2-0.2-0.2-0.6,0-0.8c5.1-5.7,11-7.4,13.3-5.5
	c1,0.8,1.5,2.3,1.5,4.2c0,0.3-0.3,0.6-0.6,0.6c-0.3,0-0.6-0.3-0.6-0.6c0-1.6-0.4-2.8-1.1-3.3c-1.6-1.3-6.6,0-11.3,4.9l8.6,8.6
	c2.1-3,3-5.7,3.4-7.4c0.1-0.3,0.4-0.5,0.7-0.5c0.3,0.1,0.5,0.4,0.5,0.7c-0.4,2-1.5,5-4,8.5C57.5,33.5,57.4,33.6,57.1,33.6
	C57.2,33.6,57.2,33.6,57.1,33.6L57.1,33.6z"/>
<path class="st2" d="M57,21.6c-1-0.7-3.5,0.1-5.6,2.6c0.7,0.5,1.5,1.1,2.3,1.8c0.8,0.8,1.6,1.5,2.2,2.2C57.9,25.3,58,22.3,57,21.6
	L57,21.6z"/>
<path class="st3" d="M60.3,37.1c0,4.9-2.6,9.4-6.9,12.7c-4.4,3.3-10.4,5.5-17.2,5.5c-6.8,0.1-12.9-2-17.3-5.2
	c-4.4-3.3-7.1-7.7-7.1-12.6c0-4.9,2.6-9.4,6.9-12.7c4.4-3.3,10.4-5.5,17.2-5.5c6.8-0.1,12.9,2,17.3,5.2
	C57.6,27.7,60.2,32.2,60.3,37.1L60.3,37.1z"/>
<path class="st4" d="M46.9,53.5c-4.4,1.4-7.2,2-10.5,2c-4.3,0-8.4-0.8-12-2.1c-4.3-3-6.9-7.8-6.9-13c0-9.1,8.2-16.5,18.3-16.5
	s18.3,7.4,18.3,16.5C54.1,46.1,51.3,52.1,46.9,53.5L46.9,53.5z"/>
<path class="st2" d="M31.4,34.9L31.4,34.9c-0.7,0-1.3,0.6-1.3,1.3c0,0.7,0.6,1.3,1.3,1.3h0c0.7,0,1.3-0.6,1.3-1.3
	C32.6,35.5,32.1,34.9,31.4,34.9z"/>
<path class="st2" d="M39.3,34.9c-0.7,0-1.3,0.6-1.3,1.3c0,0.3,0.1,0.7,0.4,0.9c0.2,0.2,0.6,0.4,0.9,0.4h0c0.3,0,0.7-0.1,0.9-0.4
	c0.2-0.2,0.4-0.6,0.4-0.9C40.5,35.4,40,34.9,39.3,34.9L39.3,34.9z"/>
<path class="st1" d="M44.4,40.4c-0.5-1.2-2.6-0.9-5.1-0.5c-1.1,0.2-2.3,0.3-3,0.3c-0.6,0-1.1-0.1-1.7-0.1c-4.7-0.4-8.1-0.6-8.9,2
	c-0.2,0.8,0,1.3,0.3,1.5c0.6,0.6,1.7,0.9,3.3,0.9c1.6,0,3.7-0.3,5.8-0.6c0.4-0.1,0.6-0.1,0.8-0.1c0.5-0.1,1.7,0.1,2.7,0.3
	c2,0.3,3.9,0.7,4.7,0.1C44.6,43.2,45,41.8,44.4,40.4L44.4,40.4z"/>
<path class="st2" d="M35.6,40.7c1,0,1.8-0.5,1.8-1.1c0-0.6-0.8-1.1-1.8-1.1c-1,0-1.8,0.5-1.8,1.1C33.8,40.3,34.6,40.7,35.6,40.7z"/>
<path class="st5" d="M19.2,37.7c-0.1,0-0.3,0-0.5-0.1c-0.5-0.2-0.7-0.5-0.8-0.7c-0.2-0.7,0.1-1.4,0.3-1.7c0.1-0.2,0.4-0.3,0.6-0.2
	c0.2,0.1,0.3,0.4,0.2,0.6c-0.2,0.4-0.3,0.7-0.2,0.9c0,0.1,0.1,0.2,0.3,0.2c0.3,0.1,0.4,0,0.4,0c0.2-0.1,0.3-0.5,0.2-0.7
	c0-0.2,0.1-0.4,0.4-0.5c0.2,0,0.4,0.1,0.5,0.4c0,0.4-0.1,1.1-0.6,1.4C19.7,37.6,19.5,37.7,19.2,37.7L19.2,37.7z"/>
<path class="st5" d="M50.6,33.4c-0.3,0-0.6-0.1-0.7-0.2c-0.5-0.4-0.6-1.1-0.6-1.4c0-0.2,0.2-0.4,0.5-0.4c0.2,0,0.4,0.2,0.4,0.5
	c0,0.2,0.1,0.5,0.2,0.7c0,0,0.1,0.1,0.4,0c0.2-0.1,0.2-0.2,0.3-0.2c0.1-0.2,0-0.6-0.2-0.9c-0.1-0.2-0.1-0.5,0.2-0.6
	c0.2-0.1,0.5-0.1,0.6,0.2c0.2,0.3,0.5,1,0.3,1.7c-0.1,0.2-0.3,0.6-0.8,0.7C50.9,33.3,50.7,33.4,50.6,33.4L50.6,33.4z"/>
<path class="st5" d="M54.3,36.8c-0.3,0-0.6-0.1-0.7-0.2c-0.5-0.4-0.6-1.1-0.6-1.4c0-0.2,0.2-0.4,0.5-0.4c0.2,0,0.4,0.2,0.4,0.5
	c0,0.2,0.1,0.5,0.2,0.7c0,0,0.1,0.1,0.4,0c0.2-0.1,0.2-0.2,0.3-0.2c0.1-0.2,0-0.6-0.2-0.9c-0.1-0.2-0.1-0.5,0.2-0.6s0.5-0.1,0.6,0.2
	c0.2,0.3,0.5,1,0.3,1.7c-0.1,0.2-0.3,0.6-0.8,0.7C54.7,36.8,54.5,36.8,54.3,36.8L54.3,36.8z"/>
<path class="st2" d="M35.8,56c-6.6,0-12.7-1.9-17.4-5.4c-4.7-3.5-7.3-8.2-7.4-13.2c0-5,2.5-9.7,7.2-13.3c3.1-2.7,8.5-4.8,13.7-5.4
	c0.4,0,0.7,0.2,0.8,0.6c0,0.4-0.2,0.7-0.6,0.8c-4.9,0.5-10.1,2.5-13,5c0,0,0,0,0,0c-4.3,3.3-6.7,7.6-6.6,12.2
	c0,4.5,2.5,8.8,6.8,12.1c4.5,3.3,10.5,5.1,16.9,5.1c6.4-0.1,12.3-2,16.8-5.4c4.3-3.3,6.7-7.6,6.6-12.2c0-4.5-2.5-8.8-6.8-12.1
	c-3.5-2.6-9.1-4.6-13.5-4.9c-0.4,0-0.7-0.4-0.6-0.7c0-0.4,0.4-0.7,0.7-0.6c4.7,0.3,10.6,2.5,14.3,5.2c4.7,3.5,7.3,8.2,7.4,13.2
	c0,5-2.5,9.7-7.2,13.3C49,53.9,42.8,55.9,36.1,56C36,56,35.9,56,35.8,56L35.8,56z"/>
<path class="st2" d="M33.9,20.1c-0.1,0-0.2,0-0.4-0.1c-0.3-0.2-0.4-0.6-0.2-0.9c0.7-1,2.1-2.4,2.9-3c0.3-0.2,0.7-0.1,0.9,0.2
	c0.2,0.3,0.1,0.7-0.2,0.9c-0.8,0.5-2,1.7-2.6,2.6C34.3,20,34.1,20.1,33.9,20.1L33.9,20.1z"/>
<path class="st2" d="M36.5,20.1c-0.2,0-0.3-0.1-0.4-0.2c-0.3-0.2-0.3-0.7-0.1-0.9c0.8-0.9,2.4-2.1,3.3-2.5c0.3-0.2,0.7,0,0.9,0.3
	c0.2,0.3,0,0.7-0.3,0.9c-0.8,0.4-2.2,1.4-2.9,2.2C36.9,20,36.7,20.1,36.5,20.1L36.5,20.1z"/>
</svg>
