<svg width="72" height="72" viewBox="0 0 72 72" fill="none" xmlns="http://www.w3.org/2000/svg">
<circle cx="36" cy="36" r="36" fill="#FFF7E0"/>
<mask id="mask0_762_5984" style="mask-type:alpha" maskUnits="userSpaceOnUse" x="0" y="0" width="72" height="72">
<circle cx="36" cy="36" r="36" fill="#EFEFEF"/>
</mask>
<g mask="url(#mask0_762_5984)">
<path d="M11.9245 18.4656C8.63651 20.7592 11.8796 29.5983 13.8876 31.6811C15.8956 33.7639 23.3652 22.7142 23.3652 22.7142C23.3652 22.7142 15.9819 15.6333 11.9245 18.4656Z" fill="white"/>
<path d="M59.8401 18.4266C63.1281 20.7201 59.885 29.5592 57.877 31.642C55.869 33.7249 48.3994 22.6751 48.3994 22.6751C48.3994 22.6751 55.7827 15.5942 59.8401 18.4266Z" fill="white"/>
<path d="M14.844 33.6591C14.844 33.6591 14.813 33.6591 14.7992 33.6591C14.6232 33.6452 14.4645 33.5589 14.361 33.4173C11.8251 30.0046 10.7763 26.9339 10.3416 24.9581C10.2691 24.6335 10.4761 24.3088 10.8004 24.2397C11.1248 24.1671 11.4491 24.3744 11.5215 24.6991C11.9079 26.4503 12.8084 29.1203 14.9234 32.1289L23.566 23.542C18.9152 18.5611 13.9021 17.2831 12.2805 18.5991C11.6078 19.1449 11.2179 20.3538 11.2076 21.9185C11.2076 22.2501 10.935 22.5195 10.6038 22.5195H10.6003C10.2657 22.5195 10 22.2467 10 21.9116C10.0138 19.9566 10.552 18.4471 11.5215 17.663C13.8814 15.7495 19.8053 17.5007 24.8563 23.162C25.0702 23.4003 25.0599 23.7665 24.8322 23.9944L15.2787 33.4864C15.1649 33.6003 15.0131 33.6625 14.8544 33.6625L14.844 33.6591Z" fill="#515151"/>
<path d="M15.0093 21.5747C15.9616 20.8286 18.5216 21.6645 20.602 24.2137C19.8947 24.711 19.1253 25.3052 18.3353 26.0167C17.4865 26.7766 16.7689 27.5262 16.1617 28.2239C14.0847 25.319 14.026 22.3484 15.0093 21.5782V21.5747Z" fill="#515151"/>
<path d="M57.1456 33.643C56.9869 33.643 56.8351 33.5808 56.7213 33.4668L47.1678 23.9749C46.9401 23.7469 46.9297 23.3843 47.1437 23.1425C52.1947 17.4812 58.1151 15.7299 60.4785 17.6435C61.4445 18.4276 61.9862 19.937 62 21.8921C62 22.2271 61.7343 22.4965 61.3996 22.5C61.0615 22.4896 60.7959 22.234 60.7924 21.899C60.7821 20.3343 60.3922 19.1253 59.7194 18.5796C58.0944 17.2636 53.0848 18.5416 48.434 23.5224L57.0766 32.1094C59.1916 29.0974 60.092 26.4273 60.4785 24.6795C60.5509 24.3549 60.8718 24.1476 61.1961 24.2202C61.5204 24.2927 61.7274 24.6139 61.655 24.9386C61.2202 26.9144 60.1714 29.9851 57.6355 33.3977C57.532 33.5394 57.3699 33.6257 57.1974 33.6395C57.1836 33.6395 57.1663 33.6395 57.1525 33.6395L57.1456 33.643Z" fill="#515151"/>
<path d="M56.9843 21.5747C56.032 20.8286 53.472 21.6645 51.3916 24.2137C52.0989 24.711 52.8683 25.3052 53.6583 26.0167C54.5071 26.7766 55.2247 27.5262 55.8319 28.2239C57.9089 25.319 57.9676 22.3484 56.9843 21.5782V21.5747Z" fill="#515151"/>
<path d="M60.2518 37.0655C60.2863 41.9531 57.6918 46.471 53.3308 49.8146C48.9698 53.1548 42.8941 55.2721 36.1352 55.3274C29.3764 55.3827 23.2696 53.3655 18.8638 50.0979C14.4545 46.8268 11.7979 42.3503 11.7634 37.4662C11.7289 32.5786 14.3234 28.0606 18.6844 24.717C23.0454 21.3769 29.1211 19.2595 35.8799 19.2042C42.6388 19.149 48.7455 21.1662 53.1514 24.4338C57.5607 27.7048 60.2173 32.1814 60.2518 37.0655Z" fill="#EEB070"/>
<path fill-rule="evenodd" clip-rule="evenodd" d="M46.8921 53.5154C42.5104 54.9558 39.733 55.4842 36.3829 55.4842C32.0633 55.4842 27.968 54.676 24.3557 53.4118C20.0948 50.3929 17.4451 45.6469 17.4451 40.3932C17.4451 31.2916 25.6564 23.9102 35.7895 23.9102C45.9226 23.9102 54.1339 31.2882 54.1339 40.3932C54.1339 46.1132 51.2738 52.0716 46.8921 53.5154Z" fill="#C59869"/>
<path d="M31.3697 34.8867H31.3593C30.6589 34.8936 30.0931 35.467 30.0966 36.1682C30.1035 36.8659 30.6727 37.4324 31.3697 37.4324H31.38C32.0804 37.4255 32.6462 36.8521 32.6428 36.1509C32.6359 35.4532 32.0666 34.8867 31.3697 34.8867Z" fill="#515151"/>
<path d="M39.2542 34.8867C38.5538 34.8936 37.988 35.467 37.9915 36.1717C37.9915 36.5102 38.1295 36.8314 38.371 37.0697C38.609 37.3046 38.9265 37.4359 39.2646 37.4359H39.2749C39.6165 37.4359 39.9339 37.2977 40.172 37.0559C40.41 36.8141 40.5411 36.4929 40.5377 36.1509C40.5308 35.4497 39.9511 34.8867 39.2577 34.8867H39.2542Z" fill="#515151"/>
<path d="M44.4499 40.4003C43.9634 39.2501 41.8208 39.5368 39.3367 39.8649C38.2085 40.0169 37.0424 40.1724 36.3179 40.1171C35.7451 40.0756 35.1897 40.0307 34.6583 39.9893C29.9627 39.6197 26.5677 39.3537 25.7501 41.9754C25.5155 42.7319 25.757 43.2258 26.0019 43.5056C26.5643 44.1515 27.7442 44.3898 29.2623 44.3898C30.9115 44.3898 32.9609 44.1101 35.0448 43.7646C35.407 43.7059 35.6934 43.6576 35.8797 43.6334C36.4145 43.5608 37.5323 43.7543 38.6157 43.9408C40.6029 44.2828 42.4833 44.6005 43.3631 44.0133C44.6396 43.1602 45.0433 41.8096 44.4533 40.4003H44.4499Z" fill="white"/>
<path d="M35.6004 40.7392C36.5912 40.7316 37.3907 40.2429 37.3861 39.6477C37.3815 39.0526 36.5746 38.5762 35.5838 38.5839C34.593 38.5915 33.7935 39.0801 33.7981 39.6753C33.8026 40.2705 34.6095 40.7468 35.6004 40.7392Z" fill="#515151"/>
<path d="M19.1569 37.7055C19.0086 37.7055 18.843 37.6813 18.6567 37.6156C18.1633 37.4464 17.9528 37.1252 17.8631 36.8834C17.6182 36.2271 17.9873 35.4845 18.1564 35.1978C18.2772 34.9905 18.5394 34.9249 18.7464 35.0423C18.9534 35.1632 19.0189 35.4292 18.8982 35.633C18.6877 35.9957 18.5946 36.3756 18.6705 36.5829C18.6946 36.645 18.7464 36.7348 18.9327 36.8005C19.1983 36.8903 19.2949 36.8143 19.3329 36.7832C19.5158 36.6381 19.5848 36.2616 19.571 36.1096C19.5468 35.8713 19.7193 35.6606 19.9574 35.6364C20.192 35.6123 20.4059 35.785 20.43 36.0233C20.4645 36.3791 20.3438 37.0837 19.8711 37.4602C19.7124 37.5846 19.4778 37.7055 19.1569 37.7055Z" fill="#62584E"/>
<path d="M50.574 33.3677C50.2532 33.3677 50.0186 33.2468 49.8599 33.1225C49.3837 32.746 49.263 32.0413 49.3009 31.6856C49.3251 31.4472 49.539 31.2745 49.7736 31.2987C50.0117 31.3229 50.1842 31.5336 50.16 31.7719C50.1462 31.9239 50.2152 32.3004 50.3981 32.4455C50.436 32.4766 50.5326 32.5526 50.7983 32.4627C50.9846 32.3971 51.0398 32.3073 51.0605 32.2451C51.1364 32.0379 51.0467 31.6579 50.8328 31.2987C50.712 31.0915 50.7811 30.8289 50.9846 30.7081C51.1882 30.5872 51.4538 30.6562 51.5746 30.86C51.7436 31.1467 52.1094 31.8894 51.8678 32.5456C51.7781 32.7874 51.5677 33.1121 51.0743 33.2779C50.888 33.3401 50.7224 33.3677 50.574 33.3677Z" fill="#62584E"/>
<path d="M54.3453 36.789C54.0244 36.789 53.7864 36.6681 53.6311 36.5438C53.155 36.1673 53.0342 35.4626 53.0722 35.1069C53.0963 34.8685 53.3068 34.6993 53.5448 34.72C53.7829 34.7442 53.9554 34.9549 53.9313 35.1932C53.9175 35.3452 53.9865 35.7217 54.1693 35.8668C54.2073 35.8979 54.3039 35.9738 54.5695 35.884C54.7558 35.8184 54.8076 35.7286 54.8318 35.6664C54.9077 35.4592 54.818 35.0792 54.6041 34.7165C54.4833 34.5093 54.5523 34.2468 54.7593 34.1259C54.9663 34.005 55.2285 34.0741 55.3493 34.2813C55.5183 34.568 55.8841 35.3107 55.6391 35.9669C55.5494 36.2087 55.3389 36.5334 54.8455 36.6992C54.6592 36.7614 54.4936 36.789 54.3453 36.789Z" fill="#62584E"/>
<path d="M35.8344 56.0032C29.2687 56.0032 23.0964 54.1035 18.4249 50.6355C13.7017 47.1296 11.0796 42.4493 11.0416 37.4512C11.0071 32.46 13.5533 27.7416 18.2179 24.1597C21.3438 21.4137 26.7294 19.3101 31.9495 18.8024C32.3359 18.7609 32.6706 19.0442 32.7085 19.4276C32.7465 19.811 32.467 20.1495 32.0841 20.1875C27.2021 20.6642 21.9924 22.6883 19.1184 25.2201C19.1081 25.2305 19.0943 25.2409 19.0805 25.2512C14.7609 28.5603 12.401 32.8917 12.432 37.4408C12.4631 41.9899 14.8851 46.2799 19.253 49.5199C23.752 52.8565 29.7276 54.6561 36.1035 54.6112C42.4724 54.5594 48.4309 52.6527 52.8815 49.2401C57.2011 45.931 59.561 41.5996 59.53 37.0505C59.4989 32.5014 57.0769 28.2114 52.709 24.9714C49.2209 22.3843 43.6489 20.3602 39.1603 20.0459C38.7773 20.0182 38.4875 19.6866 38.5151 19.3032C38.5427 18.9198 38.8705 18.6366 39.2569 18.6573C43.9871 18.9889 49.8558 21.1236 53.5371 23.8523C58.2638 27.3582 60.8824 32.0386 60.9204 37.0367C60.9549 42.0348 58.4018 46.76 53.7268 50.3419C49.0381 53.9342 42.783 55.9445 36.1173 55.9998C36.0241 55.9998 35.931 55.9998 35.8378 55.9998L35.8344 56.0032Z" fill="#515151"/>
<path d="M33.9101 20.1324C33.7859 20.1324 33.6617 20.0979 33.5479 20.0254C33.2373 19.825 33.1476 19.4105 33.3477 19.0997C34.0171 18.06 35.4109 16.7163 36.2942 16.1153C36.6012 15.9081 37.0153 15.9875 37.2257 16.2949C37.4327 16.6023 37.3534 17.0168 37.0463 17.2275C36.2907 17.7422 35.028 18.9615 34.4759 19.8285C34.3483 20.0288 34.1309 20.1359 33.9136 20.1359L33.9101 20.1324Z" fill="#515151"/>
<path d="M36.5356 20.0748C36.3804 20.0748 36.2251 20.0229 36.1009 19.9124C35.8214 19.6706 35.7904 19.2492 36.0284 18.966C36.8358 18.0265 38.4021 16.8935 39.3613 16.4203C39.6925 16.258 40.0927 16.3927 40.2583 16.7243C40.4205 17.0559 40.2859 17.4565 39.9547 17.6223C39.1336 18.0265 37.7156 19.0593 37.0462 19.8399C36.9151 19.9953 36.7254 20.0748 36.5391 20.0748H36.5356Z" fill="#515151"/>
</g>
</svg>
