<?xml version="1.0" encoding="utf-8"?>
<!-- Generator: Adobe Illustrator 26.2.1, SVG Export Plug-In . SVG Version: 6.00 Build 0)  -->
<svg version="1.1" id="레이어_1" xmlns="http://www.w3.org/2000/svg" xmlns:xlink="http://www.w3.org/1999/xlink" x="0px"
	 y="0px" viewBox="0 0 72 72" style="enable-background:new 0 0 72 72;" xml:space="preserve">
<style type="text/css">
	.st0{fill:#F7F7F7;}
	.st1{fill:#EFEFEF;filter:url(#Adobe_OpacityMaskFilter);}
	.st2{mask:url(#mask0_854_4670_00000155856300225809914840000011569051021302452371_);}
	.st3{fill:#FFFFFF;}
	.st4{fill:#515151;}
	.st5{fill:#BCBCBC;}
</style>
<circle class="st0" cx="36" cy="36" r="36"/>
<defs>
	<filter id="Adobe_OpacityMaskFilter" filterUnits="userSpaceOnUse" x="10" y="16" width="52" height="40">
		<feColorMatrix  type="matrix" values="1 0 0 0 0  0 1 0 0 0  0 0 1 0 0  0 0 0 1 0"/>
	</filter>
</defs>
<mask maskUnits="userSpaceOnUse" x="10" y="16" width="52" height="40" id="mask0_854_4670_00000155856300225809914840000011569051021302452371_">
	<circle class="st1" cx="36" cy="36" r="36"/>
</mask>
<g class="st2">
	<path class="st3" d="M12.1,18.5c-3.3,2.3,0,11.1,2,13.2s9.5-9,9.5-9S16.1,15.6,12.1,18.5L12.1,18.5z"/>
	<path class="st3" d="M60,18.4c3.3,2.3,0,11.1-2,13.2s-9.5-9-9.5-9S55.9,15.6,60,18.4L60,18.4z"/>
	<path class="st4" d="M14.9,33.7C14.9,33.7,14.8,33.7,14.9,33.7c-0.2,0-0.4-0.1-0.5-0.2c-2.5-3.4-3.6-6.5-4-8.5
		c-0.1-0.3,0.1-0.6,0.5-0.7c0.3-0.1,0.6,0.1,0.7,0.5c0.4,1.8,1.3,4.4,3.4,7.4l8.6-8.6c-4.7-5-9.7-6.3-11.3-4.9
		c-0.7,0.5-1.1,1.8-1.1,3.3c0,0.3-0.3,0.6-0.6,0.6h0c-0.3,0-0.6-0.3-0.6-0.6c0-2,0.6-3.5,1.5-4.2c2.4-1.9,8.3-0.2,13.3,5.5
		c0.2,0.2,0.2,0.6,0,0.8l-9.6,9.5C15.2,33.7,15,33.7,14.9,33.7L14.9,33.7z"/>
	<path class="st4" d="M15,21.6c1-0.7,3.5,0.1,5.6,2.6c-0.7,0.5-1.5,1.1-2.3,1.8c-0.8,0.8-1.6,1.5-2.2,2.2C14.1,25.4,14,22.4,15,21.6
		L15,21.6z"/>
	<path class="st4" d="M57.1,33.7c-0.2,0-0.3-0.1-0.4-0.2L47.2,24c-0.2-0.2-0.2-0.6,0-0.8c5-5.7,11-7.4,13.3-5.5
		c1,0.8,1.5,2.3,1.5,4.2c0,0.3-0.3,0.6-0.6,0.6h0c-0.3,0-0.6-0.3-0.6-0.6c0-1.6-0.4-2.8-1.1-3.3c-1.6-1.3-6.6,0-11.3,4.9l8.6,8.6
		c2.1-3,3-5.7,3.4-7.4c0.1-0.3,0.4-0.5,0.7-0.5c0.3,0.1,0.5,0.4,0.5,0.7c-0.4,2-1.5,5-4,8.5C57.5,33.6,57.4,33.7,57.1,33.7
		C57.2,33.7,57.2,33.7,57.1,33.7L57.1,33.7z"/>
	<path class="st4" d="M57,21.7c-1-0.7-3.5,0.1-5.6,2.6c0.7,0.5,1.5,1.1,2.3,1.8c0.8,0.8,1.6,1.5,2.2,2.2C57.9,25.4,58,22.4,57,21.7
		L57,21.7z"/>
	<path class="st5" d="M60.2,37.2c0,4.9-2.5,9.4-6.9,12.7c-4.3,3.3-10.4,5.4-17.1,5.5c-6.7,0.1-12.8-2-17.2-5.2
		c-4.4-3.3-7-7.7-7.1-12.6c0-4.9,2.5-9.4,6.9-12.7c4.3-3.3,10.4-5.4,17.1-5.5c6.7-0.1,12.8,2,17.2,5.2
		C57.5,27.8,60.1,32.3,60.2,37.2L60.2,37.2z"/>
	<path class="st4" d="M35.8,56c-6.5,0-12.7-1.9-17.3-5.3c-4.7-3.5-7.3-8.1-7.3-13.1c0-5,2.5-9.7,7.1-13.2c3.1-2.7,8.5-4.8,13.7-5.3
		c0.4,0,0.7,0.2,0.7,0.6c0,0.4-0.2,0.7-0.6,0.7c-4.9,0.5-10.1,2.5-12.9,5l0,0c-4.3,3.3-6.7,7.6-6.6,12.2c0,4.5,2.4,8.8,6.8,12.1
		c4.5,3.3,10.4,5.1,16.8,5.1c6.4-0.1,12.3-2,16.7-5.4c4.3-3.3,6.7-7.6,6.6-12.2c0-4.5-2.4-8.8-6.8-12.1c-3.5-2.6-9-4.6-13.5-4.9
		c-0.4,0-0.6-0.3-0.6-0.7c0-0.4,0.3-0.6,0.7-0.6c4.7,0.3,10.6,2.5,14.2,5.2c4.7,3.5,7.3,8.1,7.3,13.1c0,5-2.5,9.7-7.2,13.2
		C49,53.9,42.8,55.9,36.1,56C36,56,35.9,56,35.8,56L35.8,56z"/>
	<path class="st3" d="M44.4,34.9c-0.5-1.1-2.6-0.9-5.1-0.5c-1.1,0.1-2.3,0.3-3,0.3c-0.6,0-1.1-0.1-1.7-0.1c-4.7-0.4-8.1-0.6-8.9,2
		c-0.2,0.8,0,1.2,0.3,1.5c0.6,0.6,1.7,0.9,3.2,0.9c1.6,0,3.7-0.3,5.8-0.6c0.4-0.1,0.6-0.1,0.8-0.1c0.5-0.1,1.6,0.1,2.7,0.3
		c2,0.3,3.9,0.7,4.7,0.1C44.6,37.6,45,36.3,44.4,34.9L44.4,34.9z"/>
	<path class="st4" d="M35.6,35.2c1,0,1.8-0.5,1.8-1.1c0-0.6-0.8-1.1-1.8-1.1c-1,0-1.8,0.5-1.8,1.1C33.8,34.7,34.6,35.2,35.6,35.2z"
		/>
	<path class="st4" d="M30.8,31.1c-1.1,0-1.9-0.6-2.1-0.8c-0.2-0.2-0.2-0.5,0-0.7c0.2-0.2,0.5-0.2,0.7,0c0.2,0.1,0.7,0.6,1.6,0.6
		c0.7,0,1.2-0.5,1.4-0.6c0.2-0.2,0.5-0.2,0.7,0c0.2,0.2,0.2,0.5,0,0.7c-0.3,0.3-0.9,0.9-2,0.9C30.9,31.1,30.8,31.1,30.8,31.1
		L30.8,31.1z"/>
	<path class="st4" d="M39.9,31.1c-1.1,0-1.9-0.6-2.1-0.8c-0.2-0.2-0.2-0.5,0-0.7c0.2-0.2,0.5-0.2,0.7,0c0.2,0.1,0.7,0.6,1.6,0.6
		c0.7,0,1.2-0.5,1.4-0.6c0.2-0.2,0.5-0.2,0.7,0c0.2,0.2,0.2,0.5,0,0.7c-0.3,0.3-0.9,0.9-2,0.9C40,31.1,40,31.1,39.9,31.1L39.9,31.1z
		"/>
	<path class="st4" d="M34,20.1c-0.1,0-0.2,0-0.4-0.1c-0.3-0.2-0.4-0.6-0.2-0.9c0.7-1,2.1-2.4,2.9-3c0.3-0.2,0.7-0.1,0.9,0.2
		c0.2,0.3,0.1,0.7-0.2,0.9c-0.8,0.5-2,1.7-2.6,2.6C34.4,20,34.2,20.1,34,20.1L34,20.1z"/>
	<path class="st4" d="M36.6,20.1c-0.2,0-0.3-0.1-0.4-0.2c-0.3-0.2-0.3-0.7-0.1-0.9c0.8-0.9,2.4-2.1,3.3-2.5c0.3-0.2,0.7,0,0.9,0.3
		c0.2,0.3,0,0.7-0.3,0.9c-0.8,0.4-2.2,1.4-2.9,2.2C37,20,36.8,20.1,36.6,20.1L36.6,20.1z"/>
</g>
</svg>
