<svg width="173" height="111" viewBox="0 0 173 111" fill="none" xmlns="http://www.w3.org/2000/svg">
<g clip-path="url(#clip0_2253_66877)">
<path d="M44.0833 2.3416C37.7657 6.17182 42.69 22.797 46.1319 26.869C49.5739 30.941 64.6331 11.5036 64.6331 11.5036C64.6331 11.5036 51.8833 -2.38573 44.0769 2.3416H44.0833Z" fill="white"/>
<path d="M132.333 10.3074C138.11 14.9139 131.099 30.7756 127.16 34.3704C123.222 37.9652 110.778 16.7653 110.778 16.7653C110.778 16.7653 125.201 4.61935 132.333 10.3074Z" fill="white"/>
<path d="M112.209 59.082C105.147 61.9388 86.2264 63.5421 76.365 64.0702C75.7161 64.102 75.3216 64.8655 75.3153 65.5208C75.2898 67.7922 71.7716 70.2736 53.6012 61.856C32.3707 52.026 26.5366 58.0258 25.2641 58.9802C25.1623 59.0565 25.0605 59.1393 24.9842 59.2347C14.7729 72.1506 37.4731 82.8586 50.7128 86.8034C51.0818 86.9115 51.3236 87.2424 51.3236 87.6241C51.3236 93.1277 51.4063 103.123 53.4103 109.257C53.5249 109.6 53.8493 109.829 54.2056 109.829H137.932C138.428 109.829 138.822 109.409 138.784 108.913C137.894 97.6896 133.892 86.2753 131.767 78.7166C131.703 78.5003 131.729 78.2776 131.843 78.0804C136.316 70.1718 149.969 47.3305 146.241 39.9818C141.52 30.6798 121.492 55.3218 112.209 59.0756V59.082Z" fill="#766F65"/>
<path d="M137.932 110.885H54.1929C53.3658 110.885 52.6405 110.363 52.3924 109.587C50.2865 103.142 50.2611 92.4784 50.2547 87.7765C38.7901 84.3344 24.5198 77.3229 21.8286 68.7908C20.7406 65.3424 21.5168 61.9066 24.1444 58.5854C24.3035 58.3882 24.4816 58.2418 24.6216 58.14C24.6725 58.1018 24.7297 58.0509 24.8061 57.9937C30.3793 53.5209 40.2152 54.5007 54.0402 60.9013C69.1631 67.9001 73.0122 66.7612 73.8265 66.2458C74.1192 66.0613 74.2528 65.8323 74.2528 65.5078C74.2655 64.3371 75.0354 63.0837 76.3078 63.0137C86.2964 62.4856 105.02 60.8504 111.815 58.1018C114.99 56.8166 119.602 52.8655 124.482 48.6854C132.091 42.1638 139.281 36.0049 143.989 36.9402C145.382 37.2202 146.457 38.0791 147.182 39.5043C150.465 45.9686 142.277 61.9512 133.828 76.7312C133.453 77.3866 133.116 77.9846 132.81 78.5127C133.211 79.9379 133.682 81.5094 134.178 83.1701C136.373 90.5124 139.109 99.6489 139.834 108.824C139.879 109.352 139.694 109.873 139.338 110.262C138.975 110.65 138.466 110.872 137.932 110.872V110.885ZM54.3456 108.773H137.715C136.977 99.897 134.305 90.9705 132.155 83.7872C131.646 82.0821 131.162 80.4724 130.749 79.009C130.609 78.5191 130.672 78.0101 130.921 77.5711C131.232 77.0175 131.595 76.3876 131.989 75.6941C136.507 67.7919 148.506 46.7957 145.293 40.4714C144.866 39.6315 144.319 39.1671 143.569 39.0207C139.872 38.2891 132.422 44.6643 125.85 50.2951C120.837 54.5898 116.097 58.649 112.604 60.0615C103.99 63.5418 79.6161 64.9542 76.4923 65.1197C76.4414 65.1897 76.3714 65.3551 76.365 65.5332C76.3523 66.5767 75.8497 67.4611 74.9526 68.0273C71.9879 69.8979 64.6523 68.1419 53.1495 62.8165C44.1852 58.6681 32.218 54.7488 26.123 59.6416C26.034 59.7116 25.9576 59.7752 25.8876 59.8261C25.8558 59.8515 25.824 59.8706 25.7922 59.9024C23.6036 62.6765 22.961 65.3742 23.839 68.1546C26.1358 75.4333 39.14 82.2602 50.9991 85.7914C51.8135 86.0332 52.367 86.7712 52.367 87.6238C52.367 92.1094 52.3733 102.557 54.3456 108.766V108.773Z" fill="#766F65"/>
<path d="M53.5887 111C53.1115 111 52.6598 110.701 52.488 110.23C50.1849 103.861 50.1404 92.8097 50.1404 87.8597C44.2172 86.0782 38.1604 83.5014 33.4842 80.7782C26.9884 76.9989 23.0312 72.9778 21.7206 68.8231C20.6199 65.3365 21.4025 61.8626 24.0555 58.5095C24.2209 58.2996 24.4054 58.1532 24.5517 58.0451C24.6026 58.0069 24.6599 57.956 24.7299 57.9051C30.3413 53.4005 40.2154 54.3739 54.0849 60.7937C69.1569 67.7733 72.9551 66.6535 73.7631 66.1445C74.0239 65.9791 74.1321 65.7882 74.1385 65.5083C74.1512 64.2803 74.9655 62.9696 76.3016 62.8997C86.2838 62.3716 104.989 60.7364 111.771 57.9942C114.926 56.7153 119.742 52.5924 124.406 48.5968C132.041 42.0561 139.242 35.8782 144.008 36.8262C145.439 37.1125 146.54 37.9969 147.284 39.4539C150.669 46.1218 142.315 62.5561 133.695 77.7561L133.09 78.825C133.536 80.4029 134.076 82.1653 134.649 84.0295C136.914 91.4227 139.732 100.623 140.324 109.74C140.369 110.383 139.879 110.943 139.23 110.987C138.581 111.019 138.027 110.542 137.983 109.893C137.41 101.049 134.636 91.9953 132.403 84.7166C131.811 82.7888 131.252 80.9691 130.794 79.3276C130.647 78.8059 130.711 78.2651 130.972 77.7942L131.652 76.5917C135.813 69.2621 148.461 46.9489 145.191 40.5037C144.65 39.4412 143.995 39.2057 143.55 39.1167C139.911 38.3913 132.155 45.0274 125.926 50.3656C120.9 54.6666 116.161 58.7322 112.649 60.1511C104.072 63.6186 79.928 65.0311 76.5624 65.2156C76.5243 65.2856 76.4861 65.4001 76.4861 65.5146C76.4734 66.5963 75.9517 67.5188 75.0228 68.1105C72.0262 70.0002 64.6525 68.2505 53.1115 62.906C44.179 58.7704 32.2627 54.8575 26.2123 59.7184C26.1232 59.7948 26.0405 59.852 25.9769 59.9029C25.9514 59.922 25.9196 59.9411 25.9005 59.9665C23.7437 62.6961 23.1075 65.3619 23.9728 68.1042C26.2568 75.3447 39.2229 82.1398 51.0565 85.6646C51.9218 85.9255 52.5071 86.7017 52.5071 87.6116C52.5071 92.3134 52.5135 103.333 54.7148 109.416C54.9374 110.027 54.6193 110.695 54.0086 110.917C53.875 110.968 53.7414 110.987 53.6077 110.987L53.5887 111Z" fill="#515151"/>
<path d="M5.53507 59.9662C4.84159 53.7501 13.9077 54.1 20.8552 55.1053C20.8552 49.2073 22.1785 38.4738 28.3243 39.0718C34.1521 39.6381 32.3261 54.9081 30.5511 63.2493C30.3857 64.0382 29.7367 64.63 28.9351 64.7381C21.7204 65.6798 6.18401 65.8007 5.53507 59.9726V59.9662Z" fill="#DE7E7B"/>
<path d="M20.8491 66.4882C15.4667 66.4882 9.31452 65.8456 6.26068 63.4533C5.08368 62.5307 4.41565 61.4045 4.26932 60.1066C4.06573 58.2615 4.57471 56.6836 5.75807 55.5383C7.9721 53.3942 12.5083 52.777 19.6085 53.6487C19.7357 49.9075 20.4483 42.4889 23.9666 39.2949C25.2454 38.1369 26.7532 37.6343 28.4456 37.7933C29.718 37.9142 30.825 38.5696 31.6394 39.683C35.4948 44.9511 32.4474 60.4502 31.7984 63.5042C31.5185 64.8148 30.4369 65.8137 29.1009 65.9919C27.3004 66.2273 24.2211 66.4818 20.8428 66.4818L20.8491 66.4882ZM13.9844 55.8119C10.1352 55.8119 8.35383 56.5818 7.53312 57.3707C6.91599 57.9688 6.68695 58.745 6.80147 59.8203C6.87145 60.4183 7.20864 60.9528 7.83214 61.4427C11.4268 64.2613 22.2424 64.3186 28.77 63.466C29.0309 63.4342 29.2472 63.2369 29.2981 62.9761C31.1177 54.4312 31.9066 44.3785 29.578 41.1909C29.1899 40.6628 28.7509 40.3892 28.1974 40.332C27.2367 40.2365 26.4097 40.5165 25.678 41.1782C23.0568 43.5578 22.1279 50.162 22.1279 55.0929C22.1279 55.462 21.9689 55.8119 21.6889 56.06C21.409 56.3018 21.04 56.41 20.671 56.3591C17.9353 55.9646 15.7403 55.7992 13.978 55.7992L13.9844 55.8119Z" fill="#515151"/>
<path d="M140.941 21.0729C146.877 19.3995 150.052 27.3717 150.821 34.3387C156.503 32.8689 166.778 31.8128 166.778 37.8762C166.778 43.9397 152.45 45.6957 144.033 46.0584C143.225 46.0902 142.493 45.613 142.188 44.8686C139.567 38.5061 135.005 22.7526 140.941 21.0792V21.0729Z" fill="#DE7E7B"/>
<path d="M143.95 47.3308C142.671 47.3308 141.501 46.5482 141.005 45.3457C139.153 40.8538 134.935 27.9698 137.639 22.4153C138.282 21.0983 139.3 20.2075 140.591 19.8449C142.538 19.2977 144.427 19.5904 146.056 20.6847C149.918 23.287 151.375 29.4968 151.89 32.7735C155.205 32.0609 162.471 30.9156 166.052 33.6897C167.357 34.7013 168.05 36.1456 168.05 37.8762C168.05 41.0192 164.939 46.4274 144.084 47.3308C144.039 47.3308 143.995 47.3308 143.95 47.3308ZM142.493 22.1226C142.105 22.1226 141.704 22.1799 141.285 22.3008C140.693 22.4662 140.26 22.8607 139.936 23.5351C138.033 27.4544 140.858 38.2897 143.365 44.3786C143.473 44.6331 143.696 44.7731 143.976 44.7795C157.05 44.2132 165.499 41.5028 165.499 37.8698C165.499 36.9218 165.181 36.2346 164.494 35.7066C162.102 33.8551 155.892 34.3386 151.133 35.5729C150.777 35.6684 150.395 35.5984 150.09 35.3884C149.784 35.1785 149.587 34.8476 149.549 34.4786C148.945 28.9878 147.01 24.4068 144.631 22.8034C143.957 22.3517 143.25 22.1226 142.493 22.1226Z" fill="#515151"/>
<path d="M157.572 19.1637C157.381 19.1637 157.184 19.1192 156.999 19.0301C156.37 18.712 156.121 17.9485 156.433 17.3186L159.665 10.8988C159.983 10.2689 160.747 10.0208 161.377 10.3326C162.007 10.6507 162.255 11.4142 161.943 12.0441L158.711 18.4638C158.488 18.9092 158.036 19.1637 157.572 19.1637Z" fill="#515151"/>
<path d="M10.3326 41.6999C9.90632 41.6999 9.4864 41.4836 9.24462 41.0891L5.52893 34.9875C5.16627 34.3894 5.35714 33.6069 5.95522 33.2378C6.55329 32.8688 7.33588 33.0597 7.7049 33.6641L11.4206 39.7657C11.7833 40.3638 11.5924 41.1464 10.9943 41.5154C10.7907 41.6427 10.5617 41.6999 10.3326 41.6999Z" fill="#515151"/>
<path d="M7.14529 46.8092C6.89716 46.8092 6.64266 46.7328 6.41997 46.5801L0.547392 42.5145C-0.0315946 42.1136 -0.171569 41.3183 0.229267 40.7457C0.630104 40.1731 1.41905 40.0204 1.99804 40.4276L7.87062 44.4996C8.4496 44.9004 8.58958 45.6957 8.18874 46.2684C7.94061 46.6247 7.54613 46.8155 7.13893 46.8155L7.14529 46.8092Z" fill="#515151"/>
<path d="M162.452 20.6721C162.172 20.6721 161.892 20.583 161.656 20.3921C161.109 19.9531 161.027 19.1515 161.466 18.6043L165.983 13.0053C166.422 12.4581 167.224 12.369 167.771 12.8144C168.318 13.2534 168.401 14.0551 167.962 14.6023L163.444 20.2013C163.19 20.513 162.827 20.6721 162.452 20.6721Z" fill="#515151"/>
<path d="M14.4867 39.8861C13.8886 39.8861 13.3478 39.4598 13.2396 38.849L11.9289 31.7803C11.8017 31.0868 12.2598 30.4251 12.9469 30.2978C13.6341 30.1706 14.3022 30.6223 14.4294 31.3158L15.7401 38.3845C15.8673 39.0781 15.4092 39.7397 14.7221 39.867C14.6457 39.8797 14.563 39.8861 14.4867 39.8861Z" fill="#515151"/>
<path d="M165.544 24.5468C165.111 24.5468 164.685 24.3241 164.449 23.9232C164.093 23.3188 164.29 22.5362 164.895 22.1799L171.079 18.5151C171.683 18.1588 172.466 18.3561 172.822 18.9605C173.179 19.5649 172.981 20.3475 172.377 20.7038L166.193 24.3686C165.989 24.4895 165.766 24.5468 165.544 24.5468Z" fill="#515151"/>
<path d="M46.8129 30.909C46.7493 30.909 46.6857 30.909 46.6221 30.8899C46.304 30.8326 46.024 30.6418 45.8586 30.3682C41.8314 23.6494 40.4699 17.8277 40.0309 14.1247C39.9609 13.5139 40.3935 12.9604 41.0043 12.8904C41.615 12.8141 42.1686 13.2531 42.2385 13.8639C42.6266 17.1406 43.7909 22.2051 47.1183 28.1095L64.5507 13.9529C56.9224 3.9702 47.9645 0.712605 44.7389 2.82495C43.4092 3.69661 42.4676 5.84713 42.1622 8.71025C42.0986 9.32105 41.5451 9.76643 40.9343 9.69644C40.3235 9.63282 39.8782 9.08564 39.9482 8.46848C40.3299 4.8864 41.596 2.22052 43.5173 0.960742C48.1999 -2.11234 58.742 2.18234 66.9746 13.4821C67.3246 13.9593 67.2355 14.6274 66.7774 15.0028L47.5064 30.6481C47.3092 30.8072 47.0611 30.8963 46.8066 30.8963L46.8129 30.909Z" fill="#515151"/>
<path d="M49.2115 8.7992C51.0948 7.60305 55.6439 9.60723 58.9906 14.659C57.5972 15.4416 56.0829 16.3896 54.4987 17.5476C52.8063 18.7819 51.3429 20.029 50.1086 21.1933C46.8319 15.4862 47.2645 10.0335 49.2115 8.7992Z" fill="#515151"/>
<path d="M124.437 38.6582C124.437 38.6582 124.418 38.6582 124.412 38.6582C124.088 38.6518 123.789 38.5055 123.579 38.251L107.788 19.0999C107.412 18.6418 107.457 17.9737 107.896 17.5729C118.196 8.12459 129.387 5.99316 133.37 9.9379C135.005 11.554 135.718 14.4171 135.38 18.0055C135.323 18.6163 134.795 19.0808 134.165 19.0108C133.554 18.9535 133.103 18.4127 133.16 17.8019C133.427 14.9325 132.931 12.642 131.798 11.5222C129.063 8.81174 119.628 10.2369 110.186 18.5145L124.469 35.8332C128.897 30.6987 131.041 25.9714 132.072 22.8347C132.263 22.2493 132.893 21.9312 133.478 22.1221C134.063 22.3129 134.382 22.9428 134.191 23.5282C133.033 27.0657 130.545 32.5056 125.265 38.2955C125.055 38.5246 124.756 38.6582 124.444 38.6582H124.437Z" fill="#515151"/>
<path d="M126.232 16.4912C124.616 14.9451 119.768 16.0076 115.486 20.3023C116.695 21.3457 117.993 22.5737 119.316 24.018C120.729 25.5641 121.918 27.072 122.898 28.459C127.244 23.5154 127.893 18.0818 126.232 16.4912Z" fill="#515151"/>
<path d="M129.407 45.4153C128.573 54.38 122.987 62.1868 114.373 67.5122C105.765 72.8376 94.2239 75.6053 81.8113 74.4664C69.3987 73.3275 58.5639 68.5175 51.082 61.716C43.5938 54.9145 39.5347 46.2233 40.3681 37.2586C41.2016 28.2938 46.7876 20.4871 55.4019 15.1617C64.01 9.83626 75.5509 7.06857 87.9635 8.20746C100.376 9.34635 111.211 14.1564 118.693 20.9579C126.181 27.7594 130.24 36.4506 129.407 45.4153Z" fill="#EEB070"/>
<path d="M84.0825 9.58204C83.8026 9.58204 83.5226 9.49297 83.2872 9.30209C82.7337 8.86308 82.6383 8.05505 83.0773 7.50151C84.5025 5.70729 87.3211 3.48678 89.0644 2.54513C89.6879 2.20792 90.4641 2.43697 90.8013 3.06049C91.1385 3.68402 90.9095 4.46024 90.286 4.79745C88.8035 5.59913 86.2649 7.60967 85.0878 9.09213C84.8333 9.41026 84.4579 9.57568 84.0825 9.57568V9.58204Z" fill="#515151"/>
<path d="M89.2103 10.0083C88.8731 10.0083 88.5359 9.87472 88.2814 9.61386C87.7914 9.10486 87.8105 8.29046 88.3259 7.80055C89.9865 6.22265 93.085 4.41571 94.9429 3.7222C95.6046 3.47406 96.3426 3.81127 96.5908 4.47297C96.8389 5.13467 96.5017 5.87272 95.84 6.12085C94.2557 6.71257 91.4626 8.34773 90.0947 9.65204C89.8465 9.88745 89.5284 10.0083 89.2103 10.0083Z" fill="#515151"/>
<path d="M87.2952 75.9431C85.4248 75.9431 83.5416 75.8604 81.6456 75.6822C69.3985 74.5624 58.2201 69.9178 50.172 62.6073C42.143 55.3159 38.1921 46.2557 39.0382 37.0874C39.8844 27.9317 45.4258 19.7496 54.6382 14.0424C60.8541 9.6014 71.0717 6.73828 80.7104 6.73828H80.8122C81.5184 6.73828 82.091 7.31727 82.091 8.0235C82.091 8.72974 81.5184 9.30236 80.8122 9.30236C80.7804 9.28964 80.7486 9.30236 80.7168 9.30236C71.6952 9.30236 61.8148 12.051 56.1015 16.1548C56.0761 16.1739 56.0506 16.1866 56.0252 16.2057C47.4935 21.4802 42.3656 28.9815 41.5958 37.3291C40.826 45.6767 44.4779 53.9798 51.8962 60.7176C59.5371 67.6591 70.1874 72.0683 81.881 73.1436C93.5747 74.2125 104.861 71.8138 113.647 66.3739C122.179 61.0994 127.307 53.598 128.077 45.2504C128.853 36.9028 125.195 28.5998 117.776 21.8619C111.853 16.4793 101.998 11.7519 93.8165 10.3522C93.1166 10.2313 92.6522 9.56959 92.7667 8.87608C92.8876 8.1762 93.5493 7.71174 94.2427 7.82627C102.857 9.296 113.24 14.2906 119.494 19.9659C127.523 27.2573 131.474 36.3175 130.628 45.4858C129.782 54.6542 124.228 62.8427 114.99 68.5562C107.164 73.3981 97.4874 75.9558 87.2889 75.9558L87.2952 75.9431Z" fill="#515151"/>
<path d="M75.5382 32.2259C76.733 32.2259 77.7015 31.2574 77.7015 30.0627C77.7015 28.8679 76.733 27.8994 75.5382 27.8994C74.3435 27.8994 73.375 28.8679 73.375 30.0627C73.375 31.2574 74.3435 32.2259 75.5382 32.2259Z" fill="#515151"/>
<path d="M75.5382 32.4101C75.4683 32.4101 75.3919 32.4101 75.3219 32.3973C74.0367 32.2764 73.0823 31.1312 73.2032 29.846C73.2605 29.2225 73.5595 28.6562 74.0367 28.2554C74.5202 27.8545 75.1247 27.6636 75.7546 27.7209C76.3781 27.7782 76.9443 28.0772 77.3452 28.5544C77.746 29.0379 77.9369 29.6424 77.8796 30.2723C77.7651 31.4875 76.7407 32.4037 75.5446 32.4037L75.5382 32.4101ZM75.5382 28.0836C75.0801 28.0836 74.6348 28.2426 74.2785 28.5417C73.8713 28.8789 73.6231 29.3561 73.5722 29.8842C73.4704 30.9721 74.2721 31.9392 75.3601 32.041C76.4544 32.1428 77.4152 31.3348 77.517 30.2532C77.5679 29.7251 77.4088 29.2097 77.0652 28.8025C76.728 28.3953 76.2508 28.1472 75.7227 28.0963C75.6591 28.0963 75.5955 28.0899 75.5382 28.0899V28.0836Z" fill="#515151"/>
<path d="M94.3254 34.1038C95.5201 34.1038 96.4886 33.1353 96.4886 31.9406C96.4886 30.7459 95.5201 29.7773 94.3254 29.7773C93.1306 29.7773 92.1621 30.7459 92.1621 31.9406C92.1621 33.1353 93.1306 34.1038 94.3254 34.1038Z" fill="#515151"/>
<path d="M94.3255 34.2879C94.2555 34.2879 94.1792 34.2879 94.1028 34.2752C93.4793 34.2179 92.913 33.9189 92.5122 33.4417C92.1114 32.9582 91.9205 32.3537 91.9777 31.7238C92.0986 30.4323 93.2439 29.4906 94.5291 29.6051C95.8143 29.726 96.7687 30.8713 96.6478 32.1565C96.5905 32.78 96.2915 33.3463 95.8143 33.7471C95.388 34.1034 94.8663 34.2879 94.3191 34.2879H94.3255ZM94.3255 29.9614C93.3139 29.9614 92.4486 30.7377 92.3531 31.762C92.3022 32.2901 92.4613 32.8055 92.8049 33.2127C93.1421 33.6199 93.6193 33.868 94.1473 33.9189C94.6691 33.9634 95.1908 33.8107 95.598 33.4672C96.0052 33.13 96.2533 32.6528 96.3042 32.1247C96.406 31.0367 95.6044 30.0696 94.5164 29.9678C94.4527 29.9678 94.3955 29.9614 94.3319 29.9614H94.3255Z" fill="#515151"/>
<path d="M87.2993 49.3448C87.5744 44.0601 86.0223 39.6835 83.8326 39.5695C81.6429 39.4555 79.6448 43.6472 79.3697 48.932C79.0946 54.2168 80.6467 58.5934 82.8364 58.7074C85.0261 58.8214 87.0242 54.6296 87.2993 49.3448Z" fill="#515151"/>
<path d="M100.72 39.3458C100.039 37.1444 96.0562 37.278 91.4309 37.4307C89.3314 37.5007 87.1682 37.5707 85.8449 37.3417C84.8015 37.1635 83.7899 36.979 82.8229 36.8072C74.2721 35.2739 68.0945 34.1604 66.1158 38.8178C65.5432 40.1602 65.8995 41.1083 66.3003 41.6745C68.2026 44.3595 75.3791 44.2831 82.8483 43.8059C83.5227 43.7614 84.0571 43.7296 84.4071 43.7169C85.3996 43.6787 87.4227 44.2386 89.3695 44.7794C91.9208 45.4793 94.3702 46.1601 96.1898 46.1601C96.9278 46.1601 97.564 46.0519 98.0666 45.7847C100.561 44.4549 101.553 42.0499 100.726 39.3586L100.72 39.3458Z" fill="white"/>
<path d="M87.4823 37.5959C87.583 36.5042 86.1896 35.4832 84.3701 35.3153C82.5506 35.1475 80.994 35.8964 80.8933 36.9881C80.7926 38.0798 82.1859 39.1009 84.0054 39.2687C85.825 39.4366 87.3816 38.6876 87.4823 37.5959Z" fill="#515151"/>
</g>
<defs>
<clipPath id="clip0_2253_66877">
<rect width="173" height="111" fill="white"/>
</clipPath>
</defs>
</svg>
