<svg width="118" height="130" viewBox="0 0 118 130" fill="none" xmlns="http://www.w3.org/2000/svg">
<g clip-path="url(#clip0_770_4199)">
<path d="M56.375 26.5244C51.2305 27.8604 51.2076 40.2905 52.75 43.7878C54.2925 47.2852 68.6643 37.0211 68.6643 37.0211C68.6643 37.0211 62.7279 24.8738 56.375 26.5244Z" fill="white"/>
<path d="M116.554 47.2441C119.661 51.5394 111.725 61.1287 108.297 62.8478C104.869 64.5668 100.365 47.5268 100.365 47.5268C100.365 47.5268 112.714 41.9365 116.549 47.2441H116.554Z" fill="white"/>
<path d="M7.61163 0.834492C4.38942 1.05792 0.947503 7.10878 1.94987 12.5486C2.82866 11.3266 7.32786 7.24102 10.4906 6.55248C10.7423 3.45638 10.0832 0.63842 7.60706 0.834492H7.61163Z" fill="white"/>
<path d="M1.56531 14.2585L1.27238 12.6717C0.645329 9.27922 1.61566 5.32587 3.73481 2.60367C4.89738 1.11718 6.25217 0.246254 7.5612 0.155058C8.49491 0.0821008 9.30504 0.364809 9.91378 0.971263C11.232 2.28449 11.3281 4.76046 11.177 6.60718L11.1358 7.11332L10.6415 7.22275C7.74428 7.85201 3.37323 11.7415 2.51275 12.9499L1.56989 14.2631L1.56531 14.2585ZM7.84955 1.50932C7.79005 1.50932 7.73055 1.50932 7.66647 1.51844H7.65731C6.76022 1.58228 5.72581 2.27993 4.82414 3.44268C3.49223 5.1526 2.36171 8.0116 2.46698 10.9618C4.15132 9.30202 7.25912 6.80325 9.84055 6.01896C9.93667 4.08105 9.61628 2.61279 8.94346 1.93794C8.65511 1.65067 8.2981 1.50932 7.84955 1.50932Z" fill="#959595"/>
<path d="M27.4986 0.94844C25.0362 -0.341984 21.6263 3.50193 20.3081 5.59944L26.1438 12.0196C26.2857 11.8783 26.8029 11.0302 27.0409 10.6198C29.0182 7.29569 29.9565 2.23886 27.494 0.943881L27.4986 0.94844Z" fill="white"/>
<path d="M26.1209 13.0046L19.4568 5.67245L19.7314 5.23471C20.9306 3.3196 24.7249 -1.28581 27.8236 0.342044C28.6062 0.752426 29.1692 1.49567 29.4484 2.48515C30.167 5.0204 29.0136 8.65913 27.6405 10.9709C27.2926 11.5637 26.8349 12.3115 26.6335 12.5076L26.1255 13.0046H26.1209ZM21.1777 5.5311L26.0706 10.9117C26.1896 10.7156 26.3269 10.4967 26.455 10.2733C27.938 7.78364 28.6383 4.66018 28.1257 2.8545C27.9471 2.22524 27.6313 1.7875 27.1782 1.55039C25.4801 0.66123 22.7202 3.26944 21.1732 5.5311H21.1777Z" fill="#959595"/>
<path d="M26.1531 3.83481C24.8853 3.00492 23.5396 4.3911 22.3816 5.75905L22.1665 6.01439L25.462 9.1333L25.6588 8.65908C26.6749 6.22415 27.3431 4.61453 26.1531 3.83025V3.83481Z" fill="#959595"/>
<path d="M7.88629 3.76637C7.69863 3.5931 7.4469 3.53382 7.18143 3.5931C5.7534 3.90773 4.54965 6.826 4.58626 8.07539L4.60457 8.64992L8.18837 6.81232L8.21126 6.62081C8.46757 4.55978 8.14718 4.00804 7.88629 3.76637Z" fill="#959595"/>
<path d="M29.3433 54.868C28.6339 53.035 27.3706 50.2124 30.1443 45.8533C32.918 41.4941 34.2316 38.1244 31.7417 35.4524C29.2564 32.7803 22.6975 30.3636 25.8739 24.062C29.0504 17.7558 28.3455 -0.75248 9.30516 5.69508C0.892608 8.54496 -5.70745 23.2002 11.2458 32.6754C13.9371 34.1802 13.3833 36.1774 13.9096 39.9529C14.6099 44.9687 21.2008 41.1658 23.4893 43.1493C25.5902 44.9687 20.8896 51.2703 29.3433 54.868Z" fill="white"/>
<path d="M29.3432 55.552C29.2517 55.552 29.1601 55.5338 29.0732 55.4973C23.0132 52.921 23.2283 48.8674 23.3748 46.1862C23.4343 45.0462 23.4892 44.0568 23.0361 43.6692C22.3495 43.0764 20.8712 43.1858 19.4431 43.2953C17.0356 43.4777 13.7356 43.7239 13.223 40.0533C13.104 39.2006 13.0399 38.4391 12.9804 37.7642C12.7836 35.4387 12.6829 34.2714 10.9024 33.2774C0.677368 27.5548 -0.283805 20.5464 0.054894 16.8803C0.549212 11.5454 4.26117 6.68006 9.08534 5.04765C17.9556 2.04274 22.5418 4.52783 24.8257 7.14516C29.0503 11.9786 28.4919 20.3959 26.4872 24.3675C24.2948 28.7221 27.1829 30.9291 29.9748 33.0631C30.8307 33.7151 31.6363 34.3353 32.245 34.9873C35.3254 38.2977 33.0735 42.5201 30.7209 46.2181C28.231 50.135 29.1967 52.6155 29.9016 54.4258L29.9794 54.6218C30.0801 54.8772 30.016 55.169 29.8146 55.3605C29.6819 55.4882 29.5126 55.552 29.3386 55.552H29.3432ZM21.1046 41.8407C22.1939 41.8407 23.2054 42.0003 23.9378 42.6387C24.8944 43.4686 24.8211 44.8274 24.7479 46.2637C24.6243 48.5619 24.4733 51.3616 28.1257 53.5001C27.5765 51.6306 27.3431 48.9859 29.5675 45.4886C32.6982 40.564 33.1513 37.974 31.2427 35.9175C30.7117 35.3475 29.9474 34.7639 29.1418 34.1483C26.3636 32.028 22.5601 29.1189 25.2651 23.7565C27.1371 20.0403 27.4849 12.2658 23.7959 8.04344C20.9123 4.7467 15.9829 4.15849 9.53389 6.34263C5.26811 7.78353 1.85824 12.2704 1.42342 17.008C0.892488 22.7716 4.49918 28.1248 11.5844 32.0827C14.0011 33.4324 14.1475 35.2016 14.3581 37.6457C14.413 38.3023 14.4771 39.0455 14.5915 39.8618C14.9073 42.1462 16.6054 42.1325 19.347 41.9273C19.9374 41.8817 20.5325 41.8361 21.1092 41.8361L21.1046 41.8407Z" fill="#959595"/>
<path d="M11.6667 13.5198L13.9369 14.6643L11.6667 13.5198Z" fill="white"/>
<path d="M13.9369 15.1203C13.8682 15.1203 13.795 15.1066 13.7309 15.0702L11.4607 13.9257C11.2365 13.8117 11.1449 13.5381 11.2593 13.3146C11.3738 13.0912 11.6484 13 11.8727 13.114L14.1429 14.2585C14.3671 14.3725 14.4587 14.6461 14.3442 14.8695C14.2619 15.0291 14.1017 15.1203 13.9369 15.1203Z" fill="#959595"/>
<path d="M7.61174 13.4423L5.28662 14.7418L7.61174 13.4423Z" fill="white"/>
<path d="M5.28651 15.1978C5.12632 15.1978 4.9707 15.1157 4.88831 14.9652C4.76473 14.7464 4.84254 14.4682 5.06224 14.3451L7.38736 13.0456C7.60706 12.9224 7.88626 13 8.00984 13.2188C8.13341 13.4377 8.05561 13.7159 7.83591 13.839L5.51079 15.1385C5.43755 15.1795 5.36432 15.1978 5.28651 15.1978Z" fill="#959595"/>
<path d="M34.7121 78.6567C36.5246 69.1358 51.9308 70.0888 58.5446 70.0067L91.4076 77.804C94.5245 80.0656 100.749 90.2249 95.6047 96.9096C94.14 99.5907 88.0435 101.542 81.9835 100.311C81.9835 100.311 71.3602 115.103 67.1265 118.332C62.8928 121.56 50.0222 130.707 45.999 128.814C38.3966 128.979 38.1082 121.478 37.6139 118.705L19.4157 111.797C10.4905 113.307 5.80824 110.575 5.28646 109.426C0.562978 101.364 2.64552 90.2112 6.98453 90.8815C10.4585 91.415 12.4632 97.1649 13.5709 102.29C25.6862 92.4592 39.7834 86.2305 39.7834 86.2305C39.7834 86.2305 34.0438 82.186 34.7121 78.6658V78.6567Z" fill="#776F66"/>
<path d="M90.7989 77.0105C90.419 76.7414 89.8926 76.8372 89.6226 77.2157C89.3571 77.5941 89.4486 78.1185 89.8285 78.3875C94.1538 81.4152 97.1838 87.3521 96.8817 92.1992C96.7581 94.1416 96.035 96.7681 93.2704 98.2318C84.7068 102.76 70.8705 97.8716 66.9251 93.6036C66.1882 92.8056 65.4376 91.6566 66.0418 90.7172C68.2113 87.3475 77.0037 89.7642 79.8918 90.5576C80.5372 90.7355 80.9628 90.854 81.2192 90.8951C81.6769 90.9726 82.1117 90.6625 82.1895 90.2065C82.2673 89.7506 81.9561 89.3174 81.4984 89.2399C81.3244 89.2125 80.8667 89.0848 80.3404 88.9389C76.4865 87.8765 67.4607 85.396 64.6229 89.8098C64.0874 90.6443 63.5153 92.3907 65.6848 94.739C68.1976 97.4566 74.1248 100.343 80.4914 101.351C74.0424 110.448 64.0966 121.815 52.0453 126.753C47.752 128.513 44.8411 128.778 42.6166 127.615C39.3898 125.928 37.7558 121.377 37.7558 114.086C37.7558 112.144 37.7558 109.485 39.1518 108.455C39.5912 108.127 40.2045 107.93 40.7309 107.953C42.8363 108.035 45.134 111.952 46.3286 117.479C46.4247 117.935 46.8778 118.217 47.331 118.122C47.7841 118.026 48.077 117.579 47.9763 117.123C46.5574 110.548 43.8067 106.389 40.7996 106.271C39.8933 106.234 38.9047 106.544 38.1495 107.101C36.0715 108.637 36.0715 111.784 36.0715 114.091C36.0715 115.162 36.1081 116.175 36.1814 117.141C31.673 115.395 24.1346 112.276 21.7546 111.259C20.1938 110.593 18.0701 110.835 15.8274 111.086C12.7928 111.428 9.65298 111.788 7.49263 110.128C3.98206 107.433 3.4557 101.551 3.4557 98.2819C3.4557 95.2086 3.87221 92.0168 6.96627 91.6338C7.4377 91.5745 7.89541 91.7341 8.36684 92.1217C10.8796 94.1827 12.3992 101.342 12.6189 104.533C12.6509 104.994 13.0583 105.341 13.516 105.313C13.9783 105.281 14.3307 104.88 14.2986 104.419C14.262 103.881 14.1888 103.216 14.0744 102.463C14.0744 102.463 14.0835 102.463 14.0835 102.459C18.688 98.5875 31.8652 90.202 39.4173 87.1788C39.4814 87.1515 39.5363 87.1196 39.5912 87.0831C42.0857 88.6836 45.0928 89.6229 47.8665 89.8828C48.4249 89.9375 48.965 89.9603 49.4867 89.9603C53.1987 89.9603 55.9632 88.6562 56.8694 86.3991C57.2356 85.4871 57.2036 84.5478 56.7688 83.6176C55.2126 80.2753 48.8322 78.0729 48.109 77.8358C47.6697 77.6899 47.1891 77.927 47.0426 78.3693C46.8961 78.807 47.1341 79.2858 47.5735 79.4317C49.3448 80.0199 54.1736 82.0491 55.2355 84.329C55.4735 84.8397 55.4918 85.3002 55.2995 85.779C54.5626 87.6075 51.7066 88.5605 48.0175 88.2139C40.7401 87.5254 36.639 83.1981 35.9113 79.4682C35.623 77.9999 35.98 76.6502 36.9686 75.4556C39.3303 72.6011 45.1111 70.8319 52.059 70.8319C52.5259 70.8319 52.9012 70.4535 52.9012 69.9929C52.9012 69.5324 52.5259 69.1539 52.059 69.1539C44.5069 69.1539 38.3783 71.1101 35.6687 74.3886C34.3643 75.9663 33.8745 77.8358 34.259 79.7874C34.7487 82.2998 36.1493 84.3518 38.0213 85.934C30.6249 89.0803 18.7841 96.5629 13.7357 100.571C13.0171 97.0052 11.6119 92.6187 9.43328 90.8267C8.59569 90.1381 7.69402 89.8509 6.75115 89.9694C1.76221 90.585 1.76221 96.3805 1.76221 98.2865C1.76221 101.861 2.37095 108.327 6.45365 111.46C9.15408 113.534 12.7928 113.12 16.0059 112.755C18.0243 112.527 19.9284 112.308 21.0818 112.8C23.6174 113.881 31.9842 117.342 36.3644 119.011C37.0373 124.154 38.8635 127.542 41.8294 129.093C42.9736 129.694 44.2369 129.995 45.6741 129.995C47.633 129.995 49.917 129.435 52.6861 128.299C65.433 123.074 75.8229 110.976 82.3771 101.583C83.2697 101.67 84.1622 101.715 85.0547 101.715C88.2449 101.715 91.3664 101.132 94.0577 99.7092C96.7535 98.2819 98.3555 95.6509 98.5615 92.2995C98.9047 86.8277 95.6367 80.3984 90.7943 77.0105H90.7989Z" fill="#515151"/>
<path d="M53.4367 47.1666C53.3315 47.1666 53.2216 47.1438 53.1209 47.1028C52.9058 47.0116 52.7456 46.8338 52.6724 46.6103C50.956 41.2617 50.9514 36.9755 51.2535 34.3262C51.3039 33.8885 51.6929 33.5784 52.1414 33.624C52.5808 33.6742 52.8967 34.0709 52.8463 34.5086C52.5808 36.8615 52.5671 40.5823 53.9265 45.247L68.4585 38.2203C64.7557 30.0081 59.0115 26.2691 56.4118 27.2175C55.3362 27.6096 54.3247 28.9548 53.6427 30.9018C53.4962 31.3168 53.0431 31.5356 52.622 31.3943C52.2055 31.2484 51.9858 30.7924 52.1323 30.3774C52.9882 27.9379 54.311 26.2873 55.8626 25.7173C59.6477 24.3357 66.3302 29.0597 70.2435 38.2887C70.4083 38.6808 70.239 39.1323 69.8545 39.3147L53.7892 47.0846C53.6793 47.1393 53.5603 47.1666 53.4413 47.1666H53.4367Z" fill="#515151"/>
<path d="M58.563 32.1101C60.0779 31.5858 62.934 33.7243 64.4536 37.7962C63.3505 38.1154 62.133 38.5303 60.8332 39.0775C59.4463 39.6612 58.2197 40.295 57.1578 40.906C55.7984 36.3872 56.9976 32.6528 58.5584 32.1101H58.563Z" fill="#515151"/>
<path d="M106.539 65.2599C106.471 65.2599 106.402 65.2508 106.338 65.2326C106.114 65.1733 105.926 65.0228 105.821 64.8131L97.8978 48.872C97.7102 48.4935 97.8521 48.0284 98.2228 47.8232C106.992 42.9123 115.176 43.2589 117.318 46.6559C118.197 48.0512 118.229 50.167 117.405 52.6156C117.263 53.0351 116.81 53.2631 116.394 53.1172C115.972 52.9758 115.748 52.5244 115.89 52.1094C116.549 50.1487 116.577 48.4707 115.968 47.504C114.494 45.1649 107.656 44.6177 99.6829 48.8492L106.846 63.2718C110.791 60.4128 113.066 57.4672 114.302 55.4427C114.531 55.0642 115.025 54.9456 115.4 55.1736C115.78 55.4016 115.899 55.8941 115.67 56.268C114.279 58.5479 111.643 61.9358 106.997 65.114C106.864 65.2052 106.704 65.2554 106.544 65.2554L106.539 65.2599Z" fill="#515151"/>
<path d="M111.249 50.0666C110.37 48.726 106.8 48.6759 103.097 50.9694C103.775 51.8951 104.48 52.9666 105.171 54.1887C105.908 55.4973 106.489 56.7467 106.951 57.873C110.805 55.1325 112.151 51.4482 111.249 50.0666Z" fill="#515151"/>
<path d="M108.727 70.7636C106.676 76.8829 101.481 81.4153 94.5702 83.7272C87.6635 86.0344 79.1319 86.08 70.6233 83.2575C62.1146 80.435 55.3177 75.3052 51.1892 69.341C47.0562 63.3722 45.6419 56.6419 47.6924 50.5272C49.7429 44.408 54.9378 39.8755 61.8491 37.5637C68.7558 35.2564 77.2874 35.2109 85.7961 38.0334C94.3047 40.8559 101.102 45.9857 105.23 51.9499C109.363 57.9187 110.777 64.6489 108.727 70.7636Z" fill="#EEB070"/>
<path d="M83.0728 38.3799C82.8028 38.3799 82.5328 38.2614 82.3497 38.0334C82.0339 37.6367 82.1025 37.0576 82.5007 36.7429C83.7914 35.7215 86.1349 34.6363 87.508 34.2624C87.9977 34.1302 88.5058 34.4174 88.6385 34.9053C88.7712 35.3932 88.4829 35.8994 87.9931 36.0316C86.8214 36.3508 84.716 37.3357 83.645 38.1793C83.4756 38.3115 83.2742 38.3799 83.0728 38.3799Z" fill="#515151"/>
<path d="M86.5924 39.5153C86.2766 39.5153 85.97 39.3511 85.796 39.0638C85.5397 38.6261 85.6862 38.0652 86.1256 37.8053C87.549 36.9709 90.0161 36.2231 91.4258 36.0407C91.9292 35.9723 92.3915 36.3325 92.4556 36.8341C92.5197 37.3357 92.1627 37.7962 91.6592 37.86C90.4554 38.0151 88.231 38.6991 87.0547 39.3876C86.9083 39.4742 86.7481 39.5153 86.5879 39.5153H86.5924Z" fill="#515151"/>
<path d="M83.6861 86.2989C79.2967 86.2989 74.7609 85.5602 70.3075 84.0828C61.9132 81.3013 54.8463 76.2308 50.4066 69.8152C45.9807 63.4178 44.6945 56.4458 46.7954 50.1898C48.8916 43.9383 54.114 39.1368 61.5013 36.6563C66.6001 34.5633 74.262 34.2396 81.036 35.8355C81.5303 35.9541 81.837 36.4465 81.7226 36.939C81.6036 37.4314 81.1092 37.737 80.6149 37.623C74.2849 36.1319 66.8747 36.4283 62.1833 38.3662C62.165 38.3753 62.1421 38.3799 62.1238 38.389C55.2812 40.678 50.4616 45.0737 48.5484 50.7734C46.6352 56.4732 47.8389 62.866 51.9308 68.7755C56.1462 74.8674 62.8836 79.6871 70.8979 82.3455C78.9169 85.0039 87.2104 85.1726 94.259 82.8152C101.102 80.5307 105.921 76.1305 107.834 70.4307C109.748 64.731 108.544 58.3381 104.452 52.4286C101.184 47.7047 95.06 42.7938 89.5584 40.482C89.0916 40.2859 88.8719 39.7478 89.0687 39.2782C89.2655 38.8085 89.8056 38.5896 90.277 38.7903C96.0715 41.2252 102.525 46.4051 105.972 51.389C110.398 57.7864 111.684 64.7584 109.583 71.0144C107.482 77.2705 102.25 82.081 94.8494 84.557C91.3618 85.7243 87.5857 86.3034 83.6953 86.3034L83.6861 86.2989Z" fill="#515151"/>
<path d="M87.4576 68.1736C87.3432 66.5275 84.5283 65.9667 81.2695 65.3192C79.7911 65.0228 78.2578 64.7173 77.3699 64.3434C76.6696 64.047 75.9922 63.7552 75.3377 63.4725C69.6027 61.0056 65.4559 59.2227 63.3047 62.1456C62.6868 62.9891 62.7783 63.7096 62.9614 64.1656C63.8539 66.3497 68.8932 67.4714 74.2072 68.356C74.6832 68.4335 75.0676 68.4974 75.3102 68.5475C76.0151 68.6889 77.3333 69.4048 78.6148 70.1024C80.679 71.2241 82.638 72.2866 84.0065 72.2866C84.1988 72.2866 84.3773 72.2683 84.5421 72.2227C86.5102 71.7029 87.5995 70.1891 87.4576 68.1736Z" fill="white"/>
<path d="M78.9181 64.221C79.1676 63.4756 78.3592 62.5355 77.1123 62.121C75.8654 61.7066 74.6522 61.9748 74.4026 62.7202C74.153 63.4655 74.9615 64.4057 76.2084 64.8201C77.4553 65.2345 78.6685 64.9663 78.9181 64.221Z" fill="#515151"/>
<path d="M83.7044 62.3553C83.5121 62.3553 83.3245 62.2778 83.1872 62.1228L81.4204 60.1256C81.1687 59.8429 81.1962 59.4097 81.4799 59.1589C81.7637 58.9081 82.1985 58.9355 82.4503 59.2182L84.217 61.2154C84.4687 61.4981 84.4413 61.9313 84.1575 62.1821C84.0248 62.2961 83.8646 62.3508 83.7044 62.3508V62.3553Z" fill="#515151"/>
<path d="M71.1588 58.0783C70.8339 58.0783 70.5501 57.8503 70.486 57.522C70.4128 57.1526 70.6599 56.7924 71.0307 56.7194L73.6533 56.2179C74.0286 56.1495 74.3856 56.3911 74.4589 56.7605C74.5321 57.1298 74.2849 57.4901 73.9142 57.563L71.2916 58.0646C71.2458 58.0737 71.2046 58.0783 71.1634 58.0783H71.1588Z" fill="#515151"/>
</g>
<defs>
<clipPath id="clip0_770_4199">
<rect width="118" height="130" fill="white"/>
</clipPath>
</defs>
</svg>
