<svg width="52" height="77" viewBox="0 0 52 77" fill="none" xmlns="http://www.w3.org/2000/svg">
<path d="M25.9066 14C26.5646 14 27.098 13.4956 27.098 12.8735C27.098 12.2514 26.5646 11.7471 25.9066 11.7471C25.2487 11.7471 24.7153 12.2514 24.7153 12.8735C24.7153 13.4956 25.2487 14 25.9066 14Z" fill="#515151"/>
<path d="M25.7359 10.1785C25.2497 10.1785 24.8526 9.80655 24.8489 9.34685C24.8415 8.66607 24.8304 8.13618 24.8192 7.72561C24.7858 6.25176 24.7673 5.578 25.9252 5.36394C26.6712 5.22709 27.2575 4.813 27.5433 4.22347C27.8068 3.68656 27.7734 3.06895 27.4579 2.53556C27.0423 1.83723 26.2629 1.63721 25.6802 1.68283C25.1347 1.72494 24.463 1.99865 24.218 2.63732C24.051 3.07246 23.5426 3.29354 23.0824 3.13562C22.6222 2.97771 22.3847 2.49696 22.5554 2.06182C23.0044 0.903795 24.1475 0.117742 25.5392 0.0124672C26.9903 -0.0998261 28.3152 0.552879 29.0055 1.7109C29.6068 2.72154 29.6624 3.89009 29.1577 4.92179C28.6715 5.91839 27.7437 6.64128 26.5821 6.93605C26.5821 7.13256 26.5895 7.39926 26.5969 7.6835C26.6081 8.10109 26.6192 8.63449 26.6266 9.32579C26.6303 9.789 26.2369 10.168 25.7471 10.1715H25.7396L25.7359 10.1785Z" fill="#515151"/>
<g clip-path="url(#clip0_2253_67084)">
<path d="M2.09727 22.0351C-1.21707 24.3259 2.05206 33.1543 4.07613 35.2346C6.10021 37.3149 13.6296 26.2786 13.6296 26.2786C13.6296 26.2786 6.18716 19.2062 2.09727 22.0351Z" fill="white"/>
<path d="M4.88978 37.2771C4.88978 37.2771 4.85848 37.2771 4.84457 37.2771C4.6672 37.2633 4.50722 37.177 4.40289 37.0356C1.84323 33.6236 0.785982 30.5566 0.34778 28.5866C0.274746 28.2623 0.483414 27.9381 0.810326 27.8656C1.13724 27.7932 1.46415 28.0002 1.53719 28.3244C1.9267 30.0736 2.8344 32.7404 4.96629 35.7487L13.6782 27.1722C8.98662 22.1973 3.93686 20.9209 2.29882 22.2353C1.62065 22.7804 1.22766 23.9879 1.21723 25.5507C1.21723 25.8819 0.942483 26.151 0.608614 26.151H0.605136C0.26779 26.1475 0 25.875 0 25.5438C0.0139112 23.5877 0.556447 22.08 1.53371 21.2969C3.91252 19.3856 9.88389 21.1348 14.9754 26.7892C15.191 27.0273 15.1806 27.393 14.951 27.6207L5.31755 37.1046C5.20278 37.2184 5.04976 37.2805 4.88978 37.2805V37.2771Z" fill="#515151"/>
<path d="M5.05687 25.216C6.01674 24.4708 8.59726 25.3057 10.6944 27.8517C9.98143 28.3485 9.20588 28.9419 8.40946 29.6526C7.55392 30.4116 6.83054 31.1602 6.21845 31.8571C4.12482 28.9557 4.0657 25.9888 5.05687 25.2194V25.216Z" fill="#515151"/>
<path d="M48.7135 21.4287C52.0279 23.7195 48.7587 32.5479 46.7347 34.6282C44.7106 36.7085 37.1812 25.6721 37.1812 25.6721C37.1812 25.6721 44.6236 18.5997 48.7135 21.4287Z" fill="white"/>
<path d="M45.848 36.7253C45.688 36.7253 45.535 36.6632 45.4202 36.5494L35.7902 27.0689C35.5607 26.8412 35.5502 26.479 35.7659 26.2375C40.8573 20.583 46.8252 18.8339 49.2041 20.7451C50.1813 21.5283 50.7239 23.0359 50.7378 24.9886C50.7378 25.3232 50.47 25.5958 50.1326 25.5958H50.1292C49.7953 25.5958 49.524 25.3267 49.5205 24.9955C49.5101 23.4327 49.1171 22.2252 48.4389 21.6801C46.8009 20.3657 41.7511 21.6421 37.0631 26.617L45.775 35.1935C47.9034 32.1852 48.8145 29.5184 49.2041 27.7692C49.2771 27.4449 49.6005 27.2379 49.9309 27.3104C50.2578 27.3828 50.4665 27.7037 50.3935 28.0314C49.9553 30.0048 48.898 33.0718 46.3418 36.4804C46.2375 36.6218 46.074 36.708 45.9002 36.7218C45.8862 36.7218 45.8689 36.7218 45.8549 36.7218L45.848 36.7253Z" fill="#515151"/>
<path d="M45.681 24.6613C44.7211 23.9161 42.1406 24.751 40.0435 27.2971C40.7564 27.7939 41.532 28.3872 42.3284 29.0979C43.1839 29.8569 43.9073 30.6056 44.5194 31.3024C46.613 28.401 46.6721 25.4341 45.681 24.6648V24.6613Z" fill="#515151"/>
<path d="M9.69978 57.6592C4.91086 62.6996 1.64521 71.7695 0.612305 75.6783L51.2629 76.3406C50.2891 64.8454 44.0569 56.8105 41.066 54.2334C34.3295 58.0352 26.2158 58.325 22.9989 57.9904C23.7953 56.4 22.665 55.5582 22.0007 55.3374C19.695 55.603 18.8951 56.9968 18.7873 57.6592L16.1267 57.2176C11.3622 54.123 10.4753 54.8958 9.03553 54.675C7.88437 54.499 8.99727 56.5897 9.69978 57.6592Z" fill="#766F65"/>
<path d="M0.67468 76.3309C0.653814 76.3309 0.636425 76.3309 0.615558 76.3309C0.243434 76.2999 -0.031312 75.9756 -1.18825e-05 75.6064C0.54948 69.2654 6.53824 61.1857 9.62653 57.7978C9.87693 57.5218 10.3047 57.5011 10.5794 57.7495C10.8542 57.9979 10.8785 58.4223 10.6281 58.6948C7.64418 61.9688 1.86409 69.7381 1.34589 75.7203C1.31459 76.0687 1.01898 76.3309 0.67468 76.3309Z" fill="#515151"/>
<path d="M51.3255 76.9997C50.9812 76.9997 50.6856 76.7375 50.6543 76.3925C49.6318 65.2595 43.7439 57.8007 40.7704 55.4133C40.4817 55.1822 40.4365 54.7579 40.6695 54.4715C40.9025 54.1852 41.3303 54.1403 41.619 54.3715C44.742 56.883 50.9325 64.6902 51.9967 76.2683C52.0315 76.6374 51.7567 76.9617 51.3846 76.9962C51.3637 76.9962 51.3429 76.9962 51.322 76.9962L51.3255 76.9997Z" fill="#515151"/>
<path d="M29.6864 24.1502C34.4684 24.8229 38.7322 26.5651 42.0117 29.0146C46.279 32.1954 48.8456 36.5355 48.8456 41.2619C48.8456 45.9883 46.279 50.3249 42.0117 53.5092C37.7445 56.6901 31.8183 58.6807 25.2453 58.6807C18.6722 58.6807 12.7426 56.6901 8.47883 53.5092C4.21157 50.3249 1.64844 45.9849 1.64844 41.2619C1.64844 36.5389 4.21505 32.1989 8.4823 29.0146C12.134 26.2891 17.0029 24.44 22.4526 23.9639" fill="#EEB070"/>
<path d="M25.3148 59.3498C18.8113 59.3498 12.6973 57.4696 8.0997 54.0507C3.50205 50.6318 0.970215 46.0882 0.970215 41.2583C0.970215 36.4283 3.50205 31.8848 8.0997 28.4693C11.9566 25.6024 17.055 23.767 22.4526 23.2944C22.8108 23.2634 23.1238 23.5359 23.1551 23.905C23.1864 24.2742 22.9186 24.5985 22.5638 24.6295C17.3993 25.078 12.5304 26.8306 8.86133 29.5561C4.60799 32.7128 2.26743 36.8699 2.26743 41.2583C2.26743 45.6466 4.60799 49.8038 8.85786 52.9639C13.2364 56.2172 19.0826 58.0078 25.3148 58.0078C31.547 58.0078 37.3932 56.2172 41.7717 52.9639C46.0216 49.8038 48.3621 45.65 48.3621 41.2617C48.3621 36.8734 46.0216 32.7162 41.7717 29.5595C38.4643 27.1031 34.2875 25.461 29.6864 24.8158C29.3316 24.7675 29.0812 24.4294 29.1299 24.0603C29.1786 23.6946 29.5055 23.4393 29.8603 23.4876C34.6701 24.1638 39.0486 25.8853 42.5299 28.4693C47.1275 31.8848 49.6594 36.4283 49.6594 41.2583C49.6594 46.0882 47.1275 50.6318 42.5299 54.0472C37.9322 57.4627 31.8183 59.3463 25.3148 59.3463V59.3498Z" fill="#515151"/>
<path d="M23.7254 61.431C22.4143 60.7444 20.7727 59.8716 19.7885 59.0401C19.1208 58.4744 21.1414 55.9352 19.1973 54.7174C17.4132 53.5996 15.9873 55.7282 15.2257 56.4975C12.9268 55.3004 9.84899 52.1506 8.23877 54.0964C6.73289 55.9145 9.59859 57.7947 10.4959 58.5434C10.8263 58.8193 10.2072 59.5162 9.9881 60.1855C8.90999 63.425 12.2521 67.0613 18.2305 69.421" fill="white"/>
<path d="M18.8286 70.6319C18.7451 70.6319 18.6582 70.6181 18.5747 70.5836C11.8035 67.9685 8.23872 63.8976 9.49073 60.213C9.58811 59.9232 9.73765 59.6472 9.86633 59.4058C9.91502 59.3195 9.97414 59.2057 10.0194 59.1125C9.97762 59.078 9.93241 59.0435 9.88372 59.009C8.9308 58.2776 7.33797 57.0563 7.17452 55.5556C7.10496 54.9001 7.30667 54.286 7.77618 53.7271C9.43856 51.7641 12.0052 53.4684 14.064 54.838C14.5753 55.1761 15.0656 55.5039 15.5247 55.7695L15.5317 55.7592C16.3663 54.8415 18.1087 52.9302 20.2128 54.217C21.9343 55.2727 21.4613 57.0425 21.1796 58.1017C21.1205 58.3225 21.037 58.6399 21.0231 58.8055C22.063 59.63 23.8471 60.5408 24.9287 61.0962C25.273 61.2722 25.4086 61.6931 25.2312 62.0381C25.0539 62.3796 24.6296 62.5142 24.2818 62.3382C22.6994 61.5275 21.0648 60.665 20.0111 59.7921C19.4059 59.2885 19.6146 58.5019 19.8163 57.7429C20.1189 56.6044 20.2475 55.8799 19.472 55.4038C18.5434 54.8346 17.7366 55.4176 16.575 56.6906C16.422 56.8597 16.2829 57.0115 16.1577 57.1322C15.942 57.3461 15.6116 57.3979 15.3404 57.2564C14.6796 56.9218 13.998 56.4664 13.278 55.9869C11.1844 54.5965 9.64027 53.6823 8.85081 54.6138C8.55868 54.9588 8.55172 55.2244 8.56911 55.3935C8.66649 56.3008 10.0159 57.3358 10.7393 57.8912C10.8888 58.0085 11.0244 58.1086 11.1322 58.1983C11.8069 58.7503 11.3653 59.5679 11.1009 60.0543C10.9897 60.2579 10.8784 60.4683 10.8158 60.6477C9.83851 63.5215 13.1563 66.9887 19.0755 69.2726C19.4372 69.414 19.6181 69.8177 19.4755 70.1765C19.3677 70.4525 19.0999 70.6215 18.8182 70.6215L18.8286 70.6319Z" fill="#515151"/>
<path d="M27.2032 38.3576C26.7163 37.2122 24.56 37.4951 22.0665 37.8263C20.9327 37.9746 19.7607 38.1299 19.0338 38.0781C18.4565 38.0367 17.9001 37.9953 17.3645 37.9505C12.6451 37.5848 9.23687 37.3191 8.41611 39.9273C8.17962 40.6794 8.42307 41.1727 8.66999 41.4522C9.23339 42.0939 10.4193 42.3319 11.9461 42.3319C13.605 42.3319 15.6604 42.0525 17.754 41.7109C18.1157 41.6523 18.4078 41.604 18.5921 41.5798C19.1312 41.5108 20.2545 41.7006 21.3431 41.8834C23.3393 42.2215 25.2278 42.5424 26.1111 41.9559C27.391 41.1072 27.8013 39.7617 27.2032 38.3576Z" fill="white"/>
<path d="M17.8967 38.8165C18.8287 38.8165 19.5834 38.368 19.5834 37.8125C19.5834 37.2571 18.8287 36.8086 17.8967 36.8086C16.9646 36.8086 16.21 37.2571 16.21 37.8125C16.21 38.368 16.9646 38.8165 17.8967 38.8165Z" fill="#515151"/>
<path d="M24.4176 24.5435C24.2924 24.5435 24.1672 24.509 24.0524 24.4365C23.7394 24.2364 23.649 23.8224 23.8507 23.5119C24.5254 22.4735 25.9304 21.1315 26.8207 20.5312C27.1302 20.3242 27.5476 20.4035 27.7597 20.7106C27.9684 21.0176 27.8884 21.4316 27.5789 21.6421C26.8172 22.1561 25.5444 23.3739 24.9879 24.2399C24.8592 24.44 24.6401 24.5469 24.421 24.5469L24.4176 24.5435Z" fill="#515151"/>
<path d="M27.3842 24.6884C27.2277 24.6884 27.0712 24.6367 26.946 24.5263C26.6643 24.2848 26.633 23.8639 26.873 23.581C27.6868 22.6426 29.2657 21.511 30.2325 21.0384C30.5664 20.8762 30.9698 21.0108 31.1368 21.342C31.3002 21.6732 31.1646 22.0734 30.8307 22.239C30.003 22.6426 28.5736 23.6741 27.8989 24.4538C27.7668 24.6091 27.5755 24.6884 27.3877 24.6884H27.3842Z" fill="#515151"/>
<path d="M13.5112 32.8233C12.8052 32.8302 12.2348 33.4029 12.2383 34.1032C12.2383 34.4448 12.3774 34.7622 12.6209 35.0002C12.8608 35.2348 13.1808 35.3659 13.5216 35.3659H13.532C14.238 35.359 14.8084 34.7863 14.8049 34.086C14.8049 33.7444 14.6658 33.427 14.4224 33.189C14.1789 32.951 13.8555 32.8199 13.5112 32.8233Z" fill="#515151"/>
<path d="M22.9117 32.8232H22.9013C22.1953 32.8301 21.625 33.4028 21.6284 34.1066C21.6284 34.4447 21.7675 34.7656 22.011 35.0036C22.251 35.2382 22.5709 35.3693 22.9117 35.3693H22.9222C23.263 35.3693 23.5864 35.2313 23.8264 34.9898C24.0664 34.7483 24.1985 34.4275 24.195 34.0859C24.1881 33.389 23.6143 32.8232 22.9117 32.8232Z" fill="#515151"/>
</g>
<defs>
<clipPath id="clip0_2253_67084">
<rect width="52" height="57" fill="white" transform="translate(0 20)"/>
</clipPath>
</defs>
</svg>
