<svg width="38" height="42" viewBox="0 0 38 42" fill="none" xmlns="http://www.w3.org/2000/svg">
<g clip-path="url(#clip0_2253_66675)">
<path d="M1.53251 1.49998C-0.889509 3.18792 1.49947 9.69306 2.9786 11.2259C4.45773 12.7588 9.96001 4.62672 9.96001 4.62672C9.96001 4.62672 4.52127 -0.584509 1.53251 1.49998Z" fill="white"/>
<path d="M3.5733 12.7304C3.5733 12.7304 3.55043 12.7304 3.54026 12.7304C3.41065 12.7202 3.29374 12.6567 3.2175 12.5525C1.34698 10.0384 0.574371 7.77847 0.254147 6.32695C0.200776 6.08799 0.353264 5.84904 0.592162 5.79566C0.831059 5.74227 1.06996 5.8948 1.12333 6.13375C1.40797 7.42258 2.07129 9.38759 3.62921 11.6043L9.99559 5.2847C6.56715 1.61904 2.87694 0.678479 1.67991 1.64701C1.18432 2.04865 0.897138 2.93838 0.889513 4.08993C0.889513 4.33397 0.688737 4.53225 0.444757 4.53225H0.442215C0.195693 4.52971 0 4.32888 0 4.08485C0.0101659 2.6435 0.406635 1.53261 1.12079 0.955564C2.85915 -0.45274 7.22285 0.836088 10.9436 5.00253C11.1011 5.17793 11.0935 5.44739 10.9258 5.61517L3.8859 12.6033C3.80203 12.6872 3.69021 12.733 3.5733 12.733V12.7304Z" fill="#515151"/>
<path d="M3.69523 3.84336C4.39668 3.29427 6.28245 3.90945 7.81495 5.7855C7.29395 6.15156 6.7272 6.58879 6.14521 7.11246C5.52001 7.67171 4.99138 8.22334 4.54408 8.73684C3.01412 6.59896 2.97092 4.41278 3.69523 3.8459V3.84336Z" fill="#515151"/>
<path d="M35.5984 1.05272C38.0204 2.74065 35.6314 9.2458 34.1523 10.7787C32.6732 12.3115 27.1709 4.17946 27.1709 4.17946C27.1709 4.17946 32.6096 -1.03177 35.5984 1.05272Z" fill="white"/>
<path d="M33.5042 12.3242C33.3873 12.3242 33.2755 12.2784 33.1916 12.1945L26.1543 5.20892C25.9865 5.04114 25.9789 4.77423 26.1365 4.59628C29.8572 0.429838 34.2183 -0.85899 35.9567 0.549314C36.6709 1.12636 37.0673 2.23725 37.0775 3.67605C37.0775 3.92263 36.8818 4.12346 36.6353 4.12346H36.6327C36.3887 4.12346 36.1905 3.92518 36.188 3.68114C36.1803 2.52958 35.8932 1.63986 35.3976 1.23821C34.2005 0.269687 30.5103 1.21025 27.0844 4.87591L33.4508 11.1955C35.0062 8.9788 35.6721 7.01379 35.9567 5.72496C36.0101 5.486 36.2464 5.33348 36.4879 5.38686C36.7268 5.44025 36.8793 5.67666 36.8259 5.91816C36.5057 7.37222 35.7331 9.63211 33.8651 12.1437C33.7888 12.2479 33.6694 12.3115 33.5423 12.3216C33.5321 12.3216 33.5194 12.3216 33.5093 12.3216L33.5042 12.3242Z" fill="#515151"/>
<path d="M33.3822 3.43418C32.6807 2.88509 30.795 3.50027 29.2625 5.37632C29.7835 5.74238 30.3502 6.17961 30.9322 6.70328C31.5574 7.26253 32.086 7.81416 32.5333 8.32766C34.0633 6.18978 34.1065 4.0036 33.3822 3.43672V3.43418Z" fill="#515151"/>
<path d="M7.08812 27.7489C3.58852 31.4628 1.20208 38.1459 0.447266 41.0261L37.4612 41.5142C36.7496 33.044 32.1953 27.1235 30.0096 25.2246C25.0868 28.026 19.1575 28.2395 16.8067 27.9929C17.3887 26.821 16.5627 26.2008 16.0773 26.0381C14.3923 26.2338 13.8078 27.2608 13.729 27.7489L11.7847 27.4235C8.30294 25.1433 7.65486 25.7127 6.6027 25.55C5.76147 25.4203 6.57474 26.9608 7.08812 27.7489Z" fill="#766F65"/>
<path d="M0.492989 41.5068C0.47774 41.5068 0.465033 41.5068 0.449784 41.5068C0.177847 41.4839 -0.0229288 41.245 -5.56335e-05 40.973C0.401496 36.3006 4.7779 30.3471 7.03472 27.8508C7.21771 27.6475 7.53031 27.6322 7.73108 27.8152C7.93186 27.9983 7.94965 28.3109 7.76666 28.5118C5.58609 30.9242 1.36217 36.6489 0.983492 41.0568C0.960619 41.3136 0.744594 41.5068 0.492989 41.5068Z" fill="#515151"/>
<path d="M37.5069 42.0001C37.2553 42.0001 37.0393 41.8069 37.0164 41.5527C36.2692 33.3495 31.9665 27.8535 29.7936 26.0944C29.5826 25.9241 29.5496 25.6114 29.7199 25.4004C29.8901 25.1894 30.2027 25.1564 30.4137 25.3267C32.6959 27.1773 37.2197 32.93 37.9974 41.4612C38.0228 41.7332 37.8221 41.9721 37.5501 41.9976C37.5349 41.9976 37.5196 41.9976 37.5044 41.9976L37.5069 42.0001Z" fill="#515151"/>
<path d="M21.694 3.05817C25.1885 3.55387 28.3044 4.83762 30.701 6.64248C33.8193 8.98627 35.6949 12.1842 35.6949 15.6668C35.6949 19.1494 33.8193 22.3448 30.701 24.6911C27.5826 27.0349 23.2519 28.5017 18.4486 28.5017C13.6452 28.5017 9.31199 27.0349 6.19615 24.6911C3.07777 22.3448 1.20471 19.1469 1.20471 15.6668C1.20471 12.1867 3.08031 8.98881 6.19869 6.64248C8.86723 4.63425 12.4253 3.2717 16.4078 2.9209" fill="#EEB070"/>
<path d="M18.4994 28.9947C13.7468 28.9947 9.27893 27.6093 5.91911 25.0901C2.55929 22.5709 0.709106 19.223 0.709106 15.6641C0.709106 12.1052 2.55929 8.7573 5.91911 6.24065C8.7376 4.1282 12.4634 2.77582 16.4077 2.42756C16.6695 2.40468 16.8982 2.6055 16.9211 2.8775C16.944 3.1495 16.7483 3.38846 16.4891 3.41134C12.715 3.7418 9.15694 5.03317 6.47569 7.04141C3.36748 9.36739 1.65707 12.4306 1.65707 15.6641C1.65707 18.8976 3.36748 21.9608 6.47315 24.2893C9.67286 26.6865 13.9451 28.0058 18.4994 28.0058C23.0537 28.0058 27.3259 26.6865 30.5256 24.2893C33.6313 21.9608 35.3417 18.9001 35.3417 15.6666C35.3417 12.4331 33.6313 9.36994 30.5256 7.04395C28.1087 5.234 25.0564 4.02397 21.694 3.54861C21.4348 3.51302 21.2518 3.2639 21.2874 2.9919C21.3229 2.72244 21.5618 2.53432 21.8211 2.56991C25.3359 3.06816 28.5356 4.33665 31.0796 6.24065C34.4394 8.7573 36.2896 12.1052 36.2896 15.6641C36.2896 19.223 34.4394 22.5709 31.0796 25.0875C27.7198 27.6042 23.2519 28.9921 18.4994 28.9921V28.9947Z" fill="#515151"/>
<path d="M17.3379 30.5281C16.3798 30.0223 15.1802 29.3791 14.461 28.7665C13.973 28.3496 15.4496 26.4786 14.029 25.5813C12.7252 24.7576 11.6832 26.3261 11.1266 26.893C9.44669 26.0109 7.19749 23.69 6.02079 25.1237C4.92034 26.4634 7.0145 27.8488 7.6702 28.4004C7.91164 28.6038 7.45926 29.1173 7.29915 29.6104C6.51129 31.9974 8.95364 34.6768 13.3224 36.4155" fill="white"/>
<path d="M13.7595 37.3076C13.6985 37.3076 13.635 37.2975 13.574 37.2721C8.62575 35.3452 6.02075 32.3455 6.93567 29.6306C7.00683 29.4171 7.11612 29.2137 7.21015 29.0358C7.24573 28.9722 7.28894 28.8883 7.32198 28.8197C7.29148 28.7943 7.25844 28.7688 7.22286 28.7434C6.5265 28.2045 5.36251 27.3046 5.24306 26.1988C5.19223 25.7158 5.33963 25.2633 5.68273 24.8515C6.89755 23.4051 8.77315 24.6609 10.2777 25.6701C10.6513 25.9192 11.0096 26.1607 11.3451 26.3564L11.3502 26.3488C11.9602 25.6726 13.2334 24.2643 14.771 25.2125C16.029 25.9904 15.6834 27.2945 15.4775 28.0749C15.4343 28.2376 15.3733 28.4714 15.3632 28.5934C16.1231 29.201 17.4268 29.8721 18.2172 30.2814C18.4688 30.411 18.568 30.7212 18.4383 30.9754C18.3087 31.227 17.9987 31.3262 17.7445 31.1965C16.5882 30.5991 15.3937 29.9636 14.6236 29.3205C14.1814 28.9493 14.3339 28.3697 14.4813 27.8105C14.7024 26.9716 14.7964 26.4378 14.2297 26.087C13.5511 25.6675 12.9615 26.0971 12.1126 27.0352C12.0008 27.1597 11.8992 27.2716 11.8077 27.3605C11.6501 27.5182 11.4087 27.5563 11.2104 27.4521C10.7275 27.2055 10.2294 26.8699 9.70333 26.5166C8.17337 25.4921 7.04496 24.8185 6.46804 25.5048C6.25456 25.759 6.24948 25.9548 6.26218 26.0793C6.33335 26.7479 7.31943 27.5105 7.84806 27.9198C7.95734 28.0062 8.05646 28.0799 8.13524 28.146C8.62829 28.5528 8.30552 29.1552 8.11237 29.5137C8.03105 29.6637 7.94972 29.8187 7.90397 29.9509C7.18982 32.0684 9.61438 34.6232 13.94 36.3061C14.2043 36.4103 14.3364 36.7077 14.2322 36.9721C14.1534 37.1755 13.9577 37.3 13.7519 37.3L13.7595 37.3076Z" fill="#515151"/>
<path d="M19.8793 13.5266C19.5235 12.6827 17.9478 12.8911 16.1256 13.1352C15.2971 13.2445 14.4406 13.3589 13.9094 13.3207C13.4875 13.2902 13.0809 13.2597 12.6895 13.2267C9.24074 12.9572 6.7501 12.7615 6.15032 14.6833C5.9775 15.2374 6.1554 15.601 6.33585 15.8069C6.74756 16.2797 7.6142 16.4551 8.72991 16.4551C9.94219 16.4551 11.4442 16.2492 12.9742 15.9975C13.2385 15.9543 13.452 15.9187 13.5866 15.9009C13.9806 15.8501 14.8015 15.9899 15.5969 16.1246C17.0557 16.3737 18.4358 16.6102 19.0813 16.178C20.0166 15.5527 20.3165 14.5612 19.8793 13.5266Z" fill="white"/>
<path d="M13.0784 13.8642C13.7595 13.8642 14.311 13.5338 14.311 13.1245C14.311 12.7152 13.7595 12.3848 13.0784 12.3848C12.3973 12.3848 11.8458 12.7152 11.8458 13.1245C11.8458 13.5338 12.3973 13.8642 13.0784 13.8642Z" fill="#515151"/>
<path d="M17.8437 3.34792C17.7522 3.34792 17.6607 3.3225 17.5768 3.26912C17.3481 3.12168 17.282 2.81663 17.4294 2.58784C17.9224 1.82268 18.9492 0.833817 19.5998 0.391497C19.826 0.238974 20.131 0.297441 20.286 0.523685C20.4385 0.749929 20.38 1.05498 20.1538 1.21004C19.5973 1.58881 18.6671 2.48616 18.2605 3.12422C18.1664 3.27166 18.0063 3.35046 17.8462 3.35046L17.8437 3.34792Z" fill="#515151"/>
<path d="M20.0116 3.45494C19.8972 3.45494 19.7828 3.41681 19.6913 3.33546C19.4855 3.15752 19.4626 2.84739 19.638 2.63894C20.2327 1.94749 21.3865 1.1137 22.093 0.765434C22.337 0.645957 22.6318 0.745098 22.7538 0.989136C22.8732 1.23317 22.7741 1.52805 22.5302 1.65007C21.9253 1.94749 20.8807 2.70757 20.3877 3.28208C20.2911 3.39647 20.1513 3.45494 20.0141 3.45494H20.0116Z" fill="#515151"/>
<path d="M9.87355 9.44927C9.35763 9.45435 8.94083 9.87634 8.94337 10.3924C8.94337 10.644 9.04503 10.8779 9.22293 11.0533C9.39829 11.2262 9.63211 11.3228 9.88117 11.3228H9.8888C10.4047 11.3177 10.8215 10.8957 10.819 10.3797C10.819 10.128 10.7173 9.89413 10.5394 9.71873C10.3615 9.54332 10.1252 9.44673 9.87355 9.44927Z" fill="#515151"/>
<path d="M16.7431 9.44922H16.7355C16.2196 9.4543 15.8028 9.87629 15.8053 10.3949C15.8053 10.644 15.907 10.8804 16.0849 11.0558C16.2602 11.2287 16.494 11.3253 16.7431 11.3253H16.7507C16.9998 11.3253 17.2362 11.2236 17.4115 11.0456C17.5869 10.8677 17.6835 10.6313 17.6809 10.3796C17.6758 9.86612 17.2565 9.44922 16.7431 9.44922Z" fill="#515151"/>
</g>
<defs>
<clipPath id="clip0_2253_66675">
<rect width="38" height="42" fill="white"/>
</clipPath>
</defs>
</svg>
