<svg width="88" height="80" viewBox="0 0 88 80" fill="none" xmlns="http://www.w3.org/2000/svg">
<g clip-path="url(#clip0_2253_66923)">
<path d="M42.906 2.94183C39.5495 0.958618 33.6155 5.98128 32.0797 7.61451C30.544 9.24774 41.2562 16.5941 41.2562 16.5941C41.2562 16.5941 47.3264 5.55248 42.906 2.94183Z" fill="white"/>
<path d="M18.5937 0.554904C13.9168 -0.173429 7.97009 8.76521 7.97009 8.76521L20.9812 6.23653C20.9812 6.23653 21.4752 1.00262 18.5937 0.554904Z" fill="white"/>
<path d="M40.5754 17.4106C40.4298 17.4106 40.2905 17.3538 40.186 17.2498L31.4179 8.58546C31.209 8.37736 31.1995 8.0463 31.3958 7.8256C36.0315 2.6579 41.4652 1.05935 43.6343 2.80609C44.5209 3.52181 45.018 4.89965 45.0307 6.68423C45.0307 6.99006 44.7869 7.23915 44.4797 7.23915C44.1884 7.23915 43.9224 6.99637 43.9224 6.69053C43.9129 5.26224 43.5551 4.15871 42.9376 3.66054C41.4494 2.45926 36.8485 3.62586 32.58 8.17242L40.5121 16.0107C42.45 13.2613 43.2796 10.8241 43.6343 9.22551C43.7008 8.92913 43.9953 8.73995 44.2961 8.80617C44.5937 8.87238 44.7837 9.1656 44.7172 9.46513C44.3182 11.2686 43.3556 14.0716 41.0283 17.1867C40.9333 17.316 40.7844 17.3948 40.6261 17.4074C40.6134 17.4074 40.5976 17.4074 40.5849 17.4074L40.5754 17.4106Z" fill="#515151"/>
<path d="M40.4234 6.38778C39.5495 5.70674 37.1999 6.46976 35.2905 8.79664C35.9397 9.25067 36.6458 9.79297 37.3709 10.4425C38.1499 11.1361 38.8085 11.8203 39.3658 12.4572C41.272 9.80559 41.3259 7.09404 40.4234 6.39093V6.38778Z" fill="#515151"/>
<path d="M18.2801 15.2255C18.1756 15.2255 18.0711 15.1971 17.9825 15.1372L7.97003 8.76509C7.84337 8.68311 7.75471 8.557 7.72621 8.40881C7.69772 8.26062 7.72621 8.10927 7.81488 7.98631C11.7603 2.3299 17.1592 -1.16357 19.6006 0.356151C20.5695 0.958366 21.2281 2.26684 21.4593 4.03881C21.4973 4.34149 21.2851 4.61895 20.9812 4.65679C20.6772 4.69777 20.3985 4.48337 20.3605 4.18069C20.1769 2.76501 19.6861 1.71192 19.0148 1.29258C17.3935 0.283633 12.7704 3.05508 9.05931 8.14711L18.0838 13.8918C19.6956 10.9059 20.2244 8.36782 20.3795 6.73143C20.408 6.42875 20.6772 6.20489 20.9843 6.23326C21.2883 6.26164 21.5131 6.5328 21.4846 6.83548C21.3073 8.67365 20.693 11.5712 18.7646 14.9449C18.6886 15.0773 18.562 15.1719 18.4163 15.2066C18.372 15.216 18.3276 15.2223 18.2833 15.2223L18.2801 15.2255Z" fill="#515151"/>
<path d="M16.852 4.29773C15.8989 3.72705 13.6602 4.76752 12.0516 7.30881C12.7514 7.68086 13.5177 8.13488 14.3188 8.6898C15.1738 9.28256 15.9148 9.88477 16.5449 10.4492C18.1123 7.58627 17.8368 4.88734 16.8552 4.30089L16.852 4.29773Z" fill="#515151"/>
<path d="M4.3001 51.6676C3.19499 45.986 6.28865 39.4499 11.4785 36.0794L11.8363 35.4551C23.3022 38.3811 33.8118 33.9985 37.6369 31.4414L38.6217 31.7977C44.4987 30.8707 47.0921 34.8151 47.9945 36.896C51.8387 45.7495 45.1035 49.716 43.286 49.9272C46.367 54.3508 41.3987 60.3698 38.6217 63.0183C38.6217 63.0183 44.1124 63.198 49.4606 63.0183C54.8088 62.8386 58.2825 63.2421 58.5073 65.3389C58.8714 68.722 43.6659 70.4687 30.924 69.0972C26.7125 73.1992 8.16322 81.5734 6.99795 78.72C6.14299 76.6233 13.8502 68.9585 19.2364 65.7614C16.6842 65.3956 12.4095 59.2883 10.9402 55.6183C7.04861 55.9903 5.21838 54.0134 4.29693 51.6739L4.3001 51.6676Z" fill="#776F66"/>
<path d="M24.1191 5.03515C25.6865 5.16757 27.292 5.4671 28.9037 5.98103C40.1004 9.55018 44.0427 15.9696 44.3119 20.7873C44.581 25.605 40.0118 30.0633 33.8308 33.541C27.6498 37.0187 7.31456 38.5353 2.21017 28.2787C-1.8746 20.0716 3.4356 12.5518 6.59893 9.81503C6.83008 9.27903 14.8033 4.23745 24.1191 5.03199" fill="#EEB070"/>
<path d="M21.1047 37.0222C17.6437 37.0222 14.7749 36.5366 13.1125 36.256C11.5324 35.988 7.49831 35.0358 4.17666 31.9428C1.04183 29.0294 -0.373593 25.1103 0.0823816 20.611C0.690348 14.6236 4.10383 10.9157 6.08288 9.23832C7.54264 8.00236 8.79974 7.34023 9.5217 7.01863C13.331 5.12686 17.5519 4.20304 22.0673 4.27871C22.2257 4.27871 22.384 4.28502 22.5423 4.29132C22.9255 4.30394 23.2263 4.62239 23.2136 5.00705C23.2009 5.38855 22.8748 5.68178 22.4948 5.67547C22.3428 5.66917 22.1908 5.66601 22.0388 5.66286C17.8527 5.59034 13.9421 6.42272 10.4051 8.12532C10.3608 8.15685 10.3133 8.18523 10.2595 8.2073C10.2057 8.22937 10.1518 8.25144 10.098 8.27666H10.0917C9.11639 8.70862 7.99228 9.4338 6.979 10.2914C5.15827 11.8364 2.01711 15.2447 1.45981 20.7498C1.01016 25.1828 3.00505 33.1503 13.3373 34.8939C17.8147 35.6506 31.4338 37.9492 40.9935 27.2858C43.5298 23.9752 43.8496 22.2537 43.5773 19.8669C43.0612 15.3235 38.9067 11.8427 36.4749 10.1684C35.3793 9.41488 34.2077 8.73384 33.0804 8.19469C33.0741 8.19153 33.0646 8.18838 33.0582 8.18523C33.0487 8.18207 33.0392 8.17577 33.0329 8.17262C32.1336 7.67445 30.8892 7.18259 29.5244 6.78216C29.1571 6.67496 28.945 6.2903 29.0526 5.9214C29.1603 5.55251 29.5466 5.34441 29.9171 5.45161C31.3705 5.87726 32.7131 6.41011 33.6979 6.95242C34.8853 7.51995 36.1171 8.23883 37.2665 9.03022C39.8915 10.8369 44.3784 14.6267 44.9579 19.7093C45.2651 22.4177 44.9041 24.4671 42.0796 28.1466L42.0479 28.1876C35.5629 35.4362 27.3617 37.0222 21.0984 37.0253L21.1047 37.0222Z" fill="#515151"/>
<path d="M38.4982 44.7307C38.1879 44.7307 37.8934 44.551 37.7604 44.2515C36.3925 41.1427 37.2253 31.936 37.2633 31.5451C37.3045 31.1037 37.6971 30.7789 38.1404 30.8199C38.5837 30.8609 38.9099 31.2519 38.8687 31.6933C38.5267 35.3696 38.3462 41.5778 39.2392 43.6051C39.4165 44.0119 39.2328 44.4848 38.8244 44.6614C38.7199 44.7087 38.609 44.7307 38.5014 44.7307H38.4982Z" fill="#515151"/>
<path d="M12.8908 50.0212C12.609 50.0212 12.3366 49.873 12.1878 49.6113C10.7122 47.0038 9.63563 39.1719 11.0985 35.4388C11.26 35.0257 11.7287 34.8208 12.1435 34.9816C12.5583 35.1424 12.7641 35.609 12.6026 36.0221C11.3329 39.2633 12.3208 46.5782 13.5937 48.8231C13.8122 49.2109 13.6761 49.6996 13.2866 49.9172C13.1599 49.9865 13.0269 50.0212 12.8908 50.0212Z" fill="#515151"/>
<path d="M68.7604 30.0413H51.1642C50.7272 30.0413 50.3726 29.6882 50.3726 29.2531C50.3726 28.818 50.7272 28.4648 51.1642 28.4648H68.7604C69.1974 28.4648 69.552 28.818 69.552 29.2531C69.552 29.6882 69.1974 30.0413 68.7604 30.0413Z" fill="#515151"/>
<path d="M78.8678 23.6185H61.2716C60.8346 23.6185 60.48 23.2653 60.48 22.8302C60.48 22.3951 60.8346 22.042 61.2716 22.042H78.8678C79.3048 22.042 79.6594 22.3951 79.6594 22.8302C79.6594 23.2653 79.3048 23.6185 78.8678 23.6185Z" fill="#515151"/>
<path d="M87.2083 49.3089H61.2716C60.8346 49.3089 60.48 48.9558 60.48 48.5207C60.48 48.0856 60.8346 47.7324 61.2716 47.7324H87.2083C87.6453 47.7324 88 48.0856 88 48.5207C88 48.9558 87.6453 49.3089 87.2083 49.3089Z" fill="#515151"/>
<path d="M53.3301 62.7564H52.7633C50.17 62.7564 43.818 62.5389 40.0467 62.2646C43.609 58.3549 45.5564 54.2718 44.2549 50.5671C44.2138 50.4473 44.141 50.3495 44.0523 50.2739C44.1441 50.2329 44.2391 50.195 44.3309 50.1509C47.1333 48.8203 50.018 45.6611 49.7076 40.7772C49.5082 37.6305 48.3429 35.1365 46.2403 33.3614C43.7198 31.2331 40.509 30.7098 38.3431 30.9273C37.96 30.9651 37.6813 31.3057 37.7225 31.6872C37.7605 32.0687 38.0993 32.3461 38.4856 32.3052C40.281 32.1223 43.153 32.5669 45.3411 34.4176C47.1428 35.9405 48.1434 38.1066 48.3176 40.8623C48.5835 45.0557 46.12 47.7641 43.7293 48.8992C41.9054 49.7662 40.0435 49.7662 39.0999 48.8992C38.4888 48.3411 37.7985 47.4961 37.9726 46.6448C38.131 45.8723 38.9542 45.2544 39.654 45.0084C39.882 44.9264 40.053 44.731 40.1037 44.4945C40.1512 44.258 40.072 44.0121 39.8947 43.8481C39.616 43.5927 39.4229 43.1166 39.4229 42.6878C39.4229 42.4356 39.4894 42.2275 39.6097 42.1203C39.7205 42.0194 39.8187 41.9847 39.9517 42.0005C40.414 42.0573 41.1296 42.6878 41.6901 43.5328C41.9022 43.8513 42.3329 43.9396 42.6527 43.7283C42.9725 43.5171 43.0612 43.0883 42.849 42.7698C42.4564 42.1771 41.4019 40.7835 40.1163 40.6258C39.578 40.5596 39.0746 40.7236 38.6629 41.1019C38.2544 41.4771 38.0296 42.0415 38.0296 42.6878C38.0296 43.1734 38.1531 43.6653 38.3684 44.0909C37.5768 44.567 36.8169 45.3363 36.6047 46.3673C36.4369 47.1871 36.5699 48.4672 38.1531 49.9176C38.8877 50.5923 39.92 50.9328 41.0821 50.9328C41.6648 50.9328 42.2791 50.8445 42.906 50.6743C42.887 50.7878 42.8902 50.9076 42.9314 51.0243C45.8065 59.222 29.4199 70.3204 18.4164 75.3903C10.8485 78.8775 7.70096 78.868 7.4698 78.4739C7.33998 78.2406 7.03599 76.7839 13.692 71.1906C17.9002 67.653 23.3371 63.7307 27.7069 60.5809C28.4225 60.0669 29.1033 59.5751 29.7429 59.1116C30.0532 58.8877 30.1229 58.4526 29.8949 58.1436C29.6669 57.8347 29.2331 57.7653 28.9228 57.9923C28.2863 58.4558 27.6055 58.9445 26.8899 59.4584C23.8216 61.6718 21.0794 63.6802 18.6665 65.5058C18.6317 65.4648 18.5905 65.427 18.543 65.3923C14.8541 62.8195 12.5584 58.5315 11.6337 56.069C13.5146 55.6843 14.9237 54.5146 15.2752 52.8877C15.5412 51.6486 15.386 50.6428 14.8097 49.8987C14.3411 49.2933 13.6191 48.9023 12.6977 48.751C12.6755 47.9627 12.5489 46.4525 10.9656 46.361C9.49953 46.2728 8.48625 47.4362 8.32159 49.391C8.28993 49.7725 8.57491 50.1068 8.95806 50.1383C9.3412 50.1698 9.67685 49.886 9.70851 49.5045C9.76551 48.8235 9.99033 47.6979 10.8833 47.7452C11.1588 47.761 11.2918 47.8839 11.3108 48.9244C11.3139 49.1199 11.3171 49.3059 11.3393 49.4699C11.3836 49.8041 11.6591 50.0563 11.9979 50.0721C12.5584 50.0973 13.312 50.236 13.7078 50.7468C14.0213 51.1535 14.0909 51.7747 13.9136 52.5976C13.54 54.3349 11.3994 55.0096 9.48053 54.7763C7.22598 54.502 4.63579 52.8908 4.74979 49.2428C4.96511 42.341 8.41975 39.1754 12.2544 36.2873C12.5615 36.0572 12.6217 35.6221 12.3874 35.3162C12.1562 35.0104 11.7192 34.9505 11.4121 35.1838C7.30198 38.2832 3.59085 41.6884 3.3597 49.2019C3.2267 53.4899 6.25387 55.7821 9.3127 56.1541C9.61352 56.192 9.91117 56.2077 10.2025 56.2109C11.0891 58.7332 13.5273 63.4753 17.5329 66.3729C8.98339 72.9184 5.03477 76.929 6.24754 79.1423C6.58635 79.7603 7.34631 80.0063 8.35009 80.0063C10.9498 80.0063 15.1834 78.3478 17.9636 77.1181C22.0103 75.3304 26.7221 72.7797 31.0507 69.8222C33.3844 70.1848 37.4787 70.4812 41.8262 70.4812C42.8427 70.4812 43.8718 70.4654 44.8914 70.4307C49.6253 70.2668 55.762 69.6393 58.1147 67.5741C58.8556 66.9246 59.2166 66.1616 59.1818 65.3135C59.0805 62.747 56.2781 62.7533 53.3111 62.7627L53.3301 62.7564ZM57.2154 66.5305C53.8494 69.4817 39.6794 69.4438 32.7321 68.643C34.955 67.0287 37.0322 65.3166 38.8117 63.5541C42.3836 63.8757 49.7995 64.1406 52.7665 64.1406H53.3364C56.4206 64.1343 57.7695 64.2446 57.8139 65.3608C57.8297 65.7801 57.6365 66.1616 57.2154 66.5274V66.5305Z" fill="#515151"/>
<path d="M27.0894 22.5941C26.6587 21.5726 24.743 21.8248 22.5264 22.118C21.5195 22.2505 20.4809 22.3892 19.8318 22.3419C19.322 22.3041 18.8248 22.2662 18.3498 22.2284C14.1574 21.9005 11.1302 21.664 10.4019 23.9909C10.193 24.6625 10.4083 25.1007 10.6268 25.3498C11.1271 25.9237 12.1815 26.1349 13.5368 26.1349C15.0092 26.1349 16.8363 25.8858 18.6982 25.58C19.0211 25.5264 19.2776 25.4854 19.4423 25.4633C19.9204 25.4003 20.9179 25.5705 21.8836 25.7345C23.6569 26.0372 25.332 26.3209 26.1204 25.7975C27.2572 25.0408 27.6213 23.8396 27.0925 22.591L27.0894 22.5941Z" fill="white"/>
<path d="M16.1016 22.8782C17.0914 22.8782 17.8938 22.3587 17.8938 21.7179C17.8938 21.0771 17.0914 20.5576 16.1016 20.5576C15.1117 20.5576 14.3093 21.0771 14.3093 21.7179C14.3093 22.3587 15.1117 22.8782 16.1016 22.8782Z" fill="#515151"/>
<path d="M24.3534 5.87744C24.2109 5.87744 24.0653 5.82699 23.9513 5.7261C23.6948 5.50539 23.6695 5.11758 23.8911 4.86219C24.6353 4.01089 26.0823 2.98303 26.9658 2.56053C27.2698 2.41234 27.6403 2.54161 27.7859 2.8443C27.9347 3.14698 27.8049 3.51588 27.5009 3.66091C26.7441 4.0235 25.4364 4.95993 24.8189 5.66619C24.6986 5.80492 24.5276 5.87744 24.3566 5.87744H24.3534Z" fill="#515151"/>
<path d="M27.0291 6.22774C26.8581 6.22774 26.6871 6.15522 26.5636 6.01649C26.342 5.7611 26.3673 5.37329 26.6238 5.15258C27.4819 4.41163 29.0556 3.59502 29.9898 3.29549C30.3127 3.19144 30.6579 3.36801 30.7624 3.68961C30.8669 4.01121 30.6896 4.35488 30.3666 4.45893C29.5686 4.71432 28.1437 5.45842 27.4312 6.07324C27.3141 6.17414 27.1716 6.22143 27.0291 6.22143V6.22774Z" fill="#515151"/>
<path d="M11.3456 15.2032C10.7028 15.2095 10.1835 15.7329 10.1867 16.3729C10.1867 16.6851 10.3133 16.9751 10.535 17.1927C10.7535 17.4071 11.0448 17.5269 11.3551 17.5269H11.3646C12.0074 17.5206 12.5267 16.9972 12.5235 16.3572C12.5235 16.045 12.3969 15.755 12.1752 15.5374C11.9536 15.3198 11.6591 15.2 11.3456 15.2032Z" fill="#515151"/>
<path d="M21.0699 15.2031H21.0604C20.4176 15.2094 19.8983 15.7328 19.9015 16.376C19.9015 16.685 20.0282 16.9782 20.2498 17.1958C20.4683 17.4102 20.7596 17.53 21.0699 17.53H21.0794C21.3898 17.53 21.6842 17.4039 21.9027 17.1832C22.1212 16.9625 22.2415 16.6693 22.2384 16.3571C22.232 15.7202 21.7096 15.2031 21.0699 15.2031Z" fill="#515151"/>
</g>
<defs>
<clipPath id="clip0_2253_66923">
<rect width="88" height="80" fill="white"/>
</clipPath>
</defs>
</svg>
