<svg width="56" height="56" viewBox="0 0 56 56" fill="none" xmlns="http://www.w3.org/2000/svg">
<circle cx="28" cy="28" r="28" fill="#FFE9B1"/>
<g clip-path="url(#clip0_850_4776)">
<path d="M46.6777 14.7713C49.2225 16.584 46.7124 23.5704 45.1583 25.2167C43.6042 26.8629 37.8229 18.1293 37.8229 18.1293C37.8229 18.1293 43.5374 12.5326 46.6777 14.7713Z" fill="white"/>
<path d="M9.32503 14.8122C6.7802 16.625 9.29031 23.6114 10.8444 25.2576C12.3986 26.9039 18.1799 18.1702 18.1799 18.1702C18.1799 18.1702 12.4653 12.5735 9.32503 14.8122Z" fill="white"/>
<path d="M11.6295 26.9967C11.6295 26.9967 11.6055 26.9967 11.5948 26.9967C11.4586 26.9858 11.3358 26.9175 11.2556 26.8056C9.29028 24.1055 8.4785 21.6784 8.14203 20.1168C8.08596 19.8602 8.24618 19.6036 8.49719 19.5462C8.7482 19.4889 8.99921 19.6527 9.05529 19.9093C9.35437 21.2935 10.0513 23.4039 11.6882 25.7845L18.3774 18.9975C14.7752 15.0634 10.8978 14.0533 9.64009 15.0934C9.11938 15.5248 8.81763 16.4803 8.80962 17.7171C8.80962 17.9791 8.59866 18.1921 8.34231 18.1921H8.33964C8.08062 18.1894 7.875 17.9737 7.875 17.7116C7.88568 16.1636 8.30225 14.9706 9.05262 14.3508C10.8818 12.8384 15.4641 14.2225 19.3735 18.6972C19.539 18.8855 19.531 19.1749 19.3548 19.3551L11.9579 26.8575C11.8698 26.9476 11.7523 26.9967 11.6295 26.9967Z" fill="#515151"/>
<path d="M11.7577 17.4522C12.4947 16.8625 14.4761 17.5232 16.0863 19.538C15.5389 19.9312 14.9434 20.4008 14.3319 20.9632C13.675 21.5638 13.1196 22.1562 12.6496 22.7077C11.0421 20.4117 10.9967 18.0638 11.7577 17.455V17.4522Z" fill="#515151"/>
<path d="M44.3731 26.9967C44.2503 26.9967 44.1328 26.9476 44.0447 26.8575L36.6505 19.3551C36.4743 19.1749 36.4663 18.8883 36.6318 18.6972C40.5412 14.2225 45.1235 12.8384 46.9527 14.3508C47.7004 14.9706 48.1196 16.1636 48.1303 17.7089C48.1303 17.9737 47.9247 18.1894 47.6657 18.1894C47.4093 18.1976 47.1984 17.9791 47.1957 17.7143C47.1877 16.4776 46.8859 15.522 46.3652 15.0907C45.1075 14.0505 41.2302 15.0607 37.6305 18.9975L44.3197 25.7845C45.9567 23.4039 46.6536 21.2935 46.9527 19.9093C47.0088 19.6527 47.2571 19.4889 47.5081 19.5462C47.7591 19.6036 47.9194 19.8575 47.8633 20.1141C47.5268 21.6757 46.715 24.1028 44.7523 26.8001C44.6722 26.9121 44.5467 26.9803 44.4132 26.9912C44.4025 26.9912 44.3892 26.9912 44.3785 26.9912L44.3731 26.9967Z" fill="#515151"/>
<path d="M44.245 17.4522C43.508 16.8625 41.5266 17.5232 39.9164 19.538C40.4638 19.9312 41.0593 20.4008 41.6708 20.9632C42.3277 21.5638 42.8831 22.1562 43.3531 22.7077C44.9607 20.4117 45.006 18.0638 44.245 17.455V17.4522Z" fill="#515151"/>
<path d="M46.7017 29.7268C46.7284 33.5763 44.7283 37.1363 41.3637 39.7681C38.0017 42.4 33.3126 44.0681 28.1001 44.1117C22.8849 44.1554 18.1771 42.5665 14.7778 39.992C11.3758 37.4175 9.32763 33.8902 9.30092 30.0408C9.27422 26.1913 11.2743 22.6312 14.6389 19.9994C18.0009 17.3676 22.69 15.6995 27.9025 15.6558C33.1177 15.6121 37.8255 17.2011 41.2248 19.7756C44.6268 22.3528 46.675 25.8773 46.7017 29.7268Z" fill="#EEB070"/>
<path d="M28.4019 44.625C23.3417 44.625 18.5858 43.1289 14.9835 40.4015C11.3438 37.6441 9.32238 33.9612 9.29568 30.0271C9.26898 26.1012 11.2317 22.3883 14.8233 19.5708C17.2319 17.4113 21.3816 15.7541 25.4058 15.3528C25.6916 15.3255 25.9452 15.5384 25.9719 15.8278C25.9986 16.1199 25.7904 16.3793 25.5073 16.4066C21.7368 16.7833 17.7153 18.3777 15.4962 20.3762L15.4695 20.398C12.1316 23.008 10.3077 26.4261 10.3344 30.0162C10.3585 33.6063 12.2304 36.9916 15.603 39.5443C19.0771 42.1761 23.6888 43.6012 28.6129 43.5603C33.529 43.5193 38.13 42.015 41.5667 39.3259C44.9046 36.7159 46.7285 33.2978 46.7018 29.7077C46.6777 26.1176 44.8058 22.7323 41.4332 20.1796C38.7415 18.1402 34.4396 16.5431 30.9708 16.2974C30.6851 16.2783 30.4688 16.0244 30.4902 15.7323C30.5115 15.4401 30.7572 15.219 31.0429 15.2408C34.6879 15.5002 39.2141 17.1819 42.05 19.3305C45.6897 22.088 47.7112 25.7709 47.7379 29.705C47.7646 33.6363 45.7965 37.3547 42.1942 40.1722C38.5813 43.0006 33.7586 44.5813 28.6209 44.625C28.5488 44.625 28.4767 44.625 28.4046 44.625H28.4019Z" fill="#515151"/>
<path d="M35.0457 30.2537C34.6719 29.3473 33.0163 29.5712 31.1016 29.8333C30.2311 29.9507 29.3312 30.0735 28.7731 30.0326C28.3298 29.9998 27.9026 29.9671 27.4913 29.9316C23.8677 29.6422 21.2508 29.432 20.6206 31.4959C20.439 32.0911 20.6259 32.4815 20.8155 32.7026C21.2481 33.2104 22.1587 33.3988 23.331 33.3988C24.6047 33.3988 26.1829 33.1777 27.7931 32.9074C28.0708 32.861 28.2924 32.8228 28.4366 32.8037C28.8505 32.749 29.7131 32.8992 30.5462 33.0439C32.079 33.3115 33.529 33.5654 34.2072 33.1012C35.1899 32.4296 35.505 31.3649 35.0457 30.2537Z" fill="white"/>
<path d="M28.2222 30.5194C28.9862 30.5134 29.6026 30.1284 29.5991 29.6595C29.5955 29.1906 28.9734 28.8153 28.2095 28.8213C27.4456 28.8273 26.8291 29.2123 26.8327 29.6812C26.8362 30.1501 27.4583 30.5254 28.2222 30.5194Z" fill="#515151"/>
<path d="M26.9438 16.3903C26.8477 16.3903 26.7516 16.363 26.6635 16.3056C26.4231 16.1473 26.3537 15.8197 26.5086 15.574C27.0266 14.7522 28.1054 13.6902 28.789 13.2152C29.0267 13.0514 29.3471 13.1141 29.51 13.3571C29.6703 13.6001 29.6088 13.9277 29.3712 14.0943C28.7864 14.501 27.809 15.4648 27.3818 16.15C27.283 16.3084 27.1147 16.393 26.9465 16.393L26.9438 16.3903Z" fill="#515151"/>
<path d="M28.9786 16.3547C28.8584 16.3547 28.7383 16.3138 28.6421 16.2264C28.4258 16.0353 28.4018 15.7022 28.5861 15.4784C29.2109 14.7358 30.4233 13.8403 31.1656 13.4663C31.422 13.338 31.7317 13.4444 31.8599 13.7065C31.9854 13.9686 31.8813 14.2853 31.6249 14.4164C30.9894 14.7358 29.8919 15.5521 29.3738 16.1691C29.2723 16.292 29.1255 16.3547 28.9813 16.3547H28.9786Z" fill="#515151"/>
<path d="M24.0812 24.7335C23.5392 24.7389 23.1012 25.1921 23.1039 25.7463C23.1039 26.0166 23.2107 26.2678 23.3976 26.4562C23.5819 26.6418 23.8276 26.7455 24.0892 26.7455H24.0973C24.6393 26.7401 25.0773 26.2869 25.0746 25.7327C25.0746 25.4624 24.9678 25.2112 24.7809 25.0228C24.5939 24.8345 24.3456 24.7307 24.0812 24.7335Z" fill="#515151"/>
<path d="M31.633 24.7334H31.6249C31.0829 24.7389 30.6449 25.1921 30.6476 25.749C30.6476 26.0166 30.7544 26.2705 30.9413 26.4589C31.1256 26.6445 31.3713 26.7483 31.633 26.7483H31.641C31.9027 26.7483 32.151 26.639 32.3352 26.4479C32.5195 26.2568 32.621 26.0029 32.6183 25.7326C32.613 25.1812 32.1724 24.7334 31.633 24.7334Z" fill="#515151"/>
</g>
<defs>
<clipPath id="clip0_850_4776">
<rect width="40.25" height="31.5" fill="white" transform="translate(7.875 13.125)"/>
</clipPath>
</defs>
</svg>
