<svg width="56" height="56" viewBox="0 0 56 56" fill="none" xmlns="http://www.w3.org/2000/svg">
<circle cx="28" cy="28" r="28" fill="#FFE9B1"/>
<g clip-path="url(#clip0_850_4799)">
<path d="M46.7445 14.8765C49.2893 16.6824 46.7792 23.6422 45.2251 25.2822C43.6709 26.9222 37.8896 18.2218 37.8896 18.2218C37.8896 18.2218 43.6042 12.6463 46.7445 14.8765Z" fill="white"/>
<path d="M9.39436 14.9146C6.84953 16.7205 9.35965 23.6803 10.9138 25.3203C12.4679 26.9603 18.2492 18.2599 18.2492 18.2599C18.2492 18.2599 12.5347 12.6844 9.39436 14.9146Z" fill="white"/>
<path d="M11.6295 27.0773C11.6295 27.0773 11.6055 27.0773 11.5948 27.0773C11.4586 27.0665 11.3358 26.9985 11.2556 26.887C9.29028 24.1971 8.4785 21.782 8.14203 20.2263C8.08596 19.9707 8.24618 19.715 8.49719 19.6606C8.7482 19.6035 8.99921 19.7667 9.05262 20.0223C9.3517 21.4012 10.0487 23.5036 11.6856 25.8725L18.3748 19.1112C14.7752 15.1894 10.8978 14.1831 9.64009 15.222C9.11938 15.6517 8.81763 16.6036 8.80962 17.8357C8.80962 18.0968 8.59866 18.3089 8.34231 18.3089H8.33964C8.08062 18.3035 7.875 18.0913 7.875 17.8275C7.88568 16.2881 8.30225 15.0996 9.05262 14.4822C10.8818 12.9755 15.4641 14.3544 19.3735 18.8121C19.539 18.9997 19.531 19.288 19.3548 19.4675L11.9579 26.9413C11.8698 27.0311 11.7523 27.0801 11.6295 27.0801V27.0773Z" fill="#515151"/>
<path d="M11.7577 17.569C12.4947 16.9816 14.4761 17.6397 16.0863 19.6469C15.5389 20.0386 14.9434 20.5064 14.3319 21.0666C13.675 21.665 13.1196 22.2551 12.6496 22.8045C11.0421 20.5172 10.9967 18.1783 11.7577 17.5718V17.569Z" fill="#515151"/>
<path d="M44.3731 27.0773C44.2503 27.0773 44.1328 27.0283 44.0447 26.9386L36.6505 19.4647C36.4743 19.2852 36.4663 18.9996 36.6318 18.8093C40.5385 14.3543 45.1208 12.9727 46.95 14.4822C47.6977 15.0995 48.117 16.2881 48.1276 17.8274C48.1276 18.0912 47.922 18.3034 47.663 18.3061H47.6603C47.404 18.3061 47.1957 18.094 47.193 17.8329C47.185 16.6008 46.8833 15.6489 46.3626 15.2192C45.1048 14.183 41.2275 15.1893 37.6279 19.1112L44.3171 25.8724C45.9513 23.5008 46.6509 21.3985 46.95 20.0223C47.0061 19.7666 47.2544 19.6034 47.5081 19.6605C47.7591 19.7177 47.9194 19.9706 47.8633 20.2262C47.5268 21.7819 46.715 24.1998 44.7523 26.8869C44.6722 26.9984 44.5467 27.0664 44.4132 27.0773C44.4025 27.0773 44.3892 27.0773 44.3785 27.0773H44.3731Z" fill="#515151"/>
<path d="M44.245 17.5691C43.508 16.9816 41.5266 17.6398 39.9164 19.6469C40.4638 20.0386 41.0593 20.5064 41.6708 21.0666C42.3277 21.665 42.8831 22.2552 43.3531 22.8046C44.9607 20.5173 45.006 18.1783 44.245 17.5718V17.5691Z" fill="#515151"/>
<path d="M46.7124 29.7861C46.7391 33.621 44.739 37.1675 41.3744 39.7893C38.0125 42.4112 33.3233 44.0729 28.1108 44.1164C22.8957 44.1599 18.1879 42.5771 14.7885 40.0124C11.3865 37.4476 9.33837 33.9337 9.31167 30.0989C9.28496 26.2641 11.285 22.7175 14.6497 20.0957C18.0116 17.4739 22.7007 15.8121 27.9132 15.7686C33.1284 15.7251 37.8362 17.308 41.2356 19.8727C44.6376 22.4401 46.6857 25.9513 46.7124 29.7861Z" fill="#EEB070"/>
<path d="M27.8758 44.625C22.8155 44.625 18.0597 43.1346 14.4574 40.4176C10.8177 37.6679 8.79626 33.999 8.76956 30.0826C8.74285 26.1716 10.7056 22.4728 14.2972 19.666C16.7058 17.512 20.8555 15.8638 24.8797 15.464C25.1628 15.4368 25.4191 15.6489 25.4458 15.9372C25.4725 16.2282 25.2642 16.4866 24.9812 16.5138C21.2107 16.8891 17.1891 18.4775 14.9701 20.4683L14.9434 20.4901C11.6055 23.0956 9.78161 26.498 9.80565 30.0744C9.82968 33.6509 11.7016 37.0234 15.0742 39.5663C18.5483 42.1881 23.1627 43.6051 28.0841 43.567C33.0002 43.5263 37.6012 42.0277 41.0379 39.3487C44.3758 36.7459 46.1997 33.3436 46.173 29.7671C46.1489 26.1906 44.277 22.8182 40.9044 20.2752C38.2127 18.2436 33.9108 16.6525 30.442 16.4077C30.1563 16.386 29.94 16.1358 29.9614 15.8448C29.98 15.5538 30.2257 15.3389 30.5141 15.3552C34.1591 15.6136 38.6853 17.2889 41.5212 19.4294C45.1609 22.1763 47.1824 25.8452 47.2091 29.7644C47.2358 33.6808 45.2677 37.3851 41.6654 40.1919C38.0525 43.0095 33.2298 44.5842 28.0921 44.6277C28.02 44.6277 27.9479 44.6277 27.8758 44.6277V44.625Z" fill="#515151"/>
<path d="M34.5223 27.9639C34.1484 27.0609 32.4928 27.284 30.5782 27.5451C29.7077 27.662 28.8078 27.7844 28.247 27.7436C27.8037 27.711 27.3765 27.6756 26.9652 27.643C23.3416 27.3547 20.7246 27.1453 20.0944 29.2014C19.9129 29.7943 20.0998 30.1832 20.2894 30.4035C20.722 30.9094 21.6326 31.097 22.8048 31.097C24.0786 31.097 25.6568 30.8767 27.267 30.6075C27.5447 30.5612 27.7663 30.5232 27.9105 30.5041C28.3244 30.447 29.1869 30.5993 30.0201 30.7435C31.5529 31.01 33.0029 31.2629 33.6811 30.8006C34.6638 30.1315 34.9789 29.0708 34.5196 27.9639H34.5223Z" fill="white"/>
<path d="M27.6954 28.2301C28.4593 28.2241 29.0757 27.8406 29.0722 27.3734C29.0687 26.9063 28.4465 26.5325 27.6826 26.5384C26.9187 26.5444 26.3023 26.9279 26.3058 27.3951C26.3093 27.8622 26.9315 28.236 27.6954 28.2301Z" fill="#515151"/>
<path d="M23.9584 25.0483C23.0772 25.0483 22.4764 24.5479 22.3055 24.3874C22.1426 24.2351 22.1346 23.9768 22.2841 23.8109C22.4336 23.6449 22.6873 23.6368 22.8502 23.7891C22.9704 23.9033 23.4163 24.2759 24.0652 24.227C24.6207 24.1889 24.9838 23.8707 25.112 23.7347C25.2669 23.5742 25.5206 23.5688 25.6781 23.7265C25.8357 23.8843 25.841 24.1427 25.6861 24.3031C25.4912 24.5071 24.9518 24.9831 24.1186 25.0402C24.0652 25.0429 24.0118 25.0456 23.9584 25.0456V25.0483Z" fill="#515151"/>
<path d="M31.0215 25.0483C30.1403 25.0483 29.5395 24.5479 29.3686 24.3874C29.2057 24.2351 29.1977 23.9768 29.3472 23.8109C29.4968 23.6449 29.7504 23.6368 29.9133 23.7891C30.0335 23.9033 30.4768 24.2759 31.1283 24.227C31.6838 24.1889 32.0469 23.8707 32.1751 23.7347C32.33 23.5742 32.5837 23.5688 32.7412 23.7265C32.8988 23.8843 32.9041 24.1427 32.7492 24.3031C32.5543 24.5071 32.0149 24.9831 31.1817 25.0402C31.1283 25.0429 31.0749 25.0456 31.0215 25.0456V25.0483Z" fill="#515151"/>
<path d="M26.4525 16.3779C26.3564 16.3779 26.2602 16.3507 26.1721 16.2936C25.9318 16.1358 25.8624 15.8094 26.0172 15.5647C26.5353 14.746 27.6141 13.688 28.2977 13.2148C28.5354 13.0516 28.8558 13.1142 29.0187 13.3562C29.1789 13.5983 29.1175 13.9247 28.8798 14.0906C28.295 14.4958 27.3177 15.4559 26.8904 16.1385C26.7916 16.2963 26.6234 16.3806 26.4552 16.3806L26.4525 16.3779Z" fill="#515151"/>
<path d="M28.4846 16.3425C28.3644 16.3425 28.2443 16.3017 28.1481 16.2146C27.9318 16.0243 27.9078 15.6924 28.0921 15.4694C28.7169 14.7297 29.9292 13.8376 30.6716 13.465C30.928 13.3372 31.2377 13.4432 31.3659 13.7043C31.4914 13.9654 31.3872 14.2809 31.1309 14.4115C30.4954 14.7297 29.3978 15.5429 28.8798 16.1575C28.7783 16.2799 28.6315 16.3425 28.4873 16.3425H28.4846Z" fill="#515151"/>
<path fill-rule="evenodd" clip-rule="evenodd" d="M14.922 25.5569C14.655 25.5569 14.4093 25.4209 14.2651 25.1925L12.0594 21.7031C11.8538 21.3794 11.9099 20.9578 12.1743 20.6995C12.1743 20.1202 12.444 19.5925 12.8979 19.2934C13.1463 19.1302 13.4373 19.0432 13.7391 19.0432C14.3372 19.0432 14.922 19.3831 15.2665 19.9271C15.8059 20.7811 15.6217 21.8826 14.8526 22.3857C14.7324 22.4646 14.6016 22.5244 14.4654 22.5679L15.5789 24.3303C15.8113 24.7002 15.7071 25.1925 15.3439 25.4318C15.2184 25.5161 15.0716 25.5596 14.922 25.5596V25.5569Z" fill="white"/>
<path d="M13.7364 19.3151C14.2277 19.3151 14.7324 19.5871 15.0395 20.0739C15.4988 20.8028 15.3519 21.7357 14.7057 22.1573C14.4948 22.296 14.2571 22.3612 14.0168 22.364L15.3519 24.4772C15.5068 24.722 15.4374 25.0456 15.1971 25.2006C15.1116 25.2578 15.0155 25.2849 14.9193 25.2849C14.7511 25.2849 14.5855 25.2006 14.4867 25.0456L12.281 21.5535C12.1262 21.3087 12.1956 20.985 12.4359 20.83L12.4439 20.8246C12.4039 20.3051 12.6122 19.802 13.0394 19.5218C13.253 19.3831 13.4934 19.3151 13.7364 19.3151ZM13.7364 18.7712C13.3839 18.7712 13.0421 18.8718 12.751 19.0649C12.249 19.394 11.9419 19.9624 11.9072 20.588C11.8004 20.7185 11.7256 20.8735 11.6882 21.0449C11.6295 21.325 11.6802 21.6106 11.8324 21.8499L14.0381 25.3421C14.2331 25.6494 14.5615 25.8316 14.9193 25.8316C15.1196 25.8316 15.3172 25.7718 15.4854 25.6603C15.7204 25.5052 15.8833 25.2659 15.9421 24.9885C16.0008 24.7084 15.9501 24.4228 15.7979 24.1835L14.8579 22.6958C14.9033 22.6713 14.9487 22.6441 14.9914 22.6169C15.8833 22.0321 16.105 20.7593 15.4854 19.7802C15.0929 19.1574 14.42 18.7712 13.7337 18.7712H13.7364Z" fill="#515151"/>
<path d="M12.4493 21.1129C12.3665 21.1673 12.3425 21.2815 12.3959 21.3658L14.7324 25.013C14.7858 25.0973 14.898 25.1218 14.9808 25.0674C15.0635 25.013 15.0876 24.8987 15.0342 24.8144L12.6976 21.1673C12.6442 21.0829 12.5321 21.0585 12.4493 21.1129Z" fill="#DDDDDD"/>
<path fill-rule="evenodd" clip-rule="evenodd" d="M41.102 25.3693C40.9525 25.3693 40.8056 25.3258 40.6801 25.2414C40.3169 25.0048 40.2128 24.5098 40.4451 24.14L41.5586 22.3776C41.4225 22.3368 41.2916 22.2742 41.1714 22.1953C40.4051 21.6922 40.2181 20.588 40.7575 19.7367C41.102 19.19 41.6868 18.8528 42.285 18.8528C42.5867 18.8528 42.8778 18.9398 43.1261 19.103C43.5801 19.3995 43.8498 19.9298 43.8498 20.5091C43.9646 20.6206 44.0394 20.7593 44.0714 20.9116C44.1168 21.1183 44.0768 21.3332 43.9646 21.5127L41.7589 25.0048C41.6147 25.2333 41.369 25.3693 41.102 25.3693Z" fill="white"/>
<path d="M42.2876 19.1248C42.5306 19.1248 42.7709 19.19 42.9845 19.3315C43.4118 19.6116 43.6201 20.1147 43.58 20.6342L43.588 20.6397C43.8284 20.7974 43.8951 21.121 43.7429 21.3631L41.5372 24.8552C41.4384 25.0103 41.2729 25.0946 41.1046 25.0946C41.0085 25.0946 40.9124 25.0674 40.8269 25.0103C40.5866 24.8525 40.5198 24.5289 40.672 24.2868L42.0072 22.1736C41.7669 22.1736 41.5292 22.1056 41.3183 21.9669C40.6747 21.5453 40.5252 20.6125 40.9845 19.8836C41.2916 19.3967 41.7962 19.1248 42.2876 19.1248ZM42.2876 18.5808C41.5986 18.5808 40.9284 18.967 40.5358 19.5898C39.9163 20.5689 40.138 21.8418 41.0299 22.4265C41.0726 22.4537 41.118 22.4809 41.1634 22.5054L40.2234 23.9931C40.0712 24.2324 40.0205 24.518 40.0792 24.7981C40.138 25.0783 40.3009 25.3149 40.5358 25.4699C40.7067 25.5814 40.9017 25.6412 41.102 25.6412C41.4598 25.6412 41.7909 25.459 41.9832 25.1517L44.1889 21.6596C44.3411 21.4202 44.3918 21.1346 44.3331 20.8545C44.2957 20.6832 44.2209 20.5281 44.1141 20.3976C44.0821 19.7693 43.7723 19.2036 43.2703 18.8745C42.9792 18.6842 42.6374 18.5808 42.2849 18.5808H42.2876Z" fill="#515151"/>
<path d="M43.3263 20.9769L40.9897 24.6241C40.9363 24.7084 40.9604 24.8199 41.0432 24.877C41.1259 24.9314 41.2354 24.9069 41.2915 24.8226L43.628 21.1754C43.6814 21.0911 43.6574 20.9796 43.5746 20.9225C43.4919 20.8681 43.3824 20.8926 43.3263 20.9769Z" fill="#DDDDDD"/>
</g>
<defs>
<clipPath id="clip0_850_4799">
<rect width="40.25" height="31.5" fill="white" transform="translate(7.875 13.125)"/>
</clipPath>
</defs>
</svg>
