<svg width="62" height="62" viewBox="0 0 62 62" fill="none" xmlns="http://www.w3.org/2000/svg">
<circle cx="31" cy="31" r="31" fill="#FFE9B1"/>
<g clip-path="url(#clip0_2252_31215)">
<path d="M51.3856 15.7209C54.1676 17.6776 51.4236 25.2184 49.7247 26.9953C48.0257 28.7722 41.7058 19.3455 41.7058 19.3455C41.7058 19.3455 47.9527 13.3046 51.3856 15.7209Z" fill="white"/>
<path d="M10.5529 15.7619C7.77097 17.7186 10.515 25.2594 12.2139 27.0363C13.9128 28.8132 20.2327 19.3865 20.2327 19.3865C20.2327 19.3865 13.9858 13.3456 10.5529 15.7619Z" fill="white"/>
<path d="M13.1043 28.9726C13.1043 28.9726 13.078 28.9726 13.0663 28.9726C12.9175 28.9609 12.7832 28.8872 12.6956 28.7664C10.5471 25.852 9.65972 23.2323 9.29191 21.5467C9.23061 21.2697 9.40576 20.9928 9.68016 20.9338C9.95455 20.8719 10.229 21.0487 10.2873 21.3257C10.6143 22.8198 11.3762 25.0976 13.1656 27.6672L20.478 20.3415C16.543 16.0922 12.3045 15.0019 10.9295 16.1247C10.3603 16.5903 10.0305 17.6216 10.0217 18.9565C10.0217 19.2394 9.79108 19.4693 9.51085 19.4693H9.50793C9.22477 19.4663 9 19.2335 9 18.9506C9.01168 17.2798 9.46706 15.9921 10.2873 15.3231C12.2869 13.6906 17.2962 15.1846 21.5698 20.0144C21.7507 20.2177 21.742 20.5301 21.5493 20.7246L13.4633 28.8224C13.367 28.9196 13.2386 28.9726 13.1043 28.9726Z" fill="#515151"/>
<path d="M13.2445 18.6705C14.0502 18.034 16.2162 18.7471 17.9764 20.9218C17.378 21.3462 16.727 21.853 16.0585 22.46C15.3404 23.1083 14.7333 23.7478 14.2195 24.343C12.4622 21.8648 12.4125 19.3305 13.2445 18.6734V18.6705Z" fill="#515151"/>
<path d="M48.8986 28.9726C48.7643 28.9726 48.6358 28.9196 48.5395 28.8224L40.4565 20.7246C40.2638 20.5301 40.255 20.2207 40.436 20.0144C44.7096 15.1846 49.7188 13.6906 51.7184 15.3231C52.5358 15.9921 52.9941 17.2798 53.0058 18.9477C53.0058 19.2335 52.781 19.4663 52.4979 19.4663C52.2293 19.4752 51.987 19.2394 51.9841 18.9536C51.9753 17.6187 51.6455 16.5873 51.0762 16.1217C49.7013 14.999 45.4628 16.0893 41.5278 20.3386L48.8402 27.6643C50.6267 25.0947 51.3915 22.8168 51.7184 21.3228C51.7797 21.0458 52.0512 20.869 52.3285 20.9309C52.6029 20.9928 52.7781 21.2668 52.7168 21.5467C52.349 23.2323 51.4616 25.852 49.316 28.7634C49.2284 28.8842 49.0912 28.9579 48.9453 28.9697C48.9336 28.9697 48.919 28.9697 48.9073 28.9697L48.8986 28.9726Z" fill="#515151"/>
<path d="M48.7585 18.6705C47.9528 18.034 45.7868 18.7471 44.0266 20.9218C44.625 21.3462 45.276 21.853 45.9445 22.46C46.6626 23.1083 47.2698 23.7478 47.7835 24.343C49.5408 21.8648 49.5905 19.3305 48.7585 18.6734V18.6705Z" fill="#515151"/>
<path d="M51.4442 31.9196C51.4734 36.0746 49.2869 39.9172 45.6088 42.7579C41.9337 45.5986 36.8077 47.3991 31.1095 47.4462C25.4085 47.4934 20.2621 45.7784 16.546 42.9995C12.827 40.2207 10.5881 36.4135 10.5589 32.2585C10.5297 28.1035 12.7161 24.2609 16.3942 21.4202C20.0694 18.5795 25.1954 16.7791 30.8935 16.7319C36.5946 16.6848 41.741 18.3998 45.457 21.1786C49.176 23.9604 51.415 27.7647 51.4442 31.9196Z" fill="#EEB070"/>
<path d="M29.8427 17.5245C29.7376 17.5245 29.6325 17.495 29.5362 17.4332C29.2734 17.2622 29.1975 16.9086 29.3669 16.6434C29.9332 15.7564 31.1125 14.6101 31.8598 14.0974C32.1196 13.9206 32.4699 13.9884 32.648 14.2506C32.8231 14.5129 32.756 14.8665 32.4962 15.0463C31.8569 15.4853 30.7885 16.5255 30.3214 17.2652C30.2134 17.4361 30.0295 17.5274 29.8456 17.5274L29.8427 17.5245Z" fill="#515151"/>
<path d="M32.0641 17.4864C31.9327 17.4864 31.8013 17.4422 31.6962 17.3479C31.4598 17.1416 31.4335 16.7821 31.6349 16.5405C32.318 15.739 33.6433 14.7724 34.4548 14.3687C34.7351 14.2302 35.0737 14.3451 35.2138 14.628C35.351 14.9109 35.2371 15.2527 34.9569 15.3942C34.2622 15.739 33.0624 16.62 32.4961 17.286C32.3852 17.4186 32.2246 17.4864 32.067 17.4864H32.0641Z" fill="#515151"/>
<path d="M31.4394 48.0001C25.9076 48.0001 20.7087 46.3852 16.7708 43.4414C12.792 40.4651 10.5822 36.4899 10.553 32.2436C10.5238 28.0061 12.6694 23.9985 16.5956 20.9574C19.2287 18.6265 23.765 16.8378 28.1641 16.4047C28.4765 16.3752 28.7538 16.605 28.783 16.9174C28.8122 17.2327 28.5845 17.5126 28.275 17.5421C24.1532 17.9488 19.757 19.6697 17.3312 21.8267L17.3021 21.8503C13.6531 24.6674 11.6594 28.3568 11.6886 32.2318C11.7148 36.1069 13.7611 39.7609 17.448 42.5161C21.2458 45.3568 26.29 46.9068 31.67 46.8508C37.0441 46.8066 42.0738 45.183 45.8307 42.2804C49.4796 39.4632 51.4733 35.7739 51.4442 31.8988C51.4179 28.0238 49.3716 24.3698 45.6847 21.6146C42.7422 19.4133 38.0395 17.6894 34.2476 17.4242C33.9352 17.4036 33.6988 17.1296 33.7221 16.8143C33.7455 16.4989 34.017 16.2603 34.3264 16.2838C38.311 16.5638 43.2589 18.379 46.359 20.6981C50.3378 23.6744 52.5476 27.6496 52.5768 31.8959C52.606 36.1393 50.4546 40.1528 46.5167 43.1939C42.5671 46.2467 37.2952 47.9529 31.6788 48.0001C31.5999 48.0001 31.5211 48.0001 31.4423 48.0001H31.4394Z" fill="#515151"/>
<path d="M31.3335 42.0156C33.1198 42.0017 34.5511 39.7886 34.5304 37.0725C34.5098 34.3563 33.045 32.1657 31.2587 32.1795C29.4725 32.1934 28.0412 34.4065 28.0618 37.1226C28.0825 39.8388 29.5473 42.0294 31.3335 42.0156Z" fill="#515151"/>
<path d="M38.702 32.4885C38.2933 31.5101 36.4835 31.7518 34.3904 32.0347C33.4388 32.1614 32.4551 32.294 31.845 32.2498C31.3604 32.2144 30.8933 32.179 30.4438 32.1407C26.4825 31.8284 23.6218 31.6015 22.9329 33.8292C22.7344 34.4716 22.9387 34.893 23.146 35.1317C23.6189 35.6798 24.6143 35.8832 25.8958 35.8832C27.2882 35.8832 29.0134 35.6445 30.7736 35.3527C31.0772 35.3026 31.3195 35.2614 31.4772 35.2408C31.9296 35.1818 32.8725 35.3439 33.7833 35.5001C35.4588 35.7889 37.0439 36.0629 37.7854 35.562C38.8596 34.837 39.2041 33.6878 38.702 32.4885Z" fill="white"/>
<path d="M31.2428 32.7752C32.0779 32.7688 32.7517 32.3532 32.7479 31.8471C32.744 31.341 32.0639 30.9359 31.2289 30.9424C30.3938 30.9489 29.7199 31.3644 29.7238 31.8705C29.7276 32.3767 30.4077 32.7817 31.2428 32.7752Z" fill="#515151"/>
<path d="M26.941 26.5298C26.3484 26.5357 25.8697 27.0249 25.8726 27.6231C25.8726 27.9148 25.9893 28.1859 26.1937 28.3893C26.3951 28.5896 26.6637 28.7016 26.9497 28.7016H26.9585C27.5511 28.6957 28.0298 28.2066 28.0269 27.6084C28.0269 27.3166 27.9101 27.0455 27.7058 26.8422C27.5014 26.6389 27.23 26.5269 26.941 26.5298Z" fill="#515151"/>
<path d="M34.8313 26.5298H34.8226C34.23 26.5357 33.7512 27.0248 33.7542 27.626C33.7542 27.9148 33.8709 28.1888 34.0753 28.3922C34.2767 28.5925 34.5452 28.7045 34.8313 28.7045H34.8401C35.1262 28.7045 35.3976 28.5866 35.5991 28.3804C35.8005 28.1741 35.9114 27.9 35.9085 27.6083C35.9026 27.0131 35.421 26.5298 34.8313 26.5298Z" fill="#515151"/>
</g>
<defs>
<clipPath id="clip0_2252_31215">
<rect width="44" height="34" fill="white" transform="translate(9 14)"/>
</clipPath>
</defs>
</svg>
