<?xml version="1.0" encoding="utf-8"?>
<!-- Generator: Adobe Illustrator 26.2.1, SVG Export Plug-In . SVG Version: 6.00 Build 0)  -->
<svg version="1.1" id="레이어_1" xmlns="http://www.w3.org/2000/svg" xmlns:xlink="http://www.w3.org/1999/xlink" x="0px"
	 y="0px" viewBox="0 0 72 72" style="enable-background:new 0 0 72 72;" xml:space="preserve">
<style type="text/css">
	.st0{fill:#F7F7F7;}
	.st1{fill:#EFEFEF;filter:url(#Adobe_OpacityMaskFilter);}
	.st2{mask:url(#mask0_854_4839_00000164485642404508770970000007369598455755609782_);}
	.st3{clip-path:url(#SVGID_00000178884755850385109690000006561070841732386959_);}
	.st4{fill:#FFFFFF;}
	.st5{fill:#707070;}
	.st6{fill:#515151;}
	.st7{fill:#BCBCBC;}
</style>
<circle class="st0" cx="36" cy="36" r="36"/>
<defs>
	<filter id="Adobe_OpacityMaskFilter" filterUnits="userSpaceOnUse" x="12" y="16" width="48" height="58">
		<feColorMatrix  type="matrix" values="1 0 0 0 0  0 1 0 0 0  0 0 1 0 0  0 0 0 1 0"/>
	</filter>
</defs>
<mask maskUnits="userSpaceOnUse" x="12" y="16" width="48" height="58" id="mask0_854_4839_00000164485642404508770970000007369598455755609782_">
	<circle class="st1" cx="36" cy="36" r="36"/>
</mask>
<g class="st2">
	<g>
		<defs>
			<rect id="SVGID_1_" x="12" y="16" width="48" height="58"/>
		</defs>
		<clipPath id="SVGID_00000047742853231290721590000011029411777192473731_">
			<use xlink:href="#SVGID_1_"  style="overflow:visible;"/>
		</clipPath>
		<g style="clip-path:url(#SVGID_00000047742853231290721590000011029411777192473731_);">
			<path class="st4" d="M13.8,18.3c-3,2.1,0,10.3,1.8,12.2c1.9,1.9,8.7-8.3,8.7-8.3S17.5,15.7,13.8,18.3L13.8,18.3z"/>
			<path class="st4" d="M58.1,18.2c3,2.1,0,10.3-1.8,12.2c-1.9,1.9-8.7-8.3-8.7-8.3S54.4,15.6,58.1,18.2L58.1,18.2z"/>
			<path class="st5" d="M27.4,48.6c-11.1,3.8-13,18.2-12.5,24.9h42.3c0.7-15.3-5.9-23-9.4-24.9C45.6,47,38.4,44.7,27.4,48.6
				L27.4,48.6z"/>
			<path class="st5" d="M57.2,74H14.8c-0.3,0-0.6-0.2-0.6-0.5c-0.5-7.1,1.7-21.6,12.9-25.4c4.9-1.7,9.6-2.4,13.8-2
				c4.3,0.4,6.6,1.7,7.2,2.1c3.7,2.1,10.4,10,9.6,25.4C57.7,73.7,57.5,74,57.2,74L57.2,74z M15.4,72.8h41.2
				c0.5-14.5-5.7-21.9-9.1-23.8c0,0,0,0-0.1,0c-2.2-1.6-9.2-3.6-19.9,0.1C17.2,52.7,15.1,65.9,15.4,72.8L15.4,72.8z"/>
			<path class="st6" d="M15.2,74c-0.3,0-0.6-0.2-0.6-0.5c-0.5-7.1,1.7-21.6,12.9-25.5c4.9-1.7,9.6-2.4,13.8-2
				c4.4,0.4,6.6,1.7,7.2,2.1c3.7,2.1,10.4,10,9.6,25.4c0,0.3-0.3,0.6-0.6,0.6c-0.3,0-0.6-0.3-0.6-0.6c0.7-14.9-5.6-22.4-9.1-24.3
				c0,0,0,0-0.1,0c-2.2-1.6-9.2-3.6-19.9,0.1c-10.6,3.6-12.6,17.5-12.1,24.3C15.8,73.7,15.6,74,15.2,74C15.3,74,15.3,74,15.2,74
				L15.2,74z"/>
			<path class="st6" d="M16.5,32.4C16.5,32.4,16.4,32.4,16.5,32.4c-0.2,0-0.4-0.1-0.4-0.2c-2.3-3.2-3.3-6-3.7-7.8
				c-0.1-0.3,0.1-0.6,0.4-0.7c0.3-0.1,0.6,0.1,0.7,0.4c0.4,1.6,1.2,4.1,3.1,6.9l8-7.9c-4.3-4.6-8.9-5.8-10.4-4.6
				c-0.6,0.5-1,1.6-1,3.1c0,0.3-0.3,0.6-0.6,0.6h0c-0.3,0-0.6-0.3-0.6-0.6c0-1.8,0.5-3.2,1.4-3.9c2.2-1.8,7.6-0.1,12.3,5.1
				c0.2,0.2,0.2,0.6,0,0.8l-8.8,8.8C16.8,32.3,16.6,32.4,16.5,32.4L16.5,32.4z"/>
			<path class="st6" d="M16.6,21.2c0.9-0.7,3.2,0.1,5.2,2.4c-0.7,0.5-1.4,1-2.1,1.7c-0.8,0.7-1.4,1.4-2,2
				C15.8,24.7,15.7,21.9,16.6,21.2L16.6,21.2z"/>
			<path class="st6" d="M55.5,32.4c-0.1,0-0.3-0.1-0.4-0.2l-8.8-8.8c-0.2-0.2-0.2-0.5,0-0.8c4.7-5.2,10.1-6.8,12.3-5.1
				c0.9,0.7,1.4,2.1,1.4,3.9c0,0.3-0.2,0.6-0.6,0.6h0c-0.3,0-0.6-0.2-0.6-0.6c0-1.4-0.4-2.6-1-3.1c-1.5-1.2-6.1,0-10.4,4.6l8,7.9
				c1.9-2.8,2.8-5.2,3.1-6.9c0.1-0.3,0.4-0.5,0.7-0.4c0.3,0.1,0.5,0.4,0.4,0.7c-0.4,1.8-1.4,4.7-3.7,7.8
				C55.9,32.3,55.7,32.3,55.5,32.4C55.6,32.4,55.5,32.4,55.5,32.4L55.5,32.4z"/>
			<path class="st6" d="M55.4,21.2c-0.9-0.7-3.2,0.1-5.2,2.4c0.7,0.5,1.4,1,2.1,1.7c0.8,0.7,1.4,1.4,2,2
				C56.2,24.7,56.3,21.9,55.4,21.2L55.4,21.2z"/>
			<path class="st7" d="M58.4,35.5c0,4.5-2.4,8.7-6.4,11.8c-4,3.1-9.6,5-15.9,5.1c-6.2,0.1-11.9-1.8-15.9-4.8
				c-4.1-3-6.5-7.1-6.6-11.7c0-4.5,2.4-8.7,6.4-11.8c4-3.1,9.6-5,15.9-5.1c6.2-0.1,11.9,1.8,15.9,4.8C55.9,26.8,58.4,31,58.4,35.5
				L58.4,35.5z"/>
			<path class="st6" d="M34,19.9c-0.1,0-0.2,0-0.3-0.1c-0.3-0.2-0.4-0.6-0.2-0.9c0.6-1,1.9-2.2,2.7-2.8c0.3-0.2,0.7-0.1,0.9,0.2
				c0.2,0.3,0.1,0.7-0.2,0.9c-0.7,0.5-1.9,1.6-2.4,2.4C34.4,19.8,34.2,19.9,34,19.9L34,19.9z"/>
			<path class="st6" d="M36.5,19.8c-0.1,0-0.3-0.1-0.4-0.2c-0.3-0.2-0.3-0.6-0.1-0.9c0.7-0.9,2.2-1.9,3.1-2.4c0.3-0.2,0.7,0,0.9,0.3
				c0.2,0.3,0,0.7-0.3,0.9c-0.8,0.4-2.1,1.3-2.7,2C36.9,19.7,36.7,19.8,36.5,19.8L36.5,19.8z"/>
			<path class="st6" d="M35.9,52.9c-6.1,0-11.8-1.8-16.1-5c-4.4-3.2-6.8-7.6-6.8-12.2c0-4.6,2.3-9,6.6-12.3
				c2.9-2.5,7.9-4.5,12.7-4.9c0.4,0,0.7,0.2,0.7,0.6c0,0.4-0.2,0.7-0.6,0.7c-4.5,0.4-9.3,2.3-12,4.6c0,0,0,0,0,0
				c-4,3.1-6.2,7.1-6.1,11.2c0,4.2,2.3,8.2,6.3,11.1c4.2,3.1,9.7,4.7,15.6,4.7c5.9,0,11.4-1.8,15.5-5c4-3.1,6.2-7.1,6.1-11.2
				c0-4.2-2.3-8.2-6.3-11.1c-3.2-2.4-8.4-4.3-12.5-4.5c-0.4,0-0.6-0.3-0.6-0.7c0-0.4,0.3-0.6,0.7-0.6c4.4,0.3,9.8,2.3,13.2,4.8
				c4.4,3.2,6.8,7.6,6.8,12.2c0,4.6-2.3,9-6.6,12.3C48,51,42.3,52.9,36.1,52.9C36,52.9,35.9,52.9,35.9,52.9L35.9,52.9z"/>
			<path class="st4" d="M43.8,38.6c-0.4-1.1-2.4-0.8-4.7-0.5c-1,0.1-2.1,0.3-2.8,0.2c-0.5,0-1-0.1-1.5-0.1c-4.3-0.3-7.5-0.6-8.2,1.8
				c-0.2,0.7,0,1.2,0.2,1.4c0.5,0.6,1.6,0.8,3,0.8c1.5,0,3.4-0.3,5.3-0.6c0.3-0.1,0.6-0.1,0.8-0.1c0.5-0.1,1.5,0.1,2.5,0.3
				c1.8,0.3,3.6,0.6,4.4,0.1C44,41.1,44.3,39.9,43.8,38.6L43.8,38.6z"/>
			<path class="st6" d="M35.6,38.9c0.9,0,1.7-0.5,1.6-1c0-0.5-0.7-1-1.7-1c-0.9,0-1.7,0.5-1.6,1C34,38.4,34.7,38.9,35.6,38.9z"/>
			<path class="st6" d="M39.9,35.6c-0.1,0-0.2,0-0.2-0.1L38,34.6c-0.2-0.1-0.3-0.4-0.2-0.7c0.1-0.2,0.4-0.3,0.7-0.2l1.6,0.9
				c0.2,0.1,0.3,0.4,0.2,0.7C40.2,35.5,40,35.6,39.9,35.6L39.9,35.6z"/>
			<path class="st6" d="M30.6,35.6c-0.2,0-0.3-0.1-0.4-0.2c-0.1-0.2-0.1-0.5,0.2-0.7l1.6-0.9c0.2-0.1,0.5-0.1,0.7,0.2
				c0.1,0.2,0.1,0.5-0.2,0.7l-1.6,0.9C30.8,35.6,30.7,35.6,30.6,35.6L30.6,35.6z"/>
			<path class="st4" d="M50.3,65.8c-1.4-0.1-3.1-0.2-4.3,0c-0.8,0.1,0,4-2.4,3.8c-2.3-0.2-2-2.5-2-3.9c-2.4-0.1-4.7-0.4-4.7-4.5
				c0-6,7.4-5,13.4-4.6"/>
			<path class="st6" d="M43.8,70.3c-0.1,0-0.2,0-0.2,0c-2.6-0.2-2.6-2.6-2.6-4c-2.1-0.2-4.7-0.7-4.7-5.1c0-1.6,0.5-2.9,1.5-3.8
				c2.3-2.2,6.8-1.9,11.2-1.6c0.5,0,0.9,0.1,1.4,0.1c0.4,0,0.6,0.3,0.6,0.7c0,0.4-0.3,0.6-0.7,0.6c-0.5,0-0.9-0.1-1.4-0.1
				c-3.9-0.3-8.3-0.5-10.2,1.3c-0.7,0.7-1.1,1.6-1.1,2.8c0,3.5,1.5,3.7,4.1,3.9c0.3,0,0.6,0.3,0.6,0.6c0,0.1,0,0.3,0,0.5
				c0,1.9,0.2,2.7,1.4,2.8c0.8,0.1,1-0.5,1.3-2c0.1-0.8,0.3-1.6,1-1.8c1.2-0.2,2.8-0.1,4.4-0.1c0.4,0,0.6,0.3,0.6,0.7
				s-0.3,0.6-0.7,0.6c-1-0.1-2.8-0.1-3.9,0c-0.1,0.2-0.1,0.5-0.1,0.7C46.1,68.3,45.7,70.3,43.8,70.3L43.8,70.3z"/>
		</g>
	</g>
</g>
</svg>
