<?xml version="1.0" encoding="utf-8"?>
<!-- Generator: Adobe Illustrator 26.2.1, SVG Export Plug-In . SVG Version: 6.00 Build 0)  -->
<svg version="1.1" id="레이어_1" xmlns="http://www.w3.org/2000/svg" xmlns:xlink="http://www.w3.org/1999/xlink" x="0px"
	 y="0px" viewBox="0 0 72 72" style="enable-background:new 0 0 72 72;" xml:space="preserve">
<style type="text/css">
	.st0{fill:#F7F7F7;}
	.st1{fill:#EFEFEF;filter:url(#Adobe_OpacityMaskFilter);}
	.st2{mask:url(#mask0_854_4841_00000028300543459062558800000017335651734071178659_);}
	.st3{clip-path:url(#SVGID_00000031913119793993842660000017450041367663422889_);}
	.st4{fill:#FFFFFF;}
	.st5{fill:#707070;}
	.st6{fill:#515151;}
	.st7{fill:#BCBCBC;}
</style>
<circle class="st0" cx="36" cy="36" r="36"/>
<defs>
	<filter id="Adobe_OpacityMaskFilter" filterUnits="userSpaceOnUse" x="12" y="14" width="48" height="58">
		<feColorMatrix  type="matrix" values="1 0 0 0 0  0 1 0 0 0  0 0 1 0 0  0 0 0 1 0"/>
	</filter>
</defs>
<mask maskUnits="userSpaceOnUse" x="12" y="14" width="48" height="58" id="mask0_854_4841_00000028300543459062558800000017335651734071178659_">
	<circle class="st1" cx="36" cy="36" r="36"/>
</mask>
<g class="st2">
	<g>
		<defs>
			<rect id="SVGID_1_" x="12" y="14" width="48" height="58"/>
		</defs>
		<clipPath id="SVGID_00000176727553401974306020000015902884532957585331_">
			<use xlink:href="#SVGID_1_"  style="overflow:visible;"/>
		</clipPath>
		<g style="clip-path:url(#SVGID_00000176727553401974306020000015902884532957585331_);">
			<path class="st4" d="M13.8,16c-3,2.1,0,10.3,1.8,12.2s8.7-8.3,8.7-8.3S17.5,13.4,13.8,16L13.8,16z"/>
			<path class="st4" d="M58.2,16c3,2.1,0,10.3-1.8,12.2c-1.9,1.9-8.7-8.3-8.7-8.3S54.5,13.4,58.2,16L58.2,16z"/>
			<path class="st5" d="M27.2,45.9c-11.3,3.9-13.3,18.6-12.8,25.5h43.3c0.8-15.7-6.1-23.6-9.6-25.5C45.8,44.3,38.5,42,27.2,45.9
				L27.2,45.9z"/>
			<path class="st5" d="M57.7,72H14.3c-0.3,0-0.6-0.2-0.6-0.6c-0.5-7.3,1.7-22.1,13.2-26.1c5.1-1.7,9.8-2.5,14.1-2.1
				c4.5,0.4,6.7,1.7,7.3,2.2c3.8,2.1,10.6,10.2,9.8,26.1C58.2,71.8,58,72,57.7,72z M14.9,70.8h42.2c0.6-14.9-5.8-22.5-9.3-24.4
				c0,0,0,0-0.1,0c-2.3-1.6-9.4-3.7-20.4,0.1C16.8,50.1,14.6,63.7,14.9,70.8L14.9,70.8z"/>
			<path class="st6" d="M14.4,72c-0.3,0-0.6-0.2-0.6-0.6c-0.5-7.3,1.7-22.1,13.2-26.1c5.1-1.7,9.8-2.5,14.1-2.1
				c4.5,0.4,6.7,1.7,7.3,2.2c3.8,2.1,10.6,10.2,9.8,26.1c0,0.3-0.3,0.6-0.6,0.6c-0.3,0-0.6-0.3-0.6-0.6c0.7-15.3-5.7-23-9.3-25
				c0,0,0,0-0.1,0c-2.3-1.6-9.4-3.7-20.4,0.1c-10.8,3.7-12.9,17.9-12.4,24.9C15,71.7,14.7,72,14.4,72C14.4,72,14.4,72,14.4,72z"/>
			<path class="st6" d="M16.5,30.4C16.5,30.4,16.4,30.4,16.5,30.4c-0.2,0-0.4-0.1-0.4-0.2c-2.3-3.2-3.3-6-3.7-7.8
				c-0.1-0.3,0.1-0.6,0.4-0.7c0.3-0.1,0.6,0.1,0.7,0.4c0.4,1.6,1.2,4.1,3.1,6.9l8-8c-4.3-4.6-8.9-5.8-10.4-4.6c-0.6,0.5-1,1.6-1,3.1
				c0,0.3-0.3,0.6-0.6,0.6h0c-0.3,0-0.6-0.3-0.6-0.6c0-1.8,0.5-3.2,1.4-3.9c2.2-1.8,7.6-0.2,12.3,5.1c0.2,0.2,0.2,0.6,0,0.8
				l-8.8,8.8C16.8,30.4,16.6,30.4,16.5,30.4L16.5,30.4z"/>
			<path class="st6" d="M16.6,19.2c0.9-0.7,3.2,0.1,5.2,2.4c-0.7,0.5-1.4,1-2.1,1.7c-0.8,0.7-1.4,1.4-2,2
				C15.8,22.7,15.7,19.9,16.6,19.2L16.6,19.2z"/>
			<path class="st6" d="M55.5,30.4c-0.1,0-0.3-0.1-0.4-0.2l-8.8-8.8c-0.2-0.2-0.2-0.5,0-0.8c4.7-5.2,10.1-6.9,12.3-5.1
				c0.9,0.7,1.4,2.1,1.4,3.9c0,0.3-0.2,0.6-0.6,0.6h0c-0.3,0-0.6-0.2-0.6-0.6c0-1.4-0.4-2.6-1-3.1c-1.5-1.2-6.1,0-10.4,4.6l8,8
				c1.9-2.8,2.8-5.3,3.1-6.9c0.1-0.3,0.4-0.5,0.7-0.4c0.3,0.1,0.5,0.4,0.4,0.7c-0.4,1.8-1.4,4.7-3.7,7.8
				C55.9,30.3,55.7,30.4,55.5,30.4C55.6,30.4,55.5,30.4,55.5,30.4L55.5,30.4z"/>
			<path class="st6" d="M55.4,19.2c-0.9-0.7-3.2,0.1-5.2,2.4c0.7,0.5,1.4,1,2.1,1.7c0.8,0.7,1.4,1.4,2,2
				C56.2,22.7,56.3,19.9,55.4,19.2L55.4,19.2z"/>
			<path class="st7" d="M58.4,33.5c0,4.5-2.4,8.7-6.4,11.8c-4,3.1-9.6,5.1-15.9,5.1c-6.2,0.1-11.9-1.8-15.9-4.8
				c-4.1-3-6.5-7.2-6.6-11.7c0-4.5,2.4-8.7,6.4-11.8c4-3.1,9.6-5.1,15.9-5.1c6.2-0.1,11.9,1.8,15.9,4.8C55.9,24.9,58.4,29,58.4,33.5
				L58.4,33.5z"/>
			<path class="st6" d="M34,17.9c-0.1,0-0.2,0-0.3-0.1c-0.3-0.2-0.4-0.6-0.2-0.9c0.6-1,1.9-2.2,2.7-2.8c0.3-0.2,0.7-0.1,0.9,0.2
				c0.2,0.3,0.1,0.7-0.2,0.9c-0.7,0.5-1.9,1.6-2.4,2.4C34.4,17.8,34.2,17.9,34,17.9L34,17.9z"/>
			<path class="st6" d="M36.5,17.8c-0.1,0-0.3-0.1-0.4-0.2c-0.3-0.2-0.3-0.6-0.1-0.9c0.7-0.9,2.2-1.9,3.1-2.4c0.3-0.2,0.7,0,0.9,0.3
				c0.2,0.3,0,0.7-0.3,0.9c-0.8,0.4-2.1,1.3-2.7,2.1C36.9,17.8,36.7,17.8,36.5,17.8L36.5,17.8z"/>
			<path class="st6" d="M35.9,51.1c-6.1,0-11.8-1.8-16.1-5c-4.4-3.2-6.8-7.6-6.8-12.2c0-4.6,2.3-9,6.6-12.3c2.9-2.5,7.9-4.5,12.7-5
				c0.4,0,0.7,0.2,0.7,0.6c0,0.4-0.2,0.7-0.6,0.7c-4.5,0.4-9.3,2.3-12,4.7c0,0,0,0,0,0c-4,3.1-6.2,7.1-6.1,11.3
				c0,4.2,2.3,8.2,6.3,11.2c4.2,3.1,9.7,4.8,15.6,4.7c5.9,0,11.4-1.8,15.5-5c4-3.1,6.2-7.1,6.1-11.3c0-4.2-2.3-8.2-6.3-11.2
				c-3.2-2.4-8.4-4.3-12.5-4.6c-0.4,0-0.6-0.3-0.6-0.7c0-0.4,0.3-0.6,0.7-0.6c4.4,0.3,9.8,2.3,13.2,4.8c4.4,3.2,6.8,7.6,6.8,12.2
				c0,4.6-2.3,9-6.6,12.3C48,49.1,42.3,51,36.1,51.1C36,51.1,35.9,51.1,35.9,51.1L35.9,51.1z"/>
			<path class="st6" d="M30.2,33.4c-0.2,0-0.4-0.1-0.4-0.3c-0.1-0.2,0-0.5,0.3-0.6l1.3-0.5L30,31.5c-0.2-0.1-0.4-0.4-0.3-0.6
				c0.1-0.2,0.4-0.4,0.6-0.3l2.5,0.9c0.2,0.1,0.3,0.2,0.3,0.5c0,0.2-0.1,0.4-0.3,0.5l-2.5,0.9C30.3,33.4,30.2,33.4,30.2,33.4
				L30.2,33.4z"/>
			<path class="st6" d="M40.3,33.4c-0.1,0-0.1,0-0.2,0l-2.5-0.9c-0.2-0.1-0.3-0.2-0.3-0.5c0-0.2,0.1-0.4,0.3-0.5l2.5-0.9
				c0.2-0.1,0.5,0,0.6,0.3c0.1,0.2,0,0.5-0.3,0.6L39.2,32l1.3,0.5c0.2,0.1,0.4,0.4,0.3,0.6C40.7,33.3,40.5,33.4,40.3,33.4L40.3,33.4
				z"/>
			<path class="st6" d="M35.7,44.7c1.8,0,3.2-1.8,3.2-3.9s-1.5-3.8-3.3-3.8s-3.2,1.8-3.2,3.9C32.4,43,33.9,44.7,35.7,44.7z"/>
			<path class="st4" d="M43.8,36.5c-0.4-0.8-2.1-0.7-4.7-0.4c-1.1,0.1-2.1,0.2-2.8,0.2c-0.5,0-1-0.1-1.5-0.1
				c-4.5-0.3-7.4-0.5-8.2,1.5c-0.2,0.5,0,0.9,0.1,1.1c0.5,0.6,1.6,0.8,3.1,0.8s3.4-0.2,5.3-0.5c0.3,0,0.6-0.1,0.8-0.1
				c0.5-0.1,1.5,0.1,2.6,0.2c2.1,0.3,3.6,0.5,4.3,0.1C44.2,38.6,44.2,37.4,43.8,36.5L43.8,36.5z"/>
			<path class="st6" d="M35.6,36.9c0.9,0,1.7-0.5,1.6-1c0-0.6-0.7-1-1.7-1c-0.9,0-1.7,0.5-1.6,1C34,36.5,34.7,36.9,35.6,36.9z"/>
			<path class="st4" d="M23.5,55.7c1.4,0.1,3.1,0.2,4.3,0c0.8-0.1,0-4,2.4-3.8c2.3,0.2,2,2.5,2,3.9c2.4,0.1,4.7,0.4,4.7,4.5
				c0,6-7.4,5-13.4,4.7"/>
			<path class="st6" d="M29.3,66c-1.4,0-2.9-0.1-4.4-0.2c-0.5,0-0.9-0.1-1.4-0.1c-0.4,0-0.6-0.3-0.6-0.7s0.3-0.6,0.7-0.6
				c0.5,0,0.9,0.1,1.4,0.1c3.9,0.3,8.3,0.5,10.2-1.3c0.7-0.7,1.1-1.6,1.1-2.8c0-3.5-1.5-3.8-4.1-3.9c-0.3,0-0.6-0.3-0.6-0.6
				c0-0.1,0-0.3,0-0.5c0-1.9-0.2-2.7-1.4-2.8c-0.8-0.1-1,0.5-1.3,2c-0.1,0.8-0.3,1.6-1,1.8c-1.2,0.2-2.8,0.1-4.4,0.1
				c-0.4,0-0.6-0.3-0.6-0.7c0-0.4,0.3-0.6,0.7-0.6c1,0.1,2.8,0.1,3.9,0c0.1-0.2,0.1-0.5,0.1-0.7c0.2-1.1,0.5-3.3,2.6-3.1
				c2.6,0.2,2.6,2.6,2.6,4c2.1,0.2,4.7,0.7,4.7,5.2c0,1.6-0.5,2.9-1.5,3.8C34.5,65.6,32,66,29.3,66L29.3,66z"/>
		</g>
	</g>
</g>
</svg>
