<?xml version="1.0" encoding="utf-8"?>
<!-- Generator: Adobe Illustrator 26.2.1, SVG Export Plug-In . SVG Version: 6.00 Build 0)  -->
<svg version="1.1" id="레이어_1" xmlns="http://www.w3.org/2000/svg" xmlns:xlink="http://www.w3.org/1999/xlink" x="0px"
	 y="0px" viewBox="0 0 72 72" style="enable-background:new 0 0 72 72;" xml:space="preserve">
<style type="text/css">
	.st0{fill:#F7F7F7;}
	.st1{fill:#EFEFEF;filter:url(#Adobe_OpacityMaskFilter);}
	.st2{mask:url(#mask0_854_4840_00000041980056289004173600000005822870337078865063_);}
	.st3{clip-path:url(#SVGID_00000183210976495951581020000004411078852941308820_);}
	.st4{fill:#FFFFFF;}
	.st5{fill:#707070;}
	.st6{fill:#515151;}
	.st7{fill:#BCBCBC;}
</style>
<circle class="st0" cx="36" cy="36" r="36"/>
<defs>
	<filter id="Adobe_OpacityMaskFilter" filterUnits="userSpaceOnUse" x="12" y="14" width="48" height="58">
		<feColorMatrix  type="matrix" values="1 0 0 0 0  0 1 0 0 0  0 0 1 0 0  0 0 0 1 0"/>
	</filter>
</defs>
<mask maskUnits="userSpaceOnUse" x="12" y="14" width="48" height="58" id="mask0_854_4840_00000041980056289004173600000005822870337078865063_">
	<circle class="st1" cx="36" cy="36" r="36"/>
</mask>
<g class="st2">
	<g>
		<defs>
			<rect id="SVGID_1_" x="12" y="14" width="48" height="58"/>
		</defs>
		<clipPath id="SVGID_00000175324599459524347340000005116795488336198077_">
			<use xlink:href="#SVGID_1_"  style="overflow:visible;"/>
		</clipPath>
		<g style="clip-path:url(#SVGID_00000175324599459524347340000005116795488336198077_);">
			<path class="st4" d="M13.9,16.3c-3,2.1,0,10.3,1.8,12.2s8.7-8.3,8.7-8.3S17.7,13.7,13.9,16.3L13.9,16.3z"/>
			<path class="st4" d="M58.1,16.2c3,2.1,0,10.3-1.8,12.2c-1.9,1.9-8.7-8.3-8.7-8.3S54.4,13.6,58.1,16.2L58.1,16.2z"/>
			<path class="st5" d="M27.4,46.7c-10.9,3.8-12.8,18-12.4,24.7H57c0.7-15.2-5.9-22.8-9.3-24.7C45.5,45.2,38.4,43,27.4,46.7
				L27.4,46.7z"/>
			<path class="st5" d="M57,72H15c-0.3,0-0.5-0.2-0.6-0.5C14,64.4,16.1,50,27.3,46.2c4.9-1.7,9.5-2.4,13.6-2
				c4.3,0.3,6.5,1.7,7.1,2.1c3.6,2,10.3,9.9,9.5,25.2C57.5,71.7,57.3,72,57,72L57,72z M15.6,70.8h40.8c0.5-14.4-5.6-21.7-9-23.6
				c0,0,0,0-0.1,0c-2.2-1.6-9.1-3.6-19.7,0.1C17.4,50.8,15.3,63.9,15.6,70.8L15.6,70.8z"/>
			<path class="st6" d="M15.2,72c-0.3,0-0.6-0.2-0.6-0.5c-0.5-7.1,1.6-21.4,12.8-25.3c4.9-1.7,9.5-2.4,13.6-2
				c4.3,0.3,6.5,1.7,7.1,2.1c3.6,2,10.3,9.9,9.5,25.2c0,0.3-0.3,0.6-0.6,0.6c-0.3,0-0.6-0.3-0.6-0.6c0.7-14.8-5.6-22.2-9-24.1
				c0,0,0,0-0.1,0c-2.2-1.6-9.1-3.6-19.7,0.1c-10.5,3.6-12.4,17.3-12,24.1C15.8,71.7,15.6,72,15.2,72C15.2,72,15.2,72,15.2,72
				L15.2,72z"/>
			<path class="st6" d="M16.5,30.4C16.5,30.4,16.4,30.4,16.5,30.4c-0.2,0-0.4-0.1-0.4-0.2c-2.3-3.2-3.3-6-3.7-7.8
				c-0.1-0.3,0.1-0.6,0.4-0.7c0.3-0.1,0.6,0.1,0.7,0.4c0.4,1.6,1.2,4.1,3.1,6.9l8-7.9c-4.3-4.6-8.9-5.8-10.4-4.6
				c-0.6,0.5-1,1.6-1,3.1c0,0.3-0.3,0.6-0.6,0.6h0c-0.3,0-0.6-0.3-0.6-0.6c0-1.8,0.5-3.2,1.4-3.9c2.2-1.8,7.6-0.2,12.3,5.1
				c0.2,0.2,0.2,0.6,0,0.8l-8.8,8.8C16.8,30.3,16.6,30.4,16.5,30.4L16.5,30.4z"/>
			<path class="st6" d="M16.6,19.2c0.9-0.7,3.2,0.1,5.2,2.4c-0.7,0.5-1.4,1-2.1,1.7c-0.8,0.7-1.4,1.4-2,2
				C15.8,22.7,15.7,19.9,16.6,19.2L16.6,19.2z"/>
			<path class="st6" d="M55.5,30.4c-0.1,0-0.3-0.1-0.4-0.2l-8.8-8.8c-0.2-0.2-0.2-0.5,0-0.8c4.7-5.2,10.1-6.9,12.3-5.1
				c0.9,0.7,1.4,2.1,1.4,3.9c0,0.3-0.2,0.6-0.6,0.6h0c-0.3,0-0.6-0.2-0.6-0.6c0-1.4-0.4-2.6-1-3.1c-1.5-1.2-6.1,0-10.4,4.6l8,7.9
				c1.9-2.8,2.8-5.3,3.1-6.9c0.1-0.3,0.4-0.5,0.7-0.4c0.3,0.1,0.5,0.4,0.4,0.7c-0.4,1.8-1.4,4.7-3.7,7.8
				C55.9,30.3,55.7,30.4,55.5,30.4C55.6,30.4,55.5,30.4,55.5,30.4L55.5,30.4z"/>
			<path class="st6" d="M55.4,19.2c-0.9-0.7-3.2,0.1-5.2,2.4c0.7,0.5,1.4,1,2.1,1.7c0.8,0.7,1.4,1.4,2,2
				C56.2,22.7,56.3,19.9,55.4,19.2L55.4,19.2z"/>
			<path class="st7" d="M58.4,33.5c0,4.5-2.4,8.7-6.4,11.8c-4,3.1-9.6,5-15.9,5.1c-6.2,0.1-11.9-1.8-15.9-4.8
				c-4.1-3-6.5-7.2-6.6-11.7c0-4.5,2.4-8.7,6.4-11.8c4-3.1,9.6-5,15.9-5.1c6.2-0.1,11.9,1.8,15.9,4.8C55.9,24.9,58.4,29,58.4,33.5
				L58.4,33.5z"/>
			<path class="st6" d="M34,17.9c-0.1,0-0.2,0-0.3-0.1c-0.3-0.2-0.4-0.6-0.2-0.9c0.6-1,1.9-2.2,2.7-2.8c0.3-0.2,0.7-0.1,0.9,0.2
				c0.2,0.3,0.1,0.7-0.2,0.9c-0.7,0.5-1.9,1.6-2.4,2.4C34.4,17.8,34.2,17.9,34,17.9L34,17.9z"/>
			<path class="st6" d="M36.5,17.8c-0.1,0-0.3-0.1-0.4-0.2c-0.3-0.2-0.3-0.6-0.1-0.9c0.7-0.9,2.2-1.9,3.1-2.4c0.3-0.2,0.7,0,0.9,0.3
				c0.2,0.3,0,0.7-0.3,0.9c-0.8,0.4-2.1,1.3-2.7,2.1C36.9,17.8,36.7,17.8,36.5,17.8L36.5,17.8z"/>
			<path class="st6" d="M35.9,51c-6.1,0-11.8-1.8-16.1-5c-4.4-3.2-6.8-7.6-6.8-12.2c0-4.6,2.3-9,6.6-12.3c2.9-2.5,7.9-4.5,12.7-5
				c0.4,0,0.7,0.2,0.7,0.6c0,0.4-0.2,0.7-0.6,0.7c-4.5,0.4-9.3,2.3-12,4.7c0,0,0,0,0,0c-4,3.1-6.2,7.1-6.1,11.3
				c0,4.2,2.3,8.2,6.3,11.2c4.2,3.1,9.7,4.8,15.6,4.7c5.9,0,11.4-1.8,15.5-5c4-3.1,6.2-7.1,6.1-11.3c0-4.2-2.3-8.2-6.3-11.2
				c-3.2-2.4-8.4-4.3-12.5-4.6c-0.4,0-0.6-0.3-0.6-0.7c0-0.4,0.3-0.6,0.7-0.6c4.4,0.3,9.8,2.3,13.2,4.8c4.4,3.2,6.8,7.6,6.8,12.2
				c0,4.6-2.3,9-6.6,12.3C48,49.1,42.3,51,36.1,51C36,51,35.9,51,35.9,51L35.9,51z"/>
			<path class="st6" d="M30.8,31.6c-0.6,0-1.1,0.5-1.1,1.1c0,0.6,0.5,1.1,1.1,1.1c0.6,0,1.1-0.5,1.1-1.1
				C31.9,32.1,31.4,31.6,30.8,31.6z"/>
			<path class="st6" d="M30.8,33.9c-0.3,0-0.6-0.1-0.8-0.3c-0.2-0.2-0.3-0.5-0.4-0.8c0-0.3,0.1-0.6,0.3-0.8c0.2-0.2,0.5-0.3,0.8-0.4
				c0.3,0,0.6,0.1,0.8,0.3c0.2,0.2,0.3,0.5,0.4,0.8C32,33.3,31.5,33.8,30.8,33.9L30.8,33.9L30.8,33.9z M30.8,31.7L30.8,31.7
				c-0.3,0-0.5,0.1-0.7,0.3c-0.2,0.2-0.3,0.4-0.3,0.7c0,0.3,0.1,0.5,0.3,0.7c0.2,0.2,0.4,0.3,0.7,0.3h0c0.5,0,1-0.5,1-1
				c0-0.3-0.1-0.5-0.3-0.7C31.3,31.8,31.1,31.7,30.8,31.7z"/>
			<path class="st6" d="M40.2,31.6c-0.6,0-1.1,0.5-1.1,1.1c0,0.6,0.5,1.1,1.1,1.1c0.6,0,1.1-0.5,1.1-1.1
				C41.3,32.1,40.8,31.6,40.2,31.6z"/>
			<path class="st6" d="M40.2,33.9c-0.6,0-1.2-0.5-1.2-1.2c0-0.6,0.5-1.2,1.2-1.2h0c0.6,0,1.2,0.5,1.2,1.2c0,0.3-0.1,0.6-0.3,0.8
				C40.9,33.7,40.6,33.9,40.2,33.9L40.2,33.9L40.2,33.9z M40.2,31.7c-0.5,0-1,0.5-1,1c0,0.5,0.4,1,1,1h0c0.3,0,0.5-0.1,0.7-0.3
				s0.3-0.4,0.3-0.7C41.2,32.1,40.8,31.7,40.2,31.7L40.2,31.7L40.2,31.7z"/>
			<path class="st4" d="M43.8,36.6c-0.4-1.1-2.4-0.8-4.7-0.5c-1,0.1-2.1,0.3-2.8,0.2c-0.5,0-1-0.1-1.5-0.1c-4.3-0.3-7.5-0.6-8.2,1.8
				c-0.2,0.7,0,1.2,0.2,1.4c0.5,0.6,1.6,0.8,3,0.8c1.5,0,3.4-0.3,5.3-0.6c0.3-0.1,0.6-0.1,0.8-0.1c0.5-0.1,1.5,0.1,2.5,0.3
				c1.8,0.3,3.6,0.6,4.4,0.1C44,39.2,44.4,37.9,43.8,36.6L43.8,36.6z"/>
			<path class="st6" d="M35.6,36.9c0.9,0,1.7-0.5,1.6-1c0-0.6-0.7-1-1.7-1c-0.9,0-1.7,0.5-1.6,1S34.7,36.9,35.6,36.9z"/>
		</g>
	</g>
</g>
</svg>
