<svg width="72" height="72" viewBox="0 0 72 72" fill="none" xmlns="http://www.w3.org/2000/svg">
<circle cx="36" cy="36" r="36" fill="#FFF7E0"/>
<mask id="mask0_854_4949" style="mask-type:alpha" maskUnits="userSpaceOnUse" x="0" y="0" width="72" height="72">
<circle cx="36" cy="36" r="36" fill="#EFEFEF"/>
</mask>
<g mask="url(#mask0_854_4949)">
<g clip-path="url(#clip0_854_4949)">
<path d="M13.7929 16.0307C10.7581 18.1543 13.7515 26.3381 15.6049 28.2665C17.4583 30.1949 24.3527 19.9644 24.3527 19.9644C24.3527 19.9644 17.5379 13.4083 13.7929 16.0307V16.0307Z" fill="white"/>
<path d="M58.204 15.9828C61.2388 18.1063 58.2454 26.2901 56.392 28.2185C54.5386 30.147 47.6442 19.9164 47.6442 19.9164C47.6442 19.9164 54.459 13.3604 58.204 15.9828V15.9828Z" fill="white"/>
<path d="M27.1582 45.8847C15.8436 49.7927 13.8979 64.5293 14.3406 71.4116H57.6593C58.4268 55.6675 51.5929 47.8355 48.0804 45.8847C45.8225 44.2568 38.4727 41.9766 27.1582 45.8847V45.8847Z" fill="#776F66"/>
<path d="M57.6594 72H14.3406C14.0317 72 13.7737 71.7601 13.7546 71.4499C13.2865 64.1551 15.4456 49.3097 26.9703 45.3282C32.0209 43.5852 36.7627 42.8753 41.0649 43.2238C45.5169 43.582 47.7715 44.9444 48.3956 45.3857C52.1565 47.4965 59.016 55.6227 58.2453 71.4403C58.2294 71.7537 57.9714 72 57.6594 72ZM14.8947 70.8231H57.0989C57.6594 55.9169 51.2904 48.3375 47.8001 46.4027C47.781 46.3899 47.7619 46.3803 47.7428 46.3643C45.485 44.7365 38.3135 42.6578 27.3525 46.4443C16.7735 50.0933 14.5858 63.669 14.8947 70.8231V70.8231Z" fill="#776F66"/>
<path d="M14.3597 72C14.054 72 13.7961 71.7601 13.7738 71.4499C13.3057 64.1551 15.4648 49.3066 26.9863 45.3282C32.0369 43.5852 36.7818 42.8753 41.0809 43.2238C45.5328 43.582 47.7875 44.9444 48.4116 45.3857C52.1725 47.4965 59.0319 55.6227 58.2613 71.4403C58.2454 71.7665 57.9683 72.0064 57.6467 72C57.3219 71.984 57.0735 71.709 57.0894 71.3827C57.8314 56.1056 51.3477 48.3631 47.8129 46.4027C47.7938 46.3899 47.7747 46.3803 47.7556 46.3643C45.4978 44.7365 38.3263 42.6578 27.3653 46.4443C16.5157 50.1892 14.4967 64.3886 14.9457 71.3732C14.968 71.6962 14.7228 71.9776 14.398 72C14.3852 72 14.3725 72 14.3597 72Z" fill="#515151"/>
<path d="M16.4774 30.4092C16.4774 30.4092 16.4487 30.4092 16.436 30.4092C16.2736 30.3964 16.1271 30.3164 16.0316 30.1853C13.691 27.0224 12.7197 24.1794 12.3185 22.3501C12.2516 22.0495 12.4426 21.7488 12.742 21.6849C13.0413 21.6177 13.3407 21.8096 13.4076 22.1102C13.7642 23.7316 14.5954 26.2037 16.5475 28.9893L24.5246 21.0389C20.2288 16.4305 15.6017 15.2472 14.105 16.4657C13.484 16.9709 13.1241 18.0903 13.1146 19.539C13.1146 19.846 12.863 20.0955 12.5573 20.0955H12.5541C12.2452 20.0923 12 19.8396 12 19.5294C12.0127 17.7193 12.5095 16.3217 13.4044 15.5958C15.5826 13.8241 21.0504 15.4455 25.7125 20.6871C25.9099 20.9078 25.9004 21.2468 25.6902 21.4578L16.8691 30.2461C16.764 30.3516 16.6239 30.4092 16.4774 30.4092V30.4092Z" fill="#515151"/>
<path d="M16.6302 19.2288C17.5092 18.538 19.8721 19.3119 21.7923 21.6721C21.1395 22.1326 20.4294 22.6827 19.7001 23.3415C18.9167 24.0451 18.2543 24.739 17.6939 25.3851C15.7768 22.6955 15.7227 19.9452 16.6302 19.232V19.2288Z" fill="#515151"/>
<path d="M55.5258 30.4092C55.3793 30.4092 55.2392 30.3516 55.1341 30.2461L46.3162 21.4578C46.106 21.2468 46.0965 20.911 46.2939 20.6871C50.9528 15.4455 56.4175 13.8241 58.5988 15.5958C59.4937 16.3217 59.9905 17.7193 60.0032 19.5294C60.0032 19.8396 59.758 20.0891 59.4491 20.0923H59.4459C59.1402 20.0923 58.8918 19.8428 58.8886 19.5358C58.8791 18.0871 58.5192 16.9678 57.8982 16.4625C56.4015 15.244 51.7744 16.4273 47.4817 21.0389L55.4589 28.9893C57.4078 26.2005 58.2422 23.7284 58.5988 22.1102C58.6657 21.8096 58.9619 21.6177 59.2644 21.6849C59.5669 21.752 59.7548 22.0495 59.6879 22.3501C59.2867 24.1794 58.3186 27.0224 55.978 30.1821C55.8825 30.3133 55.7328 30.3932 55.5736 30.406C55.5608 30.406 55.5449 30.406 55.5322 30.406L55.5258 30.4092Z" fill="#515151"/>
<path d="M55.3729 19.2288C54.494 18.538 52.1311 19.3119 50.2108 21.6721C50.8636 22.1326 51.5738 22.6827 52.303 23.3415C53.0864 24.0451 53.7488 24.739 54.3093 25.3851C56.2263 22.6955 56.2805 19.9452 55.3729 19.232V19.2288Z" fill="#515151"/>
<path d="M58.3918 33.5337C58.4236 38.059 56.0289 42.242 52.0037 45.3378C47.9785 48.4303 42.3706 50.3907 36.1321 50.4419C29.8937 50.493 24.2571 48.6254 20.1905 45.6C16.1207 42.5714 13.6686 38.4268 13.6368 33.9047C13.6049 29.3795 15.9997 25.1964 20.0249 22.1007C24.0501 19.0081 29.658 17.0477 35.8965 16.9966C42.1349 16.9454 47.7715 18.8131 51.8381 21.8384C55.9079 24.867 58.3599 29.0117 58.3918 33.5337V33.5337Z" fill="#EEB070"/>
<path d="M33.9731 17.8824C33.8552 17.8824 33.7342 17.8504 33.6259 17.7801C33.3266 17.5882 33.2406 17.1884 33.4317 16.891C34.0527 15.922 35.3456 14.6716 36.1672 14.1119C36.4601 13.9104 36.8582 13.9872 37.0588 14.2846C37.2563 14.5788 37.183 14.9786 36.8901 15.18C36.1895 15.6566 35.0271 16.7887 34.5144 17.5882C34.3934 17.7801 34.1864 17.8856 33.9731 17.8856V17.8824Z" fill="#515151"/>
<path d="M36.5462 17.8377C36.3997 17.8377 36.25 17.7865 36.129 17.6809C35.8615 17.4507 35.8297 17.0413 36.0621 16.7727C36.8105 15.8996 38.2658 14.8411 39.1543 14.4029C39.4695 14.2462 39.8549 14.3774 40.0141 14.6972C40.1701 15.017 40.0396 15.4039 39.7211 15.5606C38.9632 15.9348 37.6544 16.8942 37.0366 17.6138C36.9092 17.7609 36.7309 17.8377 36.5494 17.8377H36.5462Z" fill="#515151"/>
<path d="M35.8519 51.0623C29.7918 51.0623 24.0947 49.3034 19.7829 46.0925C15.4233 42.8497 13.0031 38.5131 12.9681 33.8855C12.9362 29.2643 15.2864 24.8958 19.5919 21.5794C22.477 19.0369 27.448 17.0893 32.2662 16.6192C32.6197 16.5808 32.9317 16.8431 32.9668 17.198C33.0018 17.553 32.7439 17.8664 32.3904 17.9016C27.8843 18.3429 23.0757 20.217 20.423 22.5612C20.4135 22.5708 20.4007 22.5804 20.388 22.59C16.401 25.6537 14.2228 29.6641 14.2514 33.8759C14.2801 38.0878 16.5156 42.0598 20.5472 45.0595C24.6998 48.1489 30.2345 49.8182 36.1003 49.7735C41.9789 49.7255 47.4785 47.9602 51.5866 44.8005C55.5736 41.7367 57.7517 37.7264 57.7231 33.5145C57.6944 29.3027 55.4589 25.3307 51.4273 22.3309C48.2078 19.9356 43.0648 18.0615 38.9218 17.7705C38.5683 17.7449 38.3008 17.4379 38.3263 17.0829C38.3518 16.7279 38.6543 16.4657 39.011 16.4849C43.3737 16.7919 48.7937 18.7683 52.1916 21.2948C56.5512 24.5408 58.9714 28.8742 59.0064 33.5017C59.0383 38.1293 56.6818 42.5043 52.3668 45.8207C48.039 49.1467 42.2655 51.0079 36.1131 51.0591C36.0271 51.0591 35.9411 51.0591 35.8551 51.0591L35.8519 51.0623Z" fill="#515151"/>
<path d="M30.1708 33.377C29.9766 33.377 29.7919 33.2555 29.7218 33.0604C29.6326 32.8109 29.76 32.5359 30.0084 32.4464L31.2822 31.9827L30.0084 31.5157C29.76 31.4262 29.6326 31.1512 29.7218 30.9017C29.811 30.6523 30.0848 30.5243 30.3332 30.6139L32.8426 31.5317C33.0305 31.6021 33.1579 31.7812 33.1579 31.9827C33.1579 32.1841 33.0337 32.3632 32.8426 32.4336L30.3332 33.3482C30.2791 33.3674 30.2249 33.377 30.1708 33.377V33.377Z" fill="#515151"/>
<path d="M40.3293 33.377C40.2752 33.377 40.2211 33.3674 40.1669 33.3482L37.6576 32.4336C37.4697 32.3632 37.3423 32.1841 37.3423 31.9827C37.3423 31.7812 37.4665 31.6021 37.6576 31.5317L40.1669 30.6139C40.4153 30.5243 40.6892 30.6523 40.7784 30.9017C40.8675 31.1512 40.7401 31.4262 40.4918 31.5157L39.218 31.9827L40.4918 32.4464C40.7401 32.5359 40.8675 32.8109 40.7784 33.0604C40.7083 33.2555 40.5236 33.377 40.3293 33.377V33.377Z" fill="#515151"/>
<path d="M35.6936 44.6856C37.4767 44.6534 38.8912 42.8937 38.8529 40.7551C38.8146 38.6165 37.3381 36.909 35.555 36.9412C33.7719 36.9734 32.3575 38.7331 32.3957 40.8717C32.434 43.0102 33.9105 44.7178 35.6936 44.6856Z" fill="#515151"/>
<path d="M43.7877 36.4983C43.3546 35.6636 41.721 35.7948 39.0938 36.0794C38.0015 36.1977 36.9665 36.3096 36.2882 36.2681C35.7596 36.2361 35.2469 36.2041 34.7533 36.1721C30.2727 35.8875 27.3143 35.6988 26.5468 37.688C26.3367 38.2317 26.4991 38.6122 26.6742 38.8329C27.1296 39.415 28.2824 39.6228 29.8046 39.6228C31.3268 39.6228 33.1897 39.415 35.1036 39.1591C35.438 39.1143 35.7055 39.0792 35.8774 39.06C36.3838 39.0056 37.3773 39.1431 38.4282 39.2902C40.565 39.5845 42.0203 39.7508 42.7591 39.351C44.2017 38.5675 44.2336 37.365 43.7845 36.4983H43.7877Z" fill="white"/>
<path d="M35.6349 36.9391C36.5494 36.932 37.2874 36.4796 37.2832 35.9285C37.2789 35.3775 36.5342 34.9365 35.6196 34.9435C34.7051 34.9506 33.9672 35.403 33.9714 35.9541C33.9756 36.5051 34.7204 36.9461 35.6349 36.9391Z" fill="#515151"/>
<path d="M23.4833 55.7251C24.8494 55.7986 26.5659 55.8786 27.7378 55.6835C28.5339 55.5492 27.7569 51.7051 30.158 51.9034C32.4954 52.0953 32.177 54.4459 32.177 55.8498C34.5653 55.9841 36.8614 56.2016 36.8582 60.3975C36.8518 66.3746 29.4956 65.396 23.4833 65.0506" fill="white"/>
<path d="M29.2728 65.978C27.8461 65.978 26.3462 65.8821 24.8622 65.7862C24.3845 65.7542 23.9132 65.7254 23.4483 65.6966C23.0916 65.6774 22.821 65.3704 22.8401 65.0122C22.8592 64.654 23.1649 64.3854 23.5215 64.4014C23.9897 64.427 24.4642 64.459 24.945 64.4909C28.8397 64.7436 33.2502 65.0282 35.1609 63.2309C35.8679 62.5657 36.2118 61.6383 36.215 60.3974C36.2182 56.9019 34.6705 56.6397 32.142 56.499C31.8013 56.4798 31.5338 56.1952 31.5338 55.853C31.5338 55.7059 31.5369 55.546 31.5401 55.3797C31.5815 53.5088 31.3841 52.6549 30.1071 52.5526C29.2982 52.4918 29.0721 53.0899 28.846 54.5578C28.7155 55.4021 28.5913 56.1984 27.8461 56.3263C26.6519 56.5278 25.0214 56.4606 23.4515 56.3775C23.0948 56.3583 22.8241 56.0545 22.8432 55.6963C22.8624 55.3381 23.1617 55.0631 23.5215 55.0854C24.5692 55.143 26.2825 55.2326 27.4385 55.0823C27.4894 54.9064 27.534 54.6025 27.5722 54.3627C27.7506 53.2178 28.0754 51.0879 30.2154 51.267C32.8139 51.4812 32.8649 53.851 32.8362 55.2518C34.9762 55.4053 37.5111 55.9489 37.5079 60.407C37.5079 62.0029 37.0143 63.2757 36.0462 64.1871C34.5176 65.6263 32.0369 65.9876 29.2759 65.9876L29.2728 65.978Z" fill="#515151"/>
</g>
</g>
<defs>
<clipPath id="clip0_854_4949">
<rect width="48" height="58" fill="white" transform="translate(12 14)"/>
</clipPath>
</defs>
</svg>
