<svg width="72" height="72" viewBox="0 0 72 72" fill="none" xmlns="http://www.w3.org/2000/svg">
<circle cx="36" cy="36" r="36" fill="#FFF7E0"/>
<mask id="mask0_854_4948" style="mask-type:alpha" maskUnits="userSpaceOnUse" x="0" y="0" width="72" height="72">
<circle cx="36" cy="36" r="36" fill="#EFEFEF"/>
</mask>
<g mask="url(#mask0_854_4948)">
<g clip-path="url(#clip0_854_4948)">
<path d="M13.9457 16.2748C10.9109 18.3962 13.9043 26.5719 15.7577 28.4984C17.6111 30.4249 24.5055 20.2045 24.5055 20.2045C24.5055 20.2045 17.6907 13.6549 13.9457 16.2748V16.2748Z" fill="white"/>
<path d="M58.1052 16.2268C61.14 18.3482 58.1466 26.524 56.2932 28.4505C54.4399 30.377 47.5454 20.1566 47.5454 20.1566C47.5454 20.1566 54.3602 13.607 58.1052 16.2268V16.2268Z" fill="white"/>
<path d="M27.4449 46.7412C16.4966 50.5144 14.6145 64.7604 15.0444 71.4121H56.9557C57.6976 56.1949 51.0866 48.623 47.6888 46.7412C45.5042 45.1693 38.3932 42.9648 27.4449 46.7412V46.7412Z" fill="#776F66"/>
<path d="M56.9557 71.9808H15.0444C14.7451 71.9808 14.4967 71.7476 14.4776 71.4473C14.0254 64.3962 16.1113 50.0447 27.2634 46.2013C32.1516 44.5144 36.7373 43.8307 40.8994 44.1661C45.208 44.5144 47.3862 45.8275 47.9913 46.2556C51.6312 48.2939 58.2677 56.1502 57.5225 71.4377C57.5066 71.7412 57.2582 71.9776 56.9557 71.9776V71.9808ZM15.5794 70.8435H56.4111C56.9525 56.4345 50.7905 49.1086 47.4149 47.2396C47.3958 47.23 47.3767 47.2173 47.3576 47.2045C45.173 45.6326 38.234 43.623 27.6296 47.2812C17.3978 50.8083 15.2801 63.9297 15.5794 70.8466V70.8435Z" fill="#776F66"/>
<path d="M15.21 72C14.9043 72 14.6463 71.7604 14.624 71.4505C14.1718 64.3962 16.2609 50.0319 27.4225 46.1853C32.3107 44.4984 36.9028 43.8147 41.0681 44.1501C45.3768 44.4984 47.5613 45.8147 48.1696 46.2428C51.8126 48.2843 58.4523 56.1469 57.7072 71.4409C57.6912 71.7668 57.4174 72.0096 57.0925 72C56.7677 71.984 56.5193 71.7093 56.5353 71.3834C57.255 56.6262 50.9847 49.1469 47.5709 47.2556C47.5518 47.2428 47.5327 47.2332 47.5136 47.2172C45.329 45.6454 38.4027 43.639 27.8015 47.2971C17.3117 50.9137 15.3596 64.6294 15.7927 71.3738C15.815 71.6965 15.5698 71.9776 15.245 72C15.2323 72 15.2195 72 15.2068 72H15.21Z" fill="#515151"/>
<path d="M16.4774 30.393C16.4774 30.393 16.4487 30.393 16.436 30.393C16.2736 30.3802 16.1271 30.3003 16.0316 30.1693C13.691 27.0096 12.7197 24.1693 12.3185 22.3419C12.2516 22.0415 12.4426 21.7412 12.742 21.6773C13.0445 21.6102 13.3407 21.8019 13.4075 22.1022C13.7642 23.722 14.5954 26.1917 16.5475 28.9776L24.5246 21.0351C20.2288 16.4281 15.6049 15.246 14.105 16.4633C13.484 16.968 13.1241 18.0863 13.1146 19.5335C13.1146 19.8403 12.863 20.0895 12.5573 20.0895H12.5541C12.2452 20.0863 12 19.8339 12 19.524C12.0127 17.7157 12.5095 16.3195 13.4044 15.5942C15.5826 13.8243 21.0504 15.4441 25.7125 20.6805C25.9099 20.901 25.9004 21.2396 25.6902 21.4505L16.8691 30.23C16.764 30.3355 16.6239 30.393 16.4774 30.393V30.393Z" fill="#515151"/>
<path d="M16.6302 19.2237C17.5092 18.5336 19.8721 19.3067 21.7923 21.6646C21.1395 22.1246 20.4294 22.6741 19.7001 23.3323C18.9167 24.0352 18.2543 24.7285 17.6939 25.3738C15.7768 22.6869 15.7227 19.9393 16.6302 19.2269V19.2237Z" fill="#515151"/>
<path d="M55.5258 30.393C55.3793 30.393 55.2392 30.3355 55.1341 30.23L46.3162 21.4505C46.106 21.2396 46.0965 20.9042 46.2939 20.6805C50.9528 15.4441 56.4175 13.8243 58.5988 15.5942C59.4905 16.3195 59.9905 17.7157 60.0032 19.524C60.0032 19.8339 59.758 20.0831 59.4491 20.0863H59.4459C59.1402 20.0863 58.8918 19.8371 58.8886 19.5303C58.8791 18.0831 58.5192 16.9649 57.8982 16.4601C56.3983 15.2428 51.7744 16.4249 47.4817 21.0319L55.4589 28.9744C57.4078 26.1885 58.2422 23.7188 58.5988 22.099C58.6657 21.7987 58.9619 21.607 59.2644 21.6741C59.5637 21.7412 59.7548 22.0383 59.6879 22.3387C59.2867 24.1661 58.3186 27.0064 55.978 30.1629C55.8825 30.2939 55.7328 30.3738 55.5736 30.3866C55.5608 30.3866 55.5449 30.3866 55.5322 30.3866L55.5258 30.393Z" fill="#515151"/>
<path d="M55.3729 19.2237C54.494 18.5336 52.1311 19.3067 50.2108 21.6646C50.8636 22.1246 51.5738 22.6741 52.303 23.3323C53.0864 24.0352 53.7488 24.7285 54.3093 25.3738C56.2263 22.6869 56.2805 19.9393 55.3729 19.2269V19.2237Z" fill="#515151"/>
<path d="M58.3918 33.5144C58.4236 38.0352 56.0289 42.2141 52.0037 45.3067C47.9785 48.3962 42.3706 50.3547 36.1321 50.4058C29.8937 50.4569 24.2571 48.5911 20.1905 45.5687C16.1207 42.5432 13.6686 38.4026 13.6368 33.885C13.6049 29.3642 15.9997 25.1853 20.0249 22.0927C24.0501 19.0032 29.658 17.0448 35.8965 16.9936C42.1349 16.9425 47.7715 18.8083 51.8381 21.8307C55.9079 24.8563 58.3599 28.9968 58.3918 33.5144V33.5144Z" fill="#EEB070"/>
<path d="M33.9731 17.8786C33.8552 17.8786 33.7342 17.8467 33.6259 17.7764C33.3266 17.5847 33.2406 17.1853 33.4317 16.8882C34.0527 15.9202 35.3456 14.6709 36.1672 14.1118C36.4601 13.9106 36.8582 13.9872 37.0588 14.2844C37.2563 14.5783 37.183 14.9777 36.8901 15.1789C36.1895 15.655 35.0271 16.786 34.5144 17.5847C34.3934 17.7764 34.1864 17.8818 33.9731 17.8818V17.8786Z" fill="#515151"/>
<path d="M36.5462 17.8339C36.3997 17.8339 36.25 17.7828 36.129 17.6773C35.8615 17.4473 35.8297 17.0383 36.0621 16.77C36.8105 15.8978 38.2658 14.8403 39.1543 14.4026C39.4727 14.246 39.8549 14.377 40.0141 14.6965C40.1701 15.016 40.0396 15.4026 39.7211 15.5591C38.9632 15.9329 37.6544 16.8914 37.0366 17.6102C36.9092 17.7572 36.7309 17.8339 36.5494 17.8339H36.5462Z" fill="#515151"/>
<path d="M35.8519 51.0256C29.7918 51.0256 24.0947 49.2684 19.7829 46.0607C15.4233 42.8211 13.0031 38.4888 12.9681 33.8658C12.9362 29.2492 15.2864 24.885 19.5919 21.5719C22.477 19.032 27.448 17.0863 32.2662 16.6166C32.6197 16.5783 32.9317 16.8403 32.9668 17.1949C33.0018 17.5495 32.7439 17.8626 32.3904 17.8978C27.8843 18.3387 23.0757 20.2109 20.423 22.5527C20.4135 22.5623 20.4007 22.5719 20.388 22.5815C16.401 25.6422 14.2228 29.6486 14.2514 33.8562C14.2801 38.0639 16.5156 42.032 20.5472 45.0288C24.6998 48.115 30.2313 49.7859 36.1003 49.738C41.9789 49.6901 47.4785 47.9265 51.5866 44.77C55.5735 41.7093 57.7517 37.7029 57.7231 33.4952C57.6944 29.2875 55.4589 25.3195 51.4273 22.3227C48.2078 19.9297 43.0648 18.0575 38.9218 17.7668C38.5683 17.7412 38.3008 17.4345 38.3263 17.0799C38.3518 16.7252 38.6543 16.4633 39.011 16.4824C43.3737 16.7891 48.7937 18.7636 52.1916 21.2875C56.5512 24.5304 58.9714 28.8594 59.0064 33.4824C59.0415 38.1054 56.6818 42.476 52.3668 45.7891C48.039 49.1118 42.2655 50.9713 36.1131 51.0224C36.0271 51.0224 35.9411 51.0224 35.8551 51.0224L35.8519 51.0256Z" fill="#515151"/>
<path d="M30.7886 31.5911C30.1899 31.5943 29.709 32.0863 29.7154 32.6869C29.7186 33.2876 30.209 33.77 30.8077 33.7636C31.4064 33.7604 31.8872 33.2684 31.8809 32.6677C31.8777 32.0671 31.3873 31.5847 30.7886 31.5911Z" fill="#515151"/>
<path d="M30.7981 33.8562C30.4892 33.8562 30.1963 33.7348 29.9733 33.5176C29.7504 33.2971 29.6262 33.0032 29.623 32.6869C29.623 32.3738 29.7409 32.0767 29.9606 31.8499C30.1803 31.6262 30.4733 31.5016 30.7886 31.4984C31.1102 31.4984 31.3968 31.6166 31.6229 31.8371C31.849 32.0575 31.97 32.3514 31.9732 32.6677C31.9796 33.3163 31.4541 33.8499 30.8077 33.853H30.7981V33.8562ZM30.7981 31.6837H30.7918C30.5274 31.6837 30.2791 31.7923 30.0944 31.9808C29.9097 32.1693 29.8077 32.4217 29.8077 32.6869C29.8077 32.9521 29.916 33.2013 30.1039 33.3866C30.2918 33.5719 30.537 33.6709 30.7981 33.6709H30.8045C31.3522 33.6677 31.7917 33.2173 31.7885 32.6677C31.7885 32.4026 31.6802 32.1534 31.4923 31.9681C31.3045 31.7828 31.0593 31.6837 30.7981 31.6837Z" fill="#515151"/>
<path d="M40.2402 31.5911C39.6415 31.5943 39.1607 32.0863 39.1671 32.6869C39.1702 33.2876 39.6607 33.77 40.2593 33.7636C40.858 33.7572 41.3389 33.2684 41.3325 32.6677C41.3293 32.0671 40.8389 31.5847 40.2402 31.5911Z" fill="#515151"/>
<path d="M40.2465 33.8562C39.6033 33.8562 39.0778 33.3355 39.0715 32.6869C39.0651 32.0383 39.5905 31.5048 40.237 31.4984H40.2465C40.8898 31.4984 41.4153 32.0224 41.4216 32.6677C41.4216 32.9808 41.3038 33.278 41.0841 33.5048C40.8643 33.7284 40.5714 33.853 40.2561 33.8562H40.2465V33.8562ZM40.2402 31.6837C39.6924 31.6869 39.253 32.1374 39.2562 32.6869C39.2594 33.2332 39.7052 33.6741 40.2465 33.6741H40.2529C40.5172 33.6741 40.7656 33.5655 40.9503 33.377C41.135 33.1885 41.2369 32.9361 41.2369 32.6709C41.2337 32.1246 40.7879 31.6837 40.2465 31.6837H40.2402V31.6837Z" fill="#515151"/>
<path d="M43.8036 36.6038C43.3578 35.5399 41.377 35.8051 39.0842 36.1086C38.0428 36.246 36.9665 36.3898 36.2977 36.3419C35.7691 36.3035 35.2564 36.262 34.766 36.2236C30.4319 35.8818 27.2983 35.6358 26.5436 38.0607C26.3271 38.7604 26.55 39.2173 26.7761 39.4792C27.2952 40.0767 28.3843 40.2971 29.7854 40.2971C31.3076 40.2971 33.1992 40.0383 35.1227 39.7189C35.457 39.6645 35.7213 39.6198 35.8933 39.5974C36.3869 39.5304 37.4219 39.7093 38.4186 39.8818C40.2529 40.1949 41.9853 40.492 42.8005 39.9489C43.9756 39.1597 44.3513 37.9105 43.8036 36.607V36.6038Z" fill="white"/>
<path d="M35.6349 36.9163C36.5494 36.9093 37.2874 36.4573 37.2832 35.9068C37.2789 35.3563 36.5342 34.9157 35.6196 34.9228C34.7051 34.9298 33.9672 35.3818 33.9714 35.9323C33.9756 36.4828 34.7204 36.9234 35.6349 36.9163Z" fill="#515151"/>
</g>
</g>
<defs>
<clipPath id="clip0_854_4948">
<rect width="48" height="58" fill="white" transform="translate(12 14)"/>
</clipPath>
</defs>
</svg>
