<svg width="72" height="72" viewBox="0 0 72 72" fill="none" xmlns="http://www.w3.org/2000/svg">
<circle cx="36" cy="36" r="36" fill="#FFF7E0"/>
<mask id="mask0_854_4947" style="mask-type:alpha" maskUnits="userSpaceOnUse" x="0" y="0" width="72" height="72">
<circle cx="36" cy="36" r="36" fill="#EFEFEF"/>
</mask>
<g mask="url(#mask0_854_4947)">
<g clip-path="url(#clip0_854_4947)">
<path d="M13.7866 18.2695C10.7517 20.386 13.7452 28.5428 15.5985 30.4649C17.4519 32.387 24.3464 22.1901 24.3464 22.1901C24.3464 22.1901 17.5315 15.6557 13.7866 18.2695V18.2695Z" fill="white"/>
<path d="M58.118 18.2217C61.1529 20.3382 58.1594 28.495 56.3061 30.4171C54.4527 32.3392 47.5582 22.1423 47.5582 22.1423C47.5582 22.1423 54.3731 15.6079 58.118 18.2217V18.2217Z" fill="white"/>
<path d="M27.362 48.5541C16.3054 52.3568 14.4042 66.7102 14.8341 73.4103H57.1626C57.9109 58.0784 51.2362 50.4475 47.8033 48.5509C45.5964 46.9667 38.4154 44.745 27.3588 48.5509L27.362 48.5541Z" fill="#776F66"/>
<path d="M57.1626 73.9841H14.8342C14.5317 73.9841 14.2833 73.7482 14.261 73.4486C13.8024 66.3436 15.9137 51.8851 27.1709 48.009C32.1069 46.3101 36.7404 45.6184 40.9439 45.9595C45.2939 46.3101 47.4976 47.6361 48.1059 48.0664C51.7808 50.1192 58.481 58.037 57.7294 73.439C57.7135 73.745 57.4619 73.9841 57.1562 73.9841H57.1626ZM15.3787 72.8366H56.6148C57.1626 58.3175 50.9369 50.9384 47.5295 49.0545C47.5104 49.045 47.4912 49.0322 47.4721 49.0195C45.2653 47.4353 38.2594 45.4112 27.5499 49.096C17.2162 52.6532 15.0762 65.8719 15.3819 72.8398L15.3787 72.8366Z" fill="#776F66"/>
<path d="M15.2418 74C14.9361 74 14.6782 73.7609 14.6559 73.4518C14.1973 66.3436 16.3086 51.8755 27.5754 47.9995C32.5114 46.3005 37.148 45.6088 41.3547 45.9499C45.7079 46.3005 47.9116 47.6265 48.523 48.06C52.2011 50.116 58.9077 58.0369 58.153 73.4454C58.137 73.7705 57.8473 74.0128 57.5384 74.0032C57.2135 73.9873 56.9652 73.7131 56.9811 73.388C57.7071 58.5151 51.3764 50.9798 47.9244 49.0705C47.9052 49.0577 47.8861 49.0481 47.867 49.0322C45.6602 47.448 38.6606 45.4271 27.9543 49.1119C17.3563 52.7584 15.3851 66.5795 15.8246 73.3784C15.8469 73.7004 15.6017 73.9809 15.2768 74.0032C15.2641 74.0032 15.2514 74.0032 15.2386 74.0032L15.2418 74Z" fill="#515151"/>
<path d="M16.4774 32.3551C16.4774 32.3551 16.4487 32.3551 16.436 32.3551C16.2736 32.3423 16.1271 32.2626 16.0316 32.132C13.691 28.9795 12.7197 26.1458 12.3185 24.3225C12.2516 24.0229 12.4426 23.7233 12.742 23.6595C13.0413 23.5926 13.3407 23.7839 13.4044 24.0835C13.761 25.6996 14.5922 28.1635 16.5443 30.9398L24.5215 23.0157C20.2288 18.4225 15.6049 17.2431 14.105 18.4575C13.484 18.9611 13.1241 20.0768 13.1146 21.5207C13.1146 21.8267 12.863 22.0754 12.5573 22.0754H12.5541C12.2452 22.0722 12 21.8203 12 21.5112C12.0127 19.707 12.5095 18.3141 13.4044 17.5905C15.5826 15.8246 21.0472 17.4407 25.7125 22.665C25.9099 22.885 25.9004 23.2229 25.6902 23.4332L16.8691 32.1925C16.764 32.2977 16.6239 32.3551 16.4774 32.3551V32.3551Z" fill="#515151"/>
<path d="M16.6302 21.2115C17.5092 20.523 19.8721 21.2944 21.7923 23.6468C21.1395 24.1058 20.4294 24.654 19.7001 25.3107C18.9167 26.0119 18.2543 26.7036 17.6939 27.3475C15.7768 24.6668 15.7227 21.9255 16.6302 21.2147V21.2115Z" fill="#515151"/>
<path d="M55.5258 32.3551C55.3793 32.3551 55.2392 32.2977 55.1341 32.1925L46.3162 23.4332C46.106 23.2229 46.0965 22.8882 46.2939 22.665C50.9528 17.4407 56.4175 15.8246 58.5988 17.5905C59.4905 18.3141 59.9905 19.707 60.0032 21.5112C60.0032 21.8203 59.758 22.069 59.4491 22.0722H59.4459C59.1402 22.0722 58.8918 21.8235 58.8886 21.5175C58.8791 20.0736 58.5192 18.958 57.8982 18.4543C56.4015 17.2399 51.7744 18.4193 47.4817 23.0157L55.4589 30.9398C57.4078 28.1603 58.2422 25.6964 58.5988 24.0835C58.6657 23.7839 58.9619 23.5894 59.2612 23.6595C59.5606 23.7265 59.7516 24.0229 59.6848 24.3225C59.2835 26.1458 58.3154 28.9795 55.9748 32.1288C55.8793 32.2595 55.7296 32.3391 55.5704 32.3519C55.5576 32.3519 55.5417 32.3519 55.529 32.3519L55.5258 32.3551Z" fill="#515151"/>
<path d="M55.3729 21.2115C54.494 20.523 52.1311 21.2944 50.2108 23.6468C50.8636 24.1058 51.5738 24.654 52.303 25.3107C53.0864 26.0119 53.7488 26.7036 54.3093 27.3475C56.2263 24.6668 56.2805 21.9255 55.3729 21.2147V21.2115Z" fill="#515151"/>
<path d="M58.3918 35.4693C58.4236 39.9796 56.0289 44.1489 52.0037 47.2344C47.9785 50.3167 42.3706 52.2707 36.1321 52.3217C29.8937 52.3727 24.2571 50.5112 20.1905 47.4958C16.1207 44.4772 13.6686 40.3462 13.6368 35.8391C13.6049 31.3287 15.9997 27.1595 20.0249 24.0739C24.0501 20.9916 29.658 19.0377 35.8965 18.9867C42.1349 18.9357 47.7715 20.7972 51.8381 23.8126C55.9079 26.8311 58.3599 30.9622 58.3918 35.4693V35.4693Z" fill="#EEB070"/>
<path d="M33.9731 19.8696C33.8552 19.8696 33.7342 19.8377 33.6259 19.7676C33.3266 19.5764 33.2406 19.1779 33.4317 18.8815C34.0527 17.9157 35.3456 16.6694 36.1672 16.1115C36.4601 15.9107 36.8582 15.9904 37.0588 16.2837C37.2563 16.5769 37.1798 16.9754 36.8869 17.1762C36.1895 17.6511 35.0239 18.7795 34.5112 19.5764C34.3902 19.7676 34.1832 19.8696 33.9699 19.8696H33.9731Z" fill="#515151"/>
<path d="M36.5462 19.825C36.3997 19.825 36.25 19.774 36.129 19.6688C35.8615 19.4393 35.8297 19.0313 36.0621 18.7636C36.8105 17.8934 38.2658 16.8383 39.1543 16.4016C39.4727 16.2454 39.8581 16.3761 40.0141 16.6949C40.1701 17.0136 40.0396 17.3993 39.7211 17.5555C38.9632 17.9284 37.6544 18.8847 37.0366 19.6019C36.9092 19.7485 36.7309 19.825 36.5494 19.825H36.5462Z" fill="#515151"/>
<path d="M35.8519 52.9401C29.7918 52.9401 24.0947 51.187 19.7829 47.9867C15.4233 44.7546 13.0031 40.4323 12.9681 35.82C12.9362 31.214 15.2864 26.8599 19.5919 23.5544C22.477 21.0203 27.448 19.0791 32.2662 18.6106C32.6228 18.5723 32.9317 18.8337 32.9668 19.1875C33.0018 19.5413 32.7439 19.8537 32.3904 19.8888C27.8843 20.3286 23.0757 22.1965 20.423 24.533C20.4103 24.5425 20.4007 24.5521 20.388 24.5617C16.401 27.6153 14.2228 31.6124 14.2514 35.8104C14.2801 40.0083 16.5156 43.9672 20.5472 46.9571C24.6998 50.0363 30.2154 51.697 36.1003 51.6555C41.9789 51.6077 47.4785 49.8482 51.5866 46.6989C55.5735 43.6453 57.7517 39.6482 57.7231 35.4502C57.6944 31.2522 55.4589 27.2934 51.4273 24.3035C48.2078 21.916 43.0648 20.0481 38.9218 19.7581C38.5683 19.7326 38.3008 19.4266 38.3263 19.0728C38.3518 18.7189 38.6543 18.4576 39.011 18.4767C43.3769 18.7827 48.7937 20.7526 52.1916 23.2707C56.5544 26.506 58.9714 30.8251 59.0064 35.4375C59.0383 40.0498 56.6818 44.4103 52.3668 47.7158C48.039 51.0308 42.2655 52.8859 36.1131 52.9369C36.0271 52.9369 35.9411 52.9369 35.8551 52.9369L35.8519 52.9401Z" fill="#515151"/>
<path d="M43.8036 38.5517C43.3546 37.4902 41.377 37.7548 39.0842 38.0576C38.0429 38.1947 36.9697 38.3381 36.2978 38.2903C35.7691 38.252 35.2564 38.2106 34.7628 38.1723C30.4287 37.8313 27.2952 37.5858 26.5404 40.0052C26.3239 40.7032 26.5468 41.159 26.7729 41.4172C27.292 42.0133 28.3811 42.2332 29.7823 42.2332C31.3045 42.2332 33.196 41.975 35.1195 41.6563C35.4539 41.6021 35.7182 41.5575 35.8901 41.5352C36.3837 41.4682 37.4155 41.6467 38.4154 41.8189C40.2497 42.1344 41.9853 42.4277 42.7973 41.8858C43.9756 41.0985 44.3482 39.8522 43.8036 38.5517V38.5517Z" fill="white"/>
<path d="M35.6349 38.8634C36.5494 38.8564 37.2874 38.4055 37.2832 37.8562C37.2789 37.307 36.5342 36.8674 35.6196 36.8745C34.7051 36.8815 33.9672 37.3324 33.9714 37.8817C33.9756 38.4309 34.7204 38.8705 35.6349 38.8634Z" fill="#515151"/>
<path d="M39.8612 35.5745C39.7816 35.5745 39.6988 35.5554 39.6255 35.5107L38.011 34.5864C37.7817 34.4557 37.7021 34.1624 37.8327 33.9329C37.9632 33.7034 38.2562 33.6237 38.4855 33.7544L40.1 34.6788C40.3293 34.8095 40.4089 35.1027 40.2784 35.3322C40.1892 35.4852 40.03 35.5745 39.8644 35.5745H39.8612Z" fill="#515151"/>
<path d="M30.6389 35.5745C30.4733 35.5745 30.3109 35.4884 30.2249 35.3322C30.0943 35.1027 30.1739 34.8095 30.4032 34.6788L32.0178 33.7544C32.247 33.6237 32.5368 33.7034 32.6706 33.9329C32.8012 34.1624 32.7215 34.4557 32.4923 34.5864L30.8777 35.5107C30.8045 35.5522 30.7217 35.5745 30.6421 35.5745H30.6389Z" fill="#515151"/>
<path d="M50.3096 65.8336C48.9435 65.7603 47.227 65.6806 46.0551 65.8751C45.259 66.0089 46.036 69.8403 43.6349 69.6427C41.2975 69.4514 41.6159 67.1086 41.6159 65.7093C39.2275 65.5754 36.9315 65.3587 36.9347 61.1767C36.9411 55.2192 44.2973 56.1946 50.3096 56.5388" fill="white"/>
<path d="M43.8227 70.2929C43.7431 70.2929 43.6635 70.2898 43.5807 70.2834C40.9822 70.0698 40.9312 67.7111 40.9599 66.3117C38.8199 66.1587 36.285 65.6169 36.2882 61.1735C36.2882 59.5829 36.7818 58.3143 37.7499 57.4058C40.0682 55.2319 44.5743 55.522 48.9307 55.8025C49.4084 55.8344 49.8797 55.8631 50.3446 55.8918C50.7013 55.9109 50.972 56.2169 50.9528 56.5739C50.9337 56.9309 50.6376 57.205 50.2714 57.1827C49.8032 57.1572 49.3287 57.1253 48.8479 57.0934C44.9532 56.8416 40.5427 56.5579 38.632 58.3493C37.925 59.0123 37.5811 59.9367 37.5779 61.1735C37.5748 64.6574 39.1224 64.9188 41.6509 65.059C41.9917 65.0782 42.2592 65.3619 42.2592 65.7029C42.2592 65.8495 42.256 66.0089 42.2528 66.1747C42.2114 68.0394 42.4088 68.8904 43.6858 68.9924C44.4915 69.0562 44.7208 68.4569 44.9469 66.9939C45.0774 66.1524 45.2016 65.3587 45.9468 65.2312C47.141 65.0304 48.7746 65.0973 50.3414 65.1802C50.6981 65.1993 50.9688 65.5021 50.9497 65.8591C50.9306 66.2161 50.6217 66.4839 50.2714 66.4679C49.2237 66.4105 47.5104 66.3213 46.3544 66.4711C46.3035 66.6464 46.2589 66.9492 46.2207 67.1883C46.0519 68.2848 45.7398 70.2834 43.8227 70.2834V70.2929Z" fill="#515151"/>
</g>
</g>
<defs>
<clipPath id="clip0_854_4947">
<rect width="48" height="58" fill="white" transform="translate(12 16)"/>
</clipPath>
</defs>
</svg>
