<svg width="44" height="44" viewBox="0 0 44 44" fill="none" xmlns="http://www.w3.org/2000/svg">
<circle cx="22" cy="22" r="22" fill="#FEDCC7"/>
<path d="M29.2725 16.795C29.3857 16.8548 29.5216 16.8519 29.6322 16.7874C30.7756 16.1206 32.2829 15.4176 33.6357 15.0696C34.3133 14.8952 34.9295 14.8159 35.4319 14.8615C35.9323 14.9069 36.2783 15.071 36.4878 15.3432C36.6971 15.6152 36.7848 16.0552 36.7187 16.6462C36.6537 17.228 36.4453 17.8978 36.1399 18.5629C35.8354 19.2262 35.4417 19.8689 35.0192 20.3961C34.5922 20.9291 34.1563 21.3182 33.7755 21.5068C33.6125 21.5875 33.5322 21.7747 33.586 21.9485C34.086 23.5629 33.7808 26.1688 31.867 28.3037C29.9643 30.4264 26.4296 32.1235 20.4087 31.8233C14.6077 31.5341 11.3784 29.6211 9.70257 27.3506C8.01961 25.0704 7.85099 22.3601 8.31077 20.3817C8.33491 20.2778 8.31312 20.1686 8.25097 20.0819C7.47482 18.9995 7.0043 17.57 6.88881 16.2719C6.83121 15.6245 6.86327 15.0239 6.98106 14.5262C7.09974 14.0248 7.29811 13.6568 7.54876 13.4351C7.71319 13.2896 8.00187 13.1941 8.42922 13.2015C8.84953 13.2089 9.35725 13.316 9.89889 13.518C10.9841 13.9226 12.1393 14.6827 12.9181 15.6457C13.0206 15.7724 13.1939 15.8173 13.3451 15.7562C18.0991 13.8354 24.2357 14.1367 29.2725 16.795Z" fill="#EFEFEF" stroke="#E3E3E3" stroke-width="0.741089" stroke-linejoin="round"/>
<path d="M21.3237 19.8999C20.7373 19.8707 20.237 20.0027 19.8228 20.296C19.4143 20.5895 19.1425 21.0612 19.0074 21.7108L20.1168 21.9545C20.1268 21.8694 20.1363 21.7928 20.1454 21.7247C20.1602 21.657 20.1806 21.5924 20.2065 21.5309C20.2842 21.3464 20.409 21.1899 20.5809 21.0615C20.7531 20.9274 20.9588 20.8663 21.1979 20.8782C21.4769 20.8921 21.6923 20.9799 21.844 21.1416C22.0018 21.2979 22.0732 21.524 22.0585 21.8201C22.042 22.1503 21.9329 22.4503 21.7311 22.7199C21.5293 22.9895 21.258 23.2785 20.9173 23.5868L18.6685 25.5895L18.6344 26.2727L23.084 26.4945L23.1377 25.4184L21.088 25.3162C20.9912 25.3114 20.8884 25.312 20.7796 25.318C20.6769 25.3186 20.5678 25.3303 20.4526 25.3531L21.8427 24.0867C22.0104 23.9296 22.1726 23.7664 22.3295 23.5973C22.492 23.4285 22.6377 23.2531 22.7667 23.0712C22.8956 22.8892 23.0022 22.6976 23.0864 22.4964C23.1766 22.2897 23.2301 22.0754 23.2469 21.8537C23.2605 21.5804 23.2217 21.3273 23.1306 21.0944C23.0452 20.8619 22.9182 20.6615 22.7496 20.4933C22.5814 20.3193 22.3742 20.1806 22.1283 20.077C21.888 19.9737 21.6198 19.9147 21.3237 19.8999Z" fill="#ACACAC"/>
<path d="M19.8102 12.6351C17.2993 12.5749 14.4868 13.7066 13.3944 14.2801C11.5221 12.5794 7.67079 11.6435 5.74474 13.5235C4.23581 14.9964 4.49885 20.2912 6.89219 23.5325C6.40216 27.3574 7.90104 35.3371 22.8496 34.1835C37.7982 33.0298 37.1506 24.1153 36.5977 21.9051C38.0875 20.2693 40.5036 14.5644 38.8548 12.8533C36.2251 10.2941 31.6732 12.5218 29.726 13.9556C29.4174 13.7466 28.3493 13.2603 26.5449 12.9877C25.1089 11.0429 21.5446 11.435 19.8102 12.6351Z" fill="white"/>
<path d="M7.49119 14.0943C9.83151 13.4439 13.3352 16.5721 14.7944 18.2175C13.9891 19.5298 10.1653 22.1534 8.3541 23.3012C7.09133 20.5032 5.15087 14.7446 7.49119 14.0943Z" fill="white"/>
<path d="M9.54157 15.9637C10.5396 15.6863 12.0338 17.0204 12.6562 17.7221C12.3127 18.2818 10.682 19.4007 9.90958 19.8902C9.37104 18.6969 8.54349 16.2411 9.54157 15.9637Z" fill="#64584D"/>
<path d="M37.0707 13.3192C34.9793 12.469 31.2231 14.917 29.6065 16.2473C30.1603 17.5272 33.3396 20.3324 34.86 21.5751C36.4683 19.1774 39.1622 14.1694 37.0707 13.3192Z" fill="white"/>
<path d="M34.3242 14.9673C33.4267 14.6025 31.8149 15.653 31.1212 16.2238C31.3589 16.773 32.7231 17.9767 33.3755 18.5099C34.0657 17.4811 35.2216 15.3322 34.3242 14.9673Z" fill="#64584D"/>
<ellipse rx="13.8078" ry="9.60445" transform="matrix(0.998104 -0.0614935 0.0617963 0.998093 21.9059 23.5407)" fill="#FDA247"/>
<path d="M6.56611 15.8259C6.05773 20.4847 7.84373 21.9925 8.13441 22.3277" stroke="#64584D" stroke-width="0.858321" stroke-linecap="round"/>
<path d="M37.7965 14.521C37.2453 18.9543 35.6236 20.2251 35.1562 20.4601" stroke="#64584D" stroke-width="0.858321" stroke-linecap="round"/>
<ellipse rx="1.21657" ry="0.759358" transform="matrix(0.999139 0.0421812 0.0421579 -0.999082 18.3579 17.6325)" fill="white"/>
<path d="M25.1132 17.0976C25.0703 16.6804 24.4937 16.3976 23.8253 16.466C23.1569 16.5344 22.6498 16.928 22.6927 17.3452C22.7355 17.7624 23.3121 18.0451 23.9805 17.9768C24.6489 17.9084 25.156 17.5147 25.1132 17.0976Z" fill="white"/>
<path d="M7.62391 14.0782C8.75149 13.7637 11.6339 14.8237 12.8325 16.2341" stroke="#64584D" stroke-width="0.858321" stroke-linecap="round"/>
<path d="M12.5945 16.5539C15.5314 14.5577 20.0467 14.106 20.4303 14.1619" stroke="#64584D" stroke-width="0.858321" stroke-linecap="round"/>
<path d="M24.8347 14.1514C26.2693 14.3074 29.2307 15.2002 30.867 15.9792" stroke="#64584D" stroke-width="0.858321" stroke-linecap="round"/>
<path d="M30.2288 15.6742C31.8578 14.4958 35.4547 12.2592 37.3157 13.4143" stroke="#64584D" stroke-width="0.858321" stroke-linecap="round"/>
<path d="M8.61545 21.1981C7.60879 23.7202 8.22389 29.3329 13.5879 31.4768" stroke="#64584D" stroke-width="0.858321" stroke-linecap="round"/>
<path d="M34.6332 19.5957C35.8171 21.4473 36.9686 27.8169 30.4061 30.7644" stroke="#64584D" stroke-width="0.858321" stroke-linecap="round"/>
<path d="M21.4049 14.3425L22.5447 13.055" stroke="#64584D" stroke-width="0.858321" stroke-linecap="round"/>
<path d="M23.2261 14.23L24.5271 13.0847" stroke="#64584D" stroke-width="0.858321" stroke-linecap="round"/>
<path d="M17.612 29.8998C15.5616 26.6818 19.7972 23.9465 22.0012 23.5666C23.2651 23.3891 25.3297 24.5248 26.9738 26.514C28.6179 28.5031 25.3635 30.4769 23.6544 31.3691C22.5272 31.9575 19.662 33.1171 17.612 29.8998Z" fill="white" stroke="white" stroke-width="0.857821" stroke-linecap="round"/>
<ellipse rx="1.3861" ry="0.984021" transform="matrix(0.998104 -0.0614935 0.0617963 0.998093 22.0725 24.9301)" fill="#64584D"/>
<path d="M18.7964 21.1211L18.9024 22.8329" stroke="#64584D" stroke-width="1.76469" stroke-linecap="round"/>
<path d="M24.4187 20.7744L24.5247 22.4862" stroke="#64584D" stroke-width="1.76469" stroke-linecap="round"/>
</svg>
