<svg width="118" height="130" viewBox="0 0 118 130" fill="none" xmlns="http://www.w3.org/2000/svg">
<g clip-path="url(#clip0_2253_67883)">
<path d="M56.3753 26.5253C51.2307 27.8613 51.2078 40.2913 52.7503 43.7887C54.2927 47.2861 68.6645 37.0219 68.6645 37.0219C68.6645 37.0219 62.7282 24.8746 56.3753 26.5253Z" fill="white"/>
<path d="M116.554 47.2448C119.661 51.5402 111.725 61.1294 108.297 62.8485C104.869 64.5675 100.365 47.5276 100.365 47.5276C100.365 47.5276 112.714 41.9372 116.549 47.2448H116.554Z" fill="white"/>
<path d="M7.61163 0.835834C4.38942 1.05926 0.947503 7.11012 1.94987 12.55C2.82866 11.3279 7.32786 7.24236 10.4906 6.55383C10.7423 3.45772 10.0832 0.639763 7.60706 0.835834H7.61163Z" fill="white"/>
<path d="M1.56555 14.2593L1.27262 12.6725C0.645573 9.27996 1.6159 5.32661 3.73506 2.6044C4.89762 1.11791 6.25242 0.246986 7.56144 0.15579C8.49515 0.0828332 9.30528 0.365541 9.91403 0.971995C11.2322 2.28522 11.3283 4.76119 11.1773 6.60791L11.1361 7.11405L10.6418 7.22349C7.74452 7.85274 3.37347 11.7423 2.513 12.9506L1.57013 14.2638L1.56555 14.2593ZM7.84979 1.51005C7.79029 1.51005 7.73079 1.51005 7.66671 1.51917H7.65756C6.76046 1.58301 5.72606 2.28066 4.82439 3.44341C3.49248 5.15334 2.36195 8.01233 2.46723 10.9625C4.15157 9.30276 7.25936 6.80398 9.8408 6.0197C9.93691 4.08178 9.61652 2.61352 8.9437 1.93867C8.65535 1.65141 8.29834 1.51005 7.84979 1.51005Z" fill="#959595"/>
<path d="M27.4991 0.94844C25.0367 -0.341984 21.6268 3.50193 20.3086 5.59944L26.1443 12.0196C26.2862 11.8783 26.8034 11.0302 27.0414 10.6198C29.0187 7.29569 29.9569 2.23886 27.4945 0.943881L27.4991 0.94844Z" fill="white"/>
<path d="M26.1212 13.0047L19.457 5.67258L19.7317 5.23483C20.9308 3.31972 24.7252 -1.28568 27.8238 0.342166C28.6065 0.752548 29.1695 1.4958 29.4487 2.48527C30.1672 5.02052 29.0138 8.65925 27.6407 10.9711C27.2929 11.5638 26.8352 12.3117 26.6338 12.5077L26.1257 13.0047H26.1212ZM21.178 5.53122L26.0708 10.9118C26.1898 10.7157 26.3271 10.4968 26.4553 10.2734C27.9382 7.78377 28.6385 4.6603 28.1259 2.85462C27.9474 2.22536 27.6316 1.78762 27.1785 1.55051C25.4804 0.661352 22.7204 3.26956 21.1734 5.53122H21.178Z" fill="#959595"/>
<path d="M26.1531 3.83432C24.8853 3.00444 23.5396 4.39062 22.3816 5.75856L22.1665 6.01391L25.462 9.13281L25.6588 8.65859C26.6749 6.22366 27.3431 4.61405 26.1531 3.82976V3.83432Z" fill="#959595"/>
<path d="M7.88629 3.76589C7.69863 3.59261 7.4469 3.53334 7.18143 3.59261C5.7534 3.90724 4.54965 6.82551 4.58626 8.0749L4.60457 8.64944L8.18837 6.81183L8.21126 6.62032C8.46757 4.55929 8.14718 4.00756 7.88629 3.76589Z" fill="#959595"/>
<path d="M29.3433 54.8684C28.6339 53.0353 27.3706 50.2128 30.1443 45.8536C32.918 41.4945 34.2316 38.1248 31.7417 35.4527C29.2564 32.7807 22.6975 30.364 25.8739 24.0623C29.0504 17.7561 28.3455 -0.752114 9.30516 5.69545C0.892608 8.54532 -5.70745 23.2005 11.2458 32.6758C13.9371 34.1805 13.3833 36.1777 13.9096 39.9532C14.6099 44.969 21.2008 41.1662 23.4893 43.1497C25.5902 44.969 20.8896 51.2707 29.3433 54.8684Z" fill="white"/>
<path d="M29.3435 55.5523C29.2519 55.5523 29.1604 55.534 29.0734 55.4976C23.0134 52.9213 23.2286 48.8676 23.375 46.1864C23.4345 45.0465 23.4895 44.057 23.0363 43.6694C22.3498 43.0767 20.8714 43.1861 19.4434 43.2955C17.0359 43.4779 13.7358 43.7241 13.2232 40.0535C13.1042 39.2008 13.0401 38.4393 12.9806 37.7645C12.7838 35.439 12.6831 34.2717 10.9027 33.2776C0.677612 27.5551 -0.283561 20.5467 0.0551381 16.8806C0.549456 11.5456 4.26142 6.6803 9.08559 5.04789C17.9558 2.04298 22.542 4.52808 24.8259 7.1454C29.0505 11.9788 28.4921 20.3962 26.4874 24.3678C24.295 28.7224 27.1831 30.9293 29.9751 33.0633C30.831 33.7154 31.6365 34.3355 32.2453 34.9876C35.3256 38.298 33.0737 42.5204 30.7211 46.2184C28.2312 50.1352 29.197 52.6158 29.9018 54.426L29.9797 54.6221C30.0804 54.8774 30.0163 55.1693 29.8149 55.3608C29.6821 55.4884 29.5128 55.5523 29.3389 55.5523H29.3435ZM21.1048 41.841C22.1942 41.841 23.2057 42.0005 23.938 42.6389C24.8946 43.4688 24.8214 44.8276 24.7481 46.264C24.6246 48.5621 24.4735 51.3618 28.126 53.5004C27.5767 51.6309 27.3433 48.9862 29.5677 45.4888C32.6984 40.5642 33.1515 37.9742 31.2429 35.9178C30.712 35.3478 29.9476 34.7641 29.1421 34.1486C26.3638 32.0283 22.5603 29.1191 25.2653 23.7568C27.1373 20.0405 27.4852 12.2661 23.7961 8.04368C20.9126 4.74695 15.9831 4.15873 9.53413 6.34288C5.26836 7.78378 1.85848 12.2706 1.42367 17.0083C0.892732 22.7719 4.49942 28.1251 11.5846 32.083C14.0013 33.4327 14.1478 35.2019 14.3583 37.6459C14.4132 38.3025 14.4773 39.0458 14.5917 39.862C14.9075 42.1465 16.6056 42.1328 19.3473 41.9276C19.9377 41.882 20.5327 41.8364 21.1094 41.8364L21.1048 41.841Z" fill="#959595"/>
<path d="M11.6665 13.5195L13.9367 14.664L11.6665 13.5195Z" fill="white"/>
<path d="M13.9369 15.12C13.8682 15.12 13.795 15.1063 13.7309 15.0698L11.4607 13.9253C11.2365 13.8113 11.1449 13.5377 11.2593 13.3143C11.3738 13.0908 11.6484 12.9996 11.8727 13.1136L14.1429 14.2582C14.3671 14.3721 14.4587 14.6457 14.3442 14.8692C14.2619 15.0288 14.1017 15.12 13.9369 15.12Z" fill="#959595"/>
<path d="M7.61174 13.4414L5.28662 14.741L7.61174 13.4414Z" fill="white"/>
<path d="M5.28651 15.1971C5.12632 15.1971 4.9707 15.115 4.88831 14.9645C4.76473 14.7456 4.84254 14.4675 5.06224 14.3444L7.38736 13.0448C7.60706 12.9217 7.88626 12.9992 8.00984 13.2181C8.13341 13.437 8.05561 13.7151 7.83591 13.8382L5.51079 15.1378C5.43755 15.1788 5.36432 15.1971 5.28651 15.1971Z" fill="#959595"/>
<path d="M34.7118 78.6558C36.5243 69.1349 51.9306 70.0879 58.5444 70.0059L91.4073 77.8031C94.5243 80.0648 100.749 90.224 95.6044 96.9087C94.1398 99.5899 88.0432 101.541 81.9832 100.31C81.9832 100.31 71.36 115.102 67.1263 118.331C62.8925 121.559 50.0219 130.706 45.9988 128.814C38.3963 128.978 38.108 121.477 37.6137 118.705L19.4155 111.796C10.4903 113.306 5.80799 110.574 5.28621 109.425C0.562734 101.364 2.64528 90.2103 6.98428 90.8806C10.4582 91.4141 12.463 97.164 13.5706 102.289C25.686 92.4583 39.7832 86.2296 39.7832 86.2296C39.7832 86.2296 34.0436 82.1851 34.7118 78.6649V78.6558Z" fill="#776F66"/>
<path d="M90.7989 77.0108C90.419 76.7418 89.8926 76.8376 89.6226 77.216C89.3571 77.5945 89.4486 78.1189 89.8285 78.3879C94.1538 81.4156 97.1838 87.3525 96.8817 92.1995C96.7581 94.142 96.035 96.7685 93.2704 98.2322C84.7068 102.76 70.8705 97.8719 66.9251 93.604C66.1882 92.806 65.4376 91.6569 66.0418 90.7176C68.2113 87.3479 77.0037 89.7646 79.8918 90.558C80.5372 90.7358 80.9628 90.8544 81.2192 90.8954C81.6769 90.9729 82.1117 90.6629 82.1895 90.2069C82.2673 89.7509 81.9561 89.3177 81.4984 89.2402C81.3244 89.2129 80.8667 89.0852 80.3404 88.9393C76.4865 87.8768 67.4607 85.3963 64.6229 89.8102C64.0874 90.6446 63.5153 92.3911 65.6848 94.7394C68.1976 97.457 74.1248 100.343 80.4914 101.351C74.0424 110.448 64.0966 121.815 52.0453 126.754C47.752 128.514 44.8411 128.778 42.6166 127.616C39.3898 125.928 37.7558 121.378 37.7558 114.087C37.7558 112.144 37.7558 109.486 39.1518 108.455C39.5912 108.127 40.2045 107.931 40.7309 107.954C42.8363 108.036 45.134 111.953 46.3286 117.479C46.4247 117.935 46.8778 118.218 47.331 118.122C47.7841 118.026 48.077 117.579 47.9763 117.123C46.5574 110.548 43.8067 106.39 40.7996 106.271C39.8933 106.235 38.9047 106.545 38.1495 107.101C36.0715 108.638 36.0715 111.784 36.0715 114.091C36.0715 115.163 36.1081 116.175 36.1814 117.142C31.673 115.395 24.1346 112.276 21.7546 111.26C20.1938 110.594 18.0701 110.835 15.8274 111.086C12.7928 111.428 9.65298 111.788 7.49263 110.129C3.98206 107.434 3.4557 101.552 3.4557 98.2823C3.4557 95.209 3.87221 92.0172 6.96627 91.6341C7.4377 91.5749 7.89541 91.7344 8.36684 92.122C10.8796 94.1831 12.3992 101.342 12.6189 104.534C12.6509 104.994 13.0583 105.341 13.516 105.314C13.9783 105.282 14.3307 104.88 14.2986 104.42C14.262 103.882 14.1888 103.216 14.0744 102.464C14.0744 102.464 14.0835 102.464 14.0835 102.459C18.688 98.5878 31.8652 90.2023 39.4173 87.1792C39.4814 87.1518 39.5363 87.1199 39.5912 87.0834C42.0857 88.6839 45.0928 89.6232 47.8665 89.8832C48.4249 89.9379 48.965 89.9607 49.4867 89.9607C53.1987 89.9607 55.9632 88.6566 56.8694 86.3995C57.2356 85.4875 57.2036 84.5482 56.7688 83.618C55.2126 80.2757 48.8322 78.0733 48.109 77.8362C47.6697 77.6902 47.1891 77.9274 47.0426 78.3697C46.8961 78.8074 47.1341 79.2862 47.5735 79.4321C49.3448 80.0203 54.1736 82.0494 55.2355 84.3293C55.4735 84.84 55.4918 85.3006 55.2995 85.7793C54.5626 87.6078 51.7066 88.5608 48.0175 88.2143C40.7401 87.5257 36.639 83.1985 35.9113 79.4686C35.623 78.0003 35.98 76.6506 36.9686 75.4559C39.3303 72.6015 45.1111 70.8323 52.059 70.8323C52.5259 70.8323 52.9012 70.4538 52.9012 69.9933C52.9012 69.5328 52.5259 69.1543 52.059 69.1543C44.5069 69.1543 38.3783 71.1105 35.6687 74.3889C34.3643 75.9666 33.8745 77.8362 34.259 79.7878C34.7487 82.3002 36.1493 84.3521 38.0213 85.9344C30.6249 89.0806 18.7841 96.5633 13.7357 100.571C13.0171 97.0056 11.6119 92.619 9.43328 90.827C8.59569 90.1385 7.69402 89.8512 6.75115 89.9698C1.76221 90.5854 1.76221 96.3809 1.76221 98.2869C1.76221 101.862 2.37095 108.328 6.45365 111.46C9.15408 113.535 12.7928 113.12 16.0059 112.755C18.0243 112.527 19.9284 112.308 21.0818 112.801C23.6174 113.881 31.9842 117.342 36.3644 119.011C37.0373 124.155 38.8635 127.543 41.8294 129.093C42.9736 129.695 44.2369 129.996 45.6741 129.996C47.633 129.996 49.917 129.435 52.6861 128.299C65.433 123.074 75.8229 110.977 82.3771 101.584C83.2697 101.67 84.1622 101.716 85.0547 101.716C88.2449 101.716 91.3664 101.132 94.0577 99.7095C96.7535 98.2823 98.3555 95.6513 98.5615 92.2999C98.9047 86.8281 95.6367 80.3988 90.7943 77.0108H90.7989Z" fill="#515151"/>
<path d="M53.4365 47.1666C53.3312 47.1666 53.2214 47.1438 53.1207 47.1028C52.9056 47.0116 52.7454 46.8338 52.6721 46.6103C50.9558 41.2617 50.9512 36.9755 51.2533 34.3262C51.3036 33.8885 51.6927 33.5784 52.1412 33.624C52.5806 33.6742 52.8964 34.0709 52.8461 34.5086C52.5806 36.8615 52.5669 40.5823 53.9262 45.247L68.4583 38.2203C64.7555 30.0081 59.0113 26.2691 56.4116 27.2175C55.336 27.6096 54.3244 28.9548 53.6425 30.9018C53.496 31.3168 53.0429 31.5356 52.6218 31.3943C52.2053 31.2484 51.9856 30.7924 52.132 30.3774C52.9879 27.9379 54.3107 26.2873 55.8623 25.7173C59.6475 24.3357 66.3299 29.0597 70.2433 38.2887C70.4081 38.6808 70.2387 39.1323 69.8542 39.3147L53.7889 47.0846C53.6791 47.1393 53.5601 47.1666 53.4411 47.1666H53.4365Z" fill="#515151"/>
<path d="M58.5627 32.1094C60.0777 31.585 62.9338 33.7236 64.4533 37.7955C63.3503 38.1147 62.1328 38.5296 60.8329 39.0768C59.4461 39.6604 58.2194 40.2943 57.1576 40.9053C55.7982 36.3865 56.9974 32.652 58.5581 32.1094H58.5627Z" fill="#515151"/>
<path d="M106.539 65.2607C106.47 65.2607 106.402 65.2515 106.338 65.2333C106.113 65.174 105.926 65.0235 105.82 64.8138L97.8976 48.8727C97.7099 48.4943 97.8518 48.0292 98.2225 47.824C106.992 42.9131 115.176 43.2596 117.318 46.6567C118.197 48.052 118.229 50.1677 117.405 52.6163C117.263 53.0358 116.81 53.2638 116.393 53.1179C115.972 52.9765 115.748 52.5251 115.89 52.1102C116.549 50.1495 116.576 48.4715 115.968 47.5048C114.494 45.1656 107.656 44.6184 99.6826 48.8499L106.846 63.2726C110.791 60.4136 113.066 57.4679 114.302 55.4434C114.53 55.0649 115.025 54.9464 115.4 55.1744C115.78 55.4024 115.899 55.8948 115.67 56.2687C114.279 58.5486 111.642 61.9366 106.997 65.1147C106.864 65.2059 106.704 65.2561 106.544 65.2561L106.539 65.2607Z" fill="#515151"/>
<path d="M111.249 50.0671C110.37 48.7265 106.8 48.6763 103.097 50.9699C103.775 51.8956 104.479 52.9671 105.171 54.1891C105.907 55.4978 106.489 56.7472 106.951 57.8735C110.805 55.133 112.151 51.4487 111.249 50.0671Z" fill="#515151"/>
<path d="M108.727 70.7632C106.677 76.8824 101.482 81.4149 94.5704 83.7267C87.6637 86.0339 79.1322 86.0795 70.6235 83.257C62.1148 80.4345 55.318 75.3047 51.1895 69.3405C47.0564 63.3717 45.6422 56.6414 47.6927 50.5267C49.7432 44.4075 54.9381 39.875 61.8494 37.5632C68.7561 35.256 77.2876 35.2104 85.7963 38.0329C94.305 40.8554 101.102 45.9852 105.23 51.9494C109.363 57.9182 110.778 64.6485 108.727 70.7632Z" fill="#EEB070"/>
<path d="M83.0726 38.3801C82.8026 38.3801 82.5325 38.2616 82.3494 38.0336C82.0336 37.6369 82.1023 37.0578 82.5005 36.7432C83.7912 35.7218 86.1346 34.6365 87.5077 34.2626C87.9975 34.1304 88.5055 34.4177 88.6382 34.9056C88.771 35.3935 88.4826 35.8996 87.9929 36.0318C86.8212 36.351 84.7157 37.336 83.6447 38.1795C83.4754 38.3118 83.274 38.3801 83.0726 38.3801Z" fill="#515151"/>
<path d="M86.5924 39.5161C86.2766 39.5161 85.97 39.352 85.796 39.0647C85.5397 38.6269 85.6862 38.0661 86.1256 37.8062C87.549 36.9717 90.0161 36.2239 91.4258 36.0415C91.9292 35.9731 92.3915 36.3334 92.4556 36.8349C92.5197 37.3365 92.1627 37.7971 91.6592 37.8609C90.4554 38.0159 88.231 38.6999 87.0547 39.3884C86.9083 39.4751 86.7481 39.5161 86.5879 39.5161H86.5924Z" fill="#515151"/>
<path d="M83.6861 86.2996C79.2967 86.2996 74.7609 85.5609 70.3075 84.0835C61.9132 81.302 54.8463 76.2315 50.4066 69.8159C45.9807 63.4185 44.6945 56.4466 46.7954 50.1905C48.8916 43.939 54.114 39.1375 61.5013 36.657C66.6001 34.5641 74.262 34.2403 81.036 35.8362C81.5303 35.9548 81.837 36.4473 81.7226 36.9397C81.6036 37.4322 81.1092 37.7377 80.6149 37.6237C74.2849 36.1326 66.8747 36.429 62.1833 38.3669C62.165 38.3761 62.1421 38.3806 62.1238 38.3897C55.2812 40.6788 50.4616 45.0744 48.5484 50.7742C46.6352 56.4739 47.8389 62.8668 51.9308 68.7763C56.1462 74.8682 62.8836 79.6879 70.8979 82.3462C78.9169 85.0046 87.2104 85.1733 94.259 82.8159C101.102 80.5314 105.921 76.1312 107.834 70.4315C109.748 64.7317 108.544 58.3389 104.452 52.4294C101.184 47.7054 95.06 42.7945 89.5584 40.4827C89.0916 40.2866 88.8719 39.7486 89.0687 39.2789C89.2655 38.8092 89.8056 38.5904 90.277 38.791C96.0715 41.2259 102.525 46.4059 105.972 51.3897C110.398 57.7871 111.684 64.7591 109.583 71.0151C107.482 77.2712 102.25 82.0818 94.8494 84.5578C91.3618 85.7251 87.5857 86.3042 83.6953 86.3042L83.6861 86.2996Z" fill="#515151"/>
<path d="M87.4574 68.1744C87.3429 66.5283 84.5281 65.9674 81.2692 65.3199C79.7909 65.0235 78.2576 64.718 77.3696 64.3441C76.6693 64.0477 75.9919 63.7559 75.3374 63.4732C69.6024 61.0063 65.4557 59.2235 63.3045 62.1463C62.6866 62.9899 62.7781 63.7103 62.9612 64.1663C63.8537 66.3504 68.893 67.4722 74.2069 68.3568C74.6829 68.4343 75.0674 68.4981 75.31 68.5483C76.0148 68.6896 77.333 69.4055 78.6146 70.1032C80.6788 71.2249 82.6378 72.2873 84.0063 72.2873C84.1985 72.2873 84.377 72.2691 84.5418 72.2235C86.5099 71.7036 87.5993 70.1898 87.4574 68.1744Z" fill="white"/>
<path d="M78.9181 64.2216C79.1676 63.4762 78.3592 62.5361 77.1123 62.1216C75.8654 61.7072 74.6522 61.9755 74.4026 62.7208C74.153 63.4661 74.9615 64.4063 76.2084 64.8207C77.4553 65.2351 78.6685 64.9669 78.9181 64.2216Z" fill="#515151"/>
<path d="M83.7044 62.3564C83.5121 62.3564 83.3245 62.2789 83.1872 62.1239L81.4204 60.1267C81.1687 59.844 81.1962 59.4108 81.4799 59.16C81.7637 58.9092 82.1985 58.9366 82.4503 59.2193L84.217 61.2165C84.4687 61.4992 84.4413 61.9324 84.1575 62.1832C84.0248 62.2972 83.8646 62.3519 83.7044 62.3519V62.3564Z" fill="#515151"/>
<path d="M71.1588 58.079C70.8339 58.079 70.5501 57.851 70.486 57.5227C70.4128 57.1534 70.6599 56.7931 71.0307 56.7202L73.6533 56.2186C74.0286 56.1502 74.3856 56.3919 74.4589 56.7612C74.5321 57.1306 74.2849 57.4908 73.9142 57.5637L71.2916 58.0653C71.2458 58.0744 71.2046 58.079 71.1634 58.079H71.1588Z" fill="#515151"/>
</g>
<defs>
<clipPath id="clip0_2253_67883">
<rect width="118" height="130" fill="white"/>
</clipPath>
</defs>
</svg>
