<svg width="45" height="31" viewBox="0 0 45 31" fill="none" xmlns="http://www.w3.org/2000/svg">
<path d="M30.6932 8.40835C30.8092 8.46236 30.9448 8.45271 31.052 8.38284C32.3337 7.5472 34.0348 6.64788 35.5799 6.16709C36.3537 5.92633 37.0661 5.79763 37.6566 5.82169C38.245 5.84567 38.6709 6.01811 38.9417 6.33599C39.2123 6.65355 39.3387 7.1732 39.2961 7.86432C39.2541 8.54603 39.0505 9.33584 38.7354 10.1234C38.421 10.909 38.0021 11.6763 37.5428 12.312C37.0792 12.9536 36.5935 13.4345 36.1554 13.6793C35.9965 13.7681 35.9256 13.959 35.9881 14.1299C36.6639 15.9805 36.4578 19.0211 34.3635 21.6058C32.2794 24.1777 28.286 26.3398 21.3204 26.3398C14.609 26.3398 10.76 24.3175 8.68497 21.7809C6.60234 19.235 6.25093 16.1043 6.66928 13.7859C6.68822 13.681 6.66102 13.573 6.59463 13.4895C5.63103 12.2779 5.00346 10.6482 4.79465 9.15072C4.69047 8.40362 4.69259 7.70351 4.80106 7.11601C4.91024 6.52472 5.12127 6.07692 5.40861 5.79597C5.60403 5.6049 5.94764 5.47632 6.44749 5.46014C6.94032 5.4442 7.53801 5.54004 8.1779 5.74297C9.45963 6.14944 10.8435 6.96381 11.8038 8.03715C11.9125 8.15863 12.0878 8.19481 12.2357 8.1263C17.6183 5.63288 24.7231 5.62824 30.6932 8.40835Z" fill="#EFEFEF" stroke="#E3E3E3" stroke-width="0.741089" stroke-linejoin="round"/>
<path d="M21.2774 12.4172C20.1059 12.4172 19.2594 13.0329 19.0541 14.3412L20.1743 14.5293C20.1829 14.3583 20.2 14.2301 20.2427 14.1018C20.3795 13.7255 20.7216 13.4006 21.2004 13.4006C21.7563 13.4006 22.1068 13.7084 22.1068 14.2985C22.1068 14.9569 21.7049 15.47 21.0551 16.1198L18.9088 18.2319V18.916H23.3638V17.8386H21.3116C21.1149 17.8386 20.9097 17.8471 20.6788 17.907L22.0042 16.573C22.637 15.9146 23.2698 15.1707 23.2954 14.2728C23.2954 13.1783 22.466 12.4172 21.2774 12.4172Z" fill="#ACACAC"/>
<g filter="url(#filter0_d_2252_32837)">
<path d="M19.5288 4.21158C16.6325 4.28639 13.4572 5.75184 12.2316 6.47522C9.97693 4.62349 5.4861 3.76634 3.37509 6.04295C1.72126 7.82652 2.32842 13.9115 5.27193 17.5084C4.92705 21.9431 7.11222 31.0504 24.2681 28.8627C41.424 26.675 40.1659 16.4418 39.402 13.9273C41.0244 11.9571 43.4803 5.2458 41.4824 3.36915C38.3058 0.571679 33.1895 3.39971 31.0285 5.16341C30.661 4.94028 29.4025 4.44143 27.308 4.23103C25.5419 2.07293 21.4581 2.72934 19.5288 4.21158Z" fill="white"/>
</g>
<path d="M5.41985 6.59741C8.07876 5.71371 12.295 9.11647 14.0707 10.9283C13.2183 12.4864 8.9636 15.7287 6.94282 17.1551C5.32728 14.0041 2.76094 7.4811 5.41985 6.59741Z" fill="white"/>
<path d="M7.88965 8.63361C9.02359 8.25674 10.8217 9.70792 11.579 10.4806C11.2154 11.1451 9.40095 12.5278 8.53915 13.1362C7.85017 11.7923 6.7557 9.01048 7.88965 8.63361Z" fill="#64584D"/>
<path d="M39.4539 4.00703C36.9955 3.14761 32.8087 6.18369 31.0226 7.80915C31.7341 9.25192 35.5581 12.3012 37.3811 13.6455C39.0964 10.7908 41.9123 4.86646 39.4539 4.00703Z" fill="white"/>
<path d="M36.3844 6.06277C35.3295 5.694 33.5329 6.99677 32.7665 7.69426C33.0718 8.31335 34.7127 9.6218 35.4949 10.1986C36.231 8.97367 37.4393 6.43155 36.3844 6.06277Z" fill="#64584D"/>
<ellipse rx="15.9276" ry="11.0789" transform="matrix(0.993804 -0.111114 0.111416 0.993778 22.5696 16.6543)" fill="#F9AE63"/>
<path d="M4.45424 8.64678C4.13613 14.0434 6.28036 15.6779 6.63451 16.0474" stroke="#64584D" stroke-width="0.858321" stroke-linecap="round"/>
<path d="M40.3593 5.34902C39.9788 10.4882 38.1835 12.0455 37.6585 12.343" stroke="#64584D" stroke-width="0.858321" stroke-linecap="round"/>
<ellipse rx="1.40334" ry="0.875937" transform="matrix(1 -0.00761954 -0.00764001 -0.999942 18.1422 10.0499)" fill="white"/>
<path d="M25.894 9.04578C25.8207 8.56761 25.1402 8.27496 24.374 8.39214C23.6079 8.50931 23.0463 8.99194 23.1196 9.47012C23.193 9.9483 23.8735 10.2409 24.6396 10.1238C25.4057 10.0066 25.9674 9.52396 25.894 9.04578Z" fill="white"/>
<path d="M5.57193 6.57179C6.85294 6.14466 10.2346 7.20032 11.6966 8.75648" stroke="#64584D" stroke-width="0.858321" stroke-linecap="round"/>
<path d="M11.4409 9.13853C14.7099 6.67003 19.8859 5.89029 20.3311 5.93267" stroke="#64584D" stroke-width="0.858321" stroke-linecap="round"/>
<path d="M25.4044 5.66797C27.0662 5.76529 30.5292 6.62385 32.4591 7.42732" stroke="#64584D" stroke-width="0.858321" stroke-linecap="round"/>
<path d="M31.7063 7.1135C33.5153 5.66231 37.5308 2.87899 39.7412 4.10289" stroke="#64584D" stroke-width="0.858321" stroke-linecap="round"/>
<path d="M7.12312 14.7181C6.10823 17.6815 7.13924 24.1126 13.4422 26.2745" stroke="#64584D" stroke-width="0.858321" stroke-linecap="round"/>
<path d="M37.0058 11.3776C38.4761 13.4428 40.1685 20.7151 32.7772 24.4877" stroke="#64584D" stroke-width="0.858321" stroke-linecap="round"/>
<path d="M21.4643 6.08417L22.7035 4.5354" stroke="#64584D" stroke-width="0.858321" stroke-linecap="round"/>
<path d="M23.5562 5.85148L24.9893 4.4573" stroke="#64584D" stroke-width="0.858321" stroke-linecap="round"/>
<path d="M17.988 24.2262C15.4409 20.6366 20.1635 17.2419 22.681 16.6778C24.1268 16.4007 26.5707 17.5905 28.5791 19.7878C30.5875 21.985 26.9516 24.4459 25.0337 25.572C23.7689 26.3146 20.5345 27.8151 17.988 24.2262Z" fill="white" stroke="white" stroke-width="0.857821" stroke-linecap="round"/>
<ellipse rx="1.5989" ry="1.13509" transform="matrix(0.993804 -0.111114 0.111416 0.993778 22.8417 18.2443)" fill="#64584D"/>
<path d="M18.8482 14.0449L19.0687 16.011" stroke="#64584D" stroke-width="1.76469" stroke-linecap="round"/>
<path d="M25.3059 13.3223L25.5263 15.2883" stroke="#64584D" stroke-width="1.76469" stroke-linecap="round"/>
<mask id="path-25-outside-1_2252_32837" maskUnits="userSpaceOnUse" x="4.40709" y="7.26917" width="8.88935" height="9.37106" fill="black">
<rect fill="white" x="4.40709" y="7.26917" width="8.88935" height="9.37106"/>
<path fill-rule="evenodd" clip-rule="evenodd" d="M8.33322 12.4361C8.587 12.4097 8.83118 12.3164 9.03984 12.1517C9.67918 11.6472 9.74305 10.6639 9.18249 9.9555C8.62193 9.24711 7.64922 9.08186 7.00988 9.58639C6.5867 9.92035 6.41564 10.464 6.51091 10.9989C6.50822 11.001 6.50554 11.0031 6.50288 11.0052C6.26555 11.1924 6.22526 11.5365 6.41288 11.7736L9.10004 15.1694C9.28766 15.4065 9.63215 15.4469 9.86947 15.2596C10.1068 15.0723 10.1471 14.7283 9.95946 14.4912L8.33322 12.4361Z"/>
</mask>
<path fill-rule="evenodd" clip-rule="evenodd" d="M8.33322 12.4361C8.587 12.4097 8.83118 12.3164 9.03984 12.1517C9.67918 11.6472 9.74305 10.6639 9.18249 9.9555C8.62193 9.24711 7.64922 9.08186 7.00988 9.58639C6.5867 9.92035 6.41564 10.464 6.51091 10.9989C6.50822 11.001 6.50554 11.0031 6.50288 11.0052C6.26555 11.1924 6.22526 11.5365 6.41288 11.7736L9.10004 15.1694C9.28766 15.4065 9.63215 15.4469 9.86947 15.2596C10.1068 15.0723 10.1471 14.7283 9.95946 14.4912L8.33322 12.4361Z" fill="white"/>
<path d="M8.33322 12.4361L7.81757 12.843C7.66892 12.6551 7.6344 12.4014 7.72749 12.1808C7.82058 11.9603 8.02652 11.8079 8.26491 11.7831L8.33322 12.4361ZM6.51091 10.9989L7.15808 10.8842C7.20123 11.1265 7.10513 11.3725 6.90912 11.5214L6.51091 10.9989ZM6.41288 11.7736L6.92854 11.3666L6.41288 11.7736ZM9.10004 15.1694L8.58439 15.5763L9.10004 15.1694ZM9.95946 14.4912L10.4751 14.0842L9.95946 14.4912ZM8.26491 11.7831C8.40177 11.7689 8.52664 11.7198 8.63218 11.6365L9.4475 12.6669C9.13571 12.9129 8.77222 13.0505 8.40153 13.089L8.26491 11.7831ZM8.63218 11.6365C8.93783 11.3953 9.04297 10.8378 8.66684 10.3624L9.69815 9.54857C10.4431 10.49 10.4205 11.899 9.4475 12.6669L8.63218 11.6365ZM8.66684 10.3624C8.29071 9.88711 7.72319 9.86036 7.41754 10.1016L6.60222 9.07122C7.57526 8.30335 8.95316 8.60712 9.69815 9.54857L8.66684 10.3624ZM7.41754 10.1016C7.21021 10.2652 7.09908 10.553 7.15808 10.8842L5.86374 11.1136C5.73221 10.3751 5.96319 9.57552 6.60222 9.07122L7.41754 10.1016ZM6.90912 11.5214C6.9096 11.5211 6.91007 11.5207 6.91054 11.5203L6.09522 10.49C6.10101 10.4854 6.10684 10.4809 6.1127 10.4764L6.90912 11.5214ZM6.91054 11.5203C6.958 11.4829 6.96606 11.4141 6.92854 11.3666L5.89723 12.1805C5.48446 11.6589 5.57311 10.902 6.09522 10.49L6.91054 11.5203ZM6.92854 11.3666L9.61569 14.7625L8.58439 15.5763L5.89723 12.1805L6.92854 11.3666ZM9.61569 14.7625C9.57817 14.715 9.50927 14.707 9.46181 14.7444L10.2771 15.7748C9.75502 16.1868 8.99715 16.0979 8.58439 15.5763L9.61569 14.7625ZM9.46181 14.7444C9.41434 14.7819 9.40629 14.8507 9.44381 14.8981L10.4751 14.0842C10.8879 14.6059 10.7992 15.3627 10.2771 15.7748L9.46181 14.7444ZM9.44381 14.8981L7.81757 12.843L8.84888 12.0291L10.4751 14.0842L9.44381 14.8981Z" fill="#64584D" mask="url(#path-25-outside-1_2252_32837)"/>
<rect width="0.38019" height="4.92242" rx="0.190095" transform="matrix(-0.781413 0.623924 0.625037 0.780666 6.69363 11.1797)" fill="#DEDEDE"/>
<mask id="path-28-outside-2_2252_32837" maskUnits="userSpaceOnUse" x="31.5959" y="4.60599" width="8.26032" height="9.41588" fill="black">
<rect fill="white" x="31.5959" y="4.60599" width="8.26032" height="9.41588"/>
<path fill-rule="evenodd" clip-rule="evenodd" d="M36.3154 9.70552C36.0607 9.72033 35.8047 9.66754 35.5722 9.53862C34.8598 9.14361 34.638 8.18348 35.0769 7.39411C35.5158 6.60475 36.4491 6.28506 37.1615 6.68008C37.6331 6.94154 37.8897 7.4506 37.882 7.99384C37.8849 7.99541 37.8879 7.99702 37.8909 7.99866C38.1553 8.14529 38.2506 8.47833 38.1037 8.74254L35.9999 12.5265C35.853 12.7907 35.5195 12.886 35.2551 12.7394C34.9906 12.5928 34.8953 12.2597 35.0422 11.9955L36.3154 9.70552Z"/>
</mask>
<path fill-rule="evenodd" clip-rule="evenodd" d="M36.3154 9.70552C36.0607 9.72033 35.8047 9.66754 35.5722 9.53862C34.8598 9.14361 34.638 8.18348 35.0769 7.39411C35.5158 6.60475 36.4491 6.28506 37.1615 6.68008C37.6331 6.94154 37.8897 7.4506 37.882 7.99384C37.8849 7.99541 37.8879 7.99702 37.8909 7.99866C38.1553 8.14529 38.2506 8.47833 38.1037 8.74254L35.9999 12.5265C35.853 12.7907 35.5195 12.886 35.2551 12.7394C34.9906 12.5928 34.8953 12.2597 35.0422 11.9955L36.3154 9.70552Z" fill="white"/>
<path d="M36.3154 9.70552L36.89 10.0241C37.0064 9.81478 36.9995 9.55882 36.8721 9.35613C36.7446 9.15344 36.5167 9.03617 36.2775 9.05009L36.3154 9.70552ZM37.882 7.99384L37.2248 7.98481C37.2213 8.23083 37.3558 8.45809 37.5733 8.57357L37.882 7.99384ZM38.1037 8.74254L37.5291 8.42394L38.1037 8.74254ZM35.9999 12.5265L36.5745 12.8451L35.9999 12.5265ZM35.0422 11.9955L35.6168 12.3141L35.0422 11.9955ZM36.2775 9.05009C36.1401 9.05807 36.009 9.02977 35.8914 8.96456L35.253 10.1127C35.6004 10.3053 35.9814 10.3826 36.3534 10.3609L36.2775 9.05009ZM35.8914 8.96456C35.5508 8.77572 35.357 8.24236 35.6515 7.71271L34.5023 7.07552C33.919 8.1246 34.1688 9.51149 35.253 10.1127L35.8914 8.96456ZM35.6515 7.71271C35.946 7.18305 36.5018 7.06529 36.8423 7.25414L37.4807 6.10602C36.3964 5.50484 35.0856 6.02645 34.5023 7.07552L35.6515 7.71271ZM36.8423 7.25414C37.0734 7.38224 37.2295 7.64837 37.2248 7.98481L38.5392 8.00286C38.5498 7.25282 38.1928 6.50084 37.4807 6.10602L36.8423 7.25414ZM37.5733 8.57357C37.5727 8.57329 37.5722 8.573 37.5717 8.57272L38.21 7.4246C38.2036 7.42104 38.1972 7.41754 38.1907 7.4141L37.5733 8.57357ZM37.5717 8.57272C37.5188 8.54339 37.4997 8.47678 37.5291 8.42394L38.6783 9.06113C39.0015 8.47988 38.7918 7.74718 38.21 7.4246L37.5717 8.57272ZM37.5291 8.42394L35.4253 12.2079L36.5745 12.8451L38.6783 9.06113L37.5291 8.42394ZM35.4253 12.2079C35.4547 12.1551 35.5214 12.136 35.5742 12.1654L34.9359 13.3135C35.5177 13.6361 36.2513 13.4264 36.5745 12.8451L35.4253 12.2079ZM35.5742 12.1654C35.6271 12.1947 35.6462 12.2613 35.6168 12.3141L34.4676 11.6769C34.1445 12.2582 34.3541 12.9909 34.9359 13.3135L35.5742 12.1654ZM35.6168 12.3141L36.89 10.0241L35.7408 9.38692L34.4676 11.6769L35.6168 12.3141Z" fill="#64584D" mask="url(#path-28-outside-2_2252_32837)"/>
<rect width="0.380191" height="4.92241" rx="0.190096" transform="matrix(0.871909 0.489968 -0.490844 0.871079 37.7309 8.20215)" fill="#DEDEDE"/>
<defs>
<filter id="filter0_d_2252_32837" x="0.706775" y="0.424762" width="43.2888" height="30.5362" filterUnits="userSpaceOnUse" color-interpolation-filters="sRGB">
<feFlood flood-opacity="0" result="BackgroundImageFix"/>
<feColorMatrix in="SourceAlpha" type="matrix" values="0 0 0 0 0 0 0 0 0 0 0 0 0 0 0 0 0 0 127 0" result="hardAlpha"/>
<feOffset/>
<feGaussianBlur stdDeviation="0.882346"/>
<feComposite in2="hardAlpha" operator="out"/>
<feColorMatrix type="matrix" values="0 0 0 0 0 0 0 0 0 0 0 0 0 0 0 0 0 0 0.2 0"/>
<feBlend mode="normal" in2="BackgroundImageFix" result="effect1_dropShadow_2252_32837"/>
<feBlend mode="normal" in="SourceGraphic" in2="effect1_dropShadow_2252_32837" result="shape"/>
</filter>
</defs>
</svg>
