<svg width="26" height="26" viewBox="0 0 26 26" fill="none" xmlns="http://www.w3.org/2000/svg">
<g clip-path="url(#clip0_1278_5025)">
<path d="M6.50016 22.7933C5.3085 22.7933 4.3335 21.8183 4.3335 20.6267V9.08917H21.6777V20.6158C21.6777 21.8075 20.7027 22.7825 19.511 22.7825H6.50016V22.7933Z" fill="#FDBA90"/>
<path d="M2.16676 9.0025C2.21009 10.465 3.21759 11.8192 4.62592 12.2092C6.03426 12.5992 7.23676 12.155 8.07092 11.31C8.69926 11.9492 9.56592 12.35 10.5301 12.35C11.4943 12.35 12.3609 11.9492 12.9893 11.31C13.6176 11.9492 14.4843 12.35 15.4484 12.35C16.4126 12.35 17.2793 11.9492 17.9076 11.31C18.7526 12.1767 20.0418 12.5992 21.4068 12.1983C22.7718 11.7975 23.8009 10.4108 23.8226 8.94833C23.8334 7.64833 23.2159 7.12833 22.6634 6.34833L20.9193 3.98667C20.5726 3.52083 20.0418 3.25 19.4568 3.25H6.52176C5.94759 3.25 5.40592 3.52083 5.07009 3.97583C4.51759 4.72333 3.68342 5.83917 3.32592 6.34833C2.60009 7.3775 2.14509 7.95167 2.16676 9.0025Z" fill="#FC7521"/>
</g>
<defs>
<clipPath id="clip0_1278_5025">
<rect width="26" height="26" fill="white"/>
</clipPath>
</defs>
</svg>
