<svg width="26" height="26" viewBox="0 0 26 26" fill="none" xmlns="http://www.w3.org/2000/svg">
<g clip-path="url(#clip0_1685_5088)">
<path d="M13 26C20.1797 26 26 20.1797 26 13C26 5.8203 20.1797 0 13 0C5.8203 0 0 5.8203 0 13C0 20.1797 5.8203 26 13 26Z" fill="#F7F7F7"/>
<g clip-path="url(#clip1_1685_5088)">
<path d="M17.4 9H16.52C16.3877 9.00076 16.2568 8.97319 16.1361 8.91915C16.0153 8.8651 15.9076 8.78583 15.82 8.68667L14.6133 7.31333C14.5252 7.21484 14.4174 7.13602 14.2968 7.08203C14.1761 7.02804 14.0455 7.00009 13.9133 7H12.0867C11.9545 7.00009 11.8239 7.02804 11.7033 7.08203C11.5827 7.13602 11.4748 7.21484 11.3867 7.31333L10.18 8.68667C10.0957 8.78109 9.99321 8.85751 9.87865 8.91136C9.76409 8.9652 9.63984 8.99535 9.51335 9H8.60001C8.38965 8.99912 8.1812 9.0399 7.98668 9.12C7.79216 9.20009 7.61543 9.31791 7.46668 9.46666C7.31793 9.61541 7.20011 9.79215 7.12001 9.98666C7.03992 10.1812 6.99913 10.3896 7.00001 10.6V16.0667C6.99913 16.277 7.03992 16.4855 7.12001 16.68C7.20011 16.8745 7.31793 17.0513 7.46668 17.2C7.61543 17.3488 7.79216 17.4666 7.98668 17.5467C8.1812 17.6268 8.38965 17.6675 8.60001 17.6667H17.4C17.6104 17.6675 17.8188 17.6268 18.0133 17.5467C18.2079 17.4666 18.3846 17.3488 18.5334 17.2C18.6821 17.0513 18.7999 16.8745 18.88 16.68C18.9601 16.4855 19.0009 16.277 19 16.0667V10.6C19.0009 10.3896 18.9601 10.1812 18.88 9.98666C18.7999 9.79215 18.6821 9.61541 18.5334 9.46666C18.3846 9.31791 18.2079 9.20009 18.0133 9.12C17.8188 9.0399 17.6104 8.99912 17.4 9ZM13 16.0067C12.4726 16.0067 11.957 15.8503 11.5185 15.5573C11.08 15.2642 10.7382 14.8478 10.5363 14.3605C10.3345 13.8732 10.2817 13.337 10.3846 12.8198C10.4875 12.3025 10.7415 11.8273 11.1144 11.4544C11.4873 11.0814 11.9625 10.8275 12.4798 10.7246C12.9971 10.6217 13.5332 10.6745 14.0205 10.8763C14.5078 11.0782 14.9242 11.4199 15.2173 11.8585C15.5103 12.297 15.6667 12.8126 15.6667 13.34C15.6667 14.0472 15.3857 14.7255 14.8856 15.2256C14.3855 15.7257 13.7073 16.0067 13 16.0067ZM13 15.1733C12.6374 15.1733 12.283 15.0658 11.9815 14.8644C11.68 14.6629 11.445 14.3766 11.3062 14.0416C11.1675 13.7066 11.1312 13.338 11.2019 12.9823C11.2726 12.6267 11.4473 12.3 11.7037 12.0436C11.96 11.7872 12.2867 11.6126 12.6423 11.5419C12.998 11.4712 13.3666 11.5075 13.7016 11.6462C14.0366 11.785 14.3229 12.02 14.5244 12.3215C14.7258 12.6229 14.8333 12.9774 14.8333 13.34C14.8333 13.8262 14.6402 14.2925 14.2964 14.6364C13.9526 14.9802 13.4862 15.1733 13 15.1733Z" fill="#515151"/>
</g>
</g>
<defs>
<clipPath id="clip0_1685_5088">
<rect width="26" height="26" fill="white"/>
</clipPath>
<clipPath id="clip1_1685_5088">
<rect width="16" height="16" fill="white" transform="translate(5 5)"/>
</clipPath>
</defs>
</svg>
