<svg width="26" height="26" viewBox="0 0 26 26" fill="none" xmlns="http://www.w3.org/2000/svg">
<g clip-path="url(#clip0_749_4405)">
<path d="M13 26C20.1797 26 26 20.1797 26 13C26 5.8203 20.1797 0 13 0C5.8203 0 0 5.8203 0 13C0 20.1797 5.8203 26 13 26Z" fill="#F7F7F7"/>
<path d="M17.4 9H16.52C16.3873 8.99907 16.2564 8.97008 16.1357 8.91493C16.0151 8.85977 15.9075 8.77971 15.82 8.68L14.61 7.32C14.5238 7.21875 14.4164 7.13763 14.2955 7.08235C14.1746 7.02706 14.043 6.99895 13.91 7H12.09C11.957 6.99895 11.8254 7.02706 11.7045 7.08235C11.5836 7.13763 11.4762 7.21875 11.39 7.32L10.18 8.68C10.0925 8.77971 9.9849 8.85977 9.86425 8.91493C9.74361 8.97008 9.61265 8.99907 9.48 9H8.6C8.17565 9 7.76869 9.16857 7.46863 9.46863C7.16857 9.76868 7 10.1757 7 10.6V16.07C7 16.4943 7.16857 16.9013 7.46863 17.2014C7.76869 17.5014 8.17565 17.67 8.6 17.67H17.4C17.8243 17.67 18.2313 17.5014 18.5314 17.2014C18.8314 16.9013 19 16.4943 19 16.07V10.6C19 10.1757 18.8314 9.76868 18.5314 9.46863C18.2313 9.16857 17.8243 9 17.4 9ZM13 16C12.4715 16 11.9549 15.8431 11.5156 15.5493C11.0763 15.2555 10.7341 14.8379 10.5323 14.3494C10.3305 13.861 10.2782 13.3236 10.3821 12.8054C10.4859 12.2872 10.7412 11.8115 11.1156 11.4385C11.49 11.0655 11.9667 10.812 12.4853 10.7101C13.0039 10.6082 13.541 10.6625 14.0287 10.8661C14.5164 11.0697 14.9327 11.4135 15.2249 11.8539C15.5171 12.2943 15.672 12.8115 15.67 13.34C15.6674 14.0464 15.3849 14.723 14.8844 15.2215C14.384 15.7201 13.7064 16 13 16ZM13 15.17C12.6352 15.172 12.2781 15.0655 11.974 14.8641C11.6699 14.6627 11.4325 14.3754 11.292 14.0388C11.1515 13.7021 11.1142 13.3314 11.1849 12.9735C11.2556 12.6157 11.431 12.2869 11.689 12.0289C11.9469 11.771 12.2757 11.5956 12.6335 11.5249C12.9914 11.4542 13.3621 11.4915 13.6988 11.632C14.0354 11.7725 14.3227 12.0099 14.5241 12.314C14.7255 12.6181 14.832 12.9752 14.83 13.34C14.83 13.5803 14.7827 13.8183 14.6907 14.0403C14.5987 14.2623 14.4639 14.4641 14.294 14.634C14.1241 14.8039 13.9223 14.9387 13.7003 15.0307C13.4783 15.1227 13.2403 15.17 13 15.17Z" fill="#ACACAC"/>
</g>
<defs>
<clipPath id="clip0_749_4405">
<rect width="26" height="26" fill="white"/>
</clipPath>
</defs>
</svg>
