<svg width="26" height="26" viewBox="0 0 26 26" fill="none" xmlns="http://www.w3.org/2000/svg">
<g clip-path="url(#clip0_734_4160)">
<path d="M11.42 3.80998L4.82 9.22998C4.48644 9.50041 4.21733 9.84177 4.03224 10.2292C3.84715 10.6167 3.75073 11.0406 3.75 11.47V20.93C3.75527 21.4145 3.95145 21.8774 4.29594 22.2182C4.64044 22.5589 5.10545 22.75 5.59 22.75H8.51C8.75163 22.7513 8.99116 22.705 9.2149 22.6138C9.43865 22.5225 9.64222 22.3881 9.81401 22.2181C9.9858 22.0482 10.1224 21.8461 10.2161 21.6234C10.3098 21.4006 10.3587 21.1616 10.36 20.92V19C10.3731 18.3103 10.6577 17.6537 11.152 17.1726C11.6462 16.6914 12.3103 16.4246 13 16.43C13.6897 16.4246 14.3538 16.6914 14.848 17.1726C15.3423 17.6537 15.6269 18.3103 15.64 19V20.89C15.6453 21.3762 15.8428 21.8406 16.1895 22.1817C16.5362 22.5227 17.0037 22.7127 17.49 22.71H20.4C20.6416 22.7113 20.8812 22.665 21.1049 22.5738C21.3286 22.4825 21.5322 22.3481 21.704 22.1781C21.8758 22.0082 22.0124 21.8061 22.1061 21.5834C22.1998 21.3606 22.2487 21.1216 22.25 20.88V11.47C22.2477 11.0418 22.1516 10.6194 21.9685 10.2324C21.7853 9.8454 21.5196 9.50323 21.19 9.22998L14.58 3.80998C14.1338 3.44612 13.5757 3.24741 13 3.24741C12.4243 3.24741 11.8662 3.44612 11.42 3.80998Z" fill="#333333"/>
</g>
<defs>
<clipPath id="clip0_734_4160">
<rect width="26" height="26" fill="white"/>
</clipPath>
</defs>
</svg>
