<svg width="26" height="26" viewBox="0 0 26 26" fill="none" xmlns="http://www.w3.org/2000/svg">
<g clip-path="url(#clip0_749_4406)">
<path d="M13 26C20.1797 26 26 20.1797 26 13C26 5.8203 20.1797 0 13 0C5.8203 0 0 5.8203 0 13C0 20.1797 5.8203 26 13 26Z" fill="#FDDC3F"/>
<path d="M13 7.16626C14.246 7.15229 15.4773 7.43644 16.5912 7.99501C17.465 8.43605 18.2139 9.08987 18.7687 9.89626C19.157 10.4585 19.4075 11.1043 19.5 11.7813C19.6083 12.7888 19.3423 13.801 18.7525 14.625C18.2285 15.3996 17.519 16.0309 16.6887 16.4613C15.9553 16.8611 15.158 17.1305 14.3325 17.2575C13.6425 17.3549 12.9424 17.3549 12.2525 17.2575H11.9762C11.9337 17.2348 11.8863 17.2228 11.8381 17.2228C11.7899 17.2228 11.7424 17.2348 11.7 17.2575L9.24621 18.8825C9.08371 18.9963 8.96995 18.98 8.92121 18.8825C8.91361 18.8645 8.90969 18.8452 8.90969 18.8256C8.90969 18.8061 8.91361 18.7868 8.92121 18.7688C9.1162 18.0375 9.29496 17.3063 9.50621 16.5913C9.50621 16.4938 9.50621 16.4613 9.50621 16.4125C8.89307 16.0838 8.34293 15.6492 7.88121 15.1288C7.18301 14.516 6.69903 13.6961 6.49996 12.7888C6.3925 11.8309 6.62236 10.8655 7.14996 10.0588C7.86221 8.9537 8.91878 8.11415 10.1562 7.67001C10.9217 7.3798 11.7275 7.20987 12.545 7.16626H13Z" fill="#3A2929"/>
</g>
<defs>
<clipPath id="clip0_749_4406">
<rect width="26" height="26" fill="white"/>
</clipPath>
</defs>
</svg>
