<svg width="24" height="24" viewBox="0 0 24 24" fill="none" xmlns="http://www.w3.org/2000/svg">
<g clip-path="url(#clip0_840_5858)">
<path d="M12.2335 6.98796C12.8895 6.98796 13.7117 6.54452 14.2013 5.95327C14.6447 5.41745 14.9681 4.66915 14.9681 3.92085C14.9681 3.81923 14.9588 3.7176 14.9404 3.63446C14.2105 3.66218 13.3329 4.12409 12.8063 4.74305C12.3906 5.21421 12.0118 5.95327 12.0118 6.71081C12.0118 6.82167 12.0303 6.93253 12.0395 6.96948C12.0857 6.97872 12.1596 6.98796 12.2335 6.98796ZM9.92396 18.1663C10.8201 18.1663 11.2173 17.5658 12.3352 17.5658C13.4715 17.5658 13.7209 18.1478 14.7186 18.1478C15.6979 18.1478 16.3538 17.2424 16.9728 16.3556C17.6656 15.3394 17.952 14.3416 17.9705 14.2954C17.9058 14.277 16.0305 13.5102 16.0305 11.3577C16.0305 9.49153 17.5086 8.65085 17.5917 8.58618C16.6125 7.18196 15.1251 7.14501 14.7186 7.14501C13.6193 7.14501 12.7232 7.81016 12.1596 7.81016C11.5499 7.81016 10.7462 7.18196 9.79463 7.18196C7.98393 7.18196 6.14551 8.67856 6.14551 11.5055C6.14551 13.2607 6.82914 15.1176 7.66982 16.3186C8.39041 17.3348 9.01861 18.1663 9.92396 18.1663Z" fill="black"/>
</g>
<defs>
<clipPath id="clip0_840_5858">
<rect width="24" height="24" fill="white"/>
</clipPath>
</defs>
</svg>
