<svg width="24" height="24" viewBox="0 0 24 24" fill="none" xmlns="http://www.w3.org/2000/svg">
<g clip-path="url(#clip0_734_4456)">
<path d="M13.27 12L20.14 5.14C20.2818 4.96525 20.3538 4.74419 20.3421 4.51948C20.3304 4.29477 20.2359 4.08235 20.0768 3.92324C19.9177 3.76413 19.7052 3.66961 19.4805 3.65794C19.2558 3.64626 19.0348 3.71824 18.86 3.86L12 10.73L5.14001 3.86C4.96526 3.71824 4.74419 3.64626 4.51948 3.65794C4.29477 3.66961 4.08236 3.76413 3.92325 3.92324C3.76414 4.08235 3.66962 4.29477 3.65794 4.51948C3.64626 4.74419 3.71825 4.96525 3.86001 5.14L10.73 12L3.86001 18.86C3.69146 19.0304 3.59692 19.2603 3.59692 19.5C3.59692 19.7397 3.69146 19.9696 3.86001 20.14C4.03161 20.3062 4.26113 20.3991 4.50001 20.3991C4.73889 20.3991 4.9684 20.3062 5.14001 20.14L12 13.27L18.86 20.14C19.0316 20.3062 19.2611 20.3991 19.5 20.3991C19.7389 20.3991 19.9684 20.3062 20.14 20.14C20.3086 19.9696 20.4031 19.7397 20.4031 19.5C20.4031 19.2603 20.3086 19.0304 20.14 18.86L13.27 12Z" fill="#333333"/>
</g>
<defs>
<clipPath id="clip0_734_4456">
<rect width="24" height="24" fill="white"/>
</clipPath>
</defs>
</svg>
