<svg width="24" height="24" viewBox="0 0 24 24" fill="none" xmlns="http://www.w3.org/2000/svg">
<g clip-path="url(#clip0_749_4443)">
<path d="M17 3H7C4.79086 3 3 4.79086 3 7V17C3 19.2091 4.79086 21 7 21H17C19.2091 21 21 19.2091 21 17V7C21 4.79086 19.2091 3 17 3Z" fill="#FC7521"/>
<path d="M10.1101 16.4C9.87008 16.4 9.64008 16.3 9.47008 16.13L6.36008 12.98C6.01008 12.63 6.02008 12.06 6.36008 11.71C6.71008 11.36 7.28008 11.36 7.63008 11.71L10.0901 14.21L16.3401 7.86C16.6901 7.5 17.2601 7.5 17.6101 7.86C17.9601 8.21 17.9701 8.78 17.6101 9.13L10.7201 16.13C10.5501 16.3 10.3201 16.4 10.0801 16.4H10.1101Z" fill="white"/>
</g>
<defs>
<clipPath id="clip0_749_4443">
<rect width="24" height="24" fill="white"/>
</clipPath>
</defs>
</svg>
