<svg width="24" height="24" viewBox="0 0 24 24" fill="none" xmlns="http://www.w3.org/2000/svg">
<g clip-path="url(#clip0_749_4442)">
<path d="M17 4.4C18.43 4.4 19.6 5.57 19.6 7V17C19.6 18.43 18.43 19.6 17 19.6H7C5.57 19.6 4.4 18.43 4.4 17V7C4.4 5.57 5.57 4.4 7 4.4H17ZM17 3H7C4.79 3 3 4.79 3 7V17C3 19.21 4.79 21 7 21H17C19.21 21 21 19.21 21 17V7C21 4.79 19.21 3 17 3Z" fill="#D1D1D1"/>
</g>
<defs>
<clipPath id="clip0_749_4442">
<rect width="24" height="24" fill="white"/>
</clipPath>
</defs>
</svg>
