<svg width="24" height="24" viewBox="0 0 24 24" fill="none" xmlns="http://www.w3.org/2000/svg">
<g clip-path="url(#clip0_734_4455)">
<path d="M13.27 12L18.64 6.64C18.739 6.5597 18.82 6.4595 18.8778 6.3459C18.9356 6.23229 18.9689 6.10781 18.9755 5.98053C18.9821 5.85324 18.9619 5.72598 18.9162 5.60699C18.8705 5.48801 18.8003 5.37995 18.7102 5.28983C18.6201 5.1997 18.512 5.12951 18.393 5.0838C18.274 5.0381 18.1468 5.0179 18.0195 5.02452C17.8922 5.03114 17.7677 5.06442 17.6541 5.12221C17.5405 5.18 17.4403 5.26101 17.36 5.36L12 10.73L6.64001 5.36C6.46526 5.21824 6.24419 5.14626 6.01948 5.15794C5.79477 5.16962 5.58236 5.26413 5.42325 5.42324C5.26414 5.58235 5.16962 5.79477 5.15794 6.01948C5.14626 6.24419 5.21825 6.46525 5.36001 6.64L10.73 12L5.36001 17.36C5.19146 17.5304 5.09692 17.7603 5.09692 18C5.09692 18.2397 5.19146 18.4696 5.36001 18.64C5.53161 18.8062 5.76113 18.8991 6.00001 18.8991C6.23889 18.8991 6.4684 18.8062 6.64001 18.64L12 13.27L17.36 18.64C17.5316 18.8062 17.7611 18.8991 18 18.8991C18.2389 18.8991 18.4684 18.8062 18.64 18.64C18.8086 18.4696 18.9031 18.2397 18.9031 18C18.9031 17.7603 18.8086 17.5304 18.64 17.36L13.27 12Z" fill="#333333"/>
</g>
<defs>
<clipPath id="clip0_734_4455">
<rect width="24" height="24" fill="white"/>
</clipPath>
</defs>
</svg>
