<svg width="24" height="24" viewBox="0 0 24 24" fill="none" xmlns="http://www.w3.org/2000/svg">
<g clip-path="url(#clip0_896_5159)">
<path d="M12 22C17.5228 22 22 17.5228 22 12C22 6.47715 17.5228 2 12 2C6.47715 2 2 6.47715 2 12C2 17.5228 6.47715 22 12 22Z" fill="#D1D1D1"/>
<path d="M13.2101 12L15.5701 9.64C15.6913 9.46518 15.7467 9.25305 15.7265 9.04126C15.7062 8.82947 15.6115 8.63171 15.4593 8.48307C15.3071 8.33443 15.1071 8.24453 14.8949 8.22933C14.6827 8.21412 14.4719 8.27459 14.3001 8.4L11.9301 10.76L9.57006 8.4C9.40139 8.23207 9.17307 8.13779 8.93506 8.13779C8.69704 8.13779 8.46872 8.23207 8.30006 8.4C8.21445 8.48213 8.14634 8.58072 8.09981 8.68984C8.05328 8.79896 8.0293 8.91637 8.0293 9.035C8.0293 9.15363 8.05328 9.27103 8.09981 9.38016C8.14634 9.48928 8.21445 9.58787 8.30006 9.67L10.6601 12L8.30006 14.4C8.21445 14.4821 8.14634 14.5807 8.09981 14.6898C8.05328 14.799 8.0293 14.9164 8.0293 15.035C8.0293 15.1536 8.05328 15.271 8.09981 15.3802C8.14634 15.4893 8.21445 15.5879 8.30006 15.67C8.38144 15.7545 8.47943 15.8212 8.58786 15.8659C8.69628 15.9107 8.81279 15.9325 8.93006 15.93C9.04868 15.9315 9.1664 15.9093 9.27631 15.8646C9.38622 15.82 9.48609 15.7538 9.57006 15.67L11.9301 13.31L14.3001 15.67C14.3814 15.7545 14.4794 15.8212 14.5879 15.8659C14.6963 15.9107 14.8128 15.9325 14.9301 15.93C15.1071 15.9295 15.28 15.8767 15.4272 15.7784C15.5744 15.6801 15.6893 15.5406 15.7576 15.3773C15.8259 15.214 15.8446 15.0342 15.8112 14.8604C15.7778 14.6865 15.694 14.5264 15.5701 14.4L13.2101 12Z" fill="white"/>
</g>
<defs>
<clipPath id="clip0_896_5159">
<rect width="24" height="24" fill="white"/>
</clipPath>
</defs>
</svg>
