<svg width="24" height="24" viewBox="0 0 24 24" fill="none" xmlns="http://www.w3.org/2000/svg">
<g clip-path="url(#clip0_982_5705)">
<path d="M12 22C17.5228 22 22 17.5228 22 12C22 6.47715 17.5228 2 12 2C6.47715 2 2 6.47715 2 12C2 17.5228 6.47715 22 12 22Z" fill="#FC7521"/>
<path d="M10.1101 16.4C9.87008 16.4 9.64008 16.3 9.47008 16.13L6.36008 12.98C6.01008 12.63 6.02008 12.06 6.36008 11.71C6.71008 11.36 7.28008 11.36 7.63008 11.71L10.0901 14.21L16.3401 7.86C16.6901 7.5 17.2601 7.5 17.6101 7.86C17.9601 8.21 17.9701 8.78 17.6101 9.13L10.7201 16.13C10.5501 16.3 10.3201 16.4 10.0801 16.4H10.1101Z" fill="white"/>
</g>
<defs>
<clipPath id="clip0_982_5705">
<rect width="24" height="24" fill="white"/>
</clipPath>
</defs>
</svg>
