<svg width="24" height="24" viewBox="0 0 24 24" fill="none" xmlns="http://www.w3.org/2000/svg">
<g clip-path="url(#clip0_749_4452)">
<path d="M18.6 6H17.28C17.0816 6.00114 16.8852 5.95979 16.7041 5.87872C16.523 5.79765 16.3614 5.67875 16.23 5.53L14.42 3.47C14.2879 3.32225 14.1261 3.20403 13.9451 3.12305C13.7642 3.04206 13.5682 3.00013 13.37 3H10.63C10.4318 3.00013 10.2358 3.04206 10.0549 3.12305C9.87398 3.20403 9.71217 3.32225 9.58002 3.47L7.77002 5.53C7.64357 5.67164 7.48981 5.78627 7.31798 5.86704C7.14614 5.9478 6.95976 5.99302 6.77002 6H5.40002C5.08448 5.99868 4.7718 6.05985 4.48002 6.17999C4.18824 6.30014 3.92314 6.47687 3.70001 6.69999C3.47689 6.92312 3.30016 7.18822 3.18002 7.48C3.05987 7.77178 2.9987 8.08446 3.00002 8.4V16.6C2.9987 16.9155 3.05987 17.2282 3.18002 17.52C3.30016 17.8118 3.47689 18.0769 3.70001 18.3C3.92314 18.5231 4.18824 18.6999 4.48002 18.82C4.7718 18.9401 5.08448 19.0013 5.40002 19H18.6C18.9156 19.0013 19.2282 18.9401 19.52 18.82C19.8118 18.6999 20.0769 18.5231 20.3 18.3C20.5232 18.0769 20.6999 17.8118 20.82 17.52C20.9402 17.2282 21.0013 16.9155 21 16.6V8.4C21.0013 8.08446 20.9402 7.77178 20.82 7.48C20.6999 7.18822 20.5232 6.92312 20.3 6.69999C20.0769 6.47687 19.8118 6.30014 19.52 6.17999C19.2282 6.05985 18.9156 5.99868 18.6 6ZM12 16.51C11.2089 16.51 10.4355 16.2754 9.77774 15.8359C9.11994 15.3964 8.60725 14.7716 8.3045 14.0407C8.00175 13.3098 7.92254 12.5056 8.07688 11.7296C8.23122 10.9537 8.61218 10.241 9.17159 9.68157C9.731 9.12216 10.4437 8.7412 11.2197 8.58686C11.9956 8.43252 12.7999 8.51173 13.5308 8.81448C14.2617 9.11723 14.8864 9.62992 15.3259 10.2877C15.7654 10.9455 16 11.7189 16 12.51C16 13.5709 15.5786 14.5883 14.8284 15.3384C14.0783 16.0886 13.0609 16.51 12 16.51ZM12 15.26C11.4561 15.26 10.9244 15.0987 10.4722 14.7965C10.02 14.4944 9.66749 14.0649 9.45935 13.5624C9.25121 13.0599 9.19675 12.5069 9.30286 11.9735C9.40897 11.4401 9.67088 10.9501 10.0555 10.5655C10.4401 10.1809 10.9301 9.91895 11.4635 9.81284C11.997 9.70673 12.5499 9.76119 13.0524 9.96933C13.5549 10.1775 13.9844 10.5299 14.2866 10.9822C14.5887 11.4344 14.75 11.9661 14.75 12.51C14.75 13.2393 14.4603 13.9388 13.9446 14.4545C13.4288 14.9703 12.7294 15.26 12 15.26Z" fill="#333333"/>
</g>
<defs>
<clipPath id="clip0_749_4452">
<rect width="24" height="24" fill="white"/>
</clipPath>
</defs>
</svg>
