<svg width="24" height="24" viewBox="0 0 24 24" fill="none" xmlns="http://www.w3.org/2000/svg">
<g clip-path="url(#clip0_749_4459)">
<path d="M10.5932 2.58841L2.59585 10.5858C1.81481 11.3668 1.81481 12.6332 2.59585 13.4142L10.5932 21.4116C11.3743 22.1926 12.6406 22.1926 13.4217 21.4116L21.419 13.4142C22.2001 12.6332 22.2001 11.3668 21.419 10.5858L13.4217 2.58841C12.6406 1.80736 11.3743 1.80736 10.5932 2.58841Z" fill="#333333"/>
<path d="M17.32 10.62L14.31 8C14.2372 7.93941 14.1488 7.90071 14.0549 7.88841C13.9611 7.87611 13.8656 7.89071 13.7797 7.93052C13.6938 7.97032 13.621 8.0337 13.5697 8.11327C13.5184 8.19284 13.4908 8.28533 13.49 8.38V10.1H8.62998C8.39129 10.1 8.16237 10.1948 7.99358 10.3636C7.8248 10.5324 7.72998 10.7613 7.72998 11V14C7.72998 14.2387 7.8248 14.4676 7.99358 14.6364C8.16237 14.8052 8.39129 14.9 8.62998 14.9C8.86868 14.9 9.09759 14.8052 9.26638 14.6364C9.43516 14.4676 9.52998 14.2387 9.52998 14V11.9H13.53V13.62C13.5308 13.7147 13.5584 13.8072 13.6097 13.8867C13.661 13.9663 13.7338 14.0297 13.8197 14.0695C13.9056 14.1093 14.0011 14.1239 14.0949 14.1116C14.1888 14.0993 14.2772 14.0606 14.35 14L17.35 11.38C17.4031 11.3309 17.4449 11.2709 17.4726 11.2041C17.5002 11.1373 17.5131 11.0653 17.5102 10.9931C17.5074 10.9208 17.4889 10.8501 17.456 10.7857C17.4232 10.7213 17.3768 10.6647 17.32 10.62Z" fill="white"/>
</g>
<defs>
<clipPath id="clip0_749_4459">
<rect width="24" height="24" fill="white"/>
</clipPath>
</defs>
</svg>
