<svg width="24" height="24" viewBox="0 0 24 24" fill="none" xmlns="http://www.w3.org/2000/svg">
<g clip-path="url(#clip0_749_4420)">
<path d="M13.4502 20.22C12.6302 20.96 11.3802 20.96 10.5602 20.22H10.5502C5.30015 15.45 1.87015 12.34 2.00015 8.46C2.06015 6.76 2.93015 5.13 4.34015 4.17C6.98015 2.37 10.2402 3.21 12.0002 5.27C13.7602 3.21 17.0202 2.36 19.6602 4.17C21.0702 5.13 21.9402 6.76 22.0002 8.46C22.1402 12.34 18.7002 15.45 13.4502 20.22Z" fill="black" fill-opacity="0.4"/>
<path d="M16.4999 4.98C17.2699 4.98 17.9899 5.21 18.6399 5.66C19.5599 6.29 20.1499 7.38 20.1899 8.53C20.2999 11.56 17.1099 14.46 12.2899 18.84L12.2399 18.89C12.1599 18.96 12.0699 18.98 12.0099 18.98C11.9499 18.98 11.8599 18.96 11.7599 18.87C6.89992 14.47 3.69992 11.57 3.79992 8.52C3.83992 7.38 4.43992 6.28 5.35992 5.65C6.01992 5.2 6.73992 4.98 7.50992 4.98C8.68992 4.98 9.85992 5.52 10.6399 6.44C10.9799 6.84 11.4799 7.07 12.0099 7.07C12.5399 7.07 13.0399 6.84 13.3799 6.44C14.1599 5.53 15.3299 4.98 16.5099 4.98H16.4999ZM16.5099 3.18C14.7699 3.18 13.0999 3.99 12.0099 5.27C10.9199 3.99 9.24992 3.18 7.50992 3.18C6.44992 3.18 5.34992 3.48 4.34992 4.17C2.93992 5.13 2.06992 6.76 2.00992 8.46C1.87992 12.34 5.30992 15.45 10.5599 20.2H10.5699C10.9799 20.59 11.4999 20.77 12.0199 20.77C12.5399 20.77 13.0499 20.59 13.4599 20.22C18.7099 15.45 22.1499 12.34 22.0099 8.46C21.9499 6.76 21.0799 5.13 19.6699 4.17C18.6699 3.48 17.5799 3.18 16.5099 3.18Z" fill="white"/>
</g>
<defs>
<clipPath id="clip0_749_4420">
<rect width="24" height="24" fill="white"/>
</clipPath>
</defs>
</svg>
