<svg width="24" height="24" viewBox="0 0 24 24" fill="none" xmlns="http://www.w3.org/2000/svg">
<g clip-path="url(#clip0_1064_4676)">
<path d="M14.2 8.35C14.2 7.14 13.21 6.15 12 6.15C10.79 6.15 9.80005 7.14 9.80005 8.35C9.80005 9.56 10.79 10.55 12 10.55C13.21 10.55 14.2 9.56 14.2 8.35ZM12 8.95C11.67 8.95 11.4 8.68 11.4 8.35C11.4 8.02 11.67 7.75 12 7.75C12.33 7.75 12.6 8.02 12.6 8.35C12.6 8.68 12.33 8.95 12 8.95Z" fill="#333333"/>
<path d="M19.3901 11.29L17.1201 10.38C17.3601 9.72 17.5001 9.02 17.5001 8.24C17.5001 5.27 15.0401 2.86 12.0001 2.86C8.9601 2.86 6.5001 5.27 6.5001 8.24C6.5001 9.03 6.6301 9.73 6.8701 10.38L4.6001 11.29C3.6901 11.66 3.1001 12.53 3.1001 13.52V19.62C3.1001 20.12 3.3701 20.59 3.8101 20.84C4.2501 21.09 4.7901 21.08 5.2201 20.82L8.3901 18.92L10.8601 20.77C11.2001 21.02 11.6001 21.15 12.0001 21.15C12.4001 21.15 12.8001 21.02 13.1401 20.77L15.6101 18.92L18.7801 20.82C19.2101 21.08 19.7501 21.08 20.1901 20.84C20.6301 20.59 20.9001 20.13 20.9001 19.62V13.52C20.9001 12.53 20.3101 11.66 19.3901 11.29ZM12.0001 4.65C14.0401 4.65 15.7001 6.26 15.7001 8.23C15.7001 10.2 14.5701 11.53 12.0001 14.13C9.3701 11.46 8.3001 10.25 8.3001 8.23C8.3001 6.21 9.9601 4.65 12.0001 4.65ZM19.1001 18.91L16.3101 17.23C15.8201 16.94 15.2101 16.97 14.7501 17.31L12.0601 19.32C12.0601 19.32 11.9801 19.35 11.9401 19.32L9.2501 17.31C8.7901 16.96 8.1801 16.93 7.6901 17.23L4.9001 18.91V13.51C4.9001 13.26 5.0501 13.04 5.2801 12.95L7.7001 11.98C8.4601 13.11 9.5601 14.22 10.9301 15.61C11.2201 15.91 11.6101 16.06 12.0001 16.06C12.3901 16.06 12.7801 15.91 13.0701 15.61C14.4201 14.24 15.5301 13.12 16.3001 11.98L18.7201 12.95C18.9501 13.04 19.1001 13.26 19.1001 13.51V18.91Z" fill="#333333"/>
</g>
<defs>
<clipPath id="clip0_1064_4676">
<rect width="24" height="24" fill="white"/>
</clipPath>
</defs>
</svg>
