<svg width="24" height="24" viewBox="0 0 24 24" fill="none" xmlns="http://www.w3.org/2000/svg">
<g clip-path="url(#clip0_749_4457)">
<path d="M12 3.8C13.6861 3.77862 15.3118 4.42661 16.5209 5.60193C17.7299 6.77726 18.4237 8.38402 18.45 10.07C18.45 13.67 16.28 15.87 12.35 19.86L12 20.2L11.66 19.85C7.73 15.85 5.56 13.67 5.56 10.07C5.58634 8.38577 6.2787 6.78054 7.48559 5.6055C8.69249 4.43046 10.3157 3.78128 12 3.8ZM12 2C10.9284 1.98812 9.86495 2.18743 8.87038 2.58657C7.87581 2.9857 6.9696 3.57684 6.2035 4.32622C5.43741 5.0756 4.82643 5.96855 4.40545 6.95407C3.98448 7.9396 3.76175 8.99839 3.75 10.07C3.75 14.53 6.39 17.07 10.75 21.47C11.0929 21.8107 11.5566 22.002 12.04 22.002C12.5234 22.002 12.9871 21.8107 13.33 21.47C17.56 17.18 20.33 14.53 20.33 10.07C20.3183 8.99155 20.093 7.92612 19.667 6.9353C19.2411 5.94447 18.6229 5.04792 17.8483 4.29749C17.0737 3.54705 16.158 2.95762 15.1541 2.56326C14.1503 2.16891 13.0783 1.97747 12 2Z" fill="#333333"/>
<path d="M12.0001 14C11.2782 14 10.5725 13.7859 9.97227 13.3849C9.37203 12.9838 8.9042 12.4137 8.62794 11.7468C8.35168 11.0798 8.2794 10.3459 8.42023 9.63792C8.56107 8.92989 8.9087 8.27952 9.41916 7.76906C9.92962 7.2586 10.58 6.91097 11.288 6.77013C11.9961 6.6293 12.7299 6.70158 13.3969 6.97784C14.0638 7.2541 14.6339 7.72193 15.035 8.32217C15.436 8.92241 15.6501 9.6281 15.6501 10.35C15.6475 11.3172 15.2621 12.2441 14.5781 12.928C13.8942 13.612 12.9673 13.9974 12.0001 14ZM12.0001 8.5C11.6342 8.5 11.2765 8.6085 10.9723 8.81178C10.6681 9.01506 10.4309 9.30399 10.2909 9.64203C10.1509 9.98008 10.1143 10.3521 10.1856 10.7109C10.257 11.0698 10.4332 11.3994 10.692 11.6581C10.9507 11.9169 11.2803 12.0931 11.6392 12.1645C11.998 12.2358 12.37 12.1992 12.7081 12.0592C13.0461 11.9192 13.335 11.682 13.5383 11.3778C13.7416 11.0736 13.8501 10.7159 13.8501 10.35C13.8568 10.1029 13.8139 9.85693 13.7239 9.62667C13.6339 9.39641 13.4987 9.18653 13.3262 9.00941C13.1538 8.83229 12.9476 8.69153 12.7198 8.59545C12.492 8.49937 12.2473 8.44991 12.0001 8.45V8.5Z" fill="#333333"/>
</g>
<defs>
<clipPath id="clip0_749_4457">
<rect width="24" height="24" fill="white"/>
</clipPath>
</defs>
</svg>
