<svg width="24" height="24" viewBox="0 0 24 24" fill="none" xmlns="http://www.w3.org/2000/svg">
<g clip-path="url(#clip0_734_4453)">
<path d="M15.6 20.4C15.3612 20.3987 15.132 20.3056 14.96 20.14L7.95995 13.14C7.64241 12.8214 7.46411 12.3898 7.46411 11.94C7.46411 11.4902 7.64241 11.0586 7.95995 10.74L14.85 3.84C15.0186 3.67207 15.2469 3.57779 15.485 3.57779C15.723 3.57779 15.9513 3.67207 16.12 3.84C16.2885 4.01037 16.383 4.24035 16.383 4.48C16.383 4.71965 16.2885 4.94963 16.12 5.12L9.33995 12L16.24 18.9C16.4085 19.0704 16.503 19.3003 16.503 19.54C16.503 19.7797 16.4085 20.0096 16.24 20.18C16.0618 20.3311 15.8333 20.4096 15.6 20.4Z" fill="#333333"/>
</g>
<defs>
<clipPath id="clip0_734_4453">
<rect width="24" height="24" fill="white"/>
</clipPath>
</defs>
</svg>
