<svg width="24" height="24" viewBox="0 0 24 24" fill="none" xmlns="http://www.w3.org/2000/svg">
<g clip-path="url(#clip0_749_4456)">
<path d="M4.88 8H4.12C2.94916 8 2 8.94916 2 10.12V17.88C2 19.0508 2.94916 20 4.12 20H4.88C6.05084 20 7 19.0508 7 17.88V10.12C7 8.94916 6.05084 8 4.88 8Z" fill="#333333"/>
<path d="M11.14 20C9.41 20 8 18.58 8 16.83V9.76C8 9 8.22 8.25 8.64 7.61L11.59 3.08C12.62 1.91 14.54 2.64 14.54 4.21L14.64 7.53C14.65 8 15.04 8.38 15.51 8.38H19.76C21.14 8.34 22.21 9.6 21.96 10.98L20.57 17.5C20.26 18.96 18.98 20.01 17.5 20.01H11.13L11.14 20Z" fill="#333333"/>
</g>
<defs>
<clipPath id="clip0_749_4456">
<rect width="24" height="24" fill="white"/>
</clipPath>
</defs>
</svg>
