<svg width="24" height="24" viewBox="0 0 24 24" fill="none" xmlns="http://www.w3.org/2000/svg">
<g clip-path="url(#clip0_749_4331)">
<path d="M19.7501 5.54L16.0501 4.23C15.3158 3.96995 14.5144 3.96995 13.7801 4.23L9.6201 5.71C9.27346 5.82962 8.89673 5.82962 8.5501 5.71L4.8901 4.41C4.59882 4.30697 4.28715 4.27499 3.98102 4.31674C3.67489 4.35848 3.38315 4.47274 3.1301 4.65C2.89024 4.82005 2.69437 5.04483 2.55872 5.30569C2.42308 5.56655 2.35156 5.85598 2.3501 6.15V15.83C2.35602 16.411 2.54191 16.9759 2.88217 17.4469C3.22244 17.9179 3.70035 18.2719 4.2501 18.46L8.0001 19.77C8.3449 19.9059 8.70985 19.9836 9.0801 20C9.46814 20.002 9.85368 19.9377 10.2201 19.81L14.3801 18.33C14.7267 18.2104 15.1035 18.2104 15.4501 18.33L19.1101 19.63C19.4014 19.733 19.713 19.765 20.0192 19.7233C20.3253 19.6815 20.617 19.5673 20.8701 19.39C21.11 19.2199 21.3058 18.9952 21.4415 18.7343C21.5771 18.4735 21.6486 18.184 21.6501 17.89V8.17C21.6442 7.58898 21.4583 7.02408 21.118 6.55308C20.7778 6.08208 20.2998 5.72814 19.7501 5.54ZM4.8501 16.76C4.65095 16.6974 4.47637 16.5741 4.35084 16.4073C4.22531 16.2406 4.15511 16.0387 4.1501 15.83V6.12H4.2201L8.0001 7.4L8.2301 7.46V17.94L4.8501 16.76ZM10.0001 17.94V7.46L10.2401 7.4L14.0001 6.06V16.54C13.919 16.5553 13.8388 16.5753 13.7601 16.6L10.0001 17.94ZM19.8501 17.88C19.8313 17.8889 19.8109 17.8935 19.7901 17.8935C19.7693 17.8935 19.7488 17.8889 19.7301 17.88L16.0501 16.6L15.8201 16.54V6.06L19.1501 7.24C19.3492 7.30256 19.5238 7.42588 19.6494 7.59266C19.7749 7.75944 19.8451 7.96132 19.8501 8.17V17.88Z" fill="#333333"/>
</g>
<defs>
<clipPath id="clip0_749_4331">
<rect width="24" height="24" fill="white"/>
</clipPath>
</defs>
</svg>
