<svg width="24" height="24" viewBox="0 0 24 24" fill="none" xmlns="http://www.w3.org/2000/svg">
<g clip-path="url(#clip0_749_4327)">
<path d="M14.4598 18.94L19.7998 6C19.9201 5.74808 19.9593 5.46506 19.9121 5.18991C19.8649 4.91476 19.7336 4.66101 19.5362 4.4636C19.3388 4.2662 19.085 4.13485 18.8099 4.08764C18.5347 4.04043 18.2517 4.07968 17.9998 4.2L4.99977 9.55C4.75139 9.65132 4.53883 9.82433 4.38921 10.047C4.23958 10.2696 4.15967 10.5318 4.15967 10.8C4.15967 11.0682 4.23958 11.3304 4.38921 11.553C4.53883 11.7757 4.75139 11.9487 4.99977 12.05L9.21977 13.74C9.44563 13.83 9.65078 13.9651 9.82271 14.1371C9.99464 14.309 10.1297 14.5141 10.2198 14.74L11.9998 18.93C12.1088 19.1637 12.2821 19.3615 12.4993 19.5004C12.7165 19.6394 12.9687 19.7137 13.2266 19.7148C13.4844 19.7158 13.7373 19.6435 13.9556 19.5064C14.174 19.3692 14.3488 19.1728 14.4598 18.94Z" fill="#333333"/>
</g>
<defs>
<clipPath id="clip0_749_4327">
<rect width="24" height="24" fill="white"/>
</clipPath>
</defs>
</svg>
