<svg width="24" height="24" viewBox="0 0 24 24" fill="none" xmlns="http://www.w3.org/2000/svg">
<g clip-path="url(#clip0_1636_5075)">
<path d="M12 2C6.48 2 2 6.48 2 12C2 17.52 6.48 22 12 22C17.52 22 22 17.52 22 12C22 6.48 17.52 2 12 2ZM12.9 20.15V17C12.9 16.5 12.5 16.1 12 16.1C11.5 16.1 11.1 16.5 11.1 17V20.15C7.3 19.73 4.27 16.71 3.85 12.9H7C7.5 12.9 7.9 12.5 7.9 12C7.9 11.5 7.5 11.1 7 11.1H3.85C4.27 7.3 7.29 4.27 11.1 3.85V7C11.1 7.5 11.5 7.9 12 7.9C12.5 7.9 12.9 7.5 12.9 7V3.85C16.7 4.27 19.73 7.29 20.15 11.1H17C16.5 11.1 16.1 11.5 16.1 12C16.1 12.5 16.5 12.9 17 12.9H20.15C19.73 16.7 16.71 19.73 12.9 20.15Z" fill="#333333"/>
<path d="M12 13.5C12.8284 13.5 13.5 12.8284 13.5 12C13.5 11.1716 12.8284 10.5 12 10.5C11.1716 10.5 10.5 11.1716 10.5 12C10.5 12.8284 11.1716 13.5 12 13.5Z" fill="#333333"/>
</g>
<defs>
<clipPath id="clip0_1636_5075">
<rect width="24" height="24" fill="white"/>
</clipPath>
</defs>
</svg>
