<svg width="24" height="24" viewBox="0 0 24 24" fill="none" xmlns="http://www.w3.org/2000/svg">
<g clip-path="url(#clip0_749_4450)">
<path d="M13.0801 7.27L16.4301 3.93" stroke="#C7CACF" stroke-width="2" stroke-linecap="round" stroke-linejoin="round"/>
<path d="M16.73 10.92L20.07 7.57" stroke="#C7CACF" stroke-width="2" stroke-linecap="round" stroke-linejoin="round"/>
<path d="M18.55 11.32L12.68 5.45C11.71 4.48 10.12 4.48 9.13998 5.45L6.37998 8.21C4.85998 9.73 4.55998 12 5.45998 13.83C5.57998 14.07 5.54998 14.35 5.35998 14.54L4.59998 15.3C3.68998 16.21 3.68998 17.67 4.59998 18.58L5.41998 19.4C5.86998 19.85 6.46998 20.08 7.05998 20.08C7.64998 20.08 8.24998 19.85 8.69998 19.4L9.45998 18.64C9.64998 18.45 9.92998 18.42 10.17 18.54C11.29 19.1 12.61 19.23 13.95 18.78C14.56 18.57 15.42 17.99 15.88 17.53L18.55 14.86C19.02 14.39 19.28 13.76 19.28 13.09C19.28 12.42 19.02 11.79 18.55 11.32Z" fill="#888D95"/>
</g>
<defs>
<clipPath id="clip0_749_4450">
<rect width="24" height="24" fill="white"/>
</clipPath>
</defs>
</svg>
