<svg width="24" height="24" viewBox="0 0 24 24" fill="none" xmlns="http://www.w3.org/2000/svg">
<g clip-path="url(#clip0_734_4452)">
<path d="M8.39991 3.6C8.62479 3.61118 8.83798 3.70356 8.99991 3.86L15.9999 10.86C16.3175 11.1786 16.4958 11.6102 16.4958 12.06C16.4958 12.5098 16.3175 12.9414 15.9999 13.26L9.10991 20.16C8.94124 20.3279 8.71292 20.4222 8.47491 20.4222C8.2369 20.4222 8.00858 20.3279 7.83991 20.16C7.67136 19.9896 7.57683 19.7597 7.57683 19.52C7.57683 19.2803 7.67136 19.0504 7.83991 18.88L14.6599 12L7.75991 5.1C7.59136 4.92963 7.49683 4.69965 7.49683 4.46C7.49683 4.22035 7.59136 3.99037 7.75991 3.82C7.93804 3.66889 8.16652 3.59035 8.39991 3.6Z" fill="black"/>
</g>
<defs>
<clipPath id="clip0_734_4452">
<rect width="24" height="24" fill="white"/>
</clipPath>
</defs>
</svg>
