<svg width="24" height="24" viewBox="0 0 24 24" fill="none" xmlns="http://www.w3.org/2000/svg">
<g clip-path="url(#clip0_749_4458)">
<path d="M16.2402 15.75C15.6669 15.752 15.1107 15.9456 14.6602 16.3L10.2702 12.65C10.3334 12.439 10.3671 12.2203 10.3702 12C10.3679 11.783 10.3342 11.5674 10.2702 11.36L14.6602 7.7C15.1107 8.05442 15.6669 8.24802 16.2402 8.25C16.7544 8.25 17.2571 8.09751 17.6846 7.81182C18.1122 7.52613 18.4455 7.12007 18.6422 6.64498C18.839 6.16989 18.8905 5.64712 18.7902 5.14277C18.6899 4.63841 18.4423 4.17514 18.0786 3.81152C17.715 3.44791 17.2517 3.20028 16.7474 3.09996C16.243 2.99964 15.7203 3.05113 15.2452 3.24791C14.7701 3.4447 14.364 3.77795 14.0783 4.20552C13.7926 4.63309 13.6402 5.13577 13.6402 5.65C13.62 5.82275 13.62 5.99726 13.6402 6.17L9.25016 9.87C8.81521 9.56068 8.29387 9.39623 7.76016 9.4C7.07059 9.4 6.40927 9.67393 5.92168 10.1615C5.43408 10.6491 5.16016 11.3104 5.16016 12C5.16016 12.6896 5.43408 13.3509 5.92168 13.8385C6.40927 14.3261 7.07059 14.6 7.76016 14.6C8.29387 14.6038 8.81521 14.4393 9.25016 14.13L13.6902 17.83C13.67 18.0027 13.67 18.1773 13.6902 18.35C13.6902 18.8642 13.8426 19.3669 14.1283 19.7945C14.414 20.2221 14.8201 20.5553 15.2952 20.7521C15.7703 20.9489 16.293 21.0004 16.7974 20.9C17.3017 20.7997 17.765 20.5521 18.1286 20.1885C18.4923 19.8249 18.7399 19.3616 18.8402 18.8572C18.9405 18.3529 18.889 17.8301 18.6922 17.355C18.4955 16.8799 18.1622 16.4739 17.7346 16.1882C17.3071 15.9025 16.8044 15.75 16.2902 15.75H16.2402Z" fill="#333333"/>
</g>
<defs>
<clipPath id="clip0_749_4458">
<rect width="24" height="24" fill="white"/>
</clipPath>
</defs>
</svg>
