<svg width="24" height="24" viewBox="0 0 24 24" fill="none" xmlns="http://www.w3.org/2000/svg">
<g clip-path="url(#clip0_735_4807)">
<path d="M20.53 19.25L15.53 14.3C16.5833 12.9135 17.07 11.1784 16.8913 9.44642C16.7127 7.71442 15.8821 6.11516 14.568 4.97286C13.2539 3.83055 11.5546 3.23069 9.81463 3.29488C8.07463 3.35907 6.42415 4.0825 5.19778 5.31852C3.97142 6.55454 3.26095 8.21065 3.21041 9.9511C3.15987 11.6915 3.77305 13.3861 4.92562 14.6912C6.0782 15.9963 7.68392 16.8143 9.41726 16.9793C11.1506 17.1444 12.8819 16.6441 14.26 15.58L19.2 20.52C19.2834 20.604 19.3825 20.6708 19.4917 20.7166C19.6009 20.7623 19.7181 20.7861 19.8365 20.7866C19.9549 20.787 20.0722 20.7642 20.1818 20.7193C20.2913 20.6744 20.391 20.6084 20.475 20.525C20.5591 20.4416 20.6259 20.3425 20.6716 20.2333C20.7173 20.1241 20.7411 20.0069 20.7416 19.8885C20.742 19.7701 20.7192 19.6528 20.6743 19.5433C20.6294 19.4337 20.5634 19.334 20.48 19.25H20.53ZM10.11 15.25C9.10134 15.25 8.1153 14.9509 7.27661 14.3905C6.43792 13.8301 5.78424 13.0336 5.39824 12.1017C5.01223 11.1698 4.91123 10.1443 5.10802 9.15504C5.3048 8.16574 5.79053 7.257 6.50378 6.54375C7.21702 5.83051 8.12576 5.34478 9.11506 5.14799C10.1044 4.95121 11.1298 5.05221 12.0617 5.43821C12.9936 5.82422 13.7901 6.4779 14.3505 7.31659C14.9109 8.15528 15.21 9.14131 15.21 10.15C15.1995 11.4957 14.6575 12.7826 13.7022 13.7304C12.7469 14.6782 11.4557 15.21 10.11 15.21V15.25Z" fill="#333333"/>
</g>
<defs>
<clipPath id="clip0_735_4807">
<rect width="24" height="24" fill="white"/>
</clipPath>
</defs>
</svg>
