<svg width="24" height="24" viewBox="0 0 24 24" fill="none" xmlns="http://www.w3.org/2000/svg">
<g clip-path="url(#clip0_749_4330)">
<path d="M19.3999 13.06C19.4638 12.6833 19.4973 12.3021 19.4999 11.92C19.4968 11.5856 19.4735 11.2516 19.4299 10.92L20.9399 9.45C21.163 9.23349 21.3076 8.94891 21.3511 8.64111C21.3945 8.3333 21.3343 8.01979 21.1799 7.75L20.2799 6.18C20.1243 5.90836 19.8821 5.69673 19.5921 5.5789C19.302 5.46107 18.9809 5.44386 18.6799 5.53L16.6799 6.09C16.0763 5.60867 15.4016 5.22408 14.6799 4.95L14.1899 2.95C14.1125 2.64774 13.9369 2.3797 13.6908 2.18788C13.4447 1.99606 13.1419 1.8913 12.8299 1.89H11.0899C10.7711 1.89401 10.4631 2.00594 10.2161 2.20754C9.9691 2.40913 9.79771 2.68847 9.7299 3L9.2399 5C8.53881 5.26326 7.88142 5.63072 7.2899 6.09L5.2899 5.53C4.98893 5.44386 4.66777 5.46107 4.37774 5.5789C4.0877 5.69673 3.84553 5.90836 3.6899 6.18L2.7899 7.75C2.6355 8.01979 2.57527 8.3333 2.61873 8.64111C2.66218 8.94891 2.80684 9.23349 3.0299 9.45L4.5399 10.92C4.49635 11.2516 4.47297 11.5856 4.4699 11.92C4.47255 12.3021 4.50599 12.6833 4.5699 13.06L3.0599 14.55C2.83684 14.7665 2.69218 15.0511 2.64873 15.3589C2.60527 15.6667 2.6655 15.9802 2.8199 16.25L3.7199 17.82C3.87553 18.0916 4.1177 18.3033 4.40774 18.4211C4.69777 18.5389 5.01893 18.5561 5.3199 18.47L7.4399 17.87C7.9758 18.2857 8.56849 18.6224 9.1999 18.87L9.7299 21C9.80735 21.3023 9.98288 21.5703 10.229 21.7621C10.4751 21.9539 10.7779 22.0587 11.0899 22.06H12.9099C13.2219 22.0587 13.5247 21.9539 13.7708 21.7621C14.0169 21.5703 14.1925 21.3023 14.2699 21L14.7999 18.85C15.4313 18.6024 16.024 18.2657 16.5599 17.85L18.6799 18.45C18.9809 18.5361 19.302 18.5189 19.5921 18.4011C19.8821 18.2833 20.1243 18.0716 20.2799 17.8L21.1799 16.23C21.3343 15.9602 21.3945 15.6467 21.3511 15.3389C21.3076 15.0311 21.163 14.7465 20.9399 14.53L19.3999 13.06ZM12.6899 15.43C11.9531 15.5784 11.1881 15.4857 10.5081 15.1656C9.82808 14.8455 9.26918 14.3149 8.91408 13.6525C8.55898 12.9901 8.42655 12.231 8.53638 11.4874C8.64622 10.7439 8.99248 10.0555 9.52394 9.52403C10.0554 8.99258 10.7438 8.64631 11.4873 8.53648C12.2309 8.42665 12.99 8.55908 13.6524 8.91417C14.3148 9.26927 14.8454 9.82818 15.1655 10.5082C15.4856 11.1882 15.5783 11.9532 15.4299 12.69C15.2938 13.3658 14.9611 13.9863 14.4737 14.4738C13.9862 14.9612 13.3657 15.2939 12.6899 15.43Z" fill="#333333"/>
</g>
<defs>
<clipPath id="clip0_749_4330">
<rect width="24" height="24" fill="white"/>
</clipPath>
</defs>
</svg>
