<svg width="24" height="24" viewBox="0 0 24 24" fill="none" xmlns="http://www.w3.org/2000/svg">
<g clip-path="url(#clip0_749_4454)">
<path d="M7.29004 6C8.39461 6 9.29004 5.10457 9.29004 4C9.29004 2.89543 8.39461 2 7.29004 2C6.18547 2 5.29004 2.89543 5.29004 4C5.29004 5.10457 6.18547 6 7.29004 6Z" fill="#5CA5E9"/>
<path d="M8.27004 7H6.31004C4.92004 7 3.79004 8.13 3.79004 9.52V13.57C3.79004 14.56 4.38004 15.41 5.23004 15.79C5.26004 15.81 5.29004 15.84 5.29004 15.88V20C5.29004 21.1 6.19004 22 7.29004 22C8.39004 22 9.29004 21.1 9.29004 20V15.88C9.29004 15.88 9.31004 15.81 9.35004 15.79C10.2 15.41 10.79 14.56 10.79 13.57V9.52C10.79 8.13 9.66004 7 8.27004 7Z" fill="#5CA5E9"/>
<path d="M16.2102 6C17.3148 6 18.2102 5.10457 18.2102 4C18.2102 2.89543 17.3148 2 16.2102 2C15.1056 2 14.2102 2.89543 14.2102 4C14.2102 5.10457 15.1056 6 16.2102 6Z" fill="#ED746D"/>
<path d="M20.1101 14.32L18.1701 8.44C17.8901 7.58 17.1001 7 16.2101 7C15.3201 7 14.5301 7.58 14.2501 8.44L12.3101 14.32C12.0401 15.15 12.6501 16 13.5301 16H14.1201C14.1801 16 14.2201 16.05 14.2201 16.1V19.99C14.2201 21.09 15.1201 21.99 16.2201 21.99C17.3201 21.99 18.2201 21.09 18.2201 19.99V16.1C18.2201 16.04 18.2701 16 18.3201 16H18.9101C19.7801 16 20.4001 15.15 20.1301 14.32H20.1101Z" fill="#ED746D"/>
</g>
<defs>
<clipPath id="clip0_749_4454">
<rect width="24" height="24" fill="white"/>
</clipPath>
</defs>
</svg>
