<svg width="20" height="20" viewBox="0 0 20 20" fill="none" xmlns="http://www.w3.org/2000/svg">
<g clip-path="url(#clip0_749_4455)">
<path d="M9.99984 3.16666C11.3513 3.16666 12.6725 3.56742 13.7962 4.31828C14.92 5.06914 15.7958 6.13636 16.313 7.38499C16.8302 8.63362 16.9655 10.0076 16.7019 11.3331C16.4382 12.6586 15.7874 13.8762 14.8317 14.8319C13.8761 15.7875 12.6585 16.4384 11.333 16.702C10.0074 16.9657 8.63347 16.8304 7.38484 16.3132C6.13621 15.796 5.06899 14.9201 4.31813 13.7964C3.56728 12.6727 3.16651 11.3515 3.16651 9.99999C3.16871 8.18835 3.88936 6.45155 5.17038 5.17053C6.4514 3.88951 8.18821 3.16886 9.99984 3.16666ZM9.99984 1.66666C8.35166 1.66666 6.7405 2.1554 5.37009 3.07108C3.99968 3.98675 2.93158 5.28824 2.30084 6.81096C1.67011 8.33368 1.50509 10.0092 1.82663 11.6257C2.14817 13.2423 2.94185 14.7271 4.10728 15.8925C5.27272 17.058 6.75758 17.8517 8.37409 18.1732C9.9906 18.4947 11.6662 18.3297 13.1889 17.699C14.7116 17.0683 16.0131 16.0002 16.9288 14.6297C17.8444 13.2593 18.3332 11.6482 18.3332 9.99999C18.3332 8.90564 18.1176 7.82201 17.6988 6.81096C17.28 5.79991 16.6662 4.88125 15.8924 4.10743C15.1186 3.33361 14.1999 2.71978 13.1889 2.30099C12.1778 1.8822 11.0942 1.66666 9.99984 1.66666Z" fill="#333333"/>
<path d="M13.4083 12.825C13.2728 12.8268 13.1396 12.7891 13.025 12.7167L9.60833 10.6333C9.49922 10.5675 9.40892 10.4746 9.34616 10.3636C9.28339 10.2527 9.25027 10.1275 9.25 10V5.83334C9.25 5.63443 9.32902 5.44367 9.46967 5.30301C9.61032 5.16236 9.80109 5.08334 10 5.08334C10.1989 5.08334 10.3897 5.16236 10.5303 5.30301C10.671 5.44367 10.75 5.63443 10.75 5.83334V9.57501L13.8 11.4417C13.9365 11.5282 14.0413 11.6565 14.099 11.8074C14.1567 11.9584 14.164 12.1239 14.12 12.2794C14.076 12.4349 13.9829 12.572 13.8547 12.6703C13.7265 12.7686 13.5699 12.8229 13.4083 12.825Z" fill="#333333"/>
</g>
<defs>
<clipPath id="clip0_749_4455">
<rect width="20" height="20" fill="white"/>
</clipPath>
</defs>
</svg>
