<svg width="20" height="20" viewBox="0 0 20 20" fill="none" xmlns="http://www.w3.org/2000/svg">
<g clip-path="url(#clip0_749_4527)">
<path d="M7.20015 7.75834L7.77515 7.18334C8.24182 6.71668 8.30015 5.99168 7.90849 5.45834L6.28349 3.21668C5.74182 2.47501 4.66682 2.38334 4.01682 3.03334L3.93349 3.11668C1.53349 5.51668 2.06682 9.66668 5.99182 13.5833C9.91682 17.5 14.5585 18.525 16.9585 16.1333C17.0168 16.075 17.0668 16.025 17.1168 15.9667C17.7085 15.3083 17.6002 14.2917 16.8918 13.7583L14.6085 12.1833C14.0752 11.7833 13.3335 11.8417 12.8668 12.3083L12.2918 12.8833C11.8752 13.3 11.2252 13.4 10.7085 13.1083C10.1918 12.8167 9.45015 12.3167 8.60015 11.4667C7.75015 10.6167 7.25015 9.88334 6.95849 9.34168C6.66682 8.80001 6.77515 8.18334 7.19182 7.76668L7.20015 7.75834Z" fill="#333333"/>
</g>
<defs>
<clipPath id="clip0_749_4527">
<rect width="20" height="20" fill="white"/>
</clipPath>
</defs>
</svg>
