<svg width="20" height="20" viewBox="0 0 20 20" fill="none" xmlns="http://www.w3.org/2000/svg">
<g clip-path="url(#clip0_1277_5083)">
<path d="M16.7501 3.05834C16.3334 2.86667 15.8584 2.93334 15.5084 3.22501C12.9334 5.39167 9.83343 5.55001 5.01676 5.53334C4.36676 5.53334 3.76676 5.78334 3.30843 6.24167C2.8501 6.70001 2.6001 7.30834 2.6001 7.95001V10.8583C2.6001 11.5 2.8501 12.1083 3.30843 12.5667C3.76676 13.025 4.3751 13.275 5.0251 13.275C5.2751 13.275 5.51676 13.275 5.75843 13.275V13.95C5.75843 15.6583 7.1251 17.05 8.8001 17.05C10.4751 17.05 11.8418 15.6583 11.8418 13.95V13.7833C13.2168 14.1167 14.4084 14.675 15.5168 15.6083C15.7334 15.7917 16.0001 15.8833 16.2668 15.8833C16.4334 15.8833 16.6001 15.85 16.7584 15.775C17.1751 15.5833 17.4334 15.175 17.4334 14.7167V4.10834C17.4334 3.65001 17.1751 3.25001 16.7668 3.05834H16.7501ZM10.3334 13.95C10.3334 14.8333 9.64177 15.55 8.79176 15.55C7.94176 15.55 7.2501 14.8333 7.2501 13.95V13.3C8.3751 13.325 9.4001 13.3833 10.3334 13.5083V13.95ZM15.9251 14.0333C12.9751 11.8833 9.40843 11.775 5.6251 11.775C5.4251 11.775 5.21676 11.775 5.01676 11.775C4.7751 11.775 4.54176 11.675 4.36676 11.5083C4.19176 11.3333 4.1001 11.1083 4.1001 10.8667V7.95834C4.1001 7.71667 4.19176 7.48334 4.36676 7.30834C4.54176 7.13334 4.7751 7.04167 5.01676 7.04167C9.2001 7.05001 12.8584 7.05834 15.9251 4.81667V14.0417V14.0333Z" fill="#333333"/>
</g>
<defs>
<clipPath id="clip0_1277_5083">
<rect width="20" height="20" fill="white"/>
</clipPath>
</defs>
</svg>
