<svg width="20" height="20" viewBox="0 0 20 20" fill="none" xmlns="http://www.w3.org/2000/svg">
<g clip-path="url(#clip0_1277_5091)">
<path d="M10.0001 3.16666C13.7667 3.16666 16.8334 6.23332 16.8334 9.99999C16.8334 13.7667 13.7667 16.8333 10.0001 16.8333C6.23341 16.8333 3.16675 13.7667 3.16675 9.99999C3.16675 6.23332 6.23341 3.16666 10.0001 3.16666ZM10.0001 1.66666C5.40008 1.66666 1.66675 5.39999 1.66675 9.99999C1.66675 14.6 5.40008 18.3333 10.0001 18.3333C14.6001 18.3333 18.3334 14.6 18.3334 9.99999C18.3334 5.39999 14.6001 1.66666 10.0001 1.66666Z" fill="#333333"/>
<path d="M10.9085 14.1333C10.9085 14.65 10.5168 15.0416 10.0001 15.0416C9.48346 15.0416 9.0918 14.65 9.0918 14.1333C9.0918 13.6166 9.48346 13.225 10.0001 13.225C10.5168 13.225 10.9085 13.6166 10.9085 14.1333Z" fill="#333333"/>
<path d="M10.9417 5.99998L10.725 11.7666C10.7084 12.325 10.3584 12.5166 10 12.5166C9.64171 12.5166 9.29171 12.325 9.27504 11.7666L9.05837 5.99998C9.04171 5.39998 9.43337 4.95831 10 4.95831C10.5667 4.95831 10.95 5.39998 10.9417 5.99998Z" fill="#333333"/>
</g>
<defs>
<clipPath id="clip0_1277_5091">
<rect width="20" height="20" fill="white"/>
</clipPath>
</defs>
</svg>
