<svg width="20" height="20" viewBox="0 0 20 20" fill="none" xmlns="http://www.w3.org/2000/svg">
<g clip-path="url(#clip0_1278_5049)">
<path d="M10.7502 4.35834V2.22501C10.7502 1.80834 10.4168 1.47501 10.0002 1.47501C9.5835 1.47501 9.25016 1.80834 9.25016 2.22501V4.35834C7.31683 4.42501 2.5835 4.79167 2.5835 6.82501C2.5835 7.54167 3.17516 8.11667 4.3335 8.54167L5.61683 16.7583C5.71683 18.4417 9.2835 18.525 10.0085 18.525C10.7335 18.525 14.3002 18.4417 14.4002 16.7583L15.6835 8.55001C16.8418 8.12501 17.4335 7.55001 17.4335 6.83334C17.4335 4.79167 12.7002 4.42501 10.7668 4.36667L10.7502 4.35834ZM4.1835 6.82501C4.69183 6.46667 6.4335 5.94167 9.25016 5.85834V8.40001C8.34183 8.44167 6.9335 8.58334 5.91683 9.00001L5.74183 7.85834C5.70016 7.57501 5.49183 7.33334 5.21683 7.25834C4.66683 7.09167 4.35016 6.93334 4.19183 6.82501H4.1835ZM10.0002 17.0333C8.40016 17.0333 7.36683 16.7167 7.09183 16.5167L6.16683 10.5583C6.44183 10.3417 7.5335 9.98334 9.2585 9.90834V10.5667C9.2585 10.9833 9.59183 11.3167 10.0085 11.3167C10.4252 11.3167 10.7585 10.9833 10.7585 10.5667V9.90834C12.4835 9.99167 13.5752 10.3417 13.8502 10.5667L12.9252 16.525C12.6418 16.725 11.6168 17.0417 10.0168 17.0417L10.0002 17.0333ZM14.7918 7.25834C14.5168 7.34167 14.3085 7.57501 14.2668 7.85834L14.0918 9.00001C13.0752 8.57501 11.6752 8.44167 10.7585 8.40001V5.85834C13.5752 5.94167 15.3168 6.46667 15.8252 6.82501C15.6668 6.93334 15.3502 7.09167 14.8002 7.25834H14.7918Z" fill="#333333"/>
</g>
<defs>
<clipPath id="clip0_1278_5049">
<rect width="20" height="20" fill="white"/>
</clipPath>
</defs>
</svg>
