<svg width="20" height="20" viewBox="0 0 20 20" fill="none" xmlns="http://www.w3.org/2000/svg">
<g clip-path="url(#clip0_749_4453)">
<path d="M11.2832 1.77499C11.0748 1.74166 10.8665 1.71666 10.6498 1.69999C10.4332 1.68332 10.2165 1.66666 9.99984 1.66666C9.78317 1.66666 9.5665 1.68332 9.34984 1.69999C9.13317 1.71666 8.92484 1.74166 8.7165 1.77499C4.72484 2.39166 1.6665 5.83332 1.6665 9.99999C1.6665 14.1667 4.72484 17.6083 8.7165 18.225C8.92484 18.2583 9.13317 18.2833 9.34984 18.3C9.5665 18.3167 9.78317 18.3333 9.99984 18.3333C10.2165 18.3333 10.4332 18.3167 10.6498 18.3C10.8665 18.2833 11.0748 18.2583 11.2832 18.225C15.2748 17.6083 18.3332 14.1667 18.3332 9.99999C18.3332 5.83332 15.2748 2.39166 11.2832 1.77499ZM15.9582 6.66666H13.1332C12.8332 5.51666 12.3915 4.42499 11.8165 3.41666C13.5915 3.90832 15.0748 5.09166 15.9582 6.66666ZM16.8332 9.99999C16.8332 10.6333 16.7415 11.25 16.5748 11.8333H13.4248C13.5082 11.2333 13.5498 10.625 13.5498 9.99999C13.5498 9.37499 13.5082 8.76666 13.4248 8.16666H16.5748C16.7415 8.74999 16.8332 9.36666 16.8332 9.99999ZM3.1665 9.99999C3.1665 9.36666 3.25817 8.74999 3.42484 8.16666H6.57484C6.4915 8.76666 6.44984 9.37499 6.44984 9.99999C6.44984 10.625 6.4915 11.2333 6.57484 11.8333H3.42484C3.25817 11.25 3.1665 10.6333 3.1665 9.99999ZM7.9415 9.99999C7.9415 9.37499 7.9915 8.76666 8.08317 8.16666H11.9165C12.0082 8.76666 12.0582 9.37499 12.0582 9.99999C12.0582 10.625 12.0082 11.2333 11.9165 11.8333H8.08317C7.9915 11.2333 7.9415 10.625 7.9415 9.99999ZM9.99984 3.34166C10.6915 4.34999 11.2248 5.47499 11.5748 6.66666H8.42484C8.77484 5.46666 9.30817 4.34999 9.99984 3.34166ZM8.18317 3.42499C7.60817 4.43332 7.1665 5.52499 6.8665 6.67499H4.0415C4.92484 5.10832 6.40817 3.91666 8.18317 3.42499ZM4.0415 13.3333H6.8665C7.1665 14.4833 7.60817 15.575 8.18317 16.5833C6.40817 16.0917 4.92484 14.9083 4.0415 13.3333ZM9.99984 16.6583C9.30817 15.65 8.77484 14.525 8.42484 13.3333H11.5748C11.2248 14.5333 10.6915 15.65 9.99984 16.6583ZM11.8165 16.575C12.3915 15.5667 12.8332 14.475 13.1332 13.325H15.9582C15.0748 14.8917 13.5915 16.0833 11.8165 16.575Z" fill="#333333"/>
</g>
<defs>
<clipPath id="clip0_749_4453">
<rect width="20" height="20" fill="white"/>
</clipPath>
</defs>
</svg>
