<svg width="26" height="26" viewBox="0 0 26 26" fill="none" xmlns="http://www.w3.org/2000/svg">
<circle cx="13" cy="13" r="13" fill="#F6F6F6"/>
<path d="M13 15.666C14.1046 15.666 15 14.7706 15 13.666C15 12.5614 14.1046 11.666 13 11.666C11.8954 11.666 11 12.5614 11 13.666C11 14.7706 11.8954 15.666 13 15.666Z" fill="#ACACAC"/>
<path d="M18.3333 8.33333H16.22L15.3933 7.43333C15.1466 7.16 14.7866 7 14.4133 7H11.5866C11.2133 7 10.8533 7.16 10.6 7.43333L9.77998 8.33333H7.66665C6.93331 8.33333 6.33331 8.93333 6.33331 9.66667V17.6667C6.33331 18.4 6.93331 19 7.66665 19H18.3333C19.0666 19 19.6666 18.4 19.6666 17.6667V9.66667C19.6666 8.93333 19.0666 8.33333 18.3333 8.33333ZM13 17C11.16 17 9.66665 15.5067 9.66665 13.6667C9.66665 11.8267 11.16 10.3333 13 10.3333C14.84 10.3333 16.3333 11.8267 16.3333 13.6667C16.3333 15.5067 14.84 17 13 17Z" fill="#ACACAC"/>
</svg>
