<svg width="66" height="20" viewBox="0 0 66 20" fill="none" xmlns="http://www.w3.org/2000/svg">
<path d="M3.27373 18.1282C2.27324 17.6035 1.43851 16.8044 0.864822 15.8219C0.29783 14.7999 0 13.6473 0 12.4748C0 11.3024 0.29783 10.1497 0.864822 9.12773C1.43808 8.15154 2.26743 7.3557 3.26055 6.82876C4.28113 6.27688 5.44665 6.00053 6.75711 5.99973C7.98852 5.99973 9.0666 6.2526 9.99135 6.75836C10.8993 7.24423 11.6319 8.00913 12.084 8.94324L9.83922 10.2699C9.51357 9.71891 9.04989 9.26497 8.49522 8.95416C7.95189 8.6613 7.34495 8.51068 6.72956 8.51597C5.63711 8.51597 4.73273 8.87567 4.0164 9.59506C3.30008 10.3144 2.94072 11.2742 2.93832 12.4742C2.93832 13.6751 3.29289 14.6344 4.00203 15.3522C4.71116 16.07 5.61954 16.4297 6.72717 16.4313C7.34262 16.4371 7.9497 16.2865 8.49282 15.9931C9.05285 15.6801 9.51985 15.2207 9.84521 14.6627L12.09 15.9979C11.6197 16.927 10.8814 17.6891 9.97338 18.1828C9.04623 18.6967 7.97455 18.9532 6.75831 18.9524C5.54741 18.9737 4.35017 18.6906 3.27373 18.1282Z" fill="#8B8B8B"/>
<path d="M26.2237 6.13704V18.7899H23.4411V17.2641C22.9619 17.8637 22.363 18.2073 21.6515 18.5071C20.9055 18.8143 20.1064 18.9674 19.3012 18.9574C18.1637 18.9772 17.0403 18.6997 16.0395 18.1514C15.0919 17.6264 14.3128 16.8369 13.7947 15.8767C13.2564 14.8976 12.9873 13.7602 12.9873 12.4647C12.9873 11.1691 13.2564 10.0362 13.7947 9.06599C14.3157 8.11109 15.0943 7.3263 16.0395 6.80343C17.0403 6.25519 18.1637 5.9776 19.3012 5.99745C20.0665 5.9885 20.8259 6.13374 21.5353 6.42472C22.2083 6.70534 22.8114 7.13404 23.3009 7.67981V6.13704H26.2237ZM22.2947 15.3317C22.9967 14.6034 23.3476 13.6477 23.3476 12.4647C23.3476 11.2816 22.9967 10.3255 22.2947 9.59643C21.5936 8.86813 20.7051 8.50399 19.6295 8.50399C18.5538 8.50399 17.669 8.86813 16.975 9.59643C16.281 10.3247 15.934 11.2808 15.934 12.4647C15.934 13.6486 16.281 14.6042 16.975 15.3317C17.669 16.06 18.5538 16.4242 19.6295 16.4242C20.7051 16.4242 21.5936 16.06 22.2947 15.3317Z" fill="#8B8B8B"/>
<path d="M30.8999 5.47424V6.23166H34.3366V8.60225H30.9694V18.7898H28.0466V5.42569C28.0466 4.08401 28.4363 3.01788 29.2157 2.22728C29.9952 1.43668 31.102 1.04178 32.5362 1.04259C33.6431 1.04259 34.5163 1.2716 35.156 1.72961L34.3366 3.95697C33.877 3.61226 33.3188 3.42939 32.747 3.43624C31.5156 3.43624 30.8999 4.11557 30.8999 5.47424Z" fill="#8B8B8B"/>
<path d="M45.0311 15.0707L46.5752 16.8914C46.0163 17.5805 45.2908 18.1112 44.4693 18.4318C43.545 18.7924 42.5609 18.9696 41.5705 18.9537C40.1978 18.9537 38.9895 18.6774 37.9458 18.1247C36.9373 17.6069 36.097 16.8064 35.5249 15.8184C34.9477 14.7992 34.653 13.6408 34.672 12.4659C34.6549 11.3014 34.9413 10.1529 35.5021 9.13635C36.0393 8.16653 36.8329 7.36783 37.7936 6.83009C38.8072 6.26745 39.9478 5.98174 41.1033 6.00106C42.2134 5.98723 43.3096 6.25159 44.2944 6.77062C45.2413 7.27566 46.0297 8.03924 46.5704 8.97491C47.1294 9.9314 47.4089 11.0493 47.4089 12.3287L37.8439 14.2235C38.1215 14.9247 38.6281 15.5082 39.279 15.8767C39.933 16.2554 40.72 16.4448 41.64 16.4448C42.9968 16.4448 44.1271 15.9867 45.0311 15.0707ZM38.4956 9.43131C37.832 10.1426 37.5006 11.0983 37.5014 12.2983V12.3226L44.5688 10.9474C44.3803 10.2004 43.9454 9.54121 43.3362 9.0793C42.7204 8.60591 41.9762 8.36881 41.1033 8.368C40.0269 8.36557 39.1576 8.72001 38.4956 9.43131Z" fill="#8B8B8B"/>
<path d="M49.0598 4.08683C48.8898 3.92362 48.7545 3.72703 48.6619 3.50905C48.5694 3.29107 48.5217 3.05628 48.5217 2.819C48.5217 2.58172 48.5694 2.34693 48.6619 2.12895C48.7545 1.91097 48.8898 1.71438 49.0598 1.55116C49.4212 1.21104 49.9 1.02839 50.393 1.04257C50.8821 1.02753 51.3585 1.20105 51.7262 1.5281C51.8983 1.67805 52.0357 1.86452 52.1286 2.07429C52.2216 2.28407 52.2678 2.512 52.2641 2.74192C52.2696 2.98609 52.2256 3.22881 52.135 3.45511C52.0443 3.68141 51.9089 3.88649 51.737 4.0577C51.5607 4.23477 51.3506 4.37339 51.1194 4.46503C50.8883 4.55668 50.6411 4.5994 50.393 4.59057C49.9006 4.60659 49.4217 4.42565 49.0598 4.08683Z" fill="#8B8B8B"/>
<path d="M51.8437 6.13699H48.9209V18.7911H51.8437V6.13699Z" fill="#8B8B8B"/>
<path d="M64.5734 7.39318C65.5245 8.32539 66.0001 9.70753 66.0001 11.5396V18.7897H63.0773V11.9195C63.0773 10.8133 62.8198 9.97983 62.3047 9.41904C61.7896 8.85826 61.0569 8.57786 60.1066 8.57786C59.0309 8.57786 58.1816 8.9056 57.5587 9.56106C56.9359 10.2165 56.6236 11.1605 56.622 12.3929V18.7897H53.6992V6.13688H56.4831V7.66507C56.9622 7.08001 57.5731 6.745 58.3062 6.45126C59.0964 6.14061 59.9383 5.98769 60.7858 6.00093C62.3566 5.99688 63.6191 6.46097 64.5734 7.39318Z" fill="#8B8B8B"/>
</svg>
