<svg width="16" height="16" viewBox="0 0 16 16" fill="none" xmlns="http://www.w3.org/2000/svg">
<path d="M8 16C12.4183 16 16 12.4183 16 8C16 3.58172 12.4183 0 8 0C3.58172 0 0 3.58172 0 8C0 12.4183 3.58172 16 8 16Z" fill="#FDDC3F"/>
<path d="M7.99978 4.40997C8.76657 4.40137 9.5243 4.57624 10.2098 4.91997C10.7475 5.19138 11.2083 5.59373 11.5498 6.08997C11.7887 6.43598 11.9429 6.83336 11.9998 7.24997C12.0665 7.86999 11.9027 8.49288 11.5398 8.99997C11.2173 9.47667 10.7807 9.86513 10.2698 10.13C9.81846 10.376 9.32784 10.5418 8.81978 10.62C8.39522 10.6799 7.96435 10.6799 7.53978 10.62H7.36978C7.34364 10.606 7.31444 10.5986 7.28478 10.5986C7.25513 10.5986 7.22593 10.606 7.19978 10.62L5.68978 11.62C5.58978 11.69 5.51978 11.68 5.48978 11.62C5.48511 11.6089 5.4827 11.597 5.4827 11.585C5.4827 11.5729 5.48511 11.561 5.48978 11.55C5.60978 11.1 5.71978 10.65 5.84978 10.21C5.84978 10.15 5.84978 10.13 5.84978 10.1C5.47247 9.89767 5.13392 9.63021 4.84978 9.30997C4.42012 8.93291 4.12229 8.42834 3.99978 7.86997C3.93366 7.28049 4.07511 6.6864 4.39978 6.18997C4.83809 5.50993 5.48829 4.99328 6.24978 4.71997C6.72085 4.54138 7.21672 4.43681 7.71978 4.40997H7.99978Z" fill="#3A2929"/>
</svg>
