<svg width="44" height="44" viewBox="0 0 44 44" fill="none" xmlns="http://www.w3.org/2000/svg">
<circle cx="22" cy="22" r="22" fill="#FFF0E6"/>
<g clip-path="url(#clip0_4605_129878)">
<path d="M22 11.1667C17.06 11.1667 13.0625 15.0776 13.0625 19.9092C13.0625 24.7409 15.9225 27.5034 20.6025 32.2484C21.3608 33.0176 22.6283 33.0176 23.3975 32.2484C27.98 27.6009 30.9375 24.7409 30.9375 19.9092C30.9375 15.0776 26.94 11.1667 22 11.1667ZM22 23.1376C20.3533 23.1376 19.0208 21.8051 19.0208 20.1584C19.0208 18.5117 20.3533 17.1792 22 17.1792C23.6467 17.1792 24.9792 18.5117 24.9792 20.1584C24.9792 21.8051 23.6467 23.1376 22 23.1376Z" fill="#FC7521"/>
<path d="M22.0109 23.1375C23.6563 23.1375 24.9901 21.8037 24.9901 20.1584C24.9901 18.513 23.6563 17.1792 22.0109 17.1792C20.3656 17.1792 19.0317 18.513 19.0317 20.1584C19.0317 21.8037 20.3656 23.1375 22.0109 23.1375Z" fill="white"/>
</g>
<defs>
<clipPath id="clip0_4605_129878">
<rect width="26" height="26" fill="white" transform="translate(9 9)"/>
</clipPath>
</defs>
</svg>
