<svg width="32" height="32" viewBox="0 0 32 32" fill="none" xmlns="http://www.w3.org/2000/svg">
<mask id="path-1-outside-1_2637_45154" maskUnits="userSpaceOnUse" x="3.62939" y="-0.333252" width="25" height="31" fill="black">
<rect fill="white" x="3.62939" y="-0.333252" width="25" height="31"/>
<path fill-rule="evenodd" clip-rule="evenodd" d="M15.4616 7.70473V2.21212C15.4616 2.06748 15.5182 1.92876 15.6191 1.82648C15.72 1.72421 15.8568 1.66675 15.9994 1.66675C16.1421 1.66675 16.2789 1.72421 16.3798 1.82648C16.4806 1.92876 16.5373 2.06748 16.5373 2.21212V7.70472C20.2204 7.75592 26.3701 8.33562 26.3701 10.2794C26.3701 10.9426 25.6989 11.4793 24.3133 11.9112L22.2994 26.536C22.29 26.605 22.2643 26.6708 22.2247 26.7277C22.185 26.7846 22.1324 26.8311 22.0714 26.8632C20.1907 27.8333 18.1098 28.3372 15.9998 28.3335C13.8893 28.3308 11.8097 27.8193 9.93245 26.8414C9.87322 26.8119 9.82147 26.7691 9.78118 26.7161C9.74088 26.6632 9.71314 26.6015 9.70009 26.536L7.69056 11.9112C6.30497 11.4793 5.62939 10.9426 5.62939 10.2794C5.62939 8.33574 11.7784 7.75599 15.4616 7.70473Z"/>
</mask>
<path fill-rule="evenodd" clip-rule="evenodd" d="M15.4616 7.70473V2.21212C15.4616 2.06748 15.5182 1.92876 15.6191 1.82648C15.72 1.72421 15.8568 1.66675 15.9994 1.66675C16.1421 1.66675 16.2789 1.72421 16.3798 1.82648C16.4806 1.92876 16.5373 2.06748 16.5373 2.21212V7.70472C20.2204 7.75592 26.3701 8.33562 26.3701 10.2794C26.3701 10.9426 25.6989 11.4793 24.3133 11.9112L22.2994 26.536C22.29 26.605 22.2643 26.6708 22.2247 26.7277C22.185 26.7846 22.1324 26.8311 22.0714 26.8632C20.1907 27.8333 18.1098 28.3372 15.9998 28.3335C13.8893 28.3308 11.8097 27.8193 9.93245 26.8414C9.87322 26.8119 9.82147 26.7691 9.78118 26.7161C9.74088 26.6632 9.71314 26.6015 9.70009 26.536L7.69056 11.9112C6.30497 11.4793 5.62939 10.9426 5.62939 10.2794C5.62939 8.33574 11.7784 7.75599 15.4616 7.70473Z" fill="white"/>
<path d="M15.4616 7.70473L15.481 9.10459L16.8616 9.08538V7.70473H15.4616ZM15.6191 1.82648L14.6223 0.843404L14.6223 0.843409L15.6191 1.82648ZM16.3798 1.82648L17.3766 0.843409L17.3765 0.843404L16.3798 1.82648ZM16.5373 7.70472H15.1373V9.08539L16.5179 9.10458L16.5373 7.70472ZM24.3133 11.9112L23.8966 10.5746L23.0477 10.8393L22.9264 11.7202L24.3133 11.9112ZM22.2994 26.536L20.9125 26.345L20.9124 26.3458L22.2994 26.536ZM22.2247 26.7277L23.3732 27.5282L23.3732 27.5282L22.2247 26.7277ZM22.0714 26.8632L22.7132 28.1075L22.7231 28.1023L22.0714 26.8632ZM15.9998 28.3335L16.0022 26.9335L16.0016 26.9335L15.9998 28.3335ZM9.93245 26.8414L10.5793 25.5998L10.5675 25.5936L10.5557 25.5877L9.93245 26.8414ZM9.78118 26.7161L8.667 27.5638L8.667 27.5638L9.78118 26.7161ZM9.70009 26.536L8.31312 26.7265L8.31884 26.7682L8.32704 26.8094L9.70009 26.536ZM7.69056 11.9112L9.07753 11.7206L8.95644 10.8394L8.10721 10.5746L7.69056 11.9112ZM16.8616 7.70473V2.21212H14.0616V7.70473H16.8616ZM16.8616 2.21212C16.8616 2.43258 16.7754 2.64785 16.6159 2.80956L14.6223 0.843409C14.2611 1.20968 14.0616 1.70238 14.0616 2.21212H16.8616ZM16.6159 2.80957C16.4557 2.97194 16.2344 3.06675 15.9994 3.06675V0.266748C15.4792 0.266748 14.9842 0.476479 14.6223 0.843404L16.6159 2.80957ZM15.9994 3.06675C15.7645 3.06675 15.5431 2.97193 15.383 2.80957L17.3765 0.843404C17.0147 0.476482 16.5197 0.266748 15.9994 0.266748V3.06675ZM15.383 2.80956C15.2235 2.64785 15.1373 2.43259 15.1373 2.21212H17.9373C17.9373 1.70238 17.7378 1.20968 17.3766 0.843409L15.383 2.80956ZM15.1373 2.21212V7.70472H17.9373V2.21212H15.1373ZM16.5179 9.10458C18.3179 9.12961 20.6825 9.28454 22.5638 9.65585C23.5175 9.84407 24.2488 10.0696 24.7077 10.3074C25.2479 10.5873 24.9701 10.6321 24.9701 10.2794H27.7701C27.7701 8.95485 26.7236 8.19831 25.9957 7.8212C25.1864 7.40194 24.1501 7.11492 23.106 6.90884C20.9917 6.49155 18.4399 6.33103 16.5568 6.30485L16.5179 9.10458ZM24.9701 10.2794C24.9701 10.1965 24.9943 10.1188 25.0235 10.0669C25.0474 10.0245 25.0542 10.0352 24.9902 10.0861C24.8452 10.2013 24.5196 10.3804 23.8966 10.5746L24.7299 13.2478C25.4925 13.01 26.1953 12.7049 26.7324 12.278C27.2989 11.8277 27.7701 11.1597 27.7701 10.2794H24.9701ZM22.9264 11.7202L20.9125 26.345L23.6864 26.7269L25.7002 12.1022L22.9264 11.7202ZM20.9124 26.3458C20.9329 26.1964 20.9886 26.0528 21.0761 25.9272L23.3732 27.5282C23.5401 27.2887 23.6471 27.0136 23.6865 26.7261L20.9124 26.3458ZM21.0761 25.9272C21.1637 25.8015 21.281 25.697 21.4197 25.6241L22.7231 28.1023C22.9838 27.9651 23.2063 27.7677 23.3732 27.5282L21.0761 25.9272ZM21.4296 25.619C19.7475 26.4867 17.8875 26.9368 16.0022 26.9335L15.9973 29.7335C18.3322 29.7376 20.6339 29.18 22.7132 28.1074L21.4296 25.619ZM16.0016 26.9335C14.1164 26.9311 12.2579 26.4743 10.5793 25.5998L9.28562 28.083C11.3614 29.1644 13.6622 29.7305 15.9979 29.7335L16.0016 26.9335ZM10.5557 25.5877C10.6903 25.6547 10.8062 25.7512 10.8954 25.8684L8.667 27.5638C8.83675 27.787 9.05613 27.9692 9.30924 28.095L10.5557 25.5877ZM10.8954 25.8684C10.9845 25.9856 11.0449 26.1205 11.0731 26.2626L8.32704 26.8094C8.38143 27.0825 8.49729 27.3408 8.667 27.5638L10.8954 25.8684ZM11.0871 26.3454L9.07753 11.7206L6.30359 12.1018L8.31312 26.7265L11.0871 26.3454ZM8.10721 10.5746C7.48389 10.3803 7.1564 10.2009 7.00982 10.0847C6.94491 10.0333 6.95143 10.0222 6.97531 10.0644C7.00467 10.1163 7.02939 10.1948 7.02939 10.2794H4.22939C4.22939 11.1628 4.70487 11.8308 5.27095 12.2793C5.80855 12.7053 6.51165 13.0101 7.2739 13.2478L8.10721 10.5746ZM7.02939 10.2794C7.02939 10.6321 6.7516 10.5873 7.29176 10.3074C7.75057 10.0697 8.4818 9.84414 9.43539 9.65592C11.3165 9.2846 13.681 9.12964 15.481 9.10459L15.4421 6.30486C13.559 6.33107 11.0073 6.49162 8.89317 6.90892C7.84911 7.115 6.8129 7.40202 6.00369 7.82128C5.27581 8.19839 4.22939 8.95492 4.22939 10.2794H7.02939Z" fill="white" mask="url(#path-1-outside-1_2637_45154)"/>
<path d="M25.9402 10.2792C25.9402 9.09682 21.4908 8.13696 16.0001 8.13696C10.5094 8.13696 6.06006 9.08373 6.06006 10.2792C6.06006 10.7635 6.81309 11.2129 8.07819 11.5881L10.1264 26.4703C11.9429 27.4193 13.9567 27.9145 16.0001 27.9145C18.0435 27.9145 20.0574 27.4193 21.8738 26.4703L23.9264 11.5706C25.1915 11.2129 25.9402 10.7635 25.9402 10.2792Z" fill="#F0F6F5"/>
<path d="M15.9998 28.3336C13.8893 28.3308 11.8097 27.8194 9.93245 26.8414C9.87323 26.812 9.82147 26.7691 9.78118 26.7162C9.74088 26.6632 9.71314 26.6016 9.70009 26.536L7.69056 11.9112C6.30497 11.4793 5.62939 10.9426 5.62939 10.2795C5.62939 8.23758 12.4153 7.70093 15.9998 7.70093C19.5842 7.70093 26.3701 8.23758 26.3701 10.2795C26.3701 10.9426 25.6989 11.4793 24.3133 11.9112L22.2994 26.536C22.29 26.6051 22.2643 26.6708 22.2247 26.7277C22.185 26.7847 22.1324 26.8311 22.0714 26.8632C20.1907 27.8333 18.1098 28.3373 15.9998 28.3336ZM10.522 26.1521C12.2257 27.0044 14.1 27.4477 15.9998 27.4477C17.8996 27.4477 19.7739 27.0044 21.4776 26.1521L23.4957 11.4967C23.5079 11.4125 23.5442 11.3338 23.6 11.2702C23.6558 11.2067 23.7287 11.161 23.8098 11.139C25.2212 10.7376 25.531 10.3449 25.531 10.2664C25.531 9.7559 22.2951 8.56044 16.0213 8.56044C9.74742 8.56044 6.49001 9.76899 6.49001 10.2795C6.49001 10.358 6.77831 10.7507 8.21123 11.1521C8.2915 11.1749 8.36351 11.2208 8.41851 11.2843C8.47351 11.3478 8.50913 11.4262 8.52105 11.5098L10.522 26.1521Z" fill="#3C291C"/>
<path d="M15.9995 12.365C14.6965 12.3622 13.3974 12.5086 12.1268 12.8013C11.247 13.0048 10.3839 13.2761 9.54492 13.6128C9.81745 15.5733 10.09 17.5323 10.3625 19.4898L11.2231 25.3842C11.8514 25.8205 13.5898 26.571 16.0425 26.5622C17.7075 26.6128 19.3549 26.2057 20.8103 25.3842C21.3353 21.5666 21.8818 17.4479 22.4111 13.6303C21.5723 13.2929 20.7091 13.0216 19.8292 12.8188C18.5734 12.523 17.2888 12.3708 15.9995 12.365Z" fill="url(#paint0_linear_2637_45154)"/>
<path d="M15.3619 16.5043L13.6873 15.9143C13.1889 15.7388 12.6445 16.0061 12.4714 16.5114L11.8895 18.2094C11.7164 18.7147 11.98 19.2666 12.4783 19.4422L14.153 20.0322C14.6514 20.2077 15.1957 19.9404 15.3689 19.4351L15.9508 17.7371C16.1239 17.2318 15.8603 16.6799 15.3619 16.5043Z" fill="white"/>
<path d="M15.9993 11.2348C15.8567 11.2348 15.7198 11.1774 15.619 11.0751C15.5181 10.9728 15.4614 10.8341 15.4614 10.6894V2.21212C15.4614 2.06748 15.5181 1.92876 15.619 1.82648C15.7198 1.72421 15.8567 1.66675 15.9993 1.66675C16.142 1.66675 16.2788 1.72421 16.3796 1.82648C16.4805 1.92876 16.5372 2.06748 16.5372 2.21212V10.6894C16.5372 10.8341 16.4805 10.9728 16.3796 11.0751C16.2788 11.1774 16.142 11.2348 15.9993 11.2348Z" fill="#FC7521"/>
<path d="M18.2449 20.9411L17.2982 21.0324C16.7729 21.083 16.3876 21.5557 16.4376 22.0883L16.5276 23.0482C16.5775 23.5807 17.0437 23.9714 17.5689 23.9207L18.5157 23.8295C19.0409 23.7789 19.4262 23.3061 19.3762 22.7736L19.2863 21.8137C19.2363 21.2812 18.7701 20.8905 18.2449 20.9411Z" fill="white"/>
<defs>
<linearGradient id="paint0_linear_2637_45154" x1="15.9995" y1="26.5622" x2="15.9995" y2="12.365" gradientUnits="userSpaceOnUse">
<stop stop-color="#8F543F"/>
<stop offset="1" stop-color="#501B0F"/>
</linearGradient>
</defs>
</svg>
