<svg width="20" height="20" viewBox="0 0 20 20" fill="none" xmlns="http://www.w3.org/2000/svg">
<g clip-path="url(#clip0_1278_5030)">
<path d="M6.45005 16.925C6.01671 16.925 5.59171 16.7917 5.22505 16.525C4.58338 16.0583 4.26671 15.275 4.40005 14.4917L4.88338 11.6833L2.83338 9.67501C2.25838 9.11667 2.05838 8.30001 2.30005 7.54168C2.54171 6.78334 3.19171 6.23334 3.98338 6.12501L6.82505 5.70834L8.14171 3.11667C8.49171 2.40834 9.20838 1.96667 10 1.96667C10.7917 1.96667 11.5084 2.40834 11.8667 3.11667L13.15 5.69168L16.025 6.12501C16.8167 6.24167 17.4584 6.78334 17.7084 7.54168C17.95 8.30001 17.75 9.12501 17.175 9.67501L15.1334 11.6583L15.6084 14.4917C15.7417 15.275 15.425 16.0583 14.7834 16.525C14.1417 16.9917 13.3 17.0583 12.5917 16.6917L10.025 15.3583L7.41671 16.6917C7.10838 16.85 6.78338 16.925 6.45838 16.925H6.45005ZM10 3.45834C9.89171 3.45834 9.62505 3.49167 9.48338 3.78334L8.20005 6.35001C7.97505 6.80001 7.54171 7.11668 7.04171 7.18334L4.20005 7.60001C3.87505 7.65001 3.75838 7.89168 3.72505 8.00001C3.69171 8.10001 3.64171 8.36668 3.87505 8.60001L5.92505 10.5833C6.29171 10.9333 6.45005 11.4417 6.36671 11.9417L5.88338 14.75C5.82505 15.075 6.02505 15.2583 6.11671 15.3167C6.20838 15.375 6.44171 15.5167 6.73338 15.3667L9.30005 14.0333C9.75005 13.8 10.275 13.8 10.725 14.0333L13.2917 15.3667C13.5834 15.5167 13.8167 15.3833 13.9084 15.3167C14 15.25 14.1917 15.0667 14.1417 14.75L13.6584 11.9417C13.575 11.4417 13.7417 10.9333 14.1 10.5833L16.1417 8.60001C16.375 8.37501 16.325 8.10834 16.2917 8.00001C16.2584 7.90001 16.1417 7.65001 15.825 7.60001L12.9834 7.18334C12.4834 7.10834 12.0584 6.80001 11.8334 6.35001L10.55 3.77501C10.4084 3.48334 10.1334 3.45001 10.025 3.45001L10 3.45834Z" fill="#333333"/>
</g>
<defs>
<clipPath id="clip0_1278_5030">
<rect width="20" height="20" fill="white"/>
</clipPath>
</defs>
</svg>
