<svg width="56" height="56" viewBox="0 0 56 56" fill="none" xmlns="http://www.w3.org/2000/svg">
<path d="M43.4 7.81665H12.6C9.49667 7.81665 7 10.3133 7 13.4167V46.9933C7 48.0433 8.26 48.5567 8.98333 47.81L14.9567 41.8367C15.8433 40.95 17.01 40.46 18.2467 40.46H43.3767C46.48 40.46 48.9767 37.9633 48.9767 34.86V13.4167C48.9767 10.3133 46.48 7.81665 43.3767 7.81665H43.4ZM19.1333 26.4833C17.85 26.4833 16.8 25.4333 16.8 24.15C16.8 22.8667 17.85 21.8167 19.1333 21.8167C20.4167 21.8167 21.4667 22.8667 21.4667 24.15C21.4667 25.4333 20.4167 26.4833 19.1333 26.4833ZM28 26.4833C26.7167 26.4833 25.6667 25.4333 25.6667 24.15C25.6667 22.8667 26.7167 21.8167 28 21.8167C29.2833 21.8167 30.3333 22.8667 30.3333 24.15C30.3333 25.4333 29.2833 26.4833 28 26.4833ZM36.8667 26.4833C35.5833 26.4833 34.5333 25.4333 34.5333 24.15C34.5333 22.8667 35.5833 21.8167 36.8667 21.8167C38.15 21.8167 39.2 22.8667 39.2 24.15C39.2 25.4333 38.15 26.4833 36.8667 26.4833Z" fill="#E3E3E3"/>
</svg>
