<svg width="28" height="28" viewBox="0 0 28 28" fill="none" xmlns="http://www.w3.org/2000/svg">
<ellipse cx="14" cy="12.25" rx="4.26829" ry="4.375" fill="white"/>
<path d="M14 13.9997C15.252 13.9997 16.2764 12.9497 16.2764 11.6663C16.2764 10.383 15.252 9.33301 14 9.33301C12.7479 9.33301 11.7236 10.383 11.7236 11.6663C11.7236 12.9497 12.7479 13.9997 14 13.9997ZM14 2.33301C18.7805 2.33301 23.1057 6.08967 23.1057 11.8997C23.1057 15.6097 20.317 19.973 14.7512 25.0013C14.3187 25.3863 13.6699 25.3863 13.2374 25.0013C7.6829 19.973 4.89429 15.6097 4.89429 11.8997C4.89429 6.08967 9.21949 2.33301 14 2.33301Z" fill="#FC6406"/>
</svg>
