<svg width="24" height="24" viewBox="0 0 24 24" fill="none" xmlns="http://www.w3.org/2000/svg">
<path d="M7.29004 6C8.39461 6 9.29004 5.10457 9.29004 4C9.29004 2.89543 8.39461 2 7.29004 2C6.18547 2 5.29004 2.89543 5.29004 4C5.29004 5.10457 6.18547 6 7.29004 6Z" fill="#5CA5E9"/>
<path d="M8.27004 7H6.31004C4.92004 7 3.79004 8.13 3.79004 9.52V13.57C3.79004 14.56 4.38004 15.41 5.23004 15.79C5.26004 15.81 5.29004 15.84 5.29004 15.88V20C5.29004 21.1 6.19004 22 7.29004 22C8.39004 22 9.29004 21.1 9.29004 20V15.88C9.29004 15.88 9.31004 15.81 9.35004 15.79C10.2 15.41 10.79 14.56 10.79 13.57V9.52C10.79 8.13 9.66004 7 8.27004 7Z" fill="#5CA5E9"/>
<path d="M16.21 6C17.3145 6 18.21 5.10457 18.21 4C18.21 2.89543 17.3145 2 16.21 2C15.1054 2 14.21 2.89543 14.21 4C14.21 5.10457 15.1054 6 16.21 6Z" fill="#ED746D"/>
<path d="M20.11 14.32L18.17 8.44C17.89 7.58 17.1 7 16.21 7C15.32 7 14.53 7.58 14.25 8.44L12.31 14.32C12.04 15.15 12.65 16 13.53 16H14.12C14.18 16 14.22 16.05 14.22 16.1V19.99C14.22 21.09 15.12 21.99 16.22 21.99C17.32 21.99 18.22 21.09 18.22 19.99V16.1C18.22 16.04 18.27 16 18.32 16H18.91C19.78 16 20.4 15.15 20.13 14.32H20.11Z" fill="#ED746D"/>
</svg>
