<svg width="24" height="24" viewBox="0 0 24 24" fill="none" xmlns="http://www.w3.org/2000/svg">
<path d="M13.08 7.26969L16.43 3.92969" stroke="#C7CACF" stroke-width="2" stroke-linecap="round" stroke-linejoin="round"/>
<path d="M16.73 10.9203L20.07 7.57031" stroke="#C7CACF" stroke-width="2" stroke-linecap="round" stroke-linejoin="round"/>
<path d="M18.55 11.3202L12.68 5.45016C11.71 4.48016 10.12 4.48016 9.13998 5.45016L6.37998 8.21016C4.85998 9.73016 4.55998 12.0002 5.45998 13.8302C5.57998 14.0702 5.54998 14.3502 5.35998 14.5402L4.59998 15.3002C3.68998 16.2102 3.68998 17.6702 4.59998 18.5802L5.41998 19.4002C5.86998 19.8502 6.46998 20.0802 7.05998 20.0802C7.64998 20.0802 8.24998 19.8502 8.69998 19.4002L9.45998 18.6402C9.64998 18.4502 9.92998 18.4202 10.17 18.5402C11.29 19.1002 12.61 19.2302 13.95 18.7802C14.56 18.5702 15.42 17.9902 15.88 17.5302L18.55 14.8602C19.02 14.3902 19.28 13.7602 19.28 13.0902C19.28 12.4202 19.02 11.7902 18.55 11.3202Z" fill="#888D95"/>
</svg>
