<svg width="24" height="24" viewBox="0 0 24 24" fill="none" xmlns="http://www.w3.org/2000/svg">
<path d="M10.0001 17.9C9.5001 17.9 9.1001 17.5 9.1001 17V10C9.1001 9.5 9.5001 9.1 10.0001 9.1C10.5001 9.1 10.9001 9.5 10.9001 10V17C10.9001 17.5 10.5001 17.9 10.0001 17.9Z" fill="#333333"/>
<path d="M14.0001 17.9C13.5001 17.9 13.1001 17.5 13.1001 17V10C13.1001 9.5 13.5001 9.1 14.0001 9.1C14.5001 9.1 14.9001 9.5 14.9001 10V17C14.9001 17.5 14.5001 17.9 14.0001 17.9Z" fill="#333333"/>
<path d="M19.5001 5H17.0001V4.51C17.0001 3.12 15.8801 2 14.4901 2H9.5101C8.1201 2 7.0001 3.12 7.0001 4.51V5H4.5001C4.0001 5 3.6001 5.4 3.6001 5.9C3.6001 6.4 4.0001 6.8 4.5001 6.8H5.0001V19C5.0001 20.66 6.3401 22 8.0001 22H16.0001C17.6601 22 19.0001 20.66 19.0001 19V6.8H19.5001C20.0001 6.8 20.4001 6.4 20.4001 5.9C20.4001 5.4 20.0001 5 19.5001 5V5ZM8.8001 4.51C8.8001 4.12 9.1201 3.8 9.5101 3.8H14.4901C14.8801 3.8 15.2001 4.12 15.2001 4.51V5H8.8001V4.51V4.51ZM17.2001 19C17.2001 19.66 16.6601 20.2 16.0001 20.2H8.0001C7.3401 20.2 6.8001 19.66 6.8001 19V6.8H17.2001V19V19Z" fill="#333333"/>
</svg>
