<svg width="16" height="16" viewBox="0 0 16 16" fill="none" xmlns="http://www.w3.org/2000/svg">
<g clip-path="url(#clip0_1072_4931)">
<path d="M13.3333 11.5533H12.1C11.8533 10.8466 11.1867 10.34 10.3933 10.34C9.59998 10.34 8.93998 10.8466 8.68665 11.5533H2.66665C2.33332 11.5533 2.06665 11.82 2.06665 12.1533C2.06665 12.4866 2.33332 12.7533 2.66665 12.7533H8.69332C8.93998 13.46 9.60665 13.9666 10.4 13.9666C11.1933 13.9666 11.8533 13.46 12.1067 12.7533H13.34C13.6733 12.7533 13.94 12.4866 13.94 12.1533C13.94 11.82 13.6733 11.5533 13.34 11.5533H13.3333ZM10.3933 12.7666C10.0533 12.7666 9.77998 12.4933 9.77998 12.1533C9.77998 11.8133 10.0533 11.54 10.3933 11.54C10.7333 11.54 11.0067 11.8133 11.0067 12.1533C11.0067 12.4933 10.7333 12.7666 10.3933 12.7666V12.7666Z" fill="#333333"/>
<path d="M13.3333 7.5533H5.58665C5.33998 6.84663 4.67332 6.33997 3.87998 6.33997C2.87998 6.33997 2.06665 7.1533 2.06665 8.1533C2.06665 9.1533 2.87998 9.96663 3.87998 9.96663C4.67332 9.96663 5.33332 9.45997 5.58665 8.7533H13.3333C13.6666 8.7533 13.9333 8.48663 13.9333 8.1533C13.9333 7.81997 13.6666 7.5533 13.3333 7.5533ZM3.87998 8.76663C3.53998 8.76663 3.26665 8.4933 3.26665 8.1533C3.26665 7.8133 3.53998 7.53997 3.87998 7.53997C4.21998 7.53997 4.49332 7.8133 4.49332 8.1533C4.49332 8.4933 4.21998 8.76663 3.87998 8.76663Z" fill="#333333"/>
<path d="M13.3333 3.24666H12.06C11.8133 2.53999 11.1467 2.03333 10.3533 2.03333C9.55998 2.03333 8.89998 2.53999 8.64665 3.24666H2.66665C2.33332 3.24666 2.06665 3.51333 2.06665 3.84666C2.06665 4.17999 2.33332 4.44666 2.66665 4.44666H8.65332C8.89998 5.15333 9.56665 5.65999 10.36 5.65999C11.1533 5.65999 11.8133 5.15333 12.0667 4.44666H13.34C13.6733 4.44666 13.94 4.17999 13.94 3.84666C13.94 3.51333 13.6733 3.24666 13.34 3.24666H13.3333ZM10.3533 4.45999C10.0133 4.45999 9.73998 4.18666 9.73998 3.84666C9.73998 3.50666 10.0133 3.23333 10.3533 3.23333C10.6933 3.23333 10.9667 3.50666 10.9667 3.84666C10.9667 4.18666 10.6933 4.45999 10.3533 4.45999V4.45999Z" fill="#333333"/>
</g>
<defs>
<clipPath id="clip0_1072_4931">
<rect width="16" height="16" fill="white"/>
</clipPath>
</defs>
</svg>
