<svg width="16" height="16" viewBox="0 0 16 16" fill="none" xmlns="http://www.w3.org/2000/svg">
<g clip-path="url(#clip0_1266_4989)">
<path d="M0 8C0 12.4183 3.58172 16 8 16C12.4183 16 16 12.4183 16 8C16 3.58172 12.4183 0 8 0C3.58172 0 0 3.58172 0 8Z" fill="black"/>
<path d="M8.10849 4.65864C8.54577 4.65864 9.09391 4.36301 9.42032 3.96885C9.71595 3.61163 9.93151 3.11277 9.93151 2.6139C9.93151 2.54615 9.92535 2.4784 9.91303 2.42297C9.42648 2.44145 8.84139 2.74939 8.49034 3.16204C8.21319 3.47614 7.96068 3.96885 7.96068 4.47387C7.96068 4.54778 7.97299 4.62168 7.97915 4.64632C8.00995 4.65248 8.05922 4.65864 8.10849 4.65864ZM6.56878 12.1109C7.16618 12.1109 7.43102 11.7105 8.17624 11.7105C8.93378 11.7105 9.10007 12.0985 9.76522 12.0985C10.4181 12.0985 10.8553 11.495 11.268 10.9037C11.7299 10.2262 11.9208 9.56108 11.9331 9.53029C11.89 9.51797 10.6398 9.00679 10.6398 7.57178C10.6398 6.32769 11.6252 5.76723 11.6806 5.72412C11.0278 4.78797 10.0362 4.76334 9.76522 4.76334C9.03232 4.76334 8.43491 5.20677 8.05922 5.20677C7.65273 5.20677 7.11691 4.78797 6.48255 4.78797C5.27542 4.78797 4.0498 5.78571 4.0498 7.67032C4.0498 8.8405 4.50556 10.0784 5.06602 10.8791C5.54641 11.5566 5.96521 12.1109 6.56878 12.1109Z" fill="white"/>
</g>
<defs>
<clipPath id="clip0_1266_4989">
<rect width="16" height="16" fill="white"/>
</clipPath>
</defs>
</svg>
