<svg width="16" height="16" viewBox="0 0 16 16" fill="none" xmlns="http://www.w3.org/2000/svg">
<g clip-path="url(#clip0_1253_5031)">
<rect width="16" height="16" rx="4" fill="#131313"/>
<path d="M12.6333 4.38002V4.17336C12.6333 3.50002 12.0866 2.96002 11.4199 2.96002H3.54659C2.87325 2.96002 2.33325 3.50669 2.33325 4.17336V8.52002C2.33325 11.3667 4.64659 13.6667 7.49325 13.66C10.1799 13.66 12.4133 11.5867 12.6199 8.90669H12.6333C13.8866 8.90669 14.8999 7.89336 14.8999 6.64002C14.8999 5.38669 13.8866 4.37336 12.6333 4.37336V4.38002ZM12.6333 7.68002V5.62002C13.1999 5.62002 13.6599 6.08002 13.6599 6.64669C13.6599 7.21336 13.1999 7.67336 12.6333 7.67336V7.68002Z" fill="#FC7521"/>
<path d="M8.51984 4.17336H4.00651C3.75318 4.16003 3.53318 4.36003 3.52651 4.62003C3.51318 4.87336 3.71318 5.09336 3.97318 5.10003C3.98651 5.10003 3.99984 5.10003 4.01318 5.10003H8.52651C8.77984 5.11336 8.99984 4.91336 9.00651 4.65336C9.01984 4.40003 8.81984 4.18003 8.55984 4.17336C8.54651 4.17336 8.53318 4.17336 8.51984 4.17336Z" fill="white"/>
<path d="M7.30004 6.02667H4.00671C3.75337 6.02667 3.54004 6.23334 3.54004 6.49334C3.54004 6.75334 3.74671 6.96001 4.00671 6.96001H7.30004C7.55337 6.96001 7.76671 6.75334 7.76671 6.49334C7.76671 6.23334 7.56004 6.02667 7.30004 6.02667Z" fill="white"/>
</g>
<defs>
<clipPath id="clip0_1253_5031">
<rect width="16" height="16" rx="4" fill="white"/>
</clipPath>
</defs>
</svg>
