<svg width="16" height="16" viewBox="0 0 16 16" fill="none" xmlns="http://www.w3.org/2000/svg">
<g clip-path="url(#clip0_980_5575)">
<path d="M8.84667 8.00002L12.4267 4.42668C12.4927 4.37315 12.5467 4.30635 12.5852 4.23061C12.6237 4.15488 12.6459 4.07189 12.6503 3.98703C12.6547 3.90217 12.6413 3.81733 12.6108 3.73801C12.5803 3.65869 12.5335 3.58665 12.4735 3.52657C12.4134 3.46648 12.3413 3.41969 12.262 3.38922C12.1827 3.35875 12.0978 3.34528 12.013 3.34969C11.9281 3.35411 11.8451 3.37629 11.7694 3.41482C11.6937 3.45335 11.6269 3.50736 11.5733 3.57335L8.00001 7.15335L4.42667 3.57335C4.31017 3.47884 4.1628 3.43085 4.01299 3.43864C3.86318 3.44643 3.72157 3.50944 3.6155 3.61551C3.50943 3.72158 3.44642 3.86319 3.43863 4.013C3.43084 4.16281 3.47883 4.31018 3.57334 4.42668L7.15334 8.00002L3.57334 11.5733C3.46097 11.6869 3.39795 11.8402 3.39795 12C3.39795 12.1598 3.46097 12.3131 3.57334 12.4267C3.68774 12.5375 3.84075 12.5994 4.00001 12.5994C4.15926 12.5994 4.31227 12.5375 4.42667 12.4267L8.00001 8.84668L11.5733 12.4267C11.6877 12.5375 11.8408 12.5994 12 12.5994C12.1593 12.5994 12.3123 12.5375 12.4267 12.4267C12.539 12.3131 12.6021 12.1598 12.6021 12C12.6021 11.8402 12.539 11.6869 12.4267 11.5733L8.84667 8.00002Z" fill="#333333"/>
</g>
<defs>
<clipPath id="clip0_980_5575">
<rect width="16" height="16" fill="white"/>
</clipPath>
</defs>
</svg>
