<svg width="16" height="16" viewBox="0 0 16 16" fill="none" xmlns="http://www.w3.org/2000/svg">
<path d="M11.6875 6.5C11.6867 6.64925 11.6285 6.79247 11.525 6.9L8.625 9.8C8.45723 9.96192 8.23316 10.0524 8 10.0524C7.76684 10.0524 7.54277 9.96192 7.375 9.8L4.5 6.93125C4.42269 6.82326 4.38561 6.69163 4.39519 6.55917C4.40476 6.42671 4.46039 6.30178 4.55242 6.20604C4.64446 6.11029 4.76709 6.04977 4.89907 6.03497C5.03105 6.02017 5.16404 6.05202 5.275 6.125L8 8.84375L10.725 6.125C10.8315 6.01966 10.9752 5.96057 11.125 5.96057C11.2748 5.96057 11.4185 6.01966 11.525 6.125C11.6228 6.22621 11.6805 6.35945 11.6875 6.5V6.5Z" fill="#333333"/>
</svg>
