<svg width="16" height="16" viewBox="0 0 16 16" fill="none" xmlns="http://www.w3.org/2000/svg">
<g clip-path="url(#clip0_749_4475)">
<path d="M8.00017 11.3C7.62462 11.2967 7.26542 11.1459 7.00017 10.88L2.36017 6.28998C2.20418 6.11726 2.12028 5.89134 2.12574 5.65867C2.1312 5.426 2.2256 5.20427 2.38952 5.03906C2.55345 4.87385 2.77444 4.77773 3.00707 4.77046C3.23969 4.76319 3.46625 4.84533 3.64017 4.99998L8.00017 9.34998L12.3602 4.99998C12.4405 4.90099 12.5407 4.81998 12.6543 4.76219C12.7679 4.70439 12.8924 4.67111 13.0196 4.6645C13.1469 4.65788 13.2742 4.67808 13.3932 4.72378C13.5122 4.76948 13.6202 4.83967 13.7103 4.9298C13.8005 5.01993 13.8707 5.12799 13.9164 5.24697C13.9621 5.36596 13.9823 5.49321 13.9757 5.6205C13.969 5.74779 13.9358 5.87227 13.878 5.98588C13.8202 6.09948 13.7392 6.19968 13.6402 6.27998L9.00017 10.88C8.73555 11.1468 8.37595 11.2978 8.00017 11.3V11.3Z" fill="#333333"/>
</g>
<defs>
<clipPath id="clip0_749_4475">
<rect width="16" height="16" fill="white"/>
</clipPath>
</defs>
</svg>
