<svg width="16" height="16" viewBox="0 0 16 16" fill="none" xmlns="http://www.w3.org/2000/svg">
<g clip-path="url(#clip0_749_4483)">
<path d="M11.07 5.77997V5.91997C11.07 6.73997 10.74 7.27997 9.56004 8.35997C8.83004 9.01997 8.81004 9.20997 8.73004 9.72997C8.67004 10.13 8.39004 10.43 8.00004 10.43C7.50004 10.43 7.25004 10.1 7.23004 9.63997C7.20004 8.85997 7.37004 8.41997 8.28004 7.61997C9.33004 6.70997 9.47004 6.42997 9.47004 5.92997V5.86997C9.47004 5.33997 8.92004 4.68997 7.92004 4.68997C7.25004 4.68997 6.75004 5.01997 6.48004 5.49997C6.29004 5.81997 6.06004 6.21997 5.51004 6.21997C5.12004 6.21997 4.72004 5.68997 5.08004 4.96997C5.44004 4.24997 6.47004 3.15997 7.95004 3.15997C10 3.15997 11.09 4.40997 11.09 5.78997L11.07 5.77997ZM8.85004 11.98C8.85004 12.48 8.47004 12.85 7.97004 12.85C7.47004 12.85 7.09004 12.47 7.09004 11.98C7.09004 11.49 7.47004 11.1 7.97004 11.1C8.47004 11.1 8.85004 11.48 8.85004 11.98Z" fill="#333333"/>
<path d="M8 1.44C11.62 1.44 14.56 4.38 14.56 8C14.56 11.62 11.62 14.56 8 14.56C4.38 14.56 1.44 11.62 1.44 8C1.44 4.38 4.38 1.44 8 1.44ZM8 0C3.58 0 0 3.58 0 8C0 12.42 3.58 16 8 16C12.42 16 16 12.42 16 8C16 3.58 12.42 0 8 0Z" fill="#333333"/>
</g>
<defs>
<clipPath id="clip0_749_4483">
<rect width="16" height="16" fill="white"/>
</clipPath>
</defs>
</svg>
