<svg width="16" height="16" viewBox="0 0 16 16" fill="none" xmlns="http://www.w3.org/2000/svg">
<g clip-path="url(#clip0_749_4481)">
<path d="M3.25325 5.33337H2.74659C1.96602 5.33337 1.33325 5.96614 1.33325 6.74671V11.92C1.33325 12.7006 1.96602 13.3334 2.74659 13.3334H3.25325C4.03381 13.3334 4.66658 12.7006 4.66658 11.92V6.74671C4.66658 5.96614 4.03381 5.33337 3.25325 5.33337Z" fill="#333333"/>
<path d="M7.42659 13.3333C6.27325 13.3333 5.33325 12.3867 5.33325 11.22V6.50668C5.33325 6.00001 5.47992 5.50001 5.75992 5.07335L7.72659 2.05335C8.41325 1.27335 9.69325 1.76001 9.69325 2.80668L9.75992 5.02001C9.76659 5.33335 10.0266 5.58668 10.3399 5.58668H13.1733C14.0933 5.56001 14.8066 6.40001 14.6399 7.32001L13.7133 11.6667C13.5066 12.64 12.6533 13.34 11.6666 13.34H7.41992L7.42659 13.3333Z" fill="#333333"/>
</g>
<defs>
<clipPath id="clip0_749_4481">
<rect width="16" height="16" fill="white"/>
</clipPath>
</defs>
</svg>
