<svg width="16" height="16" viewBox="0 0 16 16" fill="none" xmlns="http://www.w3.org/2000/svg">
<g clip-path="url(#clip0_749_4478)">
<path d="M10.4002 13.9C10.1614 13.8987 9.9322 13.8056 9.76016 13.64L5.12016 8.99999C4.86109 8.73155 4.71631 8.37305 4.71631 7.99999C4.71631 7.62692 4.86109 7.26842 5.12016 6.99999L9.71016 2.39999C9.78358 2.28837 9.88067 2.19429 9.99454 2.12442C10.1084 2.05455 10.2363 2.01061 10.369 1.99572C10.5018 1.98083 10.6362 1.99536 10.7627 2.03827C10.8892 2.08117 11.0048 2.15141 11.1011 2.244C11.1974 2.33658 11.2721 2.44923 11.32 2.57395C11.3679 2.69868 11.3877 2.83241 11.3781 2.96566C11.3684 3.09891 11.3296 3.2284 11.2643 3.34495C11.199 3.46149 11.1088 3.56222 11.0002 3.63999L6.65016 7.99999L11.0002 12.36C11.1687 12.5304 11.2632 12.7603 11.2632 13C11.2632 13.2396 11.1687 13.4696 11.0002 13.64C10.8382 13.7964 10.625 13.8888 10.4002 13.9Z" fill="#333333"/>
</g>
<defs>
<clipPath id="clip0_749_4478">
<rect width="16" height="16" fill="white"/>
</clipPath>
</defs>
</svg>
