<svg width="16" height="16" viewBox="0 0 16 16" fill="none" xmlns="http://www.w3.org/2000/svg">
<g clip-path="url(#clip0_749_4472)">
<path d="M9.64022 12.63L13.2002 3.99999C13.2743 3.83207 13.296 3.64566 13.2622 3.46523C13.2285 3.28481 13.141 3.1188 13.0112 2.98901C12.8814 2.85921 12.7154 2.77171 12.535 2.73797C12.3545 2.70424 12.1681 2.72586 12.0002 2.79999L3.37022 6.36999C3.21233 6.44041 3.07837 6.5553 2.98471 6.70061C2.89104 6.84593 2.84173 7.01537 2.84279 7.18825C2.84385 7.36113 2.89524 7.52996 2.99068 7.67412C3.08612 7.81827 3.22148 7.9315 3.38022 7.99999L6.19022 9.15999C6.34276 9.21822 6.48129 9.308 6.59675 9.42346C6.7122 9.53891 6.80199 9.67744 6.86022 9.82999L8.00022 12.62C8.07059 12.7781 8.18507 12.9126 8.32993 13.0073C8.4748 13.1021 8.64391 13.153 8.81699 13.1541C8.99008 13.1551 9.15979 13.1062 9.3058 13.0133C9.45182 12.9203 9.56793 12.7873 9.64022 12.63Z" fill="#333333"/>
</g>
<defs>
<clipPath id="clip0_749_4472">
<rect width="16" height="16" fill="white"/>
</clipPath>
</defs>
</svg>
