<svg width="16" height="16" viewBox="0 0 16 16" fill="none" xmlns="http://www.w3.org/2000/svg">
<g clip-path="url(#clip0_4123_93150)">
<path d="M8 1.44C11.62 1.44 14.56 4.38 14.56 8C14.56 11.62 11.62 14.56 8 14.56C4.38 14.56 1.44 11.62 1.44 8C1.44 4.38 4.38 1.44 8 1.44ZM8 0C3.58 0 0 3.58 0 8C0 12.42 3.58 16 8 16C12.42 16 16 12.42 16 8C16 3.58 12.42 0 8 0Z" fill="#646464"/>
<path d="M8.88 11.9598C8.88 12.4598 8.5 12.8298 8 12.8298C7.5 12.8298 7.12 12.4498 7.12 11.9598C7.12 11.4698 7.5 11.0798 8 11.0798C8.5 11.0798 8.88 11.4598 8.88 11.9598Z" fill="#646464"/>
<path d="M8.90003 4.15991L8.69003 9.68991C8.68003 10.2299 8.34003 10.4099 7.99003 10.4099C7.64003 10.4099 7.31003 10.2299 7.29003 9.68991L7.08003 4.15991C7.07003 3.58991 7.44003 3.15991 7.98003 3.15991C8.52003 3.15991 8.89003 3.58991 8.88003 4.15991H8.90003Z" fill="#646464"/>
</g>
<defs>
<clipPath id="clip0_4123_93150">
<rect width="16" height="16" fill="white"/>
</clipPath>
</defs>
</svg>
