<svg width="16" height="16" viewBox="0 0 16 16" fill="none" xmlns="http://www.w3.org/2000/svg">
<g clip-path="url(#clip0_4090_70399)">
<path d="M5.5999 2.1001C5.8387 2.10138 6.06786 2.19448 6.2399 2.3601L10.8799 7.0001C11.139 7.26853 11.2838 7.62704 11.2838 8.0001C11.2838 8.37316 11.139 8.73166 10.8799 9.0001L6.2899 13.6001C6.11712 13.7238 5.90651 13.7831 5.69458 13.7678C5.48264 13.7525 5.28275 13.6635 5.12956 13.5162C4.97637 13.369 4.87954 13.1727 4.85586 12.9616C4.83217 12.7504 4.88313 12.5376 4.9999 12.3601L9.3499 8.0001L4.9999 3.6401C4.83135 3.46973 4.73682 3.23975 4.73682 3.0001C4.73682 2.76044 4.83135 2.53047 4.9999 2.3601C5.16183 2.20366 5.37502 2.11128 5.5999 2.1001Z" fill="#ACACAC"/>
</g>
<defs>
<clipPath id="clip0_4090_70399">
<rect width="16" height="16" fill="white"/>
</clipPath>
</defs>
</svg>
