<svg width="16" height="16" viewBox="0 0 16 16" fill="none" xmlns="http://www.w3.org/2000/svg">
<g clip-path="url(#clip0_749_4477)">
<path d="M5.5999 2.09998C5.8387 2.10126 6.06786 2.19435 6.2399 2.35998L10.8799 6.99998C11.139 7.26841 11.2838 7.62691 11.2838 7.99998C11.2838 8.37304 11.139 8.73154 10.8799 8.99998L6.2899 13.6C6.11712 13.7237 5.90651 13.783 5.69458 13.7677C5.48264 13.7524 5.28275 13.6634 5.12956 13.5161C4.97637 13.3688 4.87954 13.1726 4.85586 12.9615C4.83217 12.7503 4.88313 12.5375 4.9999 12.36L9.3499 7.99998L4.9999 3.63998C4.83135 3.46961 4.73682 3.23963 4.73682 2.99998C4.73682 2.76032 4.83135 2.53034 4.9999 2.35998C5.16183 2.20354 5.37502 2.11115 5.5999 2.09998V2.09998Z" fill="#333333"/>
</g>
<defs>
<clipPath id="clip0_749_4477">
<rect width="16" height="16" fill="white"/>
</clipPath>
</defs>
</svg>
