<svg width="16" height="16" viewBox="0 0 16 16" fill="none" xmlns="http://www.w3.org/2000/svg">
<g clip-path="url(#clip0_749_4482)">
<path d="M8 1.44C11.62 1.44 14.56 4.38 14.56 8C14.56 11.62 11.62 14.56 8 14.56C4.38 14.56 1.44 11.62 1.44 8C1.44 4.38 4.38 1.44 8 1.44ZM8 0C3.58 0 0 3.58 0 8C0 12.42 3.58 16 8 16C12.42 16 16 12.42 16 8C16 3.58 12.42 0 8 0Z" fill="#333333"/>
<path d="M8.88012 11.96C8.88012 12.46 8.50012 12.83 8.00012 12.83C7.50012 12.83 7.12012 12.45 7.12012 11.96C7.12012 11.47 7.50012 11.08 8.00012 11.08C8.50012 11.08 8.88012 11.46 8.88012 11.96Z" fill="#333333"/>
<path d="M8.90003 4.15997L8.69003 9.68997C8.68003 10.23 8.34003 10.41 7.99003 10.41C7.64003 10.41 7.31003 10.23 7.29003 9.68997L7.08003 4.15997C7.07003 3.58997 7.44003 3.15997 7.98003 3.15997C8.52003 3.15997 8.89003 3.58997 8.88003 4.15997H8.90003Z" fill="#333333"/>
</g>
<defs>
<clipPath id="clip0_749_4482">
<rect width="16" height="16" fill="white"/>
</clipPath>
</defs>
</svg>
