<svg width="16" height="16" viewBox="0 0 16 16" fill="none" xmlns="http://www.w3.org/2000/svg">
<g clip-path="url(#clip0_749_4480)">
<path d="M5.00989 2.24C4.94989 2.18 4.88989 2.14 4.80989 2.11C4.65989 2.05 4.49989 2.05 4.34989 2.11C4.27989 2.14 4.20989 2.18 4.14989 2.24L1.49989 4.91C1.26989 5.14 1.26989 5.52 1.49989 5.76C1.72989 5.99 2.10989 5.99 2.34989 5.76L3.98989 4.12V13.33C3.98989 13.66 4.25989 13.93 4.58989 13.93C4.91989 13.93 5.18989 13.66 5.18989 13.33V4.12L6.82989 5.76C6.94989 5.88 7.09989 5.94 7.24989 5.94C7.39989 5.94 7.55989 5.88 7.66989 5.76C7.89989 5.53 7.89989 5.15 7.66989 4.91L4.99989 2.24H5.00989Z" fill="#333333"/>
<path d="M14.5 10.24C14.27 10.01 13.89 10.01 13.65 10.24L12.01 11.88V2.67001C12.01 2.34001 11.74 2.07001 11.41 2.07001C11.08 2.07001 10.81 2.34001 10.81 2.67001V11.88L9.16996 10.24C8.93996 10.01 8.55996 10.01 8.31996 10.24C8.08996 10.47 8.08996 10.85 8.31996 11.09L10.99 13.76C11.05 13.82 11.11 13.86 11.18 13.89C11.25 13.92 11.33 13.94 11.41 13.94C11.49 13.94 11.57 13.92 11.64 13.89C11.71 13.86 11.78 13.82 11.83 13.76L14.5 11.09C14.73 10.86 14.73 10.48 14.5 10.24Z" fill="#333333"/>
</g>
<defs>
<clipPath id="clip0_749_4480">
<rect width="16" height="16" fill="white"/>
</clipPath>
</defs>
</svg>
