<svg width="16" height="16" viewBox="0 0 16 16" fill="none" xmlns="http://www.w3.org/2000/svg">
<g clip-path="url(#clip0_914_5517)">
<path d="M13.6868 12.8333L10.3534 9.53334C11.0556 8.60903 11.3801 7.45228 11.261 6.29762C11.1419 5.14296 10.5882 4.07678 9.7121 3.31525C8.83604 2.55371 7.70317 2.1538 6.54317 2.19659C5.38317 2.23938 4.28285 2.72168 3.46527 3.54569C2.6477 4.3697 2.17405 5.47378 2.14036 6.63407C2.10666 7.79437 2.51545 8.92407 3.28383 9.79414C4.05221 10.6642 5.1227 11.2095 6.27826 11.3196C7.43382 11.4296 8.58798 11.0961 9.50676 10.3867L12.8001 13.68C12.8557 13.736 12.9218 13.7806 12.9946 13.8111C13.0674 13.8416 13.1455 13.8574 13.2244 13.8577C13.3033 13.858 13.3816 13.8428 13.4546 13.8129C13.5276 13.7829 13.5941 13.7389 13.6501 13.6833C13.7061 13.6277 13.7507 13.5617 13.7811 13.4889C13.8116 13.4161 13.8275 13.338 13.8278 13.259C13.8281 13.1801 13.8129 13.1019 13.783 13.0288C13.753 12.9558 13.709 12.8894 13.6534 12.8333H13.6868ZM6.7401 10.1667C6.06764 10.1667 5.41028 9.96727 4.85116 9.59367C4.29203 9.22007 3.85624 8.68907 3.59891 8.0678C3.34157 7.44653 3.27424 6.7629 3.40543 6.10337C3.53662 5.44383 3.86043 4.83801 4.33593 4.36251C4.81143 3.88701 5.41725 3.56319 6.07679 3.432C6.73632 3.30081 7.41995 3.36815 8.04122 3.62548C8.66249 3.88282 9.1935 4.31861 9.56709 4.87773C9.94069 5.43686 10.1401 6.09422 10.1401 6.76667C10.1331 7.66378 9.77174 8.52175 9.13488 9.15362C8.49802 9.78548 7.63723 10.14 6.7401 10.14V10.1667Z" fill="#333333"/>
</g>
<defs>
<clipPath id="clip0_914_5517">
<rect width="16" height="16" fill="white"/>
</clipPath>
</defs>
</svg>
