<svg width="16" height="16" viewBox="0 0 16 16" fill="none" xmlns="http://www.w3.org/2000/svg">
<g clip-path="url(#clip0_749_4476)">
<path d="M2.99976 11.3C2.75526 11.2882 2.5253 11.1804 2.35976 11C2.19122 10.8297 2.09668 10.5997 2.09668 10.36C2.09668 10.1204 2.19122 9.8904 2.35976 9.72003L6.99976 5.12003C7.27163 4.8677 7.62884 4.72748 7.99976 4.72748C8.37068 4.72748 8.72789 4.8677 8.99976 5.12003L13.5998 9.71003C13.7114 9.78344 13.8055 9.88053 13.8753 9.9944C13.9452 10.1083 13.9891 10.2361 14.004 10.3689C14.0189 10.5017 14.0044 10.6361 13.9615 10.7626C13.9186 10.8891 13.8483 11.0046 13.7558 11.1009C13.6632 11.1973 13.5505 11.272 13.4258 11.3199C13.3011 11.3678 13.1673 11.3876 13.0341 11.3779C12.9008 11.3683 12.7713 11.3295 12.6548 11.2641C12.5383 11.1988 12.4375 11.1087 12.3598 11L7.99976 6.65003L3.63976 11C3.47423 11.1804 3.24427 11.2882 2.99976 11.3V11.3Z" fill="#333333"/>
</g>
<defs>
<clipPath id="clip0_749_4476">
<rect width="16" height="16" fill="white"/>
</clipPath>
</defs>
</svg>
