<svg width="16" height="16" viewBox="0 0 16 16" fill="none" xmlns="http://www.w3.org/2000/svg">
<path d="M4.39012 9.51002C4.39012 9.36002 4.45012 9.22002 4.55012 9.11002L7.45012 6.21002C7.62012 6.05002 7.84012 5.96002 8.07012 5.96002C8.30012 5.96002 8.53012 6.05002 8.69012 6.21002L11.5701 9.08002C11.6501 9.19002 11.6801 9.32002 11.6701 9.45002C11.6701 9.58002 11.6001 9.71002 11.5101 9.80002C11.4201 9.90002 11.3001 9.96002 11.1601 9.97002C11.0201 9.98002 10.8901 9.95002 10.7801 9.88002L8.05012 7.16002L5.33012 9.88002C5.22012 9.99002 5.08012 10.04 4.93012 10.04C4.78012 10.04 4.64012 9.98002 4.53012 9.88002C4.43012 9.78002 4.37012 9.65002 4.37012 9.50002L4.39012 9.51002Z" fill="#333333"/>
</svg>
