<svg width="26" height="26" viewBox="0 0 26 26" fill="none" xmlns="http://www.w3.org/2000/svg">
<path d="M5.25 15C6.35457 15 7.25 14.1046 7.25 13C7.25 11.8954 6.35457 11 5.25 11C4.14543 11 3.25 11.8954 3.25 13C3.25 14.1046 4.14543 15 5.25 15Z" fill="#ACACAC"/>
<path d="M13 15C14.1046 15 15 14.1046 15 13C15 11.8954 14.1046 11 13 11C11.8954 11 11 11.8954 11 13C11 14.1046 11.8954 15 13 15Z" fill="#ACACAC"/>
<path d="M20.75 15C21.8546 15 22.75 14.1046 22.75 13C22.75 11.8954 21.8546 11 20.75 11C19.6454 11 18.75 11.8954 18.75 13C18.75 14.1046 19.6454 15 20.75 15Z" fill="#ACACAC"/>
</svg>
