<svg width="26" height="26" viewBox="0 0 26 26" fill="none" xmlns="http://www.w3.org/2000/svg">
<path d="M19.3299 11.27V14.5C19.3256 14.8731 19.4695 15.2327 19.7299 15.5L20.4999 16.28C20.7417 16.5231 20.9058 16.8326 20.9714 17.1692C21.037 17.5058 21.0011 17.8543 20.8682 18.1704C20.7353 18.4866 20.5115 18.7561 20.2251 18.9447C19.9387 19.1334 19.6028 19.2327 19.2599 19.23H6.73987C6.38724 19.2415 6.03954 19.1449 5.74338 18.9531C5.44722 18.7614 5.21677 18.4837 5.08293 18.1572C4.94909 17.8308 4.91825 17.4712 4.99457 17.1267C5.07088 16.7823 5.25068 16.4694 5.50987 16.23L6.27987 15.46C6.41018 15.3287 6.51274 15.1724 6.58145 15.0006C6.65017 14.8289 6.68364 14.645 6.67987 14.46V11.27C6.63606 10.4168 6.76764 9.56367 7.06648 8.7633C7.36533 7.96294 7.82508 7.23234 8.41736 6.61664C9.00964 6.00093 9.72186 5.51319 10.51 5.18353C11.2982 4.85388 12.1456 4.68932 12.9999 4.70001C17.1799 4.70001 19.3299 8.00001 19.3299 11.27Z" fill="#333333"/>
<path d="M13 6.17001C13.8284 6.17001 14.5 5.49844 14.5 4.67001C14.5 3.84159 13.8284 3.17001 13 3.17001C12.1716 3.17001 11.5 3.84159 11.5 4.67001C11.5 5.49844 12.1716 6.17001 13 6.17001Z" fill="#333333"/>
<path d="M10.75 20.52C10.8029 21.0801 11.0628 21.6004 11.4789 21.9791C11.895 22.3578 12.4374 22.5676 13 22.5676C13.5626 22.5676 14.105 22.3578 14.5211 21.9791C14.9372 21.6004 15.1971 21.0801 15.25 20.52H10.75Z" fill="#333333"/>
</svg>
