<svg width="26" height="26" viewBox="0 0 26 26" fill="none" xmlns="http://www.w3.org/2000/svg">
<path d="M19.3301 11.27V14.5C19.3259 14.8731 19.4697 15.2327 19.7301 15.5L20.5001 16.28C20.742 16.5231 20.9061 16.8326 20.9717 17.1692C21.0372 17.5058 21.0013 17.8543 20.8684 18.1704C20.7355 18.4866 20.5117 18.7561 20.2253 18.9447C19.939 19.1334 19.603 19.2327 19.2601 19.23H6.74011C6.38749 19.2415 6.03978 19.1449 5.74362 18.9531C5.44746 18.7614 5.21701 18.4837 5.08317 18.1572C4.94933 17.8308 4.9185 17.4712 4.99481 17.1267C5.07112 16.7823 5.25093 16.4694 5.51011 16.23L6.28011 15.46C6.41042 15.3287 6.51298 15.1724 6.5817 15.0006C6.65041 14.8289 6.68388 14.645 6.68011 14.46V11.27C6.6363 10.4168 6.76789 9.56367 7.06673 8.7633C7.36557 7.96294 7.82533 7.23234 8.41761 6.61664C9.00989 6.00093 9.72211 5.51319 10.5103 5.18353C11.2985 4.85388 12.1458 4.68932 13.0001 4.70001C17.1801 4.70001 19.3301 8.00001 19.3301 11.27Z" fill="#ACACAC"/>
<path d="M13 6.17001C13.8284 6.17001 14.5 5.49844 14.5 4.67001C14.5 3.84159 13.8284 3.17001 13 3.17001C12.1716 3.17001 11.5 3.84159 11.5 4.67001C11.5 5.49844 12.1716 6.17001 13 6.17001Z" fill="#ACACAC"/>
<path d="M10.75 20.52C10.8029 21.0801 11.0628 21.6004 11.4789 21.9791C11.895 22.3578 12.4374 22.5676 13 22.5676C13.5626 22.5676 14.105 22.3578 14.5211 21.9791C14.9372 21.6004 15.1971 21.0801 15.25 20.52H10.75Z" fill="#ACACAC"/>
</svg>
