<svg width="26" height="26" viewBox="0 0 26 26" fill="none" xmlns="http://www.w3.org/2000/svg">
<g clip-path="url(#clip0_734_4157)">
<path d="M22.2201 20.84L16.8301 15.46C17.6878 14.3605 18.2188 13.0417 18.3623 11.6546C18.5059 10.2675 18.2561 8.86799 17.6417 7.61614C17.0272 6.36428 16.0729 5.31062 14.8877 4.57564C13.7026 3.84066 12.3346 3.45405 10.9401 3.46C9.46057 3.45232 8.01236 3.88592 6.78052 4.70541C5.54868 5.5249 4.58914 6.69305 4.02451 8.06061C3.45988 9.42816 3.31582 10.933 3.61072 12.3828C3.90562 13.8327 4.62609 15.1617 5.68007 16.2C6.95296 17.4797 8.64964 18.25 10.4508 18.366C12.252 18.482 14.0335 17.9358 15.4601 16.83L20.8401 22.22C21.0261 22.3973 21.2731 22.4962 21.5301 22.4962C21.787 22.4962 22.0341 22.3973 22.2201 22.22C22.3974 22.034 22.4963 21.7869 22.4963 21.53C22.4963 21.2731 22.3974 21.026 22.2201 20.84ZM7.05008 14.84C6.06785 13.7987 5.53033 12.4154 5.55169 10.9841C5.57306 9.55273 6.15163 8.18612 7.16449 7.17456C8.17736 6.16299 9.54471 5.58618 10.9761 5.56666C12.4074 5.54713 13.79 6.08644 14.8301 7.07C15.3645 7.57535 15.7921 8.18275 16.0876 8.85626C16.3831 9.52977 16.5405 10.2557 16.5506 10.9911C16.5606 11.7266 16.423 12.4565 16.146 13.1378C15.8689 13.8192 15.4581 14.438 14.9377 14.9577C14.4173 15.4775 13.7979 15.8876 13.1162 16.1637C12.4345 16.4399 11.7044 16.5765 10.969 16.5655C10.2336 16.5546 9.50784 16.3962 8.83471 16.0998C8.16158 15.8034 7.55474 15.375 7.05008 14.84Z" fill="#333333"/>
</g>
<defs>
<clipPath id="clip0_734_4157">
<rect width="26" height="26" fill="white"/>
</clipPath>
</defs>
</svg>
