<svg width="60" height="62" viewBox="0 0 60 62" fill="none" xmlns="http://www.w3.org/2000/svg">
<g filter="url(#filter0_d_884_4934)">
<mask id="path-1-outside-1_884_4934" maskUnits="userSpaceOnUse" x="8.55566" y="2" width="43" height="55" fill="black">
<rect fill="white" x="8.55566" y="2" width="43" height="55"/>
<path fill-rule="evenodd" clip-rule="evenodd" d="M28.991 15.3212V5.02258C28.991 4.75137 29.0972 4.49128 29.2863 4.29951C29.4755 4.10774 29.732 4 29.9995 4C30.267 4 30.5235 4.10774 30.7126 4.29951C30.9018 4.49128 31.008 4.75137 31.008 5.02258V15.3212C37.9139 15.4172 49.4446 16.5041 49.4446 20.1488C49.4446 21.3922 48.1859 22.3985 45.5879 23.2083L41.812 50.6298C41.7943 50.7593 41.7462 50.8825 41.6718 50.9893C41.5974 51.096 41.4988 51.1832 41.3844 51.2433C37.8581 53.0623 33.9565 54.0071 30.0001 54.0002C26.0429 53.9951 22.1437 53.0361 18.6239 51.2024C18.5128 51.1472 18.4158 51.0669 18.3403 50.9676C18.2647 50.8683 18.2127 50.7527 18.1882 50.6298L14.4203 23.2083C11.8224 22.3985 10.5557 21.3922 10.5557 20.1488C10.5557 16.5044 22.085 15.4173 28.991 15.3212Z"/>
</mask>
<path fill-rule="evenodd" clip-rule="evenodd" d="M28.991 15.3212V5.02258C28.991 4.75137 29.0972 4.49128 29.2863 4.29951C29.4755 4.10774 29.732 4 29.9995 4C30.267 4 30.5235 4.10774 30.7126 4.29951C30.9018 4.49128 31.008 4.75137 31.008 5.02258V15.3212C37.9139 15.4172 49.4446 16.5041 49.4446 20.1488C49.4446 21.3922 48.1859 22.3985 45.5879 23.2083L41.812 50.6298C41.7943 50.7593 41.7462 50.8825 41.6718 50.9893C41.5974 51.096 41.4988 51.1832 41.3844 51.2433C37.8581 53.0623 33.9565 54.0071 30.0001 54.0002C26.0429 53.9951 22.1437 53.0361 18.6239 51.2024C18.5128 51.1472 18.4158 51.0669 18.3403 50.9676C18.2647 50.8683 18.2127 50.7527 18.1882 50.6298L14.4203 23.2083C11.8224 22.3985 10.5557 21.3922 10.5557 20.1488C10.5557 16.5044 22.085 15.4173 28.991 15.3212Z" fill="white"/>
<path d="M28.991 15.3212L29.0188 17.321L30.991 17.2936V15.3212H28.991ZM29.2863 4.29951L30.7103 5.70391L30.7103 5.7039L29.2863 4.29951ZM30.7126 4.29951L29.2887 5.70391L30.7126 4.29951ZM31.008 15.3212H29.008V17.2936L30.9802 17.321L31.008 15.3212ZM45.5879 23.2083L44.9927 21.299L43.7799 21.677L43.6066 22.9355L45.5879 23.2083ZM41.812 50.6298L39.8307 50.357L39.8305 50.3582L41.812 50.6298ZM41.6718 50.9893L43.3126 52.1329L43.3126 52.1329L41.6718 50.9893ZM41.3844 51.2433L42.3013 53.0208L42.3084 53.0171L42.3154 53.0134L41.3844 51.2433ZM30.0001 54.0002L30.0036 52.0002H30.0027L30.0001 54.0002ZM18.6239 51.2024L19.5479 49.4287L19.5312 49.42L19.5142 49.4115L18.6239 51.2024ZM18.3403 50.9676L16.7486 52.1786L16.7486 52.1786L18.3403 50.9676ZM18.1882 50.6298L16.2068 50.9021L16.215 50.9615L16.2267 51.0203L18.1882 50.6298ZM14.4203 23.2083L16.4017 22.9361L16.2287 21.6772L15.0156 21.299L14.4203 23.2083ZM30.991 15.3212V5.02258H26.991V15.3212H30.991ZM30.991 5.02258C30.991 5.27294 30.8931 5.51854 30.7103 5.70391L27.8624 2.89511C27.3013 3.46401 26.991 4.2298 26.991 5.02258H30.991ZM30.7103 5.7039C30.5266 5.89021 30.2714 6 29.9995 6V2C29.1926 2 28.4244 2.32527 27.8624 2.89511L30.7103 5.7039ZM29.9995 6C29.7275 6 29.4724 5.8902 29.2887 5.70391L32.1366 2.89511C31.5746 2.32527 30.8064 2 29.9995 2V6ZM29.2887 5.70391C29.1058 5.51855 29.008 5.27295 29.008 5.02258H33.008C33.008 4.2298 32.6977 3.46401 32.1366 2.89511L29.2887 5.70391ZM29.008 5.02258V15.3212H33.008V5.02258H29.008ZM30.9802 17.321C34.3738 17.3682 38.8492 17.6599 42.4287 18.3664C44.237 18.7233 45.6764 19.16 46.615 19.6462C47.6698 20.1927 47.4446 20.4357 47.4446 20.1488H51.4446C51.4446 18.0396 49.7779 16.7799 48.455 16.0945C47.0158 15.349 45.1408 14.8245 43.2032 14.4421C39.2909 13.6699 34.5481 13.3702 31.0358 13.3214L30.9802 17.321ZM47.4446 20.1488C47.4446 19.9867 47.5633 20.0233 47.246 20.2755C46.8867 20.5611 46.192 20.9251 44.9927 21.299L46.1832 25.1177C47.5819 24.6817 48.8154 24.1377 49.7349 23.4068C50.6964 22.6426 51.4446 21.5543 51.4446 20.1488H47.4446ZM43.6066 22.9355L39.8307 50.357L43.7933 50.9026L47.5692 23.4812L43.6066 22.9355ZM39.8305 50.3582C39.8556 50.1755 39.9236 49.9997 40.031 49.8457L43.3126 52.1329C43.5687 51.7653 43.7329 51.343 43.7935 50.9014L39.8305 50.3582ZM40.031 49.8457C40.1384 49.6916 40.2826 49.5631 40.4533 49.4733L42.3154 53.0134C42.715 52.8032 43.0563 52.5005 43.3126 52.1329L40.031 49.8457ZM40.4675 49.4659C37.2249 51.1385 33.6389 52.0066 30.0036 52.0002L29.9966 56.0002C34.2741 56.0077 38.4913 54.9861 42.3013 53.0208L40.4675 49.4659ZM30.0027 52.0002C26.3674 51.9955 22.784 51.1146 19.5479 49.4287L17.6999 52.9762C21.5033 54.9576 25.7185 55.9946 29.9975 56.0002L30.0027 52.0002ZM19.5142 49.4115C19.6801 49.494 19.8225 49.6128 19.9319 49.7566L16.7486 52.1786C17.0091 52.521 17.3456 52.8005 17.7336 52.9934L19.5142 49.4115ZM19.9319 49.7566C20.0413 49.9003 20.1151 50.0656 20.1497 50.2393L16.2267 51.0203C16.3102 51.4399 16.4881 51.8363 16.7486 52.1786L19.9319 49.7566ZM20.1696 50.3575L16.4017 22.9361L12.439 23.4806L16.2068 50.9021L20.1696 50.3575ZM15.0156 21.299C13.8158 20.925 13.1179 20.5605 12.7558 20.2736C12.4344 20.0189 12.5557 19.9823 12.5557 20.1488H8.55566C8.55566 21.5588 9.31032 22.647 10.2717 23.4087C11.1924 24.1382 12.4269 24.6818 13.8251 25.1177L15.0156 21.299ZM12.5557 20.1488C12.5557 20.4356 12.3304 20.1927 13.3851 19.6463C14.3236 19.1601 15.7627 18.7234 17.5709 18.3665C21.15 17.66 25.6251 17.3683 29.0188 17.321L28.9631 13.3214C25.4508 13.3703 20.7082 13.6701 16.7963 14.4422C14.8589 14.8247 12.984 15.3491 11.545 16.0947C10.2221 16.7801 8.55566 18.0397 8.55566 20.1488H12.5557Z" fill="white" mask="url(#path-1-outside-1_884_4934)"/>
<path d="M48.6385 20.1482C48.6385 17.9313 40.296 16.1315 30.0009 16.1315C19.7058 16.1315 11.3633 17.9067 11.3633 20.1482C11.3633 21.0563 12.7752 21.8989 15.1473 22.6024L18.9878 50.5065C22.3936 52.286 26.1695 53.2144 30.0009 53.2144C33.8323 53.2144 37.6082 52.286 41.014 50.5065L44.8626 22.5697C47.2346 21.8989 48.6385 21.0563 48.6385 20.1482Z" fill="#F0F6F5"/>
<path d="M30.0001 54.0002C26.0429 53.9951 22.1437 53.0361 18.6239 51.2024C18.5128 51.1472 18.4158 51.0669 18.3403 50.9676C18.2647 50.8683 18.2127 50.7527 18.1882 50.6298L14.4203 23.2083C11.8224 22.3984 10.5557 21.3922 10.5557 20.1488C10.5557 16.3202 23.2793 15.314 30.0001 15.314C36.7209 15.314 49.4446 16.3202 49.4446 20.1488C49.4446 21.3922 48.1859 22.3984 45.5879 23.2083L41.812 50.6298C41.7943 50.7593 41.7462 50.8825 41.6718 50.9893C41.5974 51.096 41.4988 51.1832 41.3844 51.2433C37.8581 53.0623 33.9565 54.0071 30.0001 54.0002ZM19.7292 49.9099C22.9237 51.508 26.438 52.3392 30.0001 52.3392C33.5622 52.3392 37.0765 51.508 40.271 49.9099L44.055 22.4312C44.0779 22.2733 44.1459 22.1257 44.2506 22.0065C44.3552 21.8873 44.492 21.8017 44.644 21.7604C47.2903 21.0077 47.8712 20.2715 47.8712 20.1242C47.8712 19.1671 41.8039 16.9256 30.0404 16.9256C18.277 16.9256 12.1693 19.1916 12.1693 20.1488C12.1693 20.296 12.7099 21.0323 15.3966 21.7849C15.5471 21.8276 15.6821 21.9138 15.7853 22.0329C15.8884 22.152 15.9552 22.2989 15.9775 22.4557L19.7292 49.9099Z" fill="#3C291C"/>
<path d="M29.9993 24.059C27.5562 24.0538 25.1203 24.3282 22.7379 24.8771C21.0884 25.2586 19.4701 25.7673 17.897 26.3987C18.408 30.0745 18.9189 33.7476 19.4299 37.418L21.0436 48.47C22.2215 49.2881 25.4811 50.6952 30.08 50.6788C33.2018 50.7735 36.2908 50.0103 39.0196 48.47C40.0039 41.312 41.0286 33.5895 42.021 26.4314C40.4483 25.7988 38.8299 25.2901 37.1801 24.9098C34.8253 24.3552 32.4167 24.0699 29.9993 24.059Z" fill="#501B0F"/>
<path d="M28.8041 31.8205L25.6641 30.7143C24.7297 30.3851 23.709 30.8863 23.3843 31.8337L22.2933 35.0174C21.9686 35.9649 22.4629 36.9998 23.3974 37.329L26.5373 38.4352C27.4718 38.7644 28.4925 38.2632 28.8171 37.3158L29.9081 34.132C30.2328 33.1846 29.7385 32.1497 28.8041 31.8205Z" fill="white"/>
<path d="M29.9997 21.9401C29.7323 21.9401 29.4757 21.8324 29.2866 21.6406C29.0975 21.4488 28.9912 21.1887 28.9912 20.9175V5.02258C28.9912 4.75137 29.0975 4.49128 29.2866 4.29951C29.4757 4.10774 29.7323 4 29.9997 4C30.2672 4 30.5237 4.10774 30.7129 4.29951C30.902 4.49128 31.0083 4.75137 31.0083 5.02258V20.9175C31.0083 21.1887 30.902 21.4488 30.7129 21.6406C30.5237 21.8324 30.2672 21.9401 29.9997 21.9401Z" fill="#FC7521"/>
<path d="M34.2096 40.1394L32.4345 40.3104C31.4497 40.4054 30.7273 41.2917 30.8209 42.2903L30.9896 44.0901C31.0832 45.0886 31.9574 45.8211 32.9422 45.7261L34.7173 45.5551C35.7021 45.4602 36.4245 44.5738 36.3309 43.5753L36.1622 41.7755C36.0686 40.777 35.1943 40.0444 34.2096 40.1394Z" fill="white"/>
</g>
<defs>
<filter id="filter0_d_884_4934" x="4.55566" y="0" width="50.8887" height="62.0002" filterUnits="userSpaceOnUse" color-interpolation-filters="sRGB">
<feFlood flood-opacity="0" result="BackgroundImageFix"/>
<feColorMatrix in="SourceAlpha" type="matrix" values="0 0 0 0 0 0 0 0 0 0 0 0 0 0 0 0 0 0 127 0" result="hardAlpha"/>
<feOffset dy="2"/>
<feGaussianBlur stdDeviation="2"/>
<feComposite in2="hardAlpha" operator="out"/>
<feColorMatrix type="matrix" values="0 0 0 0 0 0 0 0 0 0 0 0 0 0 0 0 0 0 0.3 0"/>
<feBlend mode="normal" in2="BackgroundImageFix" result="effect1_dropShadow_884_4934"/>
<feBlend mode="normal" in="SourceGraphic" in2="effect1_dropShadow_884_4934" result="shape"/>
</filter>
</defs>
</svg>
