<svg width="60" height="62" viewBox="0 0 60 62" fill="none" xmlns="http://www.w3.org/2000/svg">
<g filter="url(#filter0_d_884_4926)">
<path d="M36.297 15.0564C35.5838 15.0564 34.8922 15.184 34.2223 15.4605L10.6445 25.0959C8.46182 25.9893 7.14354 28.1375 7.31643 30.456L8.33215 42.4311C8.46182 43.9838 9.28304 45.4089 10.5797 46.3235L19.8941 52.8535C20.8234 53.4916 21.9039 53.8319 23.0277 53.8319C23.8706 53.8319 24.6918 53.6405 25.4482 53.2789L48.0966 42.1333C49.7175 41.3463 50.8196 39.8149 51.0357 38.0282L52.6566 25.181C52.9591 22.7562 51.5544 20.4377 49.2204 19.5444L38.2203 15.418C37.5936 15.184 36.9453 15.0564 36.297 15.0564Z" fill="white"/>
<path fill-rule="evenodd" clip-rule="evenodd" d="M10.6453 25.0962L34.223 15.4608C34.893 15.1843 35.5845 15.0567 36.2977 15.0567C36.946 15.0567 37.5944 15.1843 38.2211 15.4183L49.2211 19.5447C51.5552 20.438 52.9599 22.7565 52.6573 25.1813L51.0365 38.0284C50.8204 39.8151 49.7182 41.3466 48.0974 42.1336L25.4489 53.2792C24.6925 53.6407 23.8713 53.8322 23.0285 53.8322C21.9047 53.8322 20.8241 53.4919 19.8948 52.8538L10.5804 46.3238C9.28378 45.4092 8.46256 43.9841 8.33289 42.4314L7.31717 30.4563C7.14428 28.1378 8.46256 25.9895 10.6453 25.0962ZM6.59254 42.5741C6.59251 42.5737 6.59248 42.5733 6.59245 42.5729L5.57618 30.5914L5.57553 30.5827C5.34819 27.5341 7.08777 24.6865 9.97626 23.5043L9.97712 23.504L33.5492 13.8709C33.5502 13.8705 33.5513 13.87 33.5523 13.8696C34.447 13.5008 35.3679 13.3333 36.2977 13.3333C37.1793 13.3333 38.0366 13.5068 38.839 13.8064L38.8416 13.8074L49.8527 17.9379C52.9277 19.1149 54.7915 22.179 54.3906 25.3919L54.3903 25.3942L52.7705 38.2327C52.7704 38.2341 52.7702 38.2354 52.77 38.2368C52.483 40.5984 51.0216 42.6325 48.873 43.6776C48.8715 43.6784 48.8699 43.6791 48.8684 43.6799L26.2193 54.8258L26.2103 54.8301C25.2232 55.302 24.1423 55.5555 23.0285 55.5555C21.5405 55.5555 20.1131 55.1032 18.8974 54.2683L18.8904 54.2635L9.56495 47.7259C7.85404 46.519 6.765 44.6349 6.59254 42.5741Z" fill="white"/>
<path d="M8.50732 28.266L10.0849 44.7291L14.083 47.5793L14.5801 31.6267L8.50732 28.266Z" fill="#C97632"/>
<path d="M36.3857 15.9711L8.50732 28.2653L14.5801 31.626L42.1126 17.9067L36.3857 15.9711Z" fill="#F2A023"/>
<path d="M18.817 33.988L13.0684 30.7975C12.7659 31.308 12.593 31.8823 12.6146 32.4991L13.1117 46.9415L18.2767 49.7279V35.7322C18.2767 35.1153 18.4712 34.5198 18.7954 34.0093L18.817 33.988Z" fill="#DD9F4B"/>
<path d="M47.1054 20.395L20.1347 32.8381C19.5944 33.0933 19.1406 33.4975 18.8164 33.9867L13.0679 30.7961C13.392 30.2431 13.8891 29.7752 14.4942 29.4987L40.7301 17.7788L46.3274 20.395" fill="#FFD252"/>
<path d="M18.8174 33.9865L24.5227 37.1558L51.1692 22.2667L47.0847 20.3949L20.1357 32.8379C19.5954 33.0932 19.1415 33.4973 18.8174 33.9865V33.9865Z" fill="#F2A023"/>
<path d="M24.5228 37.1558L18.8175 33.9865C18.4933 34.497 18.2988 35.0926 18.2988 35.7094V49.7052L23.4207 53.0233L24.5012 37.1558H24.5228Z" fill="#C97632"/>
<path d="M51.1458 22.2461L24.6721 35.3698C23.57 35.9015 22.8784 37.0076 22.8784 38.22V53.0028L49.1359 40.3257L51.1242 22.2461H51.1458Z" fill="#F7C771"/>
<path d="M36.2994 17.1834C36.6884 17.1834 37.0774 17.2472 37.4664 17.3961L48.5097 21.5438C49.8928 22.0756 50.7572 23.4581 50.5627 24.9258L48.9419 37.7729C48.8122 38.8364 48.1423 39.7511 47.1698 40.2403L24.5213 51.3858C24.0675 51.6198 23.5704 51.7262 23.0734 51.7262C22.4034 51.7262 21.7551 51.5347 21.1932 51.1306L11.8788 44.6007C11.1008 44.0476 10.6038 43.1968 10.5389 42.2609L9.5232 30.2858C9.41515 28.9033 10.2148 27.6058 11.5114 27.074L35.046 17.4174C35.435 17.2472 35.8672 17.1834 36.2994 17.1834ZM36.2994 15.0564C35.5862 15.0564 34.8947 15.184 34.2247 15.4605L10.647 25.0959C8.46426 25.9893 7.14598 28.1375 7.31887 30.456L8.33459 42.4311C8.46426 43.9838 9.28548 45.4089 10.5821 46.3235L19.8965 52.8535C20.8258 53.4916 21.9064 53.8319 23.0302 53.8319C23.873 53.8319 24.6942 53.6405 25.4506 53.2789L48.0991 42.1333C49.7199 41.3463 50.8221 39.8149 51.0382 38.0282L52.659 25.181C52.9616 22.7562 51.5569 20.4377 49.2228 19.5444L38.2228 15.418C37.5961 15.184 36.9477 15.0564 36.2994 15.0564Z" fill="#54423A"/>
<path d="M36.0222 20.8754C36.0822 20.7647 36.222 20.7226 36.3344 20.7816L37.5384 21.4126C37.6508 21.4716 37.6933 21.6091 37.6333 21.7199L36.9921 22.9034C36.932 23.0141 36.7923 23.0562 36.6798 22.9973L35.4758 22.3662C35.3634 22.3072 35.321 22.1697 35.381 22.0589L36.0222 20.8754Z" fill="#FFECB7"/>
<path d="M23.5451 26.0946C23.6052 25.9838 23.7449 25.9418 23.8574 26.0007L25.3299 26.7726C25.4423 26.8315 25.4848 26.969 25.4247 27.0798L24.6404 28.5274C24.5804 28.6382 24.4406 28.6802 24.3282 28.6213L22.8557 27.8495C22.7433 27.7905 22.7008 27.653 22.7608 27.5422L23.5451 26.0946Z" fill="#FFECB7"/>
<path d="M15.4782 38.5675C15.5383 38.4567 15.678 38.4147 15.7905 38.4736L17.263 39.2455C17.3754 39.3044 17.4179 39.4419 17.3578 39.5527L16.5735 41.0003C16.5135 41.1111 16.3737 41.1531 16.2613 41.0942L14.7888 40.3224C14.6764 40.2634 14.6339 40.1259 14.6939 40.0151L15.4782 38.5675Z" fill="#F3C689"/>
<path d="M18.6501 29.4974C18.7101 29.3867 18.8499 29.3446 18.9623 29.4036L19.8978 29.8939C20.0102 29.9528 20.0527 30.0904 19.9927 30.2012L19.4946 31.1205C19.4345 31.2313 19.2948 31.2733 19.1823 31.2144L18.2469 30.7241C18.1344 30.6652 18.092 30.5276 18.152 30.4168L18.6501 29.4974Z" fill="#FFECB7"/>
<path d="M14.0388 32.898C14.0988 32.7872 14.2386 32.7452 14.351 32.8041L15.2865 33.2945C15.3989 33.3534 15.4414 33.491 15.3814 33.6017L14.8832 34.5211C14.8232 34.6319 14.6834 34.6739 14.571 34.615L13.6355 34.1247C13.5231 34.0657 13.4806 33.9282 13.5407 33.8174L14.0388 32.898Z" fill="#F3C689"/>
<path d="M15.1906 44.2359C15.2507 44.1251 15.3904 44.0831 15.5029 44.142L16.4383 44.6324C16.5508 44.6913 16.5932 44.8289 16.5332 44.9396L16.0351 45.859C15.9751 45.9698 15.8353 46.0118 15.7229 45.9529L14.7874 45.4625C14.675 45.4036 14.6325 45.2661 14.6925 45.1553L15.1906 44.2359Z" fill="#F3C689"/>
<path d="M31.3239 23.4199C31.384 23.3092 31.5237 23.2671 31.6362 23.326L32.3031 23.6756C32.4155 23.7346 32.458 23.8721 32.398 23.9829L32.043 24.6382C31.983 24.7489 31.8432 24.791 31.7308 24.7321L31.0638 24.3825C30.9514 24.3235 30.9089 24.186 30.9689 24.0752L31.3239 23.4199Z" fill="#FFECB7"/>
<path d="M29.0417 25.9633C29.1017 25.8526 29.2415 25.8105 29.3539 25.8694L30.0209 26.219C30.1333 26.278 30.1758 26.4155 30.1158 26.5263L29.7607 27.1816C29.7007 27.2923 29.5609 27.3344 29.4485 27.2755L28.7816 26.9259C28.6691 26.8669 28.6267 26.7294 28.6867 26.6186L29.0417 25.9633Z" fill="#FFECB7"/>
<path d="M41.363 20.4273C41.423 20.3165 41.5628 20.2745 41.6752 20.3334L42.3422 20.683C42.4546 20.742 42.4971 20.8795 42.4371 20.9903L42.082 21.6456C42.022 21.7563 41.8822 21.7984 41.7698 21.7394L41.1028 21.3898C40.9904 21.3309 40.948 21.1934 41.008 21.0826L41.363 20.4273Z" fill="#FFECB7"/>
</g>
<defs>
<filter id="filter0_d_884_4926" x="1.55566" y="11.3333" width="56.8887" height="50.2222" filterUnits="userSpaceOnUse" color-interpolation-filters="sRGB">
<feFlood flood-opacity="0" result="BackgroundImageFix"/>
<feColorMatrix in="SourceAlpha" type="matrix" values="0 0 0 0 0 0 0 0 0 0 0 0 0 0 0 0 0 0 127 0" result="hardAlpha"/>
<feOffset dy="2"/>
<feGaussianBlur stdDeviation="2"/>
<feComposite in2="hardAlpha" operator="out"/>
<feColorMatrix type="matrix" values="0 0 0 0 0 0 0 0 0 0 0 0 0 0 0 0 0 0 0.3 0"/>
<feBlend mode="normal" in2="BackgroundImageFix" result="effect1_dropShadow_884_4926"/>
<feBlend mode="normal" in="SourceGraphic" in2="effect1_dropShadow_884_4926" result="shape"/>
</filter>
</defs>
</svg>
