<svg width="60" height="62" viewBox="0 0 60 62" fill="none" xmlns="http://www.w3.org/2000/svg">
<g filter="url(#filter0_d_884_4928)">
<path d="M39.1665 15.0553C37.0065 15.0553 35.4488 16.8116 34.5557 18.7653C33.5173 17.601 32.2711 16.9695 30.9627 16.9695C28.4912 16.9695 26.7466 19.2389 25.8535 21.4688C25.6874 21.5675 25.542 21.6464 25.3758 21.7451C24.3997 20.5808 23.112 19.7322 21.5751 19.7322C19.062 19.7322 17.2551 22.0608 16.362 24.35C14.9498 25.1196 13.8905 26.205 13.2882 27.4679L11.8136 28.0007C9.5498 28.8098 8.19981 31.0003 8.55288 33.2894L10.1106 43.6103C10.2975 44.8535 10.9621 45.9783 12.0005 46.7677L19.872 52.7471C20.7859 53.4377 21.9489 53.8324 23.112 53.8324C23.922 53.8324 24.7112 53.6548 25.4381 53.3193L47.0795 43.038C48.6372 42.3078 49.6964 40.887 49.9041 39.2293L51.4618 27.4285C51.7733 25.0999 50.2987 22.8699 47.9518 22.1398L46.6433 21.7254C46.1033 20.6795 45.1895 19.7914 44.0264 19.1402C43.1334 17.009 41.4095 15.075 39.1872 15.075L39.1665 15.0553Z" fill="white"/>
<path fill-rule="evenodd" clip-rule="evenodd" d="M40.0126 13.4123L39.9295 13.3333H39.1662C36.8585 13.3333 35.186 14.6114 34.0583 16.0931C33.132 15.5591 32.0897 15.2475 30.9624 15.2475C29.0784 15.2475 27.576 16.1235 26.4909 17.1952C25.9201 17.7588 25.4349 18.4029 25.0299 19.0714C24.0691 18.44 22.9143 18.0102 21.5748 18.0102C19.667 18.0102 18.1385 18.9038 17.0345 19.9961C16.097 20.9238 15.3842 22.067 14.8807 23.1905C13.664 23.9572 12.6697 24.9458 11.9765 26.0972L11.1635 26.391C11.1624 26.3914 11.1614 26.3917 11.1603 26.3921C8.07957 27.4948 6.26899 30.4666 6.74081 33.5346C6.74096 33.5356 6.7411 33.5365 6.74125 33.5374L8.298 43.8522C8.29799 43.8521 8.298 43.8522 8.298 43.8522C8.29803 43.8524 8.2981 43.8528 8.29813 43.8531C8.54856 45.5171 9.44246 47.0382 10.8502 48.1083L18.7221 54.088L18.7256 54.0907C19.9548 55.0197 21.5197 55.5555 23.1117 55.5555C24.2095 55.5555 25.2737 55.3142 26.2437 54.8665L26.2532 54.8621L47.8952 44.5804C47.897 44.5796 47.8988 44.5787 47.9006 44.5779C50.0138 43.5852 51.4403 41.6599 51.7208 39.4372C51.7211 39.4354 51.7213 39.4335 51.7215 39.4316L53.2775 27.6442C53.2775 27.6436 53.2776 27.643 53.2777 27.6425C53.6952 24.515 51.7209 21.5014 48.5311 20.5064C48.5294 20.5059 48.5277 20.5054 48.526 20.5048L47.8958 20.3052C47.2824 19.384 46.4537 18.6011 45.4901 17.9783C44.9822 16.9247 44.2797 15.8955 43.3802 15.0733C42.4969 14.2659 41.3612 13.6078 40.0126 13.4123ZM44.0261 19.1408C43.1331 17.0095 41.4092 15.0756 39.187 15.0756L39.1662 15.0559C37.6256 15.0559 36.3915 15.9493 35.4863 17.1705C35.1223 17.6615 34.8116 18.2056 34.5555 18.7658C34.1123 18.269 33.6313 17.8691 33.1238 17.574C32.4421 17.1776 31.7125 16.9701 30.9624 16.9701C28.9448 16.9701 27.4116 18.4824 26.4307 20.2511C26.2302 20.6126 26.0527 20.9848 25.8989 21.357C25.8835 21.3945 25.8682 21.4319 25.8532 21.4694C25.7701 21.5187 25.6923 21.5631 25.6144 21.6075C25.5365 21.6519 25.4586 21.6963 25.3755 21.7457C25.175 21.5065 24.9614 21.2807 24.7351 21.0728C24.572 20.9229 24.4024 20.7824 24.2264 20.6529C23.4579 20.0875 22.5684 19.7328 21.5748 19.7328C19.0617 19.7328 17.2548 22.0614 16.3618 24.3505C14.9495 25.1202 13.8902 26.2055 13.2879 27.4685L11.8133 28.0013C9.54951 28.8104 8.19952 31.0009 8.55259 33.29L10.1103 43.6108C10.2972 44.8541 10.9618 45.9789 12.0003 46.7682L19.8717 52.7476C20.7856 53.4383 21.9486 53.833 23.1117 53.833C23.9217 53.833 24.7109 53.6554 25.4378 53.3199L47.0792 43.0385C48.6369 42.3084 49.6961 40.8875 49.9038 39.2299L51.4615 27.429C51.773 25.1004 50.2984 22.8705 47.9515 22.1403L46.6431 21.7259C46.1031 20.68 45.1892 19.792 44.0261 19.1408Z" fill="white"/>
<path d="M10.6118 33.0012L12.1672 43.3216C12.277 44.0711 12.6887 44.743 13.3017 45.2168L21.1701 51.1954C22.1216 51.919 23.4208 52.0483 24.5095 51.5314L46.1567 41.2455C47.0899 40.8061 47.7212 39.9447 47.8585 38.9626L49.4138 27.1519C49.5968 25.7477 48.7185 24.421 47.3095 23.9731L38.3341 21.1302C37.6479 20.9149 36.9068 20.9321 36.2297 21.1733L12.5698 29.8224C11.2157 30.3221 10.4014 31.6401 10.6027 33.0012H10.6118Z" fill="#5E9245"/>
<path d="M39.2213 28.3257C42.5108 28.3257 45.1775 26.4512 45.1775 24.1389C45.1775 21.8267 42.5108 19.9522 39.2213 19.9522C35.9318 19.9522 33.2651 21.8267 33.2651 24.1389C33.2651 26.4512 35.9318 28.3257 39.2213 28.3257Z" fill="white"/>
<path d="M39.1666 17.0225C36.9707 17.0225 35.2049 21.7434 35.9826 23.1992C36.7603 24.6637 41.5271 24.8102 42.3505 23.1992C43.2746 21.3988 41.2892 17.0225 39.1666 17.0225Z" fill="#DD3E3A"/>
<path d="M31.0304 31.4862C34.6838 31.4862 37.6454 29.4034 37.6454 26.8342C37.6454 24.265 34.6838 22.1823 31.0304 22.1823C27.3771 22.1823 24.4155 24.265 24.4155 26.8342C24.4155 29.4034 27.3771 31.4862 31.0304 31.4862Z" fill="white"/>
<path d="M30.9758 18.9258C28.533 18.9258 26.575 24.1721 27.4351 25.7831C28.3042 27.4026 33.5925 27.5663 34.5166 25.7831C35.5413 23.7845 33.3455 18.9258 30.9758 18.9258Z" fill="#DD3E3A"/>
<path d="M21.6331 34.6141C25.3976 34.6141 28.4493 32.4696 28.4493 29.8243C28.4493 27.179 25.3976 25.0345 21.6331 25.0345C17.8686 25.0345 14.8169 27.179 14.8169 29.8243C14.8169 32.4696 17.8686 34.6141 21.6331 34.6141Z" fill="white"/>
<path d="M21.5792 21.6818C19.0632 21.6818 17.0503 27.0832 17.9378 28.7459C18.8253 30.4085 24.2782 30.5808 25.2298 28.7459C26.2911 26.6869 24.0221 21.6818 21.5884 21.6818H21.5792Z" fill="#DD3E3A"/>
<path d="M39.1644 17.0205C40.5094 17.0205 41.7903 18.7693 42.3209 20.5095C43.794 21.1039 44.7455 22.1032 45.0474 23.2662L47.289 23.9726C48.698 24.4205 49.5763 25.7472 49.3933 27.1514L47.8379 38.9621C47.7099 39.9442 47.0694 40.797 46.1362 41.245L24.489 51.5309C24.0499 51.7376 23.5741 51.841 23.0983 51.841C22.403 51.841 21.7168 51.617 21.1495 51.1949L13.2812 45.2163C12.659 44.7425 12.2565 44.0706 12.1467 43.3211L10.5913 33.0007C10.39 31.631 11.2043 30.313 12.5584 29.8219L14.9189 28.9605C15.2483 27.608 16.3553 26.4278 18.0388 25.7214C18.6426 23.7572 20.0059 21.6897 21.5613 21.6897C22.9154 21.6897 24.2237 23.2403 24.9282 24.9719C25.4497 24.0932 26.3463 23.3523 27.5357 22.8527C28.1213 20.9402 29.4479 18.933 30.9576 18.933C32.211 18.933 33.4187 20.3113 34.1232 21.8964C34.599 21.3451 35.2577 20.8885 36.072 20.5526C36.6026 18.8296 37.7921 17.0292 39.1461 17.0292M39.1461 15.0564C36.9778 15.0564 35.4315 16.8052 34.5441 18.7693C33.5102 17.615 32.2567 16.9689 30.9576 16.9689C28.4873 16.9689 26.7306 19.2345 25.8431 21.4657C25.6784 21.5519 25.5229 21.6466 25.3674 21.7414C24.3884 20.5784 23.0983 19.7169 21.5613 19.7169C19.0361 19.7169 17.252 22.0429 16.3462 24.3344C14.9372 25.1097 13.8667 26.1952 13.272 27.4529L11.8082 27.987C9.54829 28.8054 8.20334 30.9849 8.55102 33.2764L10.1064 43.5968C10.2985 44.8459 10.9664 45.9658 12.0003 46.7498L19.8687 52.7283C20.7836 53.4261 21.9364 53.8138 23.1166 53.8138C23.9218 53.8138 24.7178 53.6329 25.4406 53.2969L47.0877 43.011C48.6431 42.2701 49.7044 40.8487 49.9148 39.2119L51.4702 27.4012C51.7721 25.0753 50.2991 22.8527 47.9569 22.1118L46.6485 21.6983C46.0996 20.6473 45.1938 19.76 44.0227 19.1139C43.1352 16.9775 41.406 15.0564 39.1736 15.0564H39.1461Z" fill="#54423A"/>
</g>
<defs>
<filter id="filter0_d_884_4928" x="2.6665" y="11.3333" width="54.6665" height="50.2222" filterUnits="userSpaceOnUse" color-interpolation-filters="sRGB">
<feFlood flood-opacity="0" result="BackgroundImageFix"/>
<feColorMatrix in="SourceAlpha" type="matrix" values="0 0 0 0 0 0 0 0 0 0 0 0 0 0 0 0 0 0 127 0" result="hardAlpha"/>
<feOffset dy="2"/>
<feGaussianBlur stdDeviation="2"/>
<feComposite in2="hardAlpha" operator="out"/>
<feColorMatrix type="matrix" values="0 0 0 0 0 0 0 0 0 0 0 0 0 0 0 0 0 0 0.3 0"/>
<feBlend mode="normal" in2="BackgroundImageFix" result="effect1_dropShadow_884_4928"/>
<feBlend mode="normal" in="SourceGraphic" in2="effect1_dropShadow_884_4928" result="shape"/>
</filter>
</defs>
</svg>
