<svg width="60" height="62" viewBox="0 0 60 62" fill="none" xmlns="http://www.w3.org/2000/svg">
<g filter="url(#filter0_d_884_4932)">
<mask id="path-1-outside-1_884_4932" maskUnits="userSpaceOnUse" x="8.55566" y="2" width="43" height="55" fill="black">
<rect fill="white" x="8.55566" y="2" width="43" height="55"/>
<path fill-rule="evenodd" clip-rule="evenodd" d="M28.991 15.3212V5.02258C28.991 4.75137 29.0972 4.49128 29.2863 4.29951C29.4755 4.10774 29.732 4 29.9995 4C30.267 4 30.5235 4.10774 30.7126 4.29951C30.9018 4.49128 31.008 4.75137 31.008 5.02258V15.3212C37.9139 15.4172 49.4446 16.5041 49.4446 20.1488C49.4446 21.3922 48.1859 22.3984 45.5879 23.2083L41.812 50.6298C41.7943 50.7593 41.7462 50.8825 41.6718 50.9893C41.5974 51.096 41.4988 51.1831 41.3844 51.2433C37.8581 53.0623 33.9565 54.0071 30.0001 54.0002C26.0429 53.995 22.1437 53.0361 18.6239 51.2024C18.5128 51.1472 18.4158 51.0669 18.3403 50.9676C18.2647 50.8683 18.2127 50.7527 18.1882 50.6298L14.4203 23.2083C11.8224 22.3984 10.5557 21.3922 10.5557 20.1488C10.5557 16.5044 22.085 15.4173 28.991 15.3212Z"/>
</mask>
<path fill-rule="evenodd" clip-rule="evenodd" d="M28.991 15.3212V5.02258C28.991 4.75137 29.0972 4.49128 29.2863 4.29951C29.4755 4.10774 29.732 4 29.9995 4C30.267 4 30.5235 4.10774 30.7126 4.29951C30.9018 4.49128 31.008 4.75137 31.008 5.02258V15.3212C37.9139 15.4172 49.4446 16.5041 49.4446 20.1488C49.4446 21.3922 48.1859 22.3984 45.5879 23.2083L41.812 50.6298C41.7943 50.7593 41.7462 50.8825 41.6718 50.9893C41.5974 51.096 41.4988 51.1831 41.3844 51.2433C37.8581 53.0623 33.9565 54.0071 30.0001 54.0002C26.0429 53.995 22.1437 53.0361 18.6239 51.2024C18.5128 51.1472 18.4158 51.0669 18.3403 50.9676C18.2647 50.8683 18.2127 50.7527 18.1882 50.6298L14.4203 23.2083C11.8224 22.3984 10.5557 21.3922 10.5557 20.1488C10.5557 16.5044 22.085 15.4173 28.991 15.3212Z" fill="white"/>
<path d="M28.991 15.3212L29.0188 17.321L30.991 17.2936V15.3212H28.991ZM29.2863 4.29951L30.7103 5.70391L30.7103 5.7039L29.2863 4.29951ZM30.7126 4.29951L29.2887 5.70391L30.7126 4.29951ZM31.008 15.3212H29.008V17.2936L30.9802 17.321L31.008 15.3212ZM45.5879 23.2083L44.9927 21.299L43.7799 21.677L43.6066 22.9355L45.5879 23.2083ZM41.812 50.6298L39.8307 50.357L39.8305 50.3582L41.812 50.6298ZM41.3844 51.2433L42.3013 53.0208L42.3084 53.0171L42.3154 53.0134L41.3844 51.2433ZM30.0001 54.0002L30.0036 52.0002H30.0027L30.0001 54.0002ZM18.6239 51.2024L19.5479 49.4287L19.5312 49.42L19.5142 49.4115L18.6239 51.2024ZM18.3403 50.9676L16.7486 52.1786L16.7486 52.1786L18.3403 50.9676ZM18.1882 50.6298L16.2068 50.902L16.215 50.9615L16.2267 51.0203L18.1882 50.6298ZM14.4203 23.2083L16.4017 22.9361L16.2287 21.6771L15.0156 21.299L14.4203 23.2083ZM30.991 15.3212V5.02258H26.991V15.3212H30.991ZM30.991 5.02258C30.991 5.27294 30.8931 5.51854 30.7103 5.70391L27.8624 2.89511C27.3013 3.46401 26.991 4.2298 26.991 5.02258H30.991ZM30.7103 5.7039C30.5266 5.89021 30.2714 6 29.9995 6V2C29.1926 2 28.4244 2.32527 27.8624 2.89511L30.7103 5.7039ZM29.9995 6C29.7275 6 29.4724 5.8902 29.2887 5.70391L32.1366 2.89511C31.5746 2.32527 30.8064 2 29.9995 2V6ZM29.2887 5.70391C29.1058 5.51855 29.008 5.27295 29.008 5.02258H33.008C33.008 4.2298 32.6977 3.46401 32.1366 2.89511L29.2887 5.70391ZM29.008 5.02258V15.3212H33.008V5.02258H29.008ZM30.9802 17.321C34.3738 17.3682 38.8492 17.6599 42.4287 18.3664C44.237 18.7233 45.6764 19.16 46.615 19.6462C47.6698 20.1927 47.4446 20.4357 47.4446 20.1488H51.4446C51.4446 18.0396 49.7779 16.7799 48.455 16.0945C47.0158 15.3489 45.1408 14.8245 43.2032 14.4421C39.2909 13.6699 34.5481 13.3702 31.0358 13.3214L30.9802 17.321ZM47.4446 20.1488C47.4446 19.9867 47.5633 20.0233 47.246 20.2755C46.8867 20.5611 46.192 20.9251 44.9927 21.299L46.1832 25.1177C47.5819 24.6817 48.8154 24.1377 49.7349 23.4068C50.6964 22.6426 51.4446 21.5543 51.4446 20.1488H47.4446ZM43.6066 22.9355L39.8307 50.357L43.7933 50.9026L47.5692 23.4812L43.6066 22.9355ZM39.8305 50.3582C39.8556 50.1755 39.9236 49.9997 40.031 49.8457L43.3126 52.1328C43.5687 51.7653 43.7329 51.343 43.7935 50.9014L39.8305 50.3582ZM40.031 49.8457C40.1384 49.6915 40.2826 49.5631 40.4533 49.4733L42.3154 53.0134C42.715 52.8032 43.0563 52.5005 43.3126 52.1328L40.031 49.8457ZM40.4675 49.4659C37.2249 51.1385 33.6389 52.0066 30.0036 52.0002L29.9966 56.0002C34.2742 56.0077 38.4913 54.9861 42.3013 53.0208L40.4675 49.4659ZM30.0027 52.0002C26.3674 51.9955 22.784 51.1146 19.5479 49.4287L17.6999 52.9762C21.5033 54.9576 25.7185 55.9946 29.9975 56.0002L30.0027 52.0002ZM19.5142 49.4115C19.6801 49.494 19.8225 49.6128 19.9319 49.7566L16.7486 52.1786C17.0091 52.521 17.3456 52.8004 17.7336 52.9933L19.5142 49.4115ZM19.9319 49.7566C20.0413 49.9003 20.1151 50.0656 20.1497 50.2392L16.2267 51.0203C16.3102 51.4399 16.4881 51.8363 16.7486 52.1786L19.9319 49.7566ZM20.1696 50.3575L16.4017 22.9361L12.439 23.4806L16.2068 50.902L20.1696 50.3575ZM15.0156 21.299C13.8158 20.9249 13.1179 20.5605 12.7558 20.2736C12.4344 20.0189 12.5557 19.9823 12.5557 20.1488H8.55566C8.55566 21.5587 9.31032 22.647 10.2717 23.4087C11.1924 24.1382 12.4269 24.6818 13.8251 25.1177L15.0156 21.299ZM12.5557 20.1488C12.5557 20.4356 12.3304 20.1927 13.3851 19.6463C14.3236 19.1601 15.7627 18.7234 17.5709 18.3665C21.15 17.66 25.6251 17.3682 29.0188 17.321L28.9631 13.3214C25.4508 13.3703 20.7082 13.6701 16.7963 14.4422C14.8589 14.8247 12.984 15.3491 11.545 16.0947C10.2221 16.7801 8.55566 18.0397 8.55566 20.1488H12.5557Z" fill="white" mask="url(#path-1-outside-1_884_4932)"/>
<path d="M48.6385 20.1488C48.6385 17.9318 40.296 16.1321 30.0009 16.1321C19.7058 16.1321 11.3633 17.9073 11.3633 20.1488C11.3633 21.0568 12.7752 21.8994 15.1473 22.603L18.9878 50.5071C22.3936 52.2865 26.1695 53.2149 30.0009 53.2149C33.8323 53.2149 37.6082 52.2865 41.014 50.5071L44.8626 22.5702C47.2346 21.8994 48.6385 21.0568 48.6385 20.1488Z" fill="#F0F6F5"/>
<path d="M30.0001 54.0003C26.0429 53.9951 22.1437 53.0362 18.6239 51.2025C18.5128 51.1473 18.4158 51.0669 18.3403 50.9676C18.2647 50.8684 18.2127 50.7528 18.1882 50.6299L14.4203 23.2084C11.8224 22.3985 10.5557 21.3923 10.5557 20.1488C10.5557 16.3203 23.2793 15.3141 30.0001 15.3141C36.7209 15.3141 49.4446 16.3203 49.4446 20.1488C49.4446 21.3923 48.1859 22.3985 45.5879 23.2084L41.812 50.6299C41.7943 50.7593 41.7462 50.8826 41.6718 50.9893C41.5974 51.0961 41.4988 51.1832 41.3844 51.2434C37.8581 53.0624 33.9565 54.0072 30.0001 54.0003ZM19.7292 49.91C22.9237 51.5081 26.438 52.3393 30.0001 52.3393C33.5622 52.3393 37.0765 51.5081 40.271 49.91L44.055 22.4312C44.0779 22.2734 44.1459 22.1257 44.2506 22.0065C44.3552 21.8874 44.492 21.8018 44.644 21.7604C47.2903 21.0078 47.8712 20.2715 47.8712 20.1243C47.8712 19.1672 41.8039 16.9257 30.0404 16.9257C18.277 16.9257 12.1693 19.1917 12.1693 20.1488C12.1693 20.2961 12.7099 21.0323 15.3966 21.785C15.5471 21.8277 15.6821 21.9139 15.7853 22.0329C15.8884 22.152 15.9552 22.2989 15.9775 22.4558L19.7292 49.91Z" fill="#3C291C"/>
<path d="M29.9993 24.059C27.5562 24.0538 25.1203 24.3282 22.7379 24.8771C21.0884 25.2586 19.4701 25.7673 17.897 26.3987C18.408 30.0745 18.9189 33.7476 19.4299 37.418L21.0436 48.47C22.2215 49.2881 25.4811 50.6952 30.08 50.6788C33.2018 50.7735 36.2908 50.0103 39.0196 48.47C40.0039 41.312 41.0286 33.5895 42.021 26.4314C40.4483 25.7988 38.8299 25.2901 37.1801 24.9098C34.8253 24.3552 32.4167 24.0699 29.9993 24.059Z" fill="#68D5A7"/>
<path d="M35.0283 34.4268L34.3112 34.4959C33.9133 34.5343 33.6215 34.8924 33.6593 35.2958L33.7275 36.0229C33.7653 36.4263 34.1185 36.7222 34.5163 36.6839L35.2334 36.6148C35.6313 36.5764 35.9232 36.2183 35.8853 35.8149L35.8172 35.0878C35.7794 34.6844 35.4262 34.3885 35.0283 34.4268Z" fill="#3C291C"/>
<path d="M20.9365 30.1681L20.2194 30.2372C19.8215 30.2756 19.5297 30.6337 19.5675 31.0371L19.6357 31.7642C19.6735 32.1676 20.0267 32.4635 20.4245 32.4252L21.1417 32.356C21.5395 32.3177 21.8314 31.9596 21.7936 31.5562L21.7254 30.8291C21.6876 30.4257 21.3344 30.1297 20.9365 30.1681Z" fill="#3C291C"/>
<path d="M37.333 43.0802L36.6159 43.1493C36.218 43.1877 35.9262 43.5458 35.964 43.9492L36.0322 44.6763C36.07 45.0797 36.4232 45.3756 36.821 45.3373L37.5381 45.2681C37.936 45.2298 38.2279 44.8717 38.19 44.4683L38.1219 43.7412C38.0841 43.3378 37.7309 43.0419 37.333 43.0802Z" fill="#3C291C"/>
<path d="M37.6564 28.2335L36.9548 28.0678C36.5655 27.9759 36.1765 28.2214 36.0858 28.616L35.9224 29.3274C35.8317 29.722 36.0737 30.1164 36.4629 30.2083L37.1645 30.374C37.5538 30.4658 37.9428 30.2204 38.0335 29.8258L38.1969 29.1144C38.2876 28.7198 38.0456 28.3253 37.6564 28.2335Z" fill="#3C291C"/>
<path d="M28.8497 45.6777L28.1481 45.5121C27.7589 45.4202 27.3698 45.6656 27.2792 46.0603L27.1157 46.7716C27.025 47.1663 27.2671 47.5607 27.6563 47.6526L28.3579 47.8182C28.7471 47.9101 29.1362 47.6647 29.2268 47.27L29.3903 46.5587C29.481 46.164 29.2389 45.7696 28.8497 45.6777Z" fill="#3C291C"/>
<path d="M27.5975 37.3469L26.879 37.2944C26.4804 37.2653 26.1339 37.5694 26.1052 37.9736L26.0535 38.7021C26.0248 39.1062 26.3246 39.4575 26.7232 39.4866L27.4417 39.539C27.8404 39.5681 28.1868 39.264 28.2155 38.8599L28.2673 38.1314C28.296 37.7272 27.9961 37.376 27.5975 37.3469Z" fill="#3C291C"/>
<path d="M23.806 42.017L23.0875 41.9646C22.6889 41.9355 22.3424 42.2396 22.3137 42.6437L22.262 43.3722C22.2332 43.7764 22.5331 44.1276 22.9317 44.1567L23.6502 44.2092C24.0488 44.2383 24.3953 43.9342 24.424 43.53L24.4757 42.8015C24.5045 42.3974 24.2046 42.0461 23.806 42.017Z" fill="#3C291C"/>
<path d="M30.0002 21.9401C29.7327 21.9401 29.4762 21.8324 29.2871 21.6406C29.098 21.4488 28.9917 21.1887 28.9917 20.9175V5.02258C28.9917 4.75137 29.098 4.49128 29.2871 4.29951C29.4762 4.10774 29.7327 4 30.0002 4C30.2677 4 30.5242 4.10774 30.7134 4.29951C30.9025 4.49128 31.0088 4.75137 31.0088 5.02258V20.9175C31.0088 21.1887 30.9025 21.4488 30.7134 21.6406C30.5242 21.8324 30.2677 21.9401 30.0002 21.9401Z" fill="#FC7521"/>
<path d="M31.6107 28.9173L28.4707 27.8111C27.5363 27.4819 26.5156 27.9831 26.1909 28.9305L25.0999 32.1142C24.7753 33.0617 25.2696 34.0966 26.204 34.4258L29.344 35.532C30.2784 35.8612 31.2991 35.36 31.6238 34.4126L32.7148 31.2288C33.0394 30.2814 32.5451 29.2465 31.6107 28.9173Z" fill="white"/>
<path d="M33.0821 38.5126L31.307 38.6837C30.3223 38.7786 29.5998 39.665 29.6934 40.6635L29.8622 42.4633C29.9558 43.4618 30.83 44.1943 31.8148 44.0994L33.5898 43.9283C34.5746 43.8334 35.2971 42.947 35.2035 41.9485L35.0347 40.1487C34.9411 39.1502 34.0669 38.4177 33.0821 38.5126Z" fill="white"/>
</g>
<defs>
<filter id="filter0_d_884_4932" x="4.55566" y="0" width="50.8887" height="62.0002" filterUnits="userSpaceOnUse" color-interpolation-filters="sRGB">
<feFlood flood-opacity="0" result="BackgroundImageFix"/>
<feColorMatrix in="SourceAlpha" type="matrix" values="0 0 0 0 0 0 0 0 0 0 0 0 0 0 0 0 0 0 127 0" result="hardAlpha"/>
<feOffset dy="2"/>
<feGaussianBlur stdDeviation="2"/>
<feComposite in2="hardAlpha" operator="out"/>
<feColorMatrix type="matrix" values="0 0 0 0 0 0 0 0 0 0 0 0 0 0 0 0 0 0 0.3 0"/>
<feBlend mode="normal" in2="BackgroundImageFix" result="effect1_dropShadow_884_4932"/>
<feBlend mode="normal" in="SourceGraphic" in2="effect1_dropShadow_884_4932" result="shape"/>
</filter>
</defs>
</svg>
