<svg width="60" height="62" viewBox="0 0 60 62" fill="none" xmlns="http://www.w3.org/2000/svg">
<g filter="url(#filter0_d_884_4929)">
<mask id="path-1-outside-1_884_4929" maskUnits="userSpaceOnUse" x="8.55811" y="2" width="43" height="54" fill="black">
<rect fill="white" x="8.55811" y="2" width="43" height="54"/>
<path fill-rule="evenodd" clip-rule="evenodd" d="M28.9924 15.3211V5.02257C28.9924 4.75137 29.0986 4.49127 29.2877 4.2995C29.4769 4.10773 29.7334 4 30.0008 4C30.2683 4 30.5248 4.10773 30.7139 4.2995C30.9031 4.49127 31.0093 4.75137 31.0093 5.02257V15.3211C37.9148 15.4171 49.4448 16.5041 49.4448 20.1487C49.4448 21.3921 48.1862 22.3983 45.5884 23.2082L41.8127 50.6295C41.795 50.759 41.7469 50.8822 41.6725 50.989C41.5981 51.0957 41.4995 51.1828 41.3851 51.243C37.859 53.062 33.9576 54.0068 30.0015 53.9999C26.0445 53.9947 22.1455 53.0358 18.6259 51.2021C18.5148 51.1469 18.4178 51.0666 18.3423 50.9673C18.2667 50.868 18.2147 50.7524 18.1902 50.6295L14.4226 23.2082C11.8247 22.3983 10.5581 21.3921 10.5581 20.1487C10.5581 16.5043 22.0868 15.4173 28.9924 15.3211Z"/>
</mask>
<path fill-rule="evenodd" clip-rule="evenodd" d="M28.9924 15.3211V5.02257C28.9924 4.75137 29.0986 4.49127 29.2877 4.2995C29.4769 4.10773 29.7334 4 30.0008 4C30.2683 4 30.5248 4.10773 30.7139 4.2995C30.9031 4.49127 31.0093 4.75137 31.0093 5.02257V15.3211C37.9148 15.4171 49.4448 16.5041 49.4448 20.1487C49.4448 21.3921 48.1862 22.3983 45.5884 23.2082L41.8127 50.6295C41.795 50.759 41.7469 50.8822 41.6725 50.989C41.5981 51.0957 41.4995 51.1828 41.3851 51.243C37.859 53.062 33.9576 54.0068 30.0015 53.9999C26.0445 53.9947 22.1455 53.0358 18.6259 51.2021C18.5148 51.1469 18.4178 51.0666 18.3423 50.9673C18.2667 50.868 18.2147 50.7524 18.1902 50.6295L14.4226 23.2082C11.8247 22.3983 10.5581 21.3921 10.5581 20.1487C10.5581 16.5043 22.0868 15.4173 28.9924 15.3211Z" fill="white"/>
<path d="M28.9924 15.3211L29.0202 17.3209L30.9924 17.2935V15.3211H28.9924ZM29.2877 4.2995L30.7117 5.70387V5.70387L29.2877 4.2995ZM30.7139 4.2995L29.2899 5.70387V5.70387L30.7139 4.2995ZM31.0093 15.3211H29.0093V17.2935L30.9815 17.3209L31.0093 15.3211ZM45.5884 23.2082L44.9932 21.2988L43.7804 21.6769L43.6071 22.9354L45.5884 23.2082ZM41.8127 50.6295L39.8314 50.3567L39.8312 50.3579L41.8127 50.6295ZM41.6725 50.989L43.3133 52.1325L43.3133 52.1325L41.6725 50.989ZM41.3851 51.243L42.302 53.0205L42.3091 53.0168L42.3161 53.0131L41.3851 51.243ZM30.0015 53.9999L30.005 51.9999H30.0041L30.0015 53.9999ZM18.6259 51.2021L19.55 49.4284L19.5332 49.4197L19.5162 49.4112L18.6259 51.2021ZM18.3423 50.9673L19.934 49.7563L19.934 49.7563L18.3423 50.9673ZM18.1902 50.6295L16.2088 50.9017L16.217 50.9612L16.2287 51.02L18.1902 50.6295ZM14.4226 23.2082L16.404 22.936L16.231 21.677L15.0178 21.2988L14.4226 23.2082ZM30.9924 15.3211V5.02257H26.9924V15.3211H30.9924ZM30.9924 5.02257C30.9924 5.27291 30.8946 5.51849 30.7117 5.70387L27.8637 2.89514C27.3027 3.46405 26.9924 4.22983 26.9924 5.02257H30.9924ZM30.7117 5.70387C30.528 5.89018 30.2728 6 30.0008 6V2C29.1939 2 28.4257 2.32529 27.8637 2.89514L30.7117 5.70387ZM30.0008 6C29.7288 6 29.4737 5.89018 29.2899 5.70387L32.1379 2.89514C31.5759 2.32529 30.8078 2 30.0008 2V6ZM29.2899 5.70387C29.1071 5.5185 29.0093 5.27292 29.0093 5.02257H33.0093C33.0093 4.22982 32.699 3.46405 32.1379 2.89514L29.2899 5.70387ZM29.0093 5.02257V15.3211H33.0093V5.02257H29.0093ZM30.9815 17.3209C34.3749 17.3681 38.85 17.6598 42.4293 18.3663C44.2376 18.7232 45.6768 19.1599 46.6153 19.6461C47.6701 20.1926 47.4448 20.4355 47.4448 20.1487H51.4448C51.4448 18.0395 49.7783 16.7799 48.4554 16.0945C47.0163 15.3489 45.1414 14.8244 43.2039 14.442C39.2918 13.6699 34.5492 13.3701 31.0371 13.3213L30.9815 17.3209ZM47.4448 20.1487C47.4448 19.9866 47.5636 20.0232 47.2463 20.2754C46.887 20.561 46.1923 20.925 44.9932 21.2988L46.1837 25.1176C47.5823 24.6815 48.8158 24.1375 49.7353 23.4067C50.6968 22.6424 51.4448 21.5542 51.4448 20.1487H47.4448ZM43.6071 22.9354L39.8314 50.3567L43.794 50.9023L47.5697 23.481L43.6071 22.9354ZM39.8312 50.3579C39.8563 50.1752 39.9243 49.9995 40.0316 49.8455L43.3133 52.1325C43.5694 51.765 43.7336 51.3427 43.7942 50.9011L39.8312 50.3579ZM40.0317 49.8454C40.1391 49.6913 40.2833 49.5628 40.4541 49.473L42.3161 53.0131C42.7158 52.8029 43.0571 52.5002 43.3133 52.1325L40.0317 49.8454ZM40.4682 49.4656C37.2258 51.1382 33.64 52.0063 30.005 51.9999L29.998 55.9999C34.2753 56.0074 38.4922 54.9858 42.302 53.0205L40.4682 49.4656ZM30.0041 51.9999C26.369 51.9952 22.7858 51.1143 19.55 49.4284L17.7018 52.9759C21.5051 54.9573 25.7201 55.9943 29.9989 55.9999L30.0041 51.9999ZM19.5162 49.4112C19.6822 49.4937 19.8246 49.6125 19.934 49.7563L16.7505 52.1782C17.011 52.5206 17.3475 52.8001 17.7355 52.993L19.5162 49.4112ZM19.934 49.7563C20.0433 49.9 20.1172 50.0653 20.1517 50.239L16.2287 51.02C16.3123 51.4395 16.4901 51.836 16.7505 52.1782L19.934 49.7563ZM20.1716 50.3573L16.404 22.936L12.4412 23.4804L16.2088 50.9017L20.1716 50.3573ZM15.0178 21.2988C13.8182 20.9248 13.1203 20.5604 12.7582 20.2735C12.4368 20.0188 12.5581 19.9822 12.5581 20.1487H8.55811C8.55811 21.5586 9.3127 22.6468 10.2741 23.4086C11.1948 24.1381 12.4292 24.6817 13.8273 25.1176L15.0178 21.2988ZM12.5581 20.1487C12.5581 20.4355 12.3329 20.1926 13.3874 19.6462C14.3259 19.16 15.7649 18.7233 17.573 18.3664C21.1519 17.66 25.6267 17.3682 29.0202 17.3209L28.9645 13.3213C25.4524 13.3702 20.7101 13.67 16.7983 14.4422C14.861 14.8246 12.9863 15.349 11.5473 16.0946C10.2244 16.78 8.55811 18.0396 8.55811 20.1487H12.5581Z" fill="white" mask="url(#path-1-outside-1_884_4929)"/>
<path d="M48.6364 20.1484C48.6364 17.9315 40.2944 16.1318 29.9999 16.1318C19.7054 16.1318 11.3633 17.907 11.3633 20.1484C11.3633 21.0565 12.7751 21.8991 15.1471 22.6026L18.9873 50.5065C22.393 52.286 26.1687 53.2144 29.9999 53.2144C33.831 53.2144 37.6068 52.286 41.0124 50.5065L44.8607 22.5699C47.2327 21.8991 48.6364 21.0565 48.6364 20.1484Z" fill="#F0F6F5"/>
<path d="M29.999 53.9999C26.0421 53.9947 22.143 53.0358 18.6234 51.2022C18.5124 51.1469 18.4154 51.0666 18.3398 50.9673C18.2643 50.868 18.2123 50.7524 18.1878 50.6295L14.4201 23.2082C11.8223 22.3983 10.5557 21.3921 10.5557 20.1487C10.5557 16.3202 23.2786 15.314 29.999 15.314C36.7195 15.314 49.4424 16.3202 49.4424 20.1487C49.4424 21.3921 48.1838 22.3983 45.586 23.2082L41.8103 50.6295C41.7925 50.759 41.7444 50.8822 41.67 50.989C41.5956 51.0957 41.4971 51.1829 41.3827 51.243C37.8566 53.062 33.9552 54.0068 29.999 53.9999ZM19.7287 49.9096C22.923 51.5077 26.4371 52.3389 29.999 52.3389C33.5609 52.3389 37.0751 51.5077 40.2693 49.9096L44.0531 22.4311C44.076 22.2732 44.144 22.1256 44.2487 22.0064C44.3533 21.8872 44.4901 21.8016 44.6421 21.7603C47.2883 21.0076 47.8692 20.2714 47.8692 20.1241C47.8692 19.167 41.8022 16.9255 30.0394 16.9255C18.2765 16.9255 12.1692 19.1916 12.1692 20.1487C12.1692 20.2959 12.7098 21.0322 15.3963 21.7848C15.5468 21.8275 15.6818 21.9137 15.785 22.0328C15.8881 22.1519 15.9549 22.2988 15.9772 22.4556L19.7287 49.9096Z" fill="#3C291C"/>
<path d="M29.9986 24.0582C27.5557 24.053 25.1199 24.3274 22.7376 24.8763C21.0882 25.2578 19.47 25.7665 17.897 26.3979C18.4079 30.0737 18.9189 33.7468 19.4299 37.4171L21.0434 48.4691C22.2213 49.2871 25.4807 50.6942 30.0793 50.6778C33.201 50.7726 36.2897 50.0094 39.0184 48.4691C40.0027 41.3111 41.0273 33.5886 42.0196 26.4306C40.4471 25.798 38.8287 25.2893 37.179 24.909C34.8244 24.3544 32.4159 24.0691 29.9986 24.0582Z" fill="#EF8448"/>
<path d="M28.8028 31.8202L25.663 30.714C24.7287 30.3848 23.708 30.886 23.3834 31.8335L22.2924 35.0172C21.9678 35.9646 22.462 36.9995 23.3964 37.3287L26.5362 38.4349C27.4706 38.7641 28.4912 38.2629 28.8159 37.3155L29.9068 34.1318C30.2315 33.1843 29.7372 32.1494 28.8028 31.8202Z" fill="white"/>
<path d="M34.2084 40.1388L32.4334 40.3099C31.4487 40.4048 30.7263 41.2912 30.8199 42.2897L30.9886 44.0895C31.0822 45.088 31.9564 45.8205 32.9411 45.7256L34.7161 45.5545C35.7008 45.4596 36.4232 44.5732 36.3296 43.5747L36.1609 41.7749C36.0673 40.7764 35.1931 40.0439 34.2084 40.1388Z" fill="white"/>
<path d="M29.9992 21.94C29.7317 21.94 29.4752 21.8323 29.2861 21.6405C29.097 21.4487 28.9907 21.1886 28.9907 20.9174V5.02257C28.9907 4.75137 29.097 4.49127 29.2861 4.2995C29.4752 4.10773 29.7317 4 29.9992 4C30.2667 4 30.5232 4.10773 30.7123 4.2995C30.9014 4.49127 31.0077 4.75137 31.0077 5.02257V20.9174C31.0077 21.1886 30.9014 21.4487 30.7123 21.6405C30.5232 21.8323 30.2667 21.94 29.9992 21.94Z" fill="#FC7521"/>
</g>
<defs>
<filter id="filter0_d_884_4929" x="4.55811" y="0" width="50.8867" height="61.9999" filterUnits="userSpaceOnUse" color-interpolation-filters="sRGB">
<feFlood flood-opacity="0" result="BackgroundImageFix"/>
<feColorMatrix in="SourceAlpha" type="matrix" values="0 0 0 0 0 0 0 0 0 0 0 0 0 0 0 0 0 0 127 0" result="hardAlpha"/>
<feOffset dy="2"/>
<feGaussianBlur stdDeviation="2"/>
<feComposite in2="hardAlpha" operator="out"/>
<feColorMatrix type="matrix" values="0 0 0 0 0 0 0 0 0 0 0 0 0 0 0 0 0 0 0.3 0"/>
<feBlend mode="normal" in2="BackgroundImageFix" result="effect1_dropShadow_884_4929"/>
<feBlend mode="normal" in="SourceGraphic" in2="effect1_dropShadow_884_4929" result="shape"/>
</filter>
</defs>
</svg>
