<svg width="60" height="62" viewBox="0 0 60 62" fill="none" xmlns="http://www.w3.org/2000/svg">
<g filter="url(#filter0_d_884_4933)">
<path d="M39.1665 15.0553C37.0065 15.0553 35.4488 16.8116 34.5557 18.7653C33.5173 17.601 32.2711 16.9695 30.9627 16.9695C28.4912 16.9695 26.7466 19.2389 25.8535 21.4688C25.6874 21.5675 25.542 21.6464 25.3758 21.7451C24.3997 20.5808 23.112 19.7322 21.5751 19.7322C19.062 19.7322 17.2551 22.0608 16.362 24.35C14.9498 25.1196 13.8905 26.205 13.2882 27.4679L11.8136 28.0007C9.5498 28.8098 8.19981 31.0003 8.55288 33.2894L10.1106 43.6103C10.2975 44.8535 10.9621 45.9783 12.0005 46.7677L19.872 52.7471C20.7859 53.4377 21.9489 53.8324 23.112 53.8324C23.922 53.8324 24.7112 53.6548 25.4381 53.3193L47.0795 43.038C48.6372 42.3078 49.6964 40.887 49.9041 39.2293L51.4618 27.4285C51.7733 25.0999 50.2987 22.8699 47.9518 22.1398L46.6433 21.7254C46.1033 20.6795 45.1895 19.7914 44.0264 19.1402C43.1334 17.009 41.4095 15.075 39.1872 15.075L39.1665 15.0553Z" fill="white"/>
<path fill-rule="evenodd" clip-rule="evenodd" d="M40.0126 13.4123L39.9295 13.3333H39.1662C36.8585 13.3333 35.186 14.6114 34.0583 16.0931C33.132 15.5591 32.0897 15.2475 30.9624 15.2475C29.0784 15.2475 27.576 16.1235 26.4909 17.1952C25.9201 17.7588 25.4349 18.4029 25.0299 19.0714C24.0691 18.44 22.9143 18.0102 21.5748 18.0102C19.667 18.0102 18.1385 18.9038 17.0345 19.9961C16.097 20.9238 15.3842 22.067 14.8807 23.1905C13.664 23.9572 12.6697 24.9458 11.9765 26.0972L11.1635 26.391C11.1624 26.3914 11.1614 26.3917 11.1603 26.3921C8.07957 27.4948 6.26899 30.4666 6.74081 33.5346C6.74096 33.5356 6.7411 33.5365 6.74125 33.5374L8.298 43.8522C8.29799 43.8521 8.298 43.8522 8.298 43.8522C8.29803 43.8524 8.2981 43.8528 8.29813 43.8531C8.54856 45.5171 9.44246 47.0382 10.8502 48.1083L18.7221 54.088L18.7256 54.0907C19.9548 55.0197 21.5197 55.5555 23.1117 55.5555C24.2095 55.5555 25.2737 55.3142 26.2437 54.8665L26.2532 54.8621L47.8952 44.5804C47.897 44.5796 47.8988 44.5787 47.9006 44.5779C50.0138 43.5852 51.4403 41.6599 51.7208 39.4372C51.7211 39.4354 51.7213 39.4335 51.7215 39.4316L53.2775 27.6442C53.2775 27.6436 53.2776 27.643 53.2777 27.6425C53.6952 24.515 51.7209 21.5014 48.5311 20.5064C48.5294 20.5059 48.5277 20.5054 48.526 20.5048L47.8958 20.3052C47.2824 19.384 46.4537 18.6011 45.4901 17.9783C44.9822 16.9247 44.2797 15.8955 43.3802 15.0733C42.4969 14.2659 41.3612 13.6078 40.0126 13.4123ZM44.0261 19.1408C43.1331 17.0095 41.4092 15.0756 39.187 15.0756L39.1662 15.0559C37.6256 15.0559 36.3915 15.9493 35.4863 17.1705C35.1223 17.6615 34.8116 18.2056 34.5555 18.7658C34.1123 18.269 33.6313 17.8691 33.1238 17.574C32.4421 17.1776 31.7125 16.9701 30.9624 16.9701C28.9448 16.9701 27.4116 18.4824 26.4307 20.2511C26.2302 20.6126 26.0527 20.9848 25.8989 21.357C25.8835 21.3945 25.8682 21.4319 25.8532 21.4694C25.7701 21.5187 25.6923 21.5631 25.6144 21.6075C25.5365 21.6519 25.4586 21.6963 25.3755 21.7457C25.175 21.5065 24.9614 21.2807 24.7351 21.0728C24.572 20.9229 24.4024 20.7824 24.2264 20.6529C23.4579 20.0875 22.5684 19.7328 21.5748 19.7328C19.0617 19.7328 17.2548 22.0614 16.3618 24.3505C14.9495 25.1202 13.8902 26.2055 13.2879 27.4685L11.8133 28.0013C9.54951 28.8104 8.19952 31.0009 8.55259 33.29L10.1103 43.6108C10.2972 44.8541 10.9618 45.9789 12.0003 46.7682L19.8717 52.7476C20.7856 53.4383 21.9486 53.833 23.1117 53.833C23.9217 53.833 24.7109 53.6554 25.4378 53.3199L47.0792 43.0385C48.6369 42.3084 49.6961 40.8875 49.9038 39.2299L51.4615 27.429C51.773 25.1004 50.2984 22.8705 47.9515 22.1403L46.6431 21.7259C46.1031 20.68 45.1892 19.792 44.0261 19.1408Z" fill="white"/>
<path d="M10.6118 33.0012L12.1672 43.3216C12.277 44.0711 12.6887 44.743 13.3017 45.2168L21.1701 51.1954C22.1216 51.919 23.4208 52.0483 24.5095 51.5314L46.1567 41.2455C47.0899 40.8061 47.7212 39.9447 47.8585 38.9626L49.4138 27.1519C49.5968 25.7477 48.7185 24.421 47.3095 23.9731L38.3341 21.1302C37.6479 20.9149 36.9068 20.9321 36.2297 21.1733L12.5698 29.8224C11.2157 30.3221 10.4014 31.6401 10.6027 33.0012H10.6118Z" fill="#BA4E4E"/>
<path d="M39.2218 28.3257C42.5113 28.3257 45.178 26.4512 45.178 24.1389C45.178 21.8267 42.5113 19.9522 39.2218 19.9522C35.9323 19.9522 33.2656 21.8267 33.2656 24.1389C33.2656 26.4512 35.9323 28.3257 39.2218 28.3257Z" fill="white"/>
<path d="M39.1675 17.0225C36.9717 17.0225 35.2059 21.7434 35.9836 23.1992C36.7613 24.6637 41.528 24.8102 42.3515 23.1992C43.2756 21.3988 41.2902 17.0225 39.1675 17.0225Z" fill="#DD3E3A"/>
<path d="M31.0304 31.4837C34.6838 31.4837 37.6454 29.401 37.6454 26.8318C37.6454 24.2626 34.6838 22.1799 31.0304 22.1799C27.3771 22.1799 24.4155 24.2626 24.4155 26.8318C24.4155 29.401 27.3771 31.4837 31.0304 31.4837Z" fill="white"/>
<path d="M30.9758 18.9236C28.533 18.9236 26.575 24.1699 27.4351 25.7809C28.3042 27.4004 33.5925 27.5641 34.5166 25.7809C35.5413 23.7823 33.3455 18.9236 30.9758 18.9236Z" fill="#DD3E3A"/>
<path d="M21.6336 34.6132C25.3981 34.6132 28.4498 32.4688 28.4498 29.8234C28.4498 27.1781 25.3981 25.0337 21.6336 25.0337C17.8691 25.0337 14.8174 27.1781 14.8174 29.8234C14.8174 32.4688 17.8691 34.6132 21.6336 34.6132Z" fill="white"/>
<path d="M21.5797 21.6818C19.0636 21.6818 17.0508 27.0832 17.9383 28.7459C18.8258 30.4085 24.2787 30.5808 25.2303 28.7459C26.2916 26.6869 24.0226 21.6818 21.5888 21.6818H21.5797Z" fill="#DD3E3A"/>
<path d="M39.1649 17.0205C40.5099 17.0205 41.7908 18.7693 42.3214 20.5095C43.7945 21.1039 44.746 22.1032 45.0479 23.2662L47.2895 23.9726C48.6985 24.4205 49.5768 25.7472 49.3938 27.1514L47.8384 38.9621C47.7103 39.9442 47.0699 40.797 46.1367 41.245L24.4895 51.5309C24.0504 51.7376 23.5746 51.841 23.0988 51.841C22.4035 51.841 21.7173 51.617 21.15 51.1949L13.2817 45.2163C12.6595 44.7425 12.257 44.0706 12.1472 43.3211L10.5918 33.0007C10.3905 31.631 11.2048 30.313 12.5589 29.8219L14.9194 28.9605C15.2488 27.608 16.3558 26.4278 18.0393 25.7214C18.6431 23.7572 20.0064 21.6897 21.5618 21.6897C22.9158 21.6897 24.2242 23.2403 24.9287 24.9719C25.4502 24.0932 26.3468 23.3523 27.5362 22.8527C28.1218 20.9402 29.4484 18.933 30.958 18.933C32.2115 18.933 33.4192 20.3113 34.1237 21.8964C34.5995 21.3451 35.2582 20.8885 36.0725 20.5526C36.6031 18.8296 37.7925 17.0292 39.1466 17.0292M39.1466 15.0564C36.9783 15.0564 35.432 16.8052 34.5446 18.7693C33.5107 17.615 32.2572 16.9689 30.958 16.9689C28.4877 16.9689 26.7311 19.2345 25.8436 21.4657C25.6789 21.5519 25.5234 21.6466 25.3678 21.7414C24.3889 20.5784 23.0988 19.7169 21.5618 19.7169C19.0366 19.7169 17.2525 22.0429 16.3467 24.3344C14.9377 25.1097 13.8672 26.1952 13.2725 27.4529L11.8086 27.987C9.54877 28.8054 8.20383 30.9849 8.5515 33.2764L10.1069 43.5968C10.299 44.8459 10.9669 45.9658 12.0008 46.7498L19.8691 52.7283C20.7841 53.4261 21.9369 53.8138 23.1171 53.8138C23.9223 53.8138 24.7183 53.6329 25.441 53.2969L47.0882 43.011C48.6436 42.2701 49.7049 40.8487 49.9153 39.2119L51.4707 27.4012C51.7726 25.0753 50.2996 22.8527 47.9574 22.1118L46.649 21.6983C46.1001 20.6473 45.1943 19.76 44.0232 19.1139C43.1357 16.9775 41.4065 15.0564 39.1741 15.0564H39.1466Z" fill="#54423A"/>
</g>
<defs>
<filter id="filter0_d_884_4933" x="2.6665" y="11.3333" width="54.6665" height="50.2222" filterUnits="userSpaceOnUse" color-interpolation-filters="sRGB">
<feFlood flood-opacity="0" result="BackgroundImageFix"/>
<feColorMatrix in="SourceAlpha" type="matrix" values="0 0 0 0 0 0 0 0 0 0 0 0 0 0 0 0 0 0 127 0" result="hardAlpha"/>
<feOffset dy="2"/>
<feGaussianBlur stdDeviation="2"/>
<feComposite in2="hardAlpha" operator="out"/>
<feColorMatrix type="matrix" values="0 0 0 0 0 0 0 0 0 0 0 0 0 0 0 0 0 0 0.3 0"/>
<feBlend mode="normal" in2="BackgroundImageFix" result="effect1_dropShadow_884_4933"/>
<feBlend mode="normal" in="SourceGraphic" in2="effect1_dropShadow_884_4933" result="shape"/>
</filter>
</defs>
</svg>
