<svg width="60" height="62" viewBox="0 0 60 62" fill="none" xmlns="http://www.w3.org/2000/svg">
<g filter="url(#filter0_d_884_4930)">
<mask id="path-1-outside-1_884_4930" maskUnits="userSpaceOnUse" x="8.56006" y="2" width="43" height="55" fill="black">
<rect fill="white" x="8.56006" y="2" width="43" height="55"/>
<path fill-rule="evenodd" clip-rule="evenodd" d="M28.9953 15.3212V5.02258C28.9953 4.75137 29.1016 4.49128 29.2907 4.29951C29.4799 4.10774 29.7364 4 30.0039 4C30.2714 4 30.5279 4.10774 30.717 4.29951C30.9061 4.49128 31.0124 4.75137 31.0124 5.02258V15.3212C37.9183 15.4172 49.4489 16.5041 49.4489 20.1488C49.4489 21.3922 48.1903 22.3985 45.5923 23.2083L41.8164 50.6298C41.7987 50.7593 41.7506 50.8825 41.6762 50.9893C41.6018 51.096 41.5032 51.1832 41.3888 51.2433C37.8625 53.0623 33.9609 54.0071 30.0045 54.0002C26.0473 53.9951 22.1481 53.0361 18.6283 51.2024C18.5172 51.1472 18.4202 51.0669 18.3446 50.9676C18.2691 50.8683 18.2171 50.7527 18.1926 50.6298L14.4247 23.2083C11.8268 22.3985 10.5601 21.3922 10.5601 20.1488C10.5601 16.5044 22.0894 15.4173 28.9953 15.3212Z"/>
</mask>
<path fill-rule="evenodd" clip-rule="evenodd" d="M28.9953 15.3212V5.02258C28.9953 4.75137 29.1016 4.49128 29.2907 4.29951C29.4799 4.10774 29.7364 4 30.0039 4C30.2714 4 30.5279 4.10774 30.717 4.29951C30.9061 4.49128 31.0124 4.75137 31.0124 5.02258V15.3212C37.9183 15.4172 49.4489 16.5041 49.4489 20.1488C49.4489 21.3922 48.1903 22.3985 45.5923 23.2083L41.8164 50.6298C41.7987 50.7593 41.7506 50.8825 41.6762 50.9893C41.6018 51.096 41.5032 51.1832 41.3888 51.2433C37.8625 53.0623 33.9609 54.0071 30.0045 54.0002C26.0473 53.9951 22.1481 53.0361 18.6283 51.2024C18.5172 51.1472 18.4202 51.0669 18.3446 50.9676C18.2691 50.8683 18.2171 50.7527 18.1926 50.6298L14.4247 23.2083C11.8268 22.3985 10.5601 21.3922 10.5601 20.1488C10.5601 16.5044 22.0894 15.4173 28.9953 15.3212Z" fill="white"/>
<path d="M28.9953 15.3212L29.0232 17.321L30.9953 17.2936V15.3212H28.9953ZM29.2907 4.29951L30.7147 5.70391L29.2907 4.29951ZM30.717 4.29951L29.2931 5.70391L30.717 4.29951ZM31.0124 15.3212H29.0124V17.2936L30.9846 17.321L31.0124 15.3212ZM45.5923 23.2083L44.9971 21.299L43.7843 21.677L43.611 22.9355L45.5923 23.2083ZM41.8164 50.6298L39.8351 50.357L39.8349 50.3582L41.8164 50.6298ZM41.3888 51.2433L42.3056 53.0208L42.3128 53.0171L42.3198 53.0134L41.3888 51.2433ZM30.0045 54.0002L30.008 52.0002L30.0071 52.0002L30.0045 54.0002ZM18.6283 51.2024L19.5523 49.4287L19.5355 49.42L19.5186 49.4115L18.6283 51.2024ZM18.3446 50.9676L16.753 52.1786L16.753 52.1786L18.3446 50.9676ZM18.1926 50.6298L16.2112 50.9021L16.2194 50.9615L16.2311 51.0203L18.1926 50.6298ZM14.4247 23.2083L16.4061 22.9361L16.2331 21.6772L15.02 21.299L14.4247 23.2083ZM30.9953 15.3212V5.02258H26.9953V15.3212H30.9953ZM30.9953 5.02258C30.9953 5.27294 30.8975 5.51854 30.7147 5.70391L27.8668 2.89511C27.3057 3.46401 26.9953 4.2298 26.9953 5.02258H30.9953ZM30.7147 5.70391C30.531 5.8902 30.2758 6 30.0039 6V2C29.197 2 28.4288 2.32527 27.8668 2.89511L30.7147 5.70391ZM30.0039 6C29.7319 6 29.4768 5.8902 29.2931 5.70391L32.141 2.89511C31.579 2.32527 30.8108 2 30.0039 2V6ZM29.2931 5.70391C29.1102 5.51855 29.0124 5.27295 29.0124 5.02258H33.0124C33.0124 4.2298 32.7021 3.46401 32.141 2.89511L29.2931 5.70391ZM29.0124 5.02258V15.3212H33.0124V5.02258H29.0124ZM30.9846 17.321C34.3782 17.3682 38.8536 17.6599 42.4331 18.3664C44.2414 18.7233 45.6808 19.16 46.6194 19.6462C47.6742 20.1927 47.4489 20.4357 47.4489 20.1488H51.4489C51.4489 18.0396 49.7823 16.7799 48.4594 16.0945C47.0202 15.349 45.1452 14.8245 43.2076 14.4421C39.2953 13.6699 34.5525 13.3702 31.0402 13.3214L30.9846 17.321ZM47.4489 20.1488C47.4489 19.9867 47.5677 20.0233 47.2504 20.2755C46.8911 20.5611 46.1964 20.9251 44.9971 21.299L46.1875 25.1177C47.5863 24.6817 48.8198 24.1377 49.7393 23.4068C50.7008 22.6426 51.4489 21.5543 51.4489 20.1488H47.4489ZM43.611 22.9355L39.8351 50.357L43.7977 50.9026L47.5736 23.4812L43.611 22.9355ZM39.8349 50.3582C39.86 50.1755 39.928 49.9997 40.0354 49.8457L43.317 52.1329C43.5731 51.7653 43.7373 51.343 43.7979 50.9014L39.8349 50.3582ZM40.0354 49.8457C40.1428 49.6915 40.287 49.5631 40.4577 49.4733L42.3198 53.0134C42.7194 52.8032 43.0607 52.5005 43.317 52.1329L40.0354 49.8457ZM40.4719 49.4659C37.2293 51.1385 33.6433 52.0066 30.008 52.0002L30.001 56.0002C34.2785 56.0077 38.4957 54.9861 42.3056 53.0208L40.4719 49.4659ZM30.0071 52.0002C26.3718 51.9955 22.7884 51.1146 19.5523 49.4287L17.7042 52.9762C21.5077 54.9576 25.7229 55.9946 30.0019 56.0002L30.0071 52.0002ZM19.5186 49.4115C19.6845 49.494 19.8269 49.6128 19.9363 49.7566L16.753 52.1786C17.0135 52.521 17.3499 52.8004 17.738 52.9934L19.5186 49.4115ZM19.9363 49.7566C20.0457 49.9003 20.1195 50.0656 20.1541 50.2393L16.2311 51.0203C16.3146 51.4399 16.4925 51.8363 16.753 52.1786L19.9363 49.7566ZM20.174 50.3575L16.4061 22.9361L12.4434 23.4806L16.2112 50.9021L20.174 50.3575ZM15.02 21.299C13.8202 20.925 13.1223 20.5605 12.7602 20.2736C12.4388 20.0189 12.5601 19.9823 12.5601 20.1488H8.56006C8.56006 21.5588 9.31472 22.647 10.2761 23.4087C11.1968 24.1382 12.4313 24.6818 13.8295 25.1177L15.02 21.299ZM12.5601 20.1488C12.5601 20.4356 12.3348 20.1927 13.3895 19.6463C14.328 19.1601 15.7671 18.7234 17.5753 18.3665C21.1544 17.66 25.6295 17.3683 29.0232 17.321L28.9675 13.3214C25.4552 13.3703 20.7126 13.6701 16.8007 14.4422C14.8632 14.8247 12.9884 15.3491 11.5494 16.0947C10.2265 16.7801 8.56006 18.0397 8.56006 20.1488H12.5601Z" fill="white" mask="url(#path-1-outside-1_884_4930)"/>
<path d="M48.6385 20.1488C48.6385 17.9318 40.296 16.1321 30.0009 16.1321C19.7058 16.1321 11.3633 17.9073 11.3633 20.1488C11.3633 21.0568 12.7752 21.8994 15.1473 22.603L18.9878 50.5071C22.3936 52.2865 26.1695 53.2149 30.0009 53.2149C33.8323 53.2149 37.6082 52.2865 41.014 50.5071L44.8626 22.5702C47.2346 21.8994 48.6385 21.0568 48.6385 20.1488Z" fill="#F0F6F5"/>
<path d="M30.0001 54.0003C26.0429 53.9951 22.1437 53.0362 18.6239 51.2025C18.5128 51.1473 18.4158 51.0669 18.3403 50.9676C18.2647 50.8684 18.2127 50.7528 18.1882 50.6299L14.4203 23.2084C11.8224 22.3985 10.5557 21.3923 10.5557 20.1488C10.5557 16.3203 23.2793 15.3141 30.0001 15.3141C36.7209 15.3141 49.4446 16.3203 49.4446 20.1488C49.4446 21.3923 48.1859 22.3985 45.5879 23.2084L41.812 50.6299C41.7943 50.7593 41.7462 50.8826 41.6718 50.9893C41.5974 51.0961 41.4988 51.1832 41.3844 51.2434C37.8581 53.0624 33.9565 54.0072 30.0001 54.0003ZM19.7292 49.91C22.9237 51.5081 26.438 52.3393 30.0001 52.3393C33.5622 52.3393 37.0765 51.5081 40.271 49.91L44.055 22.4312C44.0779 22.2734 44.1459 22.1257 44.2506 22.0065C44.3552 21.8874 44.492 21.8018 44.644 21.7604C47.2903 21.0078 47.8712 20.2715 47.8712 20.1243C47.8712 19.1672 41.8039 16.9257 30.0404 16.9257C18.277 16.9257 12.1693 19.1917 12.1693 20.1488C12.1693 20.2961 12.7099 21.0323 15.3966 21.785C15.5471 21.8277 15.6821 21.9139 15.7853 22.0329C15.8884 22.152 15.9552 22.2989 15.9775 22.4558L19.7292 49.91Z" fill="#3C291C"/>
<path d="M29.9993 24.059C27.5562 24.0538 25.1203 24.3282 22.7379 24.8771C21.0884 25.2586 19.4701 25.7673 17.897 26.3987C18.408 30.0745 18.9189 33.7476 19.4299 37.418L21.0436 48.47C22.2215 49.2881 25.4811 50.6952 30.08 50.6788C33.2018 50.7735 36.2908 50.0103 39.0196 48.47C40.0039 41.312 41.0286 33.5895 42.021 26.4314C40.4483 25.7988 38.8299 25.2901 37.1801 24.9098C34.8253 24.3552 32.4167 24.0699 29.9993 24.059Z" fill="#F8675E"/>
<path d="M28.8041 31.8199L25.6641 30.7137C24.7297 30.3845 23.709 30.8857 23.3843 31.8332L22.2933 35.0169C21.9686 35.9643 22.4629 36.9993 23.3974 37.3284L26.5373 38.4346C27.4718 38.7638 28.4925 38.2626 28.8171 37.3152L29.9081 34.1315C30.2328 33.184 29.7385 32.1491 28.8041 31.8199Z" fill="white"/>
<path d="M34.21 40.1394L32.435 40.3104C31.4502 40.4054 30.7277 41.2917 30.8214 42.2903L30.9901 44.0901C31.0837 45.0886 31.9579 45.8211 32.9427 45.7261L34.7178 45.5551C35.7026 45.4602 36.425 44.5738 36.3314 43.5753L36.1627 41.7755C36.069 40.777 35.1948 40.0444 34.21 40.1394Z" fill="white"/>
<path d="M30.0002 21.9401C29.7327 21.9401 29.4762 21.8324 29.2871 21.6406C29.098 21.4488 28.9917 21.1887 28.9917 20.9175V5.02258C28.9917 4.75137 29.098 4.49128 29.2871 4.29951C29.4762 4.10774 29.7327 4 30.0002 4C30.2677 4 30.5242 4.10774 30.7134 4.29951C30.9025 4.49128 31.0088 4.75137 31.0088 5.02258V20.9175C31.0088 21.1887 30.9025 21.4488 30.7134 21.6406C30.5242 21.8324 30.2677 21.9401 30.0002 21.9401Z" fill="#FC7521"/>
</g>
<defs>
<filter id="filter0_d_884_4930" x="4.56006" y="0" width="50.8887" height="62.0002" filterUnits="userSpaceOnUse" color-interpolation-filters="sRGB">
<feFlood flood-opacity="0" result="BackgroundImageFix"/>
<feColorMatrix in="SourceAlpha" type="matrix" values="0 0 0 0 0 0 0 0 0 0 0 0 0 0 0 0 0 0 127 0" result="hardAlpha"/>
<feOffset dy="2"/>
<feGaussianBlur stdDeviation="2"/>
<feComposite in2="hardAlpha" operator="out"/>
<feColorMatrix type="matrix" values="0 0 0 0 0 0 0 0 0 0 0 0 0 0 0 0 0 0 0.3 0"/>
<feBlend mode="normal" in2="BackgroundImageFix" result="effect1_dropShadow_884_4930"/>
<feBlend mode="normal" in="SourceGraphic" in2="effect1_dropShadow_884_4930" result="shape"/>
</filter>
</defs>
</svg>
