<svg width="44" height="44" viewBox="0 0 44 44" fill="none" xmlns="http://www.w3.org/2000/svg">
<circle cx="22" cy="22" r="22" fill="#FFF0E6"/>
<path fill-rule="evenodd" clip-rule="evenodd" d="M21.3947 13.1927V7.01357C21.3947 6.85085 21.4584 6.69479 21.5719 6.57973C21.6854 6.46466 21.8393 6.40002 21.9998 6.40002C22.1603 6.40002 22.3142 6.46466 22.4277 6.57973C22.5412 6.69479 22.6049 6.85085 22.6049 7.01357V13.1927C26.7484 13.2503 33.6668 13.9025 33.6668 16.0893C33.6668 16.8354 32.9117 17.4391 31.3529 17.925L29.0873 34.3779C29.0767 34.4556 29.0478 34.5295 29.0032 34.5936C28.9585 34.6576 28.8994 34.7099 28.8307 34.746C26.715 35.8374 24.374 36.4043 22.0002 36.4002C19.6259 36.3971 17.2863 35.8217 15.1745 34.7215C15.1078 34.6884 15.0496 34.6401 15.0043 34.5806C14.9589 34.521 14.9277 34.4517 14.913 34.3779L12.6523 17.925C11.0935 17.4391 10.3335 16.8354 10.3335 16.0893C10.3335 13.9026 17.2511 13.2504 21.3947 13.1927Z" fill="white"/>
<path d="M33.1833 16.089C33.1833 14.7588 28.1777 13.679 22.0007 13.679C15.8236 13.679 10.8181 14.7441 10.8181 16.089C10.8181 16.6338 11.6653 17.1394 13.0885 17.5615L15.3928 34.304C17.4363 35.3716 19.7018 35.9287 22.0007 35.9287C24.2995 35.9287 26.5651 35.3716 28.6086 34.304L30.9177 17.5418C32.3409 17.1394 33.1833 16.6338 33.1833 16.089Z" fill="#F0F6F5"/>
<path d="M22.0002 36.4002C19.6259 36.3971 17.2863 35.8217 15.1744 34.7215C15.1078 34.6884 15.0496 34.6402 15.0042 34.5806C14.9589 34.521 14.9277 34.4517 14.913 34.3779L12.6523 17.9251C11.0935 17.4391 10.3335 16.8354 10.3335 16.0893C10.3335 13.7922 17.9677 13.1885 22.0002 13.1885C26.0327 13.1885 33.6668 13.7922 33.6668 16.0893C33.6668 16.8354 32.9116 17.4391 31.3529 17.9251L29.0873 34.3779C29.0767 34.4556 29.0478 34.5296 29.0032 34.5936C28.9585 34.6577 28.8994 34.71 28.8307 34.7461C26.7149 35.8374 24.374 36.4043 22.0002 36.4002V36.4002ZM15.8376 33.946C17.7543 34.9049 19.8629 35.4036 22.0002 35.4036C24.1374 35.4036 26.246 34.9049 28.1627 33.946L30.4331 17.4588C30.4468 17.364 30.4876 17.2755 30.5504 17.204C30.6132 17.1324 30.6953 17.0811 30.7865 17.0563C32.3743 16.6047 32.7228 16.163 32.7228 16.0746C32.7228 15.5003 29.0825 14.1554 22.0244 14.1554C14.9663 14.1554 11.3017 15.515 11.3017 16.0893C11.3017 16.1777 11.626 16.6194 13.2381 17.071C13.3284 17.0966 13.4094 17.1483 13.4713 17.2198C13.5331 17.2912 13.5732 17.3794 13.5866 17.4735L15.8376 33.946Z" fill="#3C291C"/>
<path d="M21.9999 18.4355C20.5341 18.4323 19.0725 18.597 17.6431 18.9263C16.6534 19.1552 15.6824 19.4604 14.7385 19.8393C15.0451 22.0448 15.3517 24.2486 15.6583 26.4508L16.6265 33.0821C17.3333 33.5729 19.289 34.4171 22.0483 34.4073C23.9214 34.4642 25.7748 34.0062 27.4121 33.0821C28.0027 28.7872 28.6175 24.1537 29.2129 19.8589C28.2693 19.4793 27.2983 19.1741 26.3084 18.9459C24.8955 18.6132 23.4504 18.442 21.9999 18.4355V18.4355Z" fill="#CA5005"/>
<path d="M21.2824 23.0923L19.3985 22.4286C18.8378 22.231 18.2254 22.5318 18.0306 23.1002L17.376 25.0105C17.1812 25.5789 17.4778 26.1999 18.0384 26.3974L19.9224 27.0611C20.4831 27.2586 21.0955 26.9579 21.2903 26.3894L21.9449 24.4792C22.1397 23.9107 21.8431 23.2898 21.2824 23.0923Z" fill="white"/>
<path d="M21.9999 17.1641C21.8394 17.1641 21.6855 17.0995 21.572 16.9844C21.4585 16.8693 21.3948 16.7133 21.3948 16.5505V7.01357C21.3948 6.85085 21.4585 6.69479 21.572 6.57973C21.6855 6.46467 21.8394 6.40002 21.9999 6.40002C22.1604 6.40002 22.3143 6.46467 22.4278 6.57973C22.5413 6.69479 22.605 6.85085 22.605 7.01357V16.5505C22.605 16.7133 22.5413 16.8693 22.4278 16.9844C22.3143 17.0995 22.1604 17.1641 21.9999 17.1641Z" fill="#FC7521"/>
<path d="M24.526 28.0835L23.461 28.1862C22.8701 28.2431 22.4366 28.775 22.4928 29.3741L22.594 30.454C22.6502 31.0531 23.1747 31.4926 23.7656 31.4356L24.8307 31.333C25.4215 31.276 25.855 30.7442 25.7988 30.1451L25.6976 29.0652C25.6414 28.4661 25.1169 28.0266 24.526 28.0835Z" fill="white"/>
</svg>
