<svg width="60" height="62" viewBox="0 0 60 62" fill="none" xmlns="http://www.w3.org/2000/svg">
<g filter="url(#filter0_d_884_4925)">
<path d="M36.297 15.0564C35.5838 15.0564 34.8922 15.184 34.2223 15.4605L10.6445 25.0959C8.46182 25.9893 7.14354 28.1375 7.31643 30.456L8.33215 42.4311C8.46182 43.9838 9.28304 45.4089 10.5797 46.3235L19.8941 52.8535C20.8234 53.4916 21.9039 53.8319 23.0277 53.8319C23.8706 53.8319 24.6918 53.6405 25.4482 53.2789L48.0966 42.1333C49.7175 41.3463 50.8196 39.8149 51.0357 38.0282L52.6566 25.181C52.9591 22.7562 51.5544 20.4377 49.2204 19.5444L38.2203 15.418C37.5936 15.184 36.9453 15.0564 36.297 15.0564Z" fill="white"/>
<path fill-rule="evenodd" clip-rule="evenodd" d="M10.6453 25.0962L34.223 15.4608C34.893 15.1843 35.5845 15.0567 36.2977 15.0567C36.946 15.0567 37.5944 15.1843 38.2211 15.4183L49.2211 19.5447C51.5552 20.438 52.9599 22.7565 52.6573 25.1813L51.0365 38.0284C50.8204 39.8151 49.7182 41.3466 48.0974 42.1336L25.4489 53.2792C24.6925 53.6407 23.8713 53.8322 23.0285 53.8322C21.9047 53.8322 20.8241 53.4919 19.8948 52.8538L10.5804 46.3238C9.28378 45.4092 8.46256 43.9841 8.33289 42.4314L7.31717 30.4563C7.14428 28.1378 8.46256 25.9895 10.6453 25.0962ZM6.59254 42.5741C6.59251 42.5737 6.59248 42.5733 6.59245 42.5729L5.57618 30.5914L5.57553 30.5827C5.34819 27.5341 7.08777 24.6865 9.97626 23.5043L9.97712 23.504L33.5492 13.8709C33.5502 13.8705 33.5513 13.87 33.5523 13.8696C34.447 13.5008 35.3679 13.3333 36.2977 13.3333C37.1793 13.3333 38.0366 13.5068 38.839 13.8064L38.8416 13.8074L49.8527 17.9379C52.9277 19.1149 54.7915 22.179 54.3906 25.3919L54.3903 25.3942L52.7705 38.2327C52.7704 38.2341 52.7702 38.2354 52.77 38.2368C52.483 40.5984 51.0216 42.6325 48.873 43.6776C48.8715 43.6784 48.8699 43.6791 48.8684 43.6799L26.2193 54.8258L26.2103 54.8301C25.2232 55.302 24.1423 55.5555 23.0285 55.5555C21.5405 55.5555 20.1131 55.1032 18.8974 54.2683L18.8904 54.2635L9.56495 47.7258C7.85404 46.519 6.765 44.6349 6.59254 42.5741Z" fill="white"/>
<path d="M16.5677 32.7523C16.1787 33.2841 15.9409 33.9222 15.9409 34.5816L16.2867 48.6412L17 49.024L18.6542 49.9373V35.7196C18.6542 35.1028 18.7666 34.5067 19.0908 33.9962L16.5461 32.7311L16.5677 32.7523Z" fill="#CA4224"/>
<path d="M8.50732 28.266L10.0635 44.7504L14.062 47.5793L14.5591 31.6479L8.50732 28.266Z" fill="#C97632"/>
<path d="M36.3672 15.9711L8.50732 28.2653L14.5591 31.6472L42.0948 17.928L36.3672 15.9711Z" fill="#F2A023"/>
<path d="M18.817 34.0083L24.523 37.1775L51.1725 22.2884L47.0876 20.4166L20.1138 32.8597C19.5735 33.1149 19.1196 33.519 18.7954 34.0083H18.817Z" fill="#F2A023"/>
<path d="M24.5221 37.1785L18.8161 34.0093C18.4919 34.5198 18.2974 35.1153 18.2974 35.7322V49.7279L23.4198 53.0461L24.5005 37.1785H24.5221Z" fill="#C97632"/>
<path d="M51.1509 22.2667L24.6743 35.3904C23.572 35.9221 22.8804 37.0282 22.8804 38.2406V53.0233L49.1409 40.3463L51.1293 22.2667H51.1509Z" fill="#F7C771"/>
<path d="M16.5665 32.7533L13.0651 30.7964C12.7625 31.3069 12.5896 31.8812 12.6112 32.4981L13.1083 46.9405L16.2855 48.6421L15.9397 34.5825C15.9397 33.9019 16.1774 33.2851 16.5665 32.7533Z" fill="#236726"/>
<path d="M17.7344 31.7522L44.4488 19.5219L40.7313 17.7777L14.4924 29.5188C13.8872 29.7954 13.3901 30.2633 13.0659 30.8163L16.5673 32.7732C16.8699 32.369 17.259 32.0075 17.7344 31.7735V31.7522Z" fill="#369C3A"/>
<path d="M45.6347 20.0755L44.446 19.5225L17.7316 31.7529C17.2561 31.9868 16.867 32.3484 16.5645 32.7526L18.8123 34.0075C19.1365 33.5183 19.5687 33.1142 20.1307 32.8589L45.4186 21.2029L46.8235 20.5648L45.6563 20.1181L45.6347 20.0755Z" fill="#FF7354"/>
<path d="M36.2803 17.2047C36.6694 17.2047 37.0584 17.2685 37.4474 17.4174L48.492 21.5651C49.8752 22.0968 50.7398 23.4794 50.5453 24.947L48.9243 37.7942C48.7946 38.8577 48.1245 39.7723 47.1519 40.2615L24.5009 51.4071C24.047 51.6411 23.5499 51.7474 23.0528 51.7474C22.3828 51.7474 21.7344 51.556 21.1724 51.1519L11.857 44.6219C11.0789 44.0689 10.5818 43.2181 10.5169 42.2822L9.50109 30.3071C9.39302 28.9245 10.1927 27.6271 11.4895 27.0953L35.0483 17.4387C35.4374 17.2685 35.8697 17.2047 36.2803 17.2047ZM36.2803 15.0777C35.5671 15.0777 34.8754 15.2053 34.2054 15.4818L10.6466 25.0959C8.46364 25.9893 7.14521 28.1375 7.33973 30.456L8.35557 42.4311C8.48525 43.9838 9.30657 45.4089 10.6034 46.3235L19.9188 52.8535C20.8482 53.4916 21.9289 53.8319 23.0528 53.8319C23.8957 53.8319 24.717 53.6405 25.4735 53.2789L48.1245 42.1333C49.7456 41.3463 50.8479 39.8149 51.064 38.0282L52.685 25.181C52.9876 22.7562 51.5827 20.4377 49.2485 19.5657L38.2039 15.418C37.5771 15.184 36.9287 15.0564 36.2803 15.0564V15.0777Z" fill="#54423A"/>
</g>
<defs>
<filter id="filter0_d_884_4925" x="1.55566" y="11.3333" width="56.8887" height="50.2222" filterUnits="userSpaceOnUse" color-interpolation-filters="sRGB">
<feFlood flood-opacity="0" result="BackgroundImageFix"/>
<feColorMatrix in="SourceAlpha" type="matrix" values="0 0 0 0 0 0 0 0 0 0 0 0 0 0 0 0 0 0 127 0" result="hardAlpha"/>
<feOffset dy="2"/>
<feGaussianBlur stdDeviation="2"/>
<feComposite in2="hardAlpha" operator="out"/>
<feColorMatrix type="matrix" values="0 0 0 0 0 0 0 0 0 0 0 0 0 0 0 0 0 0 0.3 0"/>
<feBlend mode="normal" in2="BackgroundImageFix" result="effect1_dropShadow_884_4925"/>
<feBlend mode="normal" in="SourceGraphic" in2="effect1_dropShadow_884_4925" result="shape"/>
</filter>
</defs>
</svg>
