<svg width="32" height="32" viewBox="0 0 32 32" fill="none" xmlns="http://www.w3.org/2000/svg">
<path d="M23.7 9.5H22.16C21.9285 9.50133 21.6994 9.45309 21.4881 9.35851C21.2768 9.26393 21.0882 9.12521 20.935 8.95167L18.8234 6.54833C18.6692 6.37596 18.4804 6.23804 18.2693 6.14355C18.0582 6.04907 17.8296 6.00016 17.5984 6H14.4017C14.1704 6.00016 13.9418 6.04907 13.7307 6.14355C13.5196 6.23804 13.3309 6.37596 13.1767 6.54833L11.065 8.95167C10.9175 9.11691 10.7381 9.25065 10.5376 9.34487C10.3372 9.4391 10.1197 9.49186 9.89836 9.5H8.30002C7.93189 9.49846 7.5671 9.56983 7.22669 9.70999C6.88628 9.85016 6.577 10.0563 6.31668 10.3167C6.05637 10.577 5.85018 10.8863 5.71002 11.2267C5.56985 11.5671 5.49848 11.9319 5.50002 12.3V21.8667C5.49848 22.2348 5.56985 22.5996 5.71002 22.94C5.85018 23.2804 6.05637 23.5897 6.31668 23.85C6.577 24.1103 6.88628 24.3165 7.22669 24.4567C7.5671 24.5968 7.93189 24.6682 8.30002 24.6667H23.7C24.0682 24.6682 24.433 24.5968 24.7734 24.4567C25.1138 24.3165 25.4231 24.1103 25.6834 23.85C25.9437 23.5897 26.1499 23.2804 26.29 22.94C26.4302 22.5996 26.5016 22.2348 26.5 21.8667V12.3C26.5016 11.9319 26.4302 11.5671 26.29 11.2267C26.1499 10.8863 25.9437 10.577 25.6834 10.3167C25.4231 10.0563 25.1138 9.85016 24.7734 9.70999C24.433 9.56983 24.0682 9.49846 23.7 9.5ZM16 21.7617C15.077 21.7617 14.1748 21.488 13.4074 20.9752C12.6399 20.4624 12.0418 19.7336 11.6886 18.8809C11.3354 18.0281 11.243 17.0898 11.423 16.1846C11.6031 15.2793 12.0475 14.4478 12.7002 13.7952C13.3528 13.1425 14.1844 12.6981 15.0896 12.518C15.9948 12.3379 16.9332 12.4304 17.7859 12.7836C18.6386 13.1368 19.3674 13.7349 19.8802 14.5023C20.393 15.2698 20.6667 16.172 20.6667 17.095C20.6667 18.3327 20.175 19.5197 19.2999 20.3948C18.4247 21.27 17.2377 21.7617 16 21.7617ZM16 20.3033C15.3655 20.3033 14.7452 20.1152 14.2176 19.7626C13.69 19.4101 13.2787 18.909 13.0359 18.3228C12.7931 17.7365 12.7295 17.0914 12.8533 16.4691C12.9771 15.8467 13.2827 15.2751 13.7314 14.8264C14.1801 14.3777 14.7518 14.0721 15.3741 13.9483C15.9965 13.8245 16.6416 13.8881 17.2278 14.1309C17.814 14.3737 18.3151 14.7849 18.6677 15.3125C19.0202 15.8402 19.2084 16.4605 19.2084 17.095C19.2084 17.9459 18.8703 18.762 18.2687 19.3636C17.667 19.9653 16.8509 20.3033 16 20.3033Z" fill="#333333"/>
</svg>
