<svg width="32" height="32" viewBox="0 0 32 32" fill="none" xmlns="http://www.w3.org/2000/svg">
<g clip-path="url(#clip0_749_4413)">
<path d="M16 32C24.8366 32 32 24.8366 32 16C32 7.16344 24.8366 0 16 0C7.16344 0 0 7.16344 0 16C0 24.8366 7.16344 32 16 32Z" fill="#FDDC3F"/>
<path d="M16.0001 8.82C17.5336 8.80281 19.0491 9.15253 20.4201 9.84C21.4956 10.3828 22.4172 11.1875 23.1001 12.18C23.5779 12.872 23.8862 13.6668 24.0001 14.5C24.1334 15.74 23.806 16.9858 23.0801 18C22.4351 18.9534 21.562 19.7303 20.5401 20.26C19.6374 20.7521 18.6562 21.0837 17.6401 21.24C16.7909 21.3598 15.9292 21.3598 15.0801 21.24H14.7401C14.6878 21.212 14.6294 21.1973 14.5701 21.1973C14.5107 21.1973 14.4523 21.212 14.4001 21.24L11.3801 23.24C11.1801 23.38 11.0401 23.36 10.9801 23.24C10.9707 23.2178 10.9659 23.194 10.9659 23.17C10.9659 23.146 10.9707 23.1222 10.9801 23.1C11.2201 22.2 11.4401 21.3 11.7001 20.42C11.7001 20.3 11.7001 20.26 11.7001 20.2C10.9454 19.7954 10.2683 19.2605 9.70006 18.62C8.84074 17.8659 8.24507 16.8567 8.00006 15.74C7.86781 14.561 8.15071 13.3729 8.80006 12.38C9.67668 11.0199 10.9771 9.98663 12.5001 9.44C13.4422 9.08282 14.4339 8.87368 15.4401 8.82H16.0001Z" fill="#3A2929"/>
</g>
<defs>
<clipPath id="clip0_749_4413">
<rect width="32" height="32" fill="white"/>
</clipPath>
</defs>
</svg>
