<svg width="32" height="32" viewBox="0 0 32 32" fill="none" xmlns="http://www.w3.org/2000/svg">
<g clip-path="url(#clip0_1119_4975)">
<path d="M16 2.66669C9.92 2.66669 5 7.48002 5 13.4267C5 19.3734 8.52 22.7734 14.28 28.6134C15.2133 29.56 16.7733 29.56 17.72 28.6134C23.36 22.8934 27 19.3734 27 13.4267C27 7.48002 22.08 2.66669 16 2.66669ZM16 17.4C13.9733 17.4 12.3333 15.76 12.3333 13.7334C12.3333 11.7067 13.9733 10.0667 16 10.0667C18.0267 10.0667 19.6667 11.7067 19.6667 13.7334C19.6667 15.76 18.0267 17.4 16 17.4Z" fill="#333333"/>
<path d="M16.0133 17.4C18.0384 17.4 19.68 15.7584 19.68 13.7333C19.68 11.7083 18.0384 10.0667 16.0133 10.0667C13.9883 10.0667 12.3467 11.7083 12.3467 13.7333C12.3467 15.7584 13.9883 17.4 16.0133 17.4Z" fill="white"/>
</g>
<defs>
<clipPath id="clip0_1119_4975">
<rect width="32" height="32" fill="white"/>
</clipPath>
</defs>
</svg>
