<svg width="32" height="32" viewBox="0 0 32 32" fill="none" xmlns="http://www.w3.org/2000/svg">
<g clip-path="url(#clip0_1119_4962)">
<path d="M26.0266 15.0934L21.9466 13.4534L21.4933 14.5734H10.8L10.3466 13.4667L6.30664 15.0934C5.09331 15.5867 4.30664 16.7467 4.30664 18.0667V26.2C4.30664 26.8667 4.66664 27.4934 5.25331 27.8267C5.83997 28.16 6.55997 28.1467 7.13331 27.8L11.36 25.2667L14.6533 27.7334C15.1066 28.0667 15.64 28.24 16.1733 28.24C16.7066 28.24 17.24 28.0667 17.6933 27.7334L20.9866 25.2667L25.2133 27.8C25.7866 28.1467 26.5066 28.1467 27.0933 27.8267C27.68 27.4934 28.04 26.88 28.04 26.2V18.0667C28.04 16.76 27.2533 15.5867 26.0266 15.0934Z" fill="#FDBA90"/>
<path d="M16.1732 3.84003C12.1198 3.84003 8.83984 7.05336 8.83984 11.0134C8.83984 14.9734 11.0665 17.1334 14.7465 20.8534C15.1332 21.2534 15.6532 21.4534 16.1732 21.4534C16.6932 21.4534 17.2132 21.2534 17.5998 20.8534C21.1998 17.2134 23.5065 14.88 23.5065 11.0134C23.5065 7.14669 20.2265 3.84003 16.1732 3.84003Z" fill="#FC6406"/>
<path d="M16.173 8.64001C14.773 8.64001 13.6396 9.77335 13.6396 11.1733C13.6396 12.5733 14.773 13.7067 16.173 13.7067C17.573 13.7067 18.7063 12.5733 18.7063 11.1733C18.7063 9.77335 17.573 8.64001 16.173 8.64001Z" fill="white"/>
</g>
<defs>
<clipPath id="clip0_1119_4962">
<rect width="32" height="32" fill="white"/>
</clipPath>
</defs>
</svg>
