<svg width="32" height="32" viewBox="0 0 32 32" fill="none" xmlns="http://www.w3.org/2000/svg">
<path d="M14.5359 2.5511C15.0184 1.14963 16.9816 1.14963 17.4641 2.5511L19.9565 9.79049C20.1694 10.4087 20.7409 10.8279 21.3891 10.8413L28.9788 10.9974C30.4481 11.0277 31.0548 12.9126 29.8837 13.809L23.8343 18.4394C23.3177 18.8348 23.0994 19.5131 23.2872 20.1396L25.4854 27.4755C25.911 28.8956 24.3228 30.0606 23.1165 29.2131L16.8853 24.8355C16.3532 24.4616 15.6468 24.4616 15.1147 24.8355L8.88351 29.2131C7.67722 30.0606 6.08901 28.8956 6.51457 27.4755L8.71284 20.1396C8.90057 19.5131 8.68228 18.8348 8.16567 18.4394L2.11633 13.809C0.945249 12.9127 1.55189 11.0277 3.02119 10.9974L10.6109 10.8413C11.2591 10.8279 11.8306 10.4087 12.0435 9.79049L14.5359 2.5511Z" fill="#FC7521"/>
</svg>
